0
SECTION
2
HEADER
9
$ACADVER
1
AC1009
9
$TEXTSIZE
40
3.500000
9
$DIMTXT
40
2.500000
9
$DIMASZ
40
2.500000
9
$DIMDEC
70
2
9
$DIMADEC
70
2
0
ENDSEC
0
SECTION
2
TABLES
0
TABLE
2
LAYER
70
1
0
LAYER
2
0
70
0
62
7
6
CONTINUOUS
0
ENDTAB
0
ENDSEC
0
SECTION
2
BLOCKS
0
BLOCK
2
*D0
70
1
62
7
10
0
20
0
30
0
0
ENDBLK
0
ENDSEC
0
SECTION
2
ENTITIES
0
POLYLINE
8
0
66
1
10
0
20
0
30
0
70
8
0
VERTEX
8
0
10
3.0964
20
38
30
-8.1167
70
32
0
VERTEX
8
0
10
3.0891
20
38
30
-8.0757
70
32
0
VERTEX
8
0
10
3.079
20
38
30
-8.0186
70
32
0
VERTEX
8
0
10
3.0667
20
38
30
-7.9455
70
32
0
VERTEX
8
0
10
3.0522
20
38
30
-7.8565
70
32
0
VERTEX
8
0
10
3.0351
20
38
30
-7.7519
70
32
0
VERTEX
8
0
10
3.0153
20
38
30
-7.632
70
32
0
VERTEX
8
0
10
2.9922
20
38
30
-7.4972
70
32
0
VERTEX
8
0
10
2.9655
20
38
30
-7.3479
70
32
0
VERTEX
8
0
10
2.9349
20
38
30
-7.1846
70
32
0
VERTEX
8
0
10
2.9
20
38
30
-7.0076
70
32
0
VERTEX
8
0
10
2.8608
20
38
30
-6.8176
70
32
0
VERTEX
8
0
10
2.8171
20
38
30
-6.615
70
32
0
VERTEX
8
0
10
2.7689
20
38
30
-6.4005
70
32
0
VERTEX
8
0
10
2.716
20
38
30
-6.1745
70
32
0
VERTEX
8
0
10
2.6581
20
38
30
-5.9379
70
32
0
VERTEX
8
0
10
2.5949
20
38
30
-5.6915
70
32
0
VERTEX
8
0
10
2.527
20
38
30
-5.4356
70
32
0
VERTEX
8
0
10
2.4554
20
38
30
-5.1707
70
32
0
VERTEX
8
0
10
2.3808
20
38
30
-4.8971
70
32
0
VERTEX
8
0
10
2.3036
20
38
30
-4.6155
70
32
0
VERTEX
8
0
10
2.2241
20
38
30
-4.3264
70
32
0
VERTEX
8
0
10
2.1422
20
38
30
-4.0307
70
32
0
VERTEX
8
0
10
2.058
20
38
30
-3.7291
70
32
0
VERTEX
8
0
10
1.9717
20
38
30
-3.4222
70
32
0
VERTEX
8
0
10
1.8832
20
38
30
-3.111
70
32
0
VERTEX
8
0
10
1.7926
20
38
30
-2.7961
70
32
0
VERTEX
8
0
10
1.6997
20
38
30
-2.4785
70
32
0
VERTEX
8
0
10
1.6044
20
38
30
-2.159
70
32
0
VERTEX
8
0
10
1.5064
20
38
30
-1.8384
70
32
0
VERTEX
8
0
10
1.4056
20
38
30
-1.5178
70
32
0
VERTEX
8
0
10
1.3021
20
38
30
-1.198
70
32
0
VERTEX
8
0
10
1.1957
20
38
30
-0.8798
70
32
0
VERTEX
8
0
10
1.0866
20
38
30
-0.5642
70
32
0
VERTEX
8
0
10
0.9747
20
38
30
-0.252
70
32
0
VERTEX
8
0
10
0.8602
20
38
30
0.0558
70
32
0
VERTEX
8
0
10
0.7435
20
38
30
0.3585
70
32
0
VERTEX
8
0
10
0.6248
20
38
30
0.6552
70
32
0
VERTEX
8
0
10
0.5047
20
38
30
0.9454
70
32
0
VERTEX
8
0
10
0.3838
20
38
30
1.2282
70
32
0
VERTEX
8
0
10
0.2622
20
38
30
1.5029
70
32
0
VERTEX
8
0
10
0.1408
20
38
30
1.7691
70
32
0
VERTEX
8
0
10
0.0199
20
38
30
2.026
70
32
0
VERTEX
8
0
10
-0.1
20
38
30
2.2731
70
32
0
VERTEX
8
0
10
-0.2182
20
38
30
2.5098
70
32
0
VERTEX
8
0
10
-0.3347
20
38
30
2.7355
70
32
0
VERTEX
8
0
10
-0.4488
20
38
30
2.9497
70
32
0
VERTEX
8
0
10
-0.5605
20
38
30
3.1517
70
32
0
VERTEX
8
0
10
-0.6691
20
38
30
3.3411
70
32
0
VERTEX
8
0
10
-0.7741
20
38
30
3.5174
70
32
0
VERTEX
8
0
10
-0.8756
20
38
30
3.68
70
32
0
VERTEX
8
0
10
-0.9736
20
38
30
3.8284
70
32
0
VERTEX
8
0
10
-1.0659
20
38
30
3.9627
70
32
0
VERTEX
8
0
10
-1.1516
20
38
30
4.0828
70
32
0
VERTEX
8
0
10
-1.2366
20
38
30
4.1861
70
32
0
VERTEX
8
0
10
-1.3243
20
38
30
4.269
70
32
0
VERTEX
8
0
10
-1.4131
20
38
30
4.3267
70
32
0
VERTEX
8
0
10
-1.4966
20
38
30
4.361
70
32
0
VERTEX
8
0
10
-1.5686
20
38
30
4.3769
70
32
0
VERTEX
8
0
10
-1.6261
20
38
30
4.3791
70
32
0
VERTEX
8
0
10
-1.6667
20
38
30
4.3708
70
32
0
VERTEX
8
0
10
-1.7018
20
38
30
4.3496
70
32
0
VERTEX
8
0
10
-1.7355
20
38
30
4.3059
70
32
0
VERTEX
8
0
10
-1.7625
20
38
30
4.2417
70
32
0
VERTEX
8
0
10
-1.7811
20
38
30
4.1575
70
32
0
VERTEX
8
0
10
-1.7853
20
38
30
4.0544
70
32
0
VERTEX
8
0
10
-1.7695
20
38
30
3.935
70
32
0
VERTEX
8
0
10
-1.7361
20
38
30
3.804
70
32
0
VERTEX
8
0
10
-1.6908
20
38
30
3.6616
70
32
0
VERTEX
8
0
10
-1.6402
20
38
30
3.5056
70
32
0
VERTEX
8
0
10
-1.5839
20
38
30
3.3366
70
32
0
VERTEX
8
0
10
-1.5207
20
38
30
3.1556
70
32
0
VERTEX
8
0
10
-1.4511
20
38
30
2.963
70
32
0
VERTEX
8
0
10
-1.3758
20
38
30
2.7591
70
32
0
VERTEX
8
0
10
-1.295
20
38
30
2.5443
70
32
0
VERTEX
8
0
10
-1.2088
20
38
30
2.3192
70
32
0
VERTEX
8
0
10
-1.1176
20
38
30
2.0843
70
32
0
VERTEX
8
0
10
-1.0218
20
38
30
1.8402
70
32
0
VERTEX
8
0
10
-0.9218
20
38
30
1.5873
70
32
0
VERTEX
8
0
10
-0.8177
20
38
30
1.3263
70
32
0
VERTEX
8
0
10
-0.7099
20
38
30
1.0577
70
32
0
VERTEX
8
0
10
-0.5988
20
38
30
0.7822
70
32
0
VERTEX
8
0
10
-0.4847
20
38
30
0.5004
70
32
0
VERTEX
8
0
10
-0.368
20
38
30
0.2129
70
32
0
VERTEX
8
0
10
-0.249
20
38
30
-0.0795
70
32
0
VERTEX
8
0
10
-0.1281
20
38
30
-0.3763
70
32
0
VERTEX
8
0
10
-0.0056
20
38
30
-0.6766
70
32
0
VERTEX
8
0
10
0.1181
20
38
30
-0.98
70
32
0
VERTEX
8
0
10
0.2427
20
38
30
-1.2855
70
32
0
VERTEX
8
0
10
0.3679
20
38
30
-1.5926
70
32
0
VERTEX
8
0
10
0.4932
20
38
30
-1.9004
70
32
0
VERTEX
8
0
10
0.6184
20
38
30
-2.2083
70
32
0
VERTEX
8
0
10
0.7431
20
38
30
-2.5155
70
32
0
VERTEX
8
0
10
0.867
20
38
30
-2.8214
70
32
0
VERTEX
8
0
10
0.9897
20
38
30
-3.1251
70
32
0
VERTEX
8
0
10
1.1111
20
38
30
-3.426
70
32
0
VERTEX
8
0
10
1.2307
20
38
30
-3.7233
70
32
0
VERTEX
8
0
10
1.3483
20
38
30
-4.0163
70
32
0
VERTEX
8
0
10
1.4636
20
38
30
-4.3043
70
32
0
VERTEX
8
0
10
1.5763
20
38
30
-4.5867
70
32
0
VERTEX
8
0
10
1.6862
20
38
30
-4.8627
70
32
0
VERTEX
8
0
10
1.7928
20
38
30
-5.1317
70
32
0
VERTEX
8
0
10
1.8961
20
38
30
-5.3931
70
32
0
VERTEX
8
0
10
1.9961
20
38
30
-5.646
70
32
0
VERTEX
8
0
10
2.0933
20
38
30
-5.8897
70
32
0
VERTEX
8
0
10
2.1881
20
38
30
-6.1231
70
32
0
VERTEX
8
0
10
2.2809
20
38
30
-6.3454
70
32
0
VERTEX
8
0
10
2.371
20
38
30
-6.5564
70
32
0
VERTEX
8
0
10
2.4578
20
38
30
-6.7555
70
32
0
VERTEX
8
0
10
2.5408
20
38
30
-6.9424
70
32
0
VERTEX
8
0
10
2.6197
20
38
30
-7.1167
70
32
0
VERTEX
8
0
10
2.6942
20
38
30
-7.2781
70
32
0
VERTEX
8
0
10
2.7638
20
38
30
-7.4263
70
32
0
VERTEX
8
0
10
2.828
20
38
30
-7.5611
70
32
0
VERTEX
8
0
10
2.8865
20
38
30
-7.6822
70
32
0
VERTEX
8
0
10
2.9388
20
38
30
-7.7897
70
32
0
VERTEX
8
0
10
2.9844
20
38
30
-7.8833
70
32
0
VERTEX
8
0
10
3.0231
20
38
30
-7.9629
70
32
0
VERTEX
8
0
10
3.0547
20
38
30
-8.0285
70
32
0
VERTEX
8
0
10
3.079
20
38
30
-8.0798
70
32
0
VERTEX
8
0
10
3.0964
20
38
30
-8.1167
70
32
0
VERTEX
8
0
10
4.6765
20
47.5
30
-9.6048
70
32
0
VERTEX
8
0
10
4.6624
20
47.5
30
-9.5554
70
32
0
VERTEX
8
0
10
4.643
20
47.5
30
-9.4867
70
32
0
VERTEX
8
0
10
4.6192
20
47.5
30
-9.3985
70
32
0
VERTEX
8
0
10
4.591
20
47.5
30
-9.2911
70
32
0
VERTEX
8
0
10
4.5582
20
47.5
30
-9.1648
70
32
0
VERTEX
8
0
10
4.5205
20
47.5
30
-9.02
70
32
0
VERTEX
8
0
10
4.4774
20
47.5
30
-8.8571
70
32
0
VERTEX
8
0
10
4.4285
20
47.5
30
-8.6769
70
32
0
VERTEX
8
0
10
4.3736
20
47.5
30
-8.4797
70
32
0
VERTEX
8
0
10
4.3124
20
47.5
30
-8.2662
70
32
0
VERTEX
8
0
10
4.2449
20
47.5
30
-8.0369
70
32
0
VERTEX
8
0
10
4.1712
20
47.5
30
-7.7925
70
32
0
VERTEX
8
0
10
4.0914
20
47.5
30
-7.5337
70
32
0
VERTEX
8
0
10
4.0055
20
47.5
30
-7.261
70
32
0
VERTEX
8
0
10
3.9135
20
47.5
30
-6.9754
70
32
0
VERTEX
8
0
10
3.8151
20
47.5
30
-6.6777
70
32
0
VERTEX
8
0
10
3.711
20
47.5
30
-6.3686
70
32
0
VERTEX
8
0
10
3.6019
20
47.5
30
-6.0484
70
32
0
VERTEX
8
0
10
3.4885
20
47.5
30
-5.7179
70
32
0
VERTEX
8
0
10
3.3713
20
47.5
30
-5.3777
70
32
0
VERTEX
8
0
10
3.2504
20
47.5
30
-5.0285
70
32
0
VERTEX
8
0
10
3.1259
20
47.5
30
-4.6714
70
32
0
VERTEX
8
0
10
2.998
20
47.5
30
-4.3073
70
32
0
VERTEX
8
0
10
2.8668
20
47.5
30
-3.9371
70
32
0
VERTEX
8
0
10
2.7324
20
47.5
30
-3.5617
70
32
0
VERTEX
8
0
10
2.5947
20
47.5
30
-3.1822
70
32
0
VERTEX
8
0
10
2.4536
20
47.5
30
-2.7996
70
32
0
VERTEX
8
0
10
2.3089
20
47.5
30
-2.4151
70
32
0
VERTEX
8
0
10
2.1601
20
47.5
30
-2.0299
70
32
0
VERTEX
8
0
10
2.0072
20
47.5
30
-1.6452
70
32
0
VERTEX
8
0
10
1.8501
20
47.5
30
-1.262
70
32
0
VERTEX
8
0
10
1.6888
20
47.5
30
-0.8816
70
32
0
VERTEX
8
0
10
1.5235
20
47.5
30
-0.505
70
32
0
VERTEX
8
0
10
1.3541
20
47.5
30
-0.1334
70
32
0
VERTEX
8
0
10
1.1807
20
47.5
30
0.2321
70
32
0
VERTEX
8
0
10
1.0042
20
47.5
30
0.5905
70
32
0
VERTEX
8
0
10
0.825
20
47.5
30
0.941
70
32
0
VERTEX
8
0
10
0.6436
20
47.5
30
1.2826
70
32
0
VERTEX
8
0
10
0.461
20
47.5
30
1.6146
70
32
0
VERTEX
8
0
10
0.2778
20
47.5
30
1.9361
70
32
0
VERTEX
8
0
10
0.0947
20
47.5
30
2.2466
70
32
0
VERTEX
8
0
10
-0.0872
20
47.5
30
2.5454
70
32
0
VERTEX
8
0
10
-0.2675
20
47.5
30
2.8318
70
32
0
VERTEX
8
0
10
-0.4453
20
47.5
30
3.1052
70
32
0
VERTEX
8
0
10
-0.6202
20
47.5
30
3.3648
70
32
0
VERTEX
8
0
10
-0.7916
20
47.5
30
3.6102
70
32
0
VERTEX
8
0
10
-0.9589
20
47.5
30
3.8405
70
32
0
VERTEX
8
0
10
-1.1215
20
47.5
30
4.0552
70
32
0
VERTEX
8
0
10
-1.2787
20
47.5
30
4.2538
70
32
0
VERTEX
8
0
10
-1.4303
20
47.5
30
4.4357
70
32
0
VERTEX
8
0
10
-1.5759
20
47.5
30
4.6002
70
32
0
VERTEX
8
0
10
-1.7135
20
47.5
30
4.7475
70
32
0
VERTEX
8
0
10
-1.8423
20
47.5
30
4.8774
70
32
0
VERTEX
8
0
10
-1.966
20
47.5
30
4.9873
70
32
0
VERTEX
8
0
10
-2.0867
20
47.5
30
5.0744
70
32
0
VERTEX
8
0
10
-2.2023
20
47.5
30
5.1348
70
32
0
VERTEX
8
0
10
-2.3076
20
47.5
30
5.1703
70
32
0
VERTEX
8
0
10
-2.3971
20
47.5
30
5.1859
70
32
0
VERTEX
8
0
10
-2.468
20
47.5
30
5.1857
70
32
0
VERTEX
8
0
10
-2.5173
20
47.5
30
5.1722
70
32
0
VERTEX
8
0
10
-2.5569
20
47.5
30
5.1413
70
32
0
VERTEX
8
0
10
-2.5886
20
47.5
30
5.0809
70
32
0
VERTEX
8
0
10
-2.6062
20
47.5
30
4.9963
70
32
0
VERTEX
8
0
10
-2.6108
20
47.5
30
4.8898
70
32
0
VERTEX
8
0
10
-2.5985
20
47.5
30
4.7632
70
32
0
VERTEX
8
0
10
-2.5647
20
47.5
30
4.6195
70
32
0
VERTEX
8
0
10
-2.5119
20
47.5
30
4.4622
70
32
0
VERTEX
8
0
10
-2.4449
20
47.5
30
4.2913
70
32
0
VERTEX
8
0
10
-2.3687
20
47.5
30
4.1048
70
32
0
VERTEX
8
0
10
-2.2832
20
47.5
30
3.9035
70
32
0
VERTEX
8
0
10
-2.1876
20
47.5
30
3.6883
70
32
0
VERTEX
8
0
10
-2.0827
20
47.5
30
3.4598
70
32
0
VERTEX
8
0
10
-1.9692
20
47.5
30
3.2182
70
32
0
VERTEX
8
0
10
-1.8472
20
47.5
30
2.9642
70
32
0
VERTEX
8
0
10
-1.7172
20
47.5
30
2.6983
70
32
0
VERTEX
8
0
10
-1.5798
20
47.5
30
2.4212
70
32
0
VERTEX
8
0
10
-1.4354
20
47.5
30
2.1333
70
32
0
VERTEX
8
0
10
-1.2846
20
47.5
30
1.8354
70
32
0
VERTEX
8
0
10
-1.1277
20
47.5
30
1.528
70
32
0
VERTEX
8
0
10
-0.9653
20
47.5
30
1.212
70
32
0
VERTEX
8
0
10
-0.7979
20
47.5
30
0.8879
70
32
0
VERTEX
8
0
10
-0.6261
20
47.5
30
0.5565
70
32
0
VERTEX
8
0
10
-0.4503
20
47.5
30
0.2186
70
32
0
VERTEX
8
0
10
-0.271
20
47.5
30
-0.1252
70
32
0
VERTEX
8
0
10
-0.0889
20
47.5
30
-0.4739
70
32
0
VERTEX
8
0
10
0.0956
20
47.5
30
-0.827
70
32
0
VERTEX
8
0
10
0.282
20
47.5
30
-1.1834
70
32
0
VERTEX
8
0
10
0.4697
20
47.5
30
-1.5425
70
32
0
VERTEX
8
0
10
0.6582
20
47.5
30
-1.9034
70
32
0
VERTEX
8
0
10
0.8469
20
47.5
30
-2.2652
70
32
0
VERTEX
8
0
10
1.0355
20
47.5
30
-2.6271
70
32
0
VERTEX
8
0
10
1.2234
20
47.5
30
-2.9884
70
32
0
VERTEX
8
0
10
1.41
20
47.5
30
-3.348
70
32
0
VERTEX
8
0
10
1.595
20
47.5
30
-3.7052
70
32
0
VERTEX
8
0
10
1.7778
20
47.5
30
-4.0591
70
32
0
VERTEX
8
0
10
1.958
20
47.5
30
-4.4089
70
32
0
VERTEX
8
0
10
2.1352
20
47.5
30
-4.7537
70
32
0
VERTEX
8
0
10
2.3089
20
47.5
30
-5.0928
70
32
0
VERTEX
8
0
10
2.4787
20
47.5
30
-5.4253
70
32
0
VERTEX
8
0
10
2.6442
20
47.5
30
-5.7503
70
32
0
VERTEX
8
0
10
2.805
20
47.5
30
-6.0672
70
32
0
VERTEX
8
0
10
2.9608
20
47.5
30
-6.3751
70
32
0
VERTEX
8
0
10
3.1114
20
47.5
30
-6.6732
70
32
0
VERTEX
8
0
10
3.2569
20
47.5
30
-6.9605
70
32
0
VERTEX
8
0
10
3.3976
20
47.5
30
-7.2359
70
32
0
VERTEX
8
0
10
3.5336
20
47.5
30
-7.4987
70
32
0
VERTEX
8
0
10
3.6642
20
47.5
30
-7.7483
70
32
0
VERTEX
8
0
10
3.7888
20
47.5
30
-7.9841
70
32
0
VERTEX
8
0
10
3.907
20
47.5
30
-8.2058
70
32
0
VERTEX
8
0
10
4.0186
20
47.5
30
-8.4127
70
32
0
VERTEX
8
0
10
4.1231
20
47.5
30
-8.6044
70
32
0
VERTEX
8
0
10
4.2202
20
47.5
30
-8.7806
70
32
0
VERTEX
8
0
10
4.3094
20
47.5
30
-8.9409
70
32
0
VERTEX
8
0
10
4.3902
20
47.5
30
-9.0852
70
32
0
VERTEX
8
0
10
4.462
20
47.5
30
-9.2132
70
32
0
VERTEX
8
0
10
4.5245
20
47.5
30
-9.325
70
32
0
VERTEX
8
0
10
4.5773
20
47.5
30
-9.4202
70
32
0
VERTEX
8
0
10
4.6202
20
47.5
30
-9.4987
70
32
0
VERTEX
8
0
10
4.6531
20
47.5
30
-9.5604
70
32
0
VERTEX
8
0
10
4.6765
20
47.5
30
-9.6048
70
32
0
VERTEX
8
0
10
6.1024
20
57
30
-10.3234
70
32
0
VERTEX
8
0
10
6.0814
20
57
30
-10.2696
70
32
0
VERTEX
8
0
10
6.0525
20
57
30
-10.1947
70
32
0
VERTEX
8
0
10
6.017
20
57
30
-10.0983
70
32
0
VERTEX
8
0
10
5.9749
20
57
30
-9.9807
70
32
0
VERTEX
8
0
10
5.9262
20
57
30
-9.8423
70
32
0
VERTEX
8
0
10
5.8705
20
57
30
-9.6836
70
32
0
VERTEX
8
0
10
5.8074
20
57
30
-9.505
70
32
0
VERTEX
8
0
10
5.7365
20
57
30
-9.3074
70
32
0
VERTEX
8
0
10
5.6575
20
57
30
-9.0912
70
32
0
VERTEX
8
0
10
5.5705
20
57
30
-8.8572
70
32
0
VERTEX
8
0
10
5.4755
20
57
30
-8.6058
70
32
0
VERTEX
8
0
10
5.3729
20
57
30
-8.3378
70
32
0
VERTEX
8
0
10
5.263
20
57
30
-8.0537
70
32
0
VERTEX
8
0
10
5.146
20
57
30
-7.7542
70
32
0
VERTEX
8
0
10
5.0222
20
57
30
-7.4402
70
32
0
VERTEX
8
0
10
4.8915
20
57
30
-7.1125
70
32
0
VERTEX
8
0
10
4.7544
20
57
30
-6.7719
70
32
0
VERTEX
8
0
10
4.6114
20
57
30
-6.419
70
32
0
VERTEX
8
0
10
4.4631
20
57
30
-6.0546
70
32
0
VERTEX
8
0
10
4.3097
20
57
30
-5.6797
70
32
0
VERTEX
8
0
10
4.1514
20
57
30
-5.2951
70
32
0
VERTEX
8
0
10
3.9884
20
57
30
-4.9019
70
32
0
VERTEX
8
0
10
3.8209
20
57
30
-4.5011
70
32
0
VERTEX
8
0
10
3.6491
20
57
30
-4.0937
70
32
0
VERTEX
8
0
10
3.4731
20
57
30
-3.6809
70
32
0
VERTEX
8
0
10
3.2929
20
57
30
-3.2639
70
32
0
VERTEX
8
0
10
3.1082
20
57
30
-2.8438
70
32
0
VERTEX
8
0
10
2.9188
20
57
30
-2.4222
70
32
0
VERTEX
8
0
10
2.724
20
57
30
-2.0005
70
32
0
VERTEX
8
0
10
2.5238
20
57
30
-1.5801
70
32
0
VERTEX
8
0
10
2.3183
20
57
30
-1.1621
70
32
0
VERTEX
8
0
10
2.1072
20
57
30
-0.7481
70
32
0
VERTEX
8
0
10
1.8909
20
57
30
-0.3393
70
32
0
VERTEX
8
0
10
1.6694
20
57
30
0.0629
70
32
0
VERTEX
8
0
10
1.4428
20
57
30
0.4572
70
32
0
VERTEX
8
0
10
1.2122
20
57
30
0.8426
70
32
0
VERTEX
8
0
10
0.978
20
57
30
1.2182
70
32
0
VERTEX
8
0
10
0.7412
20
57
30
1.5829
70
32
0
VERTEX
8
0
10
0.503
20
57
30
1.9362
70
32
0
VERTEX
8
0
10
0.2639
20
57
30
2.2769
70
32
0
VERTEX
8
0
10
0.0254
20
57
30
2.6047
70
32
0
VERTEX
8
0
10
-0.2117
20
57
30
2.9189
70
32
0
VERTEX
8
0
10
-0.4465
20
57
30
3.2188
70
32
0
VERTEX
8
0
10
-0.6779
20
57
30
3.5039
70
32
0
VERTEX
8
0
10
-0.9053
20
57
30
3.7733
70
32
0
VERTEX
8
0
10
-1.1279
20
57
30
4.0265
70
32
0
VERTEX
8
0
10
-1.3451
20
57
30
4.2627
70
32
0
VERTEX
8
0
10
-1.5561
20
57
30
4.4814
70
32
0
VERTEX
8
0
10
-1.76
20
57
30
4.6819
70
32
0
VERTEX
8
0
10
-1.9562
20
57
30
4.8638
70
32
0
VERTEX
8
0
10
-2.1439
20
57
30
5.0265
70
32
0
VERTEX
8
0
10
-2.3218
20
57
30
5.1699
70
32
0
VERTEX
8
0
10
-2.4888
20
57
30
5.2938
70
32
0
VERTEX
8
0
10
-2.6459
20
57
30
5.3967
70
32
0
VERTEX
8
0
10
-2.7931
20
57
30
5.4773
70
32
0
VERTEX
8
0
10
-2.9286
20
57
30
5.5336
70
32
0
VERTEX
8
0
10
-3.049
20
57
30
5.5668
70
32
0
VERTEX
8
0
10
-3.1505
20
57
30
5.5806
70
32
0
VERTEX
8
0
10
-3.2304
20
57
30
5.5777
70
32
0
VERTEX
8
0
10
-3.2849
20
57
30
5.5593
70
32
0
VERTEX
8
0
10
-3.3253
20
57
30
5.5201
70
32
0
VERTEX
8
0
10
-3.3495
20
57
30
5.4464
70
32
0
VERTEX
8
0
10
-3.3518
20
57
30
5.3475
70
32
0
VERTEX
8
0
10
-3.3371
20
57
30
5.2273
70
32
0
VERTEX
8
0
10
-3.3048
20
57
30
5.0876
70
32
0
VERTEX
8
0
10
-3.2524
20
57
30
4.9308
70
32
0
VERTEX
8
0
10
-3.1817
20
57
30
4.7587
70
32
0
VERTEX
8
0
10
-3.0955
20
57
30
4.5716
70
32
0
VERTEX
8
0
10
-2.9964
20
57
30
4.3686
70
32
0
VERTEX
8
0
10
-2.8845
20
57
30
4.1504
70
32
0
VERTEX
8
0
10
-2.7599
20
57
30
3.9178
70
32
0
VERTEX
8
0
10
-2.6233
20
57
30
3.6713
70
32
0
VERTEX
8
0
10
-2.4753
20
57
30
3.4112
70
32
0
VERTEX
8
0
10
-2.3163
20
57
30
3.1383
70
32
0
VERTEX
8
0
10
-2.1469
20
57
30
2.8531
70
32
0
VERTEX
8
0
10
-1.9679
20
57
30
2.5561
70
32
0
VERTEX
8
0
10
-1.7798
20
57
30
2.248
70
32
0
VERTEX
8
0
10
-1.5834
20
57
30
1.9294
70
32
0
VERTEX
8
0
10
-1.3791
20
57
30
1.601
70
32
0
VERTEX
8
0
10
-1.1676
20
57
30
1.2635
70
32
0
VERTEX
8
0
10
-0.9496
20
57
30
0.9176
70
32
0
VERTEX
8
0
10
-0.7259
20
57
30
0.564
70
32
0
VERTEX
8
0
10
-0.4969
20
57
30
0.2035
70
32
0
VERTEX
8
0
10
-0.2635
20
57
30
-0.163
70
32
0
VERTEX
8
0
10
-0.0263
20
57
30
-0.5349
70
32
0
VERTEX
8
0
10
0.2139
20
57
30
-0.9113
70
32
0
VERTEX
8
0
10
0.4566
20
57
30
-1.2913
70
32
0
VERTEX
8
0
10
0.7009
20
57
30
-1.6741
70
32
0
VERTEX
8
0
10
0.9464
20
57
30
-2.0589
70
32
0
VERTEX
8
0
10
1.1922
20
57
30
-2.4447
70
32
0
VERTEX
8
0
10
1.4377
20
57
30
-2.8307
70
32
0
VERTEX
8
0
10
1.6823
20
57
30
-3.216
70
32
0
VERTEX
8
0
10
1.9253
20
57
30
-3.5997
70
32
0
VERTEX
8
0
10
2.1662
20
57
30
-3.9809
70
32
0
VERTEX
8
0
10
2.4043
20
57
30
-4.3587
70
32
0
VERTEX
8
0
10
2.639
20
57
30
-4.7321
70
32
0
VERTEX
8
0
10
2.8698
20
57
30
-5.1004
70
32
0
VERTEX
8
0
10
3.096
20
57
30
-5.4626
70
32
0
VERTEX
8
0
10
3.3171
20
57
30
-5.8178
70
32
0
VERTEX
8
0
10
3.5327
20
57
30
-6.1652
70
32
0
VERTEX
8
0
10
3.7422
20
57
30
-6.504
70
32
0
VERTEX
8
0
10
3.9451
20
57
30
-6.8332
70
32
0
VERTEX
8
0
10
4.1411
20
57
30
-7.1522
70
32
0
VERTEX
8
0
10
4.3299
20
57
30
-7.4598
70
32
0
VERTEX
8
0
10
4.5113
20
57
30
-7.7553
70
32
0
VERTEX
8
0
10
4.6852
20
57
30
-8.0377
70
32
0
VERTEX
8
0
10
4.851
20
57
30
-8.3065
70
32
0
VERTEX
8
0
10
5.0081
20
57
30
-8.561
70
32
0
VERTEX
8
0
10
5.1564
20
57
30
-8.8005
70
32
0
VERTEX
8
0
10
5.2956
20
57
30
-9.0245
70
32
0
VERTEX
8
0
10
5.4253
20
57
30
-9.2324
70
32
0
VERTEX
8
0
10
5.5453
20
57
30
-9.4236
70
32
0
VERTEX
8
0
10
5.6551
20
57
30
-9.5978
70
32
0
VERTEX
8
0
10
5.7542
20
57
30
-9.7548
70
32
0
VERTEX
8
0
10
5.8421
20
57
30
-9.8944
70
32
0
VERTEX
8
0
10
5.9182
20
57
30
-10.0163
70
32
0
VERTEX
8
0
10
5.9824
20
57
30
-10.1205
70
32
0
VERTEX
8
0
10
6.0345
20
57
30
-10.2066
70
32
0
VERTEX
8
0
10
6.0742
20
57
30
-10.2744
70
32
0
VERTEX
8
0
10
6.1024
20
57
30
-10.3234
70
32
0
VERTEX
8
0
10
7.3911
20
66.5
30
-10.647
70
32
0
VERTEX
8
0
10
7.3636
20
66.5
30
-10.5909
70
32
0
VERTEX
8
0
10
7.326
20
66.5
30
-10.5126
70
32
0
VERTEX
8
0
10
7.2795
20
66.5
30
-10.4117
70
32
0
VERTEX
8
0
10
7.2243
20
66.5
30
-10.2883
70
32
0
VERTEX
8
0
10
7.1605
20
66.5
30
-10.143
70
32
0
VERTEX
8
0
10
7.0876
20
66.5
30
-9.9761
70
32
0
VERTEX
8
0
10
7.0054
20
66.5
30
-9.7885
70
32
0
VERTEX
8
0
10
6.9134
20
66.5
30
-9.5808
70
32
0
VERTEX
8
0
10
6.8115
20
66.5
30
-9.3536
70
32
0
VERTEX
8
0
10
6.6998
20
66.5
30
-9.1076
70
32
0
VERTEX
8
0
10
6.5785
20
66.5
30
-8.8434
70
32
0
VERTEX
8
0
10
6.4482
20
66.5
30
-8.5616
70
32
0
VERTEX
8
0
10
6.3092
20
66.5
30
-8.2626
70
32
0
VERTEX
8
0
10
6.1622
20
66.5
30
-7.9473
70
32
0
VERTEX
8
0
10
6.0074
20
66.5
30
-7.6163
70
32
0
VERTEX
8
0
10
5.8451
20
66.5
30
-7.2705
70
32
0
VERTEX
8
0
10
5.6755
20
66.5
30
-6.9107
70
32
0
VERTEX
8
0
10
5.4992
20
66.5
30
-6.5379
70
32
0
VERTEX
8
0
10
5.3164
20
66.5
30
-6.153
70
32
0
VERTEX
8
0
10
5.1275
20
66.5
30
-5.757
70
32
0
VERTEX
8
0
10
4.9325
20
66.5
30
-5.3509
70
32
0
VERTEX
8
0
10
4.7317
20
66.5
30
-4.9359
70
32
0
VERTEX
8
0
10
4.5256
20
66.5
30
-4.513
70
32
0
VERTEX
8
0
10
4.3142
20
66.5
30
-4.0834
70
32
0
VERTEX
8
0
10
4.0978
20
66.5
30
-3.6483
70
32
0
VERTEX
8
0
10
3.8763
20
66.5
30
-3.2091
70
32
0
VERTEX
8
0
10
3.6495
20
66.5
30
-2.7671
70
32
0
VERTEX
8
0
10
3.4171
20
66.5
30
-2.3239
70
32
0
VERTEX
8
0
10
3.1784
20
66.5
30
-1.8813
70
32
0
VERTEX
8
0
10
2.9335
20
66.5
30
-1.4408
70
32
0
VERTEX
8
0
10
2.6823
20
66.5
30
-1.0038
70
32
0
VERTEX
8
0
10
2.4248
20
66.5
30
-0.5718
70
32
0
VERTEX
8
0
10
2.1614
20
66.5
30
-0.1464
70
32
0
VERTEX
8
0
10
1.8921
20
66.5
30
0.2711
70
32
0
VERTEX
8
0
10
1.617
20
66.5
30
0.679
70
32
0
VERTEX
8
0
10
1.3375
20
66.5
30
1.0766
70
32
0
VERTEX
8
0
10
1.0542
20
66.5
30
1.4626
70
32
0
VERTEX
8
0
10
0.7682
20
66.5
30
1.8362
70
32
0
VERTEX
8
0
10
0.4809
20
66.5
30
2.1968
70
32
0
VERTEX
8
0
10
0.193
20
66.5
30
2.5433
70
32
0
VERTEX
8
0
10
-0.0939
20
66.5
30
2.8754
70
32
0
VERTEX
8
0
10
-0.3786
20
66.5
30
3.1924
70
32
0
VERTEX
8
0
10
-0.6602
20
66.5
30
3.4938
70
32
0
VERTEX
8
0
10
-0.9373
20
66.5
30
3.779
70
32
0
VERTEX
8
0
10
-1.2094
20
66.5
30
4.0473
70
32
0
VERTEX
8
0
10
-1.4752
20
66.5
30
4.298
70
32
0
VERTEX
8
0
10
-1.7342
20
66.5
30
4.5305
70
32
0
VERTEX
8
0
10
-1.9853
20
66.5
30
4.7441
70
32
0
VERTEX
8
0
10
-2.2276
20
66.5
30
4.9384
70
32
0
VERTEX
8
0
10
-2.4603
20
66.5
30
5.1128
70
32
0
VERTEX
8
0
10
-2.6822
20
66.5
30
5.267
70
32
0
VERTEX
8
0
10
-2.8923
20
66.5
30
5.4006
70
32
0
VERTEX
8
0
10
-3.0896
20
66.5
30
5.5133
70
32
0
VERTEX
8
0
10
-3.2728
20
66.5
30
5.605
70
32
0
VERTEX
8
0
10
-3.4406
20
66.5
30
5.6758
70
32
0
VERTEX
8
0
10
-3.5916
20
66.5
30
5.7252
70
32
0
VERTEX
8
0
10
-3.7237
20
66.5
30
5.7537
70
32
0
VERTEX
8
0
10
-3.8344
20
66.5
30
5.7638
70
32
0
VERTEX
8
0
10
-3.921
20
66.5
30
5.757
70
32
0
VERTEX
8
0
10
-3.9787
20
66.5
30
5.7338
70
32
0
VERTEX
8
0
10
-4.0182
20
66.5
30
5.6876
70
32
0
VERTEX
8
0
10
-4.0342
20
66.5
30
5.6043
70
32
0
VERTEX
8
0
10
-4.0217
20
66.5
30
5.4961
70
32
0
VERTEX
8
0
10
-3.989
20
66.5
30
5.3677
70
32
0
VERTEX
8
0
10
-3.9382
20
66.5
30
5.2206
70
32
0
VERTEX
8
0
10
-3.8684
20
66.5
30
5.0565
70
32
0
VERTEX
8
0
10
-3.7804
20
66.5
30
4.8759
70
32
0
VERTEX
8
0
10
-3.6757
20
66.5
30
4.6794
70
32
0
VERTEX
8
0
10
-3.555
20
66.5
30
4.4673
70
32
0
VERTEX
8
0
10
-3.4186
20
66.5
30
4.2404
70
32
0
VERTEX
8
0
10
-3.2672
20
66.5
30
3.999
70
32
0
VERTEX
8
0
10
-3.1016
20
66.5
30
3.7436
70
32
0
VERTEX
8
0
10
-2.9222
20
66.5
30
3.4749
70
32
0
VERTEX
8
0
10
-2.7297
20
66.5
30
3.1934
70
32
0
VERTEX
8
0
10
-2.5248
20
66.5
30
2.8997
70
32
0
VERTEX
8
0
10
-2.3084
20
66.5
30
2.5942
70
32
0
VERTEX
8
0
10
-2.0812
20
66.5
30
2.2776
70
32
0
VERTEX
8
0
10
-1.8438
20
66.5
30
1.9504
70
32
0
VERTEX
8
0
10
-1.5971
20
66.5
30
1.6135
70
32
0
VERTEX
8
0
10
-1.3418
20
66.5
30
1.2674
70
32
0
VERTEX
8
0
10
-1.0788
20
66.5
30
0.9128
70
32
0
VERTEX
8
0
10
-0.8087
20
66.5
30
0.5506
70
32
0
VERTEX
8
0
10
-0.5325
20
66.5
30
0.1815
70
32
0
VERTEX
8
0
10
-0.2509
20
66.5
30
-0.1939
70
32
0
VERTEX
8
0
10
0.0353
20
66.5
30
-0.5746
70
32
0
VERTEX
8
0
10
0.3251
20
66.5
30
-0.9599
70
32
0
VERTEX
8
0
10
0.6178
20
66.5
30
-1.3489
70
32
0
VERTEX
8
0
10
0.9126
20
66.5
30
-1.7408
70
32
0
VERTEX
8
0
10
1.2087
20
66.5
30
-2.1348
70
32
0
VERTEX
8
0
10
1.5053
20
66.5
30
-2.5298
70
32
0
VERTEX
8
0
10
1.8015
20
66.5
30
-2.9251
70
32
0
VERTEX
8
0
10
2.0967
20
66.5
30
-3.3197
70
32
0
VERTEX
8
0
10
2.3899
20
66.5
30
-3.7128
70
32
0
VERTEX
8
0
10
2.6806
20
66.5
30
-4.1033
70
32
0
VERTEX
8
0
10
2.968
20
66.5
30
-4.4905
70
32
0
VERTEX
8
0
10
3.2513
20
66.5
30
-4.8733
70
32
0
VERTEX
8
0
10
3.5299
20
66.5
30
-5.2509
70
32
0
VERTEX
8
0
10
3.803
20
66.5
30
-5.6224
70
32
0
VERTEX
8
0
10
4.07
20
66.5
30
-5.9868
70
32
0
VERTEX
8
0
10
4.3303
20
66.5
30
-6.3434
70
32
0
VERTEX
8
0
10
4.5834
20
66.5
30
-6.6911
70
32
0
VERTEX
8
0
10
4.8286
20
66.5
30
-7.0292
70
32
0
VERTEX
8
0
10
5.0652
20
66.5
30
-7.3568
70
32
0
VERTEX
8
0
10
5.2929
20
66.5
30
-7.6731
70
32
0
VERTEX
8
0
10
5.5111
20
66.5
30
-7.9773
70
32
0
VERTEX
8
0
10
5.7193
20
66.5
30
-8.2687
70
32
0
VERTEX
8
0
10
5.9171
20
66.5
30
-8.5465
70
32
0
VERTEX
8
0
10
6.1041
20
66.5
30
-8.81
70
32
0
VERTEX
8
0
10
6.28
20
66.5
30
-9.0583
70
32
0
VERTEX
8
0
10
6.4446
20
66.5
30
-9.2909
70
32
0
VERTEX
8
0
10
6.5977
20
66.5
30
-9.5069
70
32
0
VERTEX
8
0
10
6.7389
20
66.5
30
-9.7059
70
32
0
VERTEX
8
0
10
6.8678
20
66.5
30
-9.8874
70
32
0
VERTEX
8
0
10
6.9841
20
66.5
30
-10.0511
70
32
0
VERTEX
8
0
10
7.087
20
66.5
30
-10.1968
70
32
0
VERTEX
8
0
10
7.176
20
66.5
30
-10.3244
70
32
0
VERTEX
8
0
10
7.2511
20
66.5
30
-10.4336
70
32
0
VERTEX
8
0
10
7.3118
20
66.5
30
-10.524
70
32
0
VERTEX
8
0
10
7.3582
20
66.5
30
-10.5954
70
32
0
VERTEX
8
0
10
7.3911
20
66.5
30
-10.647
70
32
0
VERTEX
8
0
10
8.7317
20
76
30
-10.9677
70
32
0
VERTEX
8
0
10
8.6981
20
76
30
-10.9092
70
32
0
VERTEX
8
0
10
8.6519
20
76
30
-10.8273
70
32
0
VERTEX
8
0
10
8.5945
20
76
30
-10.7216
70
32
0
VERTEX
8
0
10
8.5262
20
76
30
-10.5924
70
32
0
VERTEX
8
0
10
8.447
20
76
30
-10.4401
70
32
0
VERTEX
8
0
10
8.3566
20
76
30
-10.2652
70
32
0
VERTEX
8
0
10
8.2546
20
76
30
-10.0685
70
32
0
VERTEX
8
0
10
8.1406
20
76
30
-9.8508
70
32
0
VERTEX
8
0
10
8.0145
20
76
30
-9.6128
70
32
0
VERTEX
8
0
10
7.8765
20
76
30
-9.3553
70
32
0
VERTEX
8
0
10
7.7269
20
76
30
-9.0787
70
32
0
VERTEX
8
0
10
7.5662
20
76
30
-8.7837
70
32
0
VERTEX
8
0
10
7.395
20
76
30
-8.4709
70
32
0
VERTEX
8
0
10
7.214
20
76
30
-8.141
70
32
0
VERTEX
8
0
10
7.0235
20
76
30
-7.7947
70
32
0
VERTEX
8
0
10
6.8238
20
76
30
-7.433
70
32
0
VERTEX
8
0
10
6.6153
20
76
30
-7.0567
70
32
0
VERTEX
8
0
10
6.3986
20
76
30
-6.6668
70
32
0
VERTEX
8
0
10
6.1741
20
76
30
-6.2643
70
32
0
VERTEX
8
0
10
5.942
20
76
30
-5.8503
70
32
0
VERTEX
8
0
10
5.7028
20
76
30
-5.4258
70
32
0
VERTEX
8
0
10
5.4567
20
76
30
-4.9921
70
32
0
VERTEX
8
0
10
5.2043
20
76
30
-4.5503
70
32
0
VERTEX
8
0
10
4.9457
20
76
30
-4.1016
70
32
0
VERTEX
8
0
10
4.6813
20
76
30
-3.6474
70
32
0
VERTEX
8
0
10
4.4111
20
76
30
-3.189
70
32
0
VERTEX
8
0
10
4.135
20
76
30
-2.728
70
32
0
VERTEX
8
0
10
3.8527
20
76
30
-2.2661
70
32
0
VERTEX
8
0
10
3.5638
20
76
30
-1.8054
70
32
0
VERTEX
8
0
10
3.2682
20
76
30
-1.3473
70
32
0
VERTEX
8
0
10
2.9662
20
76
30
-0.8933
70
32
0
VERTEX
8
0
10
2.6577
20
76
30
-0.4454
70
32
0
VERTEX
8
0
10
2.3432
20
76
30
-0.0048
70
32
0
VERTEX
8
0
10
2.0229
20
76
30
0.4266
70
32
0
VERTEX
8
0
10
1.6972
20
76
30
0.8474
70
32
0
VERTEX
8
0
10
1.3673
20
76
30
1.2567
70
32
0
VERTEX
8
0
10
1.0342
20
76
30
1.6533
70
32
0
VERTEX
8
0
10
0.699
20
76
30
2.0363
70
32
0
VERTEX
8
0
10
0.3634
20
76
30
2.4051
70
32
0
VERTEX
8
0
10
0.0281
20
76
30
2.7587
70
32
0
VERTEX
8
0
10
-0.3051
20
76
30
3.0968
70
32
0
VERTEX
8
0
10
-0.6349
20
76
30
3.4188
70
32
0
VERTEX
8
0
10
-0.9601
20
76
30
3.7241
70
32
0
VERTEX
8
0
10
-1.2794
20
76
30
4.0124
70
32
0
VERTEX
8
0
10
-1.592
20
76
30
4.2826
70
32
0
VERTEX
8
0
10
-1.8968
20
76
30
4.5344
70
32
0
VERTEX
8
0
10
-2.1927
20
76
30
4.7669
70
32
0
VERTEX
8
0
10
-2.4789
20
76
30
4.9797
70
32
0
VERTEX
8
0
10
-2.7542
20
76
30
5.1722
70
32
0
VERTEX
8
0
10
-3.0177
20
76
30
5.3439
70
32
0
VERTEX
8
0
10
-3.2681
20
76
30
5.4947
70
32
0
VERTEX
8
0
10
-3.5044
20
76
30
5.624
70
32
0
VERTEX
8
0
10
-3.7253
20
76
30
5.7317
70
32
0
VERTEX
8
0
10
-3.9296
20
76
30
5.8177
70
32
0
VERTEX
8
0
10
-4.1157
20
76
30
5.8822
70
32
0
VERTEX
8
0
10
-4.2821
20
76
30
5.9248
70
32
0
VERTEX
8
0
10
-4.4267
20
76
30
5.9461
70
32
0
VERTEX
8
0
10
-4.5469
20
76
30
5.9493
70
32
0
VERTEX
8
0
10
-4.6398
20
76
30
5.9358
70
32
0
VERTEX
8
0
10
-4.7005
20
76
30
5.9067
70
32
0
VERTEX
8
0
10
-4.7398
20
76
30
5.854
70
32
0
VERTEX
8
0
10
-4.7512
20
76
30
5.7629
70
32
0
VERTEX
8
0
10
-4.7301
20
76
30
5.647
70
32
0
VERTEX
8
0
10
-4.6857
20
76
30
5.5108
70
32
0
VERTEX
8
0
10
-4.6205
20
76
30
5.3556
70
32
0
VERTEX
8
0
10
-4.5335
20
76
30
5.1834
70
32
0
VERTEX
8
0
10
-4.4257
20
76
30
4.9948
70
32
0
VERTEX
8
0
10
-4.2988
20
76
30
4.7901
70
32
0
VERTEX
8
0
10
-4.1535
20
76
30
4.5697
70
32
0
VERTEX
8
0
10
-3.9902
20
76
30
4.3345
70
32
0
VERTEX
8
0
10
-3.8097
20
76
30
4.0846
70
32
0
VERTEX
8
0
10
-3.6128
20
76
30
3.8208
70
32
0
VERTEX
8
0
10
-3.4002
20
76
30
3.5434
70
32
0
VERTEX
8
0
10
-3.1725
20
76
30
3.2533
70
32
0
VERTEX
8
0
10
-2.9305
20
76
30
2.9508
70
32
0
VERTEX
8
0
10
-2.6753
20
76
30
2.6364
70
32
0
VERTEX
8
0
10
-2.4076
20
76
30
2.3107
70
32
0
VERTEX
8
0
10
-2.1283
20
76
30
1.9745
70
32
0
VERTEX
8
0
10
-1.8381
20
76
30
1.6283
70
32
0
VERTEX
8
0
10
-1.5381
20
76
30
1.2728
70
32
0
VERTEX
8
0
10
-1.229
20
76
30
0.9088
70
32
0
VERTEX
8
0
10
-0.9119
20
76
30
0.537
70
32
0
VERTEX
8
0
10
-0.5876
20
76
30
0.1581
70
32
0
VERTEX
8
0
10
-0.257
20
76
30
-0.227
70
32
0
VERTEX
8
0
10
0.0788
20
76
30
-0.6177
70
32
0
VERTEX
8
0
10
0.4189
20
76
30
-1.013
70
32
0
VERTEX
8
0
10
0.7624
20
76
30
-1.4121
70
32
0
VERTEX
8
0
10
1.1083
20
76
30
-1.8143
70
32
0
VERTEX
8
0
10
1.4558
20
76
30
-2.2184
70
32
0
VERTEX
8
0
10
1.8039
20
76
30
-2.6238
70
32
0
VERTEX
8
0
10
2.1517
20
76
30
-3.0294
70
32
0
VERTEX
8
0
10
2.4982
20
76
30
-3.4344
70
32
0
VERTEX
8
0
10
2.8425
20
76
30
-3.8379
70
32
0
VERTEX
8
0
10
3.184
20
76
30
-4.2388
70
32
0
VERTEX
8
0
10
3.5215
20
76
30
-4.6363
70
32
0
VERTEX
8
0
10
3.8545
20
76
30
-5.0294
70
32
0
VERTEX
8
0
10
4.1819
20
76
30
-5.4172
70
32
0
VERTEX
8
0
10
4.503
20
76
30
-5.7988
70
32
0
VERTEX
8
0
10
4.817
20
76
30
-6.1733
70
32
0
VERTEX
8
0
10
5.1232
20
76
30
-6.5396
70
32
0
VERTEX
8
0
10
5.421
20
76
30
-6.897
70
32
0
VERTEX
8
0
10
5.7096
20
76
30
-7.2445
70
32
0
VERTEX
8
0
10
5.9882
20
76
30
-7.5814
70
32
0
VERTEX
8
0
10
6.2564
20
76
30
-7.9066
70
32
0
VERTEX
8
0
10
6.5134
20
76
30
-8.2195
70
32
0
VERTEX
8
0
10
6.7588
20
76
30
-8.5193
70
32
0
VERTEX
8
0
10
6.9919
20
76
30
-8.8051
70
32
0
VERTEX
8
0
10
7.2124
20
76
30
-9.0762
70
32
0
VERTEX
8
0
10
7.4199
20
76
30
-9.3318
70
32
0
VERTEX
8
0
10
7.614
20
76
30
-9.5711
70
32
0
VERTEX
8
0
10
7.7945
20
76
30
-9.7935
70
32
0
VERTEX
8
0
10
7.9611
20
76
30
-9.9983
70
32
0
VERTEX
8
0
10
8.1131
20
76
30
-10.185
70
32
0
VERTEX
8
0
10
8.2502
20
76
30
-10.3534
70
32
0
VERTEX
8
0
10
8.3716
20
76
30
-10.5034
70
32
0
VERTEX
8
0
10
8.4767
20
76
30
-10.6348
70
32
0
VERTEX
8
0
10
8.5654
20
76
30
-10.7473
70
32
0
VERTEX
8
0
10
8.6374
20
76
30
-10.8406
70
32
0
VERTEX
8
0
10
8.6925
20
76
30
-10.9144
70
32
0
VERTEX
8
0
10
8.7317
20
76
30
-10.9677
70
32
0
VERTEX
8
0
10
9.7562
20
85.5
30
-10.8774
70
32
0
VERTEX
8
0
10
9.7177
20
85.5
30
-10.8185
70
32
0
VERTEX
8
0
10
9.6646
20
85.5
30
-10.7361
70
32
0
VERTEX
8
0
10
9.5984
20
85.5
30
-10.6297
70
32
0
VERTEX
8
0
10
9.5195
20
85.5
30
-10.4994
70
32
0
VERTEX
8
0
10
9.4278
20
85.5
30
-10.3458
70
32
0
VERTEX
8
0
10
9.323
20
85.5
30
-10.1693
70
32
0
VERTEX
8
0
10
9.2048
20
85.5
30
-9.9709
70
32
0
VERTEX
8
0
10
9.0728
20
85.5
30
-9.7514
70
32
0
VERTEX
8
0
10
8.9271
20
85.5
30
-9.5115
70
32
0
VERTEX
8
0
10
8.7677
20
85.5
30
-9.252
70
32
0
VERTEX
8
0
10
8.5951
20
85.5
30
-8.9734
70
32
0
VERTEX
8
0
10
8.4099
20
85.5
30
-8.6763
70
32
0
VERTEX
8
0
10
8.2127
20
85.5
30
-8.3613
70
32
0
VERTEX
8
0
10
8.0041
20
85.5
30
-8.0291
70
32
0
VERTEX
8
0
10
7.7847
20
85.5
30
-7.6804
70
32
0
VERTEX
8
0
10
7.5548
20
85.5
30
-7.3163
70
32
0
VERTEX
8
0
10
7.3149
20
85.5
30
-6.9375
70
32
0
VERTEX
8
0
10
7.0655
20
85.5
30
-6.5451
70
32
0
VERTEX
8
0
10
6.8073
20
85.5
30
-6.1401
70
32
0
VERTEX
8
0
10
6.5405
20
85.5
30
-5.7235
70
32
0
VERTEX
8
0
10
6.2656
20
85.5
30
-5.2965
70
32
0
VERTEX
8
0
10
5.9831
20
85.5
30
-4.8603
70
32
0
VERTEX
8
0
10
5.6934
20
85.5
30
-4.416
70
32
0
VERTEX
8
0
10
5.3969
20
85.5
30
-3.965
70
32
0
VERTEX
8
0
10
5.0939
20
85.5
30
-3.5085
70
32
0
VERTEX
8
0
10
4.7847
20
85.5
30
-3.0481
70
32
0
VERTEX
8
0
10
4.4693
20
85.5
30
-2.5854
70
32
0
VERTEX
8
0
10
4.1473
20
85.5
30
-2.1221
70
32
0
VERTEX
8
0
10
3.8185
20
85.5
30
-1.6604
70
32
0
VERTEX
8
0
10
3.4829
20
85.5
30
-1.2018
70
32
0
VERTEX
8
0
10
3.1409
20
85.5
30
-0.748
70
32
0
VERTEX
8
0
10
2.7925
20
85.5
30
-0.3008
70
32
0
VERTEX
8
0
10
2.4383
20
85.5
30
0.1383
70
32
0
VERTEX
8
0
10
2.0787
20
85.5
30
0.5677
70
32
0
VERTEX
8
0
10
1.714
20
85.5
30
0.9856
70
32
0
VERTEX
8
0
10
1.3457
20
85.5
30
1.3913
70
32
0
VERTEX
8
0
10
0.9749
20
85.5
30
1.7835
70
32
0
VERTEX
8
0
10
0.6027
20
85.5
30
2.1615
70
32
0
VERTEX
8
0
10
0.2309
20
85.5
30
2.5247
70
32
0
VERTEX
8
0
10
-0.1396
20
85.5
30
2.8721
70
32
0
VERTEX
8
0
10
-0.5069
20
85.5
30
3.2035
70
32
0
VERTEX
8
0
10
-0.8698
20
85.5
30
3.5183
70
32
0
VERTEX
8
0
10
-1.2268
20
85.5
30
3.8161
70
32
0
VERTEX
8
0
10
-1.5767
20
85.5
30
4.0965
70
32
0
VERTEX
8
0
10
-1.9185
20
85.5
30
4.3585
70
32
0
VERTEX
8
0
10
-2.251
20
85.5
30
4.6018
70
32
0
VERTEX
8
0
10
-2.5732
20
85.5
30
4.8257
70
32
0
VERTEX
8
0
10
-2.8839
20
85.5
30
5.0296
70
32
0
VERTEX
8
0
10
-3.1822
20
85.5
30
5.213
70
32
0
VERTEX
8
0
10
-3.4668
20
85.5
30
5.3756
70
32
0
VERTEX
8
0
10
-3.7366
20
85.5
30
5.5171
70
32
0
VERTEX
8
0
10
-3.9904
20
85.5
30
5.6372
70
32
0
VERTEX
8
0
10
-4.2268
20
85.5
30
5.7357
70
32
0
VERTEX
8
0
10
-4.4446
20
85.5
30
5.8127
70
32
0
VERTEX
8
0
10
-4.6422
20
85.5
30
5.8685
70
32
0
VERTEX
8
0
10
-4.8179
20
85.5
30
5.9026
70
32
0
VERTEX
8
0
10
-4.9697
20
85.5
30
5.916
70
32
0
VERTEX
8
0
10
-5.0949
20
85.5
30
5.9118
70
32
0
VERTEX
8
0
10
-5.1909
20
85.5
30
5.8922
70
32
0
VERTEX
8
0
10
-5.2522
20
85.5
30
5.8581
70
32
0
VERTEX
8
0
10
-5.2899
20
85.5
30
5.8009
70
32
0
VERTEX
8
0
10
-5.2962
20
85.5
30
5.7055
70
32
0
VERTEX
8
0
10
-5.2671
20
85.5
30
5.5862
70
32
0
VERTEX
8
0
10
-5.2126
20
85.5
30
5.4471
70
32
0
VERTEX
8
0
10
-5.1352
20
85.5
30
5.2897
70
32
0
VERTEX
8
0
10
-5.0342
20
85.5
30
5.1158
70
32
0
VERTEX
8
0
10
-4.9105
20
85.5
30
4.9261
70
32
0
VERTEX
8
0
10
-4.7659
20
85.5
30
4.7209
70
32
0
VERTEX
8
0
10
-4.6012
20
85.5
30
4.5006
70
32
0
VERTEX
8
0
10
-4.4169
20
85.5
30
4.2657
70
32
0
VERTEX
8
0
10
-4.2138
20
85.5
30
4.0168
70
32
0
VERTEX
8
0
10
-3.9928
20
85.5
30
3.7544
70
32
0
VERTEX
8
0
10
-3.7547
20
85.5
30
3.4788
70
32
0
VERTEX
8
0
10
-3.5
20
85.5
30
3.1908
70
32
0
VERTEX
8
0
10
-3.2297
20
85.5
30
2.8909
70
32
0
VERTEX
8
0
10
-2.9449
20
85.5
30
2.5794
70
32
0
VERTEX
8
0
10
-2.6464
20
85.5
30
2.2569
70
32
0
VERTEX
8
0
10
-2.3352
20
85.5
30
1.9241
70
32
0
VERTEX
8
0
10
-2.0121
20
85.5
30
1.5817
70
32
0
VERTEX
8
0
10
-1.6782
20
85.5
30
1.2302
70
32
0
VERTEX
8
0
10
-1.3344
20
85.5
30
0.8704
70
32
0
VERTEX
8
0
10
-0.9816
20
85.5
30
0.5029
70
32
0
VERTEX
8
0
10
-0.621
20
85.5
30
0.1286
70
32
0
VERTEX
8
0
10
-0.2536
20
85.5
30
-0.252
70
32
0
VERTEX
8
0
10
0.1197
20
85.5
30
-0.6379
70
32
0
VERTEX
8
0
10
0.4978
20
85.5
30
-1.0284
70
32
0
VERTEX
8
0
10
0.8797
20
85.5
30
-1.4227
70
32
0
VERTEX
8
0
10
1.2642
20
85.5
30
-1.8199
70
32
0
VERTEX
8
0
10
1.6505
20
85.5
30
-2.2191
70
32
0
VERTEX
8
0
10
2.0375
20
85.5
30
-2.6196
70
32
0
VERTEX
8
0
10
2.4241
20
85.5
30
-3.0204
70
32
0
VERTEX
8
0
10
2.8094
20
85.5
30
-3.4206
70
32
0
VERTEX
8
0
10
3.1924
20
85.5
30
-3.8193
70
32
0
VERTEX
8
0
10
3.5722
20
85.5
30
-4.2156
70
32
0
VERTEX
8
0
10
3.9478
20
85.5
30
-4.6085
70
32
0
VERTEX
8
0
10
4.3182
20
85.5
30
-4.9971
70
32
0
VERTEX
8
0
10
4.6826
20
85.5
30
-5.3806
70
32
0
VERTEX
8
0
10
5.0401
20
85.5
30
-5.758
70
32
0
VERTEX
8
0
10
5.3897
20
85.5
30
-6.1284
70
32
0
VERTEX
8
0
10
5.7308
20
85.5
30
-6.4908
70
32
0
VERTEX
8
0
10
6.0625
20
85.5
30
-6.8445
70
32
0
VERTEX
8
0
10
6.384
20
85.5
30
-7.1884
70
32
0
VERTEX
8
0
10
6.6945
20
85.5
30
-7.5218
70
32
0
VERTEX
8
0
10
6.9934
20
85.5
30
-7.8438
70
32
0
VERTEX
8
0
10
7.28
20
85.5
30
-8.1537
70
32
0
VERTEX
8
0
10
7.5537
20
85.5
30
-8.4505
70
32
0
VERTEX
8
0
10
7.8137
20
85.5
30
-8.7337
70
32
0
VERTEX
8
0
10
8.0597
20
85.5
30
-9.0023
70
32
0
VERTEX
8
0
10
8.2912
20
85.5
30
-9.2555
70
32
0
VERTEX
8
0
10
8.5079
20
85.5
30
-9.4926
70
32
0
VERTEX
8
0
10
8.7093
20
85.5
30
-9.7129
70
32
0
VERTEX
8
0
10
8.8951
20
85.5
30
-9.9158
70
32
0
VERTEX
8
0
10
9.0647
20
85.5
30
-10.1008
70
32
0
VERTEX
8
0
10
9.2177
20
85.5
30
-10.2677
70
32
0
VERTEX
8
0
10
9.3531
20
85.5
30
-10.4163
70
32
0
VERTEX
8
0
10
9.4706
20
85.5
30
-10.5466
70
32
0
VERTEX
8
0
10
9.5697
20
85.5
30
-10.6582
70
32
0
VERTEX
8
0
10
9.6503
20
85.5
30
-10.7508
70
32
0
VERTEX
8
0
10
9.7122
20
85.5
30
-10.8243
70
32
0
VERTEX
8
0
10
9.7562
20
85.5
30
-10.8774
70
32
0
VERTEX
8
0
10
10.4469
20
95
30
-10.4823
70
32
0
VERTEX
8
0
10
10.4048
20
95
30
-10.4248
70
32
0
VERTEX
8
0
10
10.3467
20
95
30
-10.3443
70
32
0
VERTEX
8
0
10
10.2742
20
95
30
-10.2402
70
32
0
VERTEX
8
0
10
10.1874
20
95
30
-10.1126
70
32
0
VERTEX
8
0
10
10.0864
20
95
30
-9.9621
70
32
0
VERTEX
8
0
10
9.971
20
95
30
-9.7892
70
32
0
VERTEX
8
0
10
9.8409
20
95
30
-9.5948
70
32
0
VERTEX
8
0
10
9.6958
20
95
30
-9.3798
70
32
0
VERTEX
8
0
10
9.5356
20
95
30
-9.145
70
32
0
VERTEX
8
0
10
9.3606
20
95
30
-8.8909
70
32
0
VERTEX
8
0
10
9.1712
20
95
30
-8.6183
70
32
0
VERTEX
8
0
10
8.968
20
95
30
-8.3277
70
32
0
VERTEX
8
0
10
8.7518
20
95
30
-8.0196
70
32
0
VERTEX
8
0
10
8.5231
20
95
30
-7.6947
70
32
0
VERTEX
8
0
10
8.2826
20
95
30
-7.3537
70
32
0
VERTEX
8
0
10
8.0307
20
95
30
-6.9977
70
32
0
VERTEX
8
0
10
7.7679
20
95
30
-6.6274
70
32
0
VERTEX
8
0
10
7.4948
20
95
30
-6.2438
70
32
0
VERTEX
8
0
10
7.212
20
95
30
-5.8479
70
32
0
VERTEX
8
0
10
6.92
20
95
30
-5.4407
70
32
0
VERTEX
8
0
10
6.6193
20
95
30
-5.0234
70
32
0
VERTEX
8
0
10
6.3103
20
95
30
-4.5973
70
32
0
VERTEX
8
0
10
5.9936
20
95
30
-4.1634
70
32
0
VERTEX
8
0
10
5.6697
20
95
30
-3.723
70
32
0
VERTEX
8
0
10
5.339
20
95
30
-3.2774
70
32
0
VERTEX
8
0
10
5.0017
20
95
30
-2.8282
70
32
0
VERTEX
8
0
10
4.658
20
95
30
-2.377
70
32
0
VERTEX
8
0
10
4.3078
20
95
30
-1.9256
70
32
0
VERTEX
8
0
10
3.9506
20
95
30
-1.476
70
32
0
VERTEX
8
0
10
3.5867
20
95
30
-1.0301
70
32
0
VERTEX
8
0
10
3.2167
20
95
30
-0.5893
70
32
0
VERTEX
8
0
10
2.8405
20
95
30
-0.1556
70
32
0
VERTEX
8
0
10
2.4588
20
95
30
0.2697
70
32
0
VERTEX
8
0
10
2.0722
20
95
30
0.6849
70
32
0
VERTEX
8
0
10
1.6811
20
95
30
1.0881
70
32
0
VERTEX
8
0
10
1.287
20
95
30
1.4788
70
32
0
VERTEX
8
0
10
0.8911
20
95
30
1.8558
70
32
0
VERTEX
8
0
10
0.4945
20
95
30
2.2183
70
32
0
VERTEX
8
0
10
0.0991
20
95
30
2.5658
70
32
0
VERTEX
8
0
10
-0.2941
20
95
30
2.8975
70
32
0
VERTEX
8
0
10
-0.6833
20
95
30
3.2131
70
32
0
VERTEX
8
0
10
-1.067
20
95
30
3.5122
70
32
0
VERTEX
8
0
10
-1.444
20
95
30
3.7944
70
32
0
VERTEX
8
0
10
-1.8129
20
95
30
4.0594
70
32
0
VERTEX
8
0
10
-2.1725
20
95
30
4.3062
70
32
0
VERTEX
8
0
10
-2.5217
20
95
30
4.5346
70
32
0
VERTEX
8
0
10
-2.8595
20
95
30
4.7438
70
32
0
VERTEX
8
0
10
-3.1847
20
95
30
4.9335
70
32
0
VERTEX
8
0
10
-3.4961
20
95
30
5.1032
70
32
0
VERTEX
8
0
10
-3.7927
20
95
30
5.2525
70
32
0
VERTEX
8
0
10
-4.0731
20
95
30
5.3812
70
32
0
VERTEX
8
0
10
-4.3361
20
95
30
5.4892
70
32
0
VERTEX
8
0
10
-4.5805
20
95
30
5.5762
70
32
0
VERTEX
8
0
10
-4.8049
20
95
30
5.6425
70
32
0
VERTEX
8
0
10
-5.0077
20
95
30
5.6884
70
32
0
VERTEX
8
0
10
-5.1873
20
95
30
5.7135
70
32
0
VERTEX
8
0
10
-5.3415
20
95
30
5.719
70
32
0
VERTEX
8
0
10
-5.468
20
95
30
5.7082
70
32
0
VERTEX
8
0
10
-5.5639
20
95
30
5.6831
70
32
0
VERTEX
8
0
10
-5.6241
20
95
30
5.6455
70
32
0
VERTEX
8
0
10
-5.6592
20
95
30
5.5856
70
32
0
VERTEX
8
0
10
-5.6605
20
95
30
5.4887
70
32
0
VERTEX
8
0
10
-5.6248
20
95
30
5.3696
70
32
0
VERTEX
8
0
10
-5.5622
20
95
30
5.2319
70
32
0
VERTEX
8
0
10
-5.4756
20
95
30
5.0767
70
32
0
VERTEX
8
0
10
-5.3641
20
95
30
4.9063
70
32
0
VERTEX
8
0
10
-5.2289
20
95
30
4.721
70
32
0
VERTEX
8
0
10
-5.0718
20
95
30
4.5211
70
32
0
VERTEX
8
0
10
-4.8935
20
95
30
4.307
70
32
0
VERTEX
8
0
10
-4.6945
20
95
30
4.0793
70
32
0
VERTEX
8
0
10
-4.4759
20
95
30
3.8384
70
32
0
VERTEX
8
0
10
-4.2384
20
95
30
3.5847
70
32
0
VERTEX
8
0
10
-3.9828
20
95
30
3.3187
70
32
0
VERTEX
8
0
10
-3.7099
20
95
30
3.041
70
32
0
VERTEX
8
0
10
-3.4206
20
95
30
2.752
70
32
0
VERTEX
8
0
10
-3.1159
20
95
30
2.4521
70
32
0
VERTEX
8
0
10
-2.7969
20
95
30
2.1418
70
32
0
VERTEX
8
0
10
-2.4644
20
95
30
1.8218
70
32
0
VERTEX
8
0
10
-2.1194
20
95
30
1.4926
70
32
0
VERTEX
8
0
10
-1.7629
20
95
30
1.1549
70
32
0
VERTEX
8
0
10
-1.396
20
95
30
0.8093
70
32
0
VERTEX
8
0
10
-1.0196
20
95
30
0.4564
70
32
0
VERTEX
8
0
10
-0.635
20
95
30
0.097
70
32
0
VERTEX
8
0
10
-0.243
20
95
30
-0.2683
70
32
0
VERTEX
8
0
10
0.1551
20
95
30
-0.6388
70
32
0
VERTEX
8
0
10
0.5583
20
95
30
-1.0136
70
32
0
VERTEX
8
0
10
0.9655
20
95
30
-1.3921
70
32
0
VERTEX
8
0
10
1.3756
20
95
30
-1.7734
70
32
0
VERTEX
8
0
10
1.7875
20
95
30
-2.1566
70
32
0
VERTEX
8
0
10
2.2002
20
95
30
-2.5411
70
32
0
VERTEX
8
0
10
2.6126
20
95
30
-2.9259
70
32
0
VERTEX
8
0
10
3.0237
20
95
30
-3.3101
70
32
0
VERTEX
8
0
10
3.4323
20
95
30
-3.693
70
32
0
VERTEX
8
0
10
3.8375
20
95
30
-4.0736
70
32
0
VERTEX
8
0
10
4.2383
20
95
30
-4.451
70
32
0
VERTEX
8
0
10
4.6337
20
95
30
-4.8243
70
32
0
VERTEX
8
0
10
5.0227
20
95
30
-5.1928
70
32
0
VERTEX
8
0
10
5.4043
20
95
30
-5.5555
70
32
0
VERTEX
8
0
10
5.7776
20
95
30
-5.9115
70
32
0
VERTEX
8
0
10
6.1419
20
95
30
-6.2599
70
32
0
VERTEX
8
0
10
6.4962
20
95
30
-6.5999
70
32
0
VERTEX
8
0
10
6.8397
20
95
30
-6.9307
70
32
0
VERTEX
8
0
10
7.1715
20
95
30
-7.2514
70
32
0
VERTEX
8
0
10
7.491
20
95
30
-7.5611
70
32
0
VERTEX
8
0
10
7.7974
20
95
30
-7.8593
70
32
0
VERTEX
8
0
10
8.09
20
95
30
-8.145
70
32
0
VERTEX
8
0
10
8.3681
20
95
30
-8.4175
70
32
0
VERTEX
8
0
10
8.6312
20
95
30
-8.6761
70
32
0
VERTEX
8
0
10
8.8788
20
95
30
-8.9199
70
32
0
VERTEX
8
0
10
9.1106
20
95
30
-9.1482
70
32
0
VERTEX
8
0
10
9.326
20
95
30
-9.3603
70
32
0
VERTEX
8
0
10
9.5247
20
95
30
-9.5556
70
32
0
VERTEX
8
0
10
9.7062
20
95
30
-9.7337
70
32
0
VERTEX
8
0
10
9.8697
20
95
30
-9.8943
70
32
0
VERTEX
8
0
10
10.0147
20
95
30
-10.0374
70
32
0
VERTEX
8
0
10
10.1404
20
95
30
-10.1629
70
32
0
VERTEX
8
0
10
10.2466
20
95
30
-10.2705
70
32
0
VERTEX
8
0
10
10.3331
20
95
30
-10.3599
70
32
0
VERTEX
8
0
10
10.3995
20
95
30
-10.4309
70
32
0
VERTEX
8
0
10
10.4469
20
95
30
-10.4823
70
32
0
VERTEX
8
0
10
10.8169
20
104.5
30
-9.8763
70
32
0
VERTEX
8
0
10
10.7726
20
104.5
30
-9.8214
70
32
0
VERTEX
8
0
10
10.7114
20
104.5
30
-9.7446
70
32
0
VERTEX
8
0
10
10.6348
20
104.5
30
-9.645
70
32
0
VERTEX
8
0
10
10.5431
20
104.5
30
-9.523
70
32
0
VERTEX
8
0
10
10.4362
20
104.5
30
-9.3788
70
32
0
VERTEX
8
0
10
10.3141
20
104.5
30
-9.2133
70
32
0
VERTEX
8
0
10
10.1764
20
104.5
30
-9.0272
70
32
0
VERTEX
8
0
10
10.0229
20
104.5
30
-8.8214
70
32
0
VERTEX
8
0
10
9.8536
20
104.5
30
-8.5966
70
32
0
VERTEX
8
0
10
9.6687
20
104.5
30
-8.3537
70
32
0
VERTEX
8
0
10
9.4688
20
104.5
30
-8.093
70
32
0
VERTEX
8
0
10
9.2544
20
104.5
30
-7.8151
70
32
0
VERTEX
8
0
10
9.0262
20
104.5
30
-7.5206
70
32
0
VERTEX
8
0
10
8.785
20
104.5
30
-7.21
70
32
0
VERTEX
8
0
10
8.5314
20
104.5
30
-6.8842
70
32
0
VERTEX
8
0
10
8.2657
20
104.5
30
-6.5439
70
32
0
VERTEX
8
0
10
7.9886
20
104.5
30
-6.19
70
32
0
VERTEX
8
0
10
7.7008
20
104.5
30
-5.8235
70
32
0
VERTEX
8
0
10
7.4027
20
104.5
30
-5.4453
70
32
0
VERTEX
8
0
10
7.0951
20
104.5
30
-5.0564
70
32
0
VERTEX
8
0
10
6.7783
20
104.5
30
-4.6579
70
32
0
VERTEX
8
0
10
6.4529
20
104.5
30
-4.251
70
32
0
VERTEX
8
0
10
6.1196
20
104.5
30
-3.8368
70
32
0
VERTEX
8
0
10
5.7788
20
104.5
30
-3.4164
70
32
0
VERTEX
8
0
10
5.4311
20
104.5
30
-2.9914
70
32
0
VERTEX
8
0
10
5.0768
20
104.5
30
-2.563
70
32
0
VERTEX
8
0
10
4.7159
20
104.5
30
-2.1329
70
32
0
VERTEX
8
0
10
4.3486
20
104.5
30
-1.7029
70
32
0
VERTEX
8
0
10
3.9745
20
104.5
30
-1.2751
70
32
0
VERTEX
8
0
10
3.594
20
104.5
30
-0.8512
70
32
0
VERTEX
8
0
10
3.2076
20
104.5
30
-0.4327
70
32
0
VERTEX
8
0
10
2.8155
20
104.5
30
-0.0214
70
32
0
VERTEX
8
0
10
2.4183
20
104.5
30
0.3813
70
32
0
VERTEX
8
0
10
2.0168
20
104.5
30
0.7737
70
32
0
VERTEX
8
0
10
1.6113
20
104.5
30
1.1541
70
32
0
VERTEX
8
0
10
1.2035
20
104.5
30
1.522
70
32
0
VERTEX
8
0
10
0.7944
20
104.5
30
1.8763
70
32
0
VERTEX
8
0
10
0.3855
20
104.5
30
2.2162
70
32
0
VERTEX
8
0
10
-0.0216
20
104.5
30
2.5413
70
32
0
VERTEX
8
0
10
-0.4258
20
104.5
30
2.8509
70
32
0
VERTEX
8
0
10
-0.8253
20
104.5
30
3.1448
70
32
0
VERTEX
8
0
10
-1.2186
20
104.5
30
3.4226
70
32
0
VERTEX
8
0
10
-1.6045
20
104.5
30
3.6841
70
32
0
VERTEX
8
0
10
-1.9815
20
104.5
30
3.9288
70
32
0
VERTEX
8
0
10
-2.3486
20
104.5
30
4.156
70
32
0
VERTEX
8
0
10
-2.7045
20
104.5
30
4.3656
70
32
0
VERTEX
8
0
10
-3.0482
20
104.5
30
4.5567
70
32
0
VERTEX
8
0
10
-3.3785
20
104.5
30
4.7291
70
32
0
VERTEX
8
0
10
-3.6943
20
104.5
30
4.8823
70
32
0
VERTEX
8
0
10
-3.9944
20
104.5
30
5.016
70
32
0
VERTEX
8
0
10
-4.2776
20
104.5
30
5.1303
70
32
0
VERTEX
8
0
10
-4.5428
20
104.5
30
5.2247
70
32
0
VERTEX
8
0
10
-4.7884
20
104.5
30
5.2994
70
32
0
VERTEX
8
0
10
-5.0134
20
104.5
30
5.3545
70
32
0
VERTEX
8
0
10
-5.216
20
104.5
30
5.3904
70
32
0
VERTEX
8
0
10
-5.3947
20
104.5
30
5.4069
70
32
0
VERTEX
8
0
10
-5.5475
20
104.5
30
5.4051
70
32
0
VERTEX
8
0
10
-5.6719
20
104.5
30
5.3885
70
32
0
VERTEX
8
0
10
-5.7657
20
104.5
30
5.3593
70
32
0
VERTEX
8
0
10
-5.8234
20
104.5
30
5.3192
70
32
0
VERTEX
8
0
10
-5.8553
20
104.5
30
5.2584
70
32
0
VERTEX
8
0
10
-5.8521
20
104.5
30
5.1626
70
32
0
VERTEX
8
0
10
-5.8112
20
104.5
30
5.0464
70
32
0
VERTEX
8
0
10
-5.743
20
104.5
30
4.9132
70
32
0
VERTEX
8
0
10
-5.65
20
104.5
30
4.7639
70
32
0
VERTEX
8
0
10
-5.5319
20
104.5
30
4.6005
70
32
0
VERTEX
8
0
10
-5.3896
20
104.5
30
4.4237
70
32
0
VERTEX
8
0
10
-5.2249
20
104.5
30
4.2334
70
32
0
VERTEX
8
0
10
-5.0387
20
104.5
30
4.03
70
32
0
VERTEX
8
0
10
-4.8314
20
104.5
30
3.8142
70
32
0
VERTEX
8
0
10
-4.604
20
104.5
30
3.5862
70
32
0
VERTEX
8
0
10
-4.3574
20
104.5
30
3.3464
70
32
0
VERTEX
8
0
10
-4.0923
20
104.5
30
3.0953
70
32
0
VERTEX
8
0
10
-3.8095
20
104.5
30
2.8335
70
32
0
VERTEX
8
0
10
-3.51
20
104.5
30
2.5613
70
32
0
VERTEX
8
0
10
-3.1948
20
104.5
30
2.279
70
32
0
VERTEX
8
0
10
-2.8649
20
104.5
30
1.9871
70
32
0
VERTEX
8
0
10
-2.5213
20
104.5
30
1.6862
70
32
0
VERTEX
8
0
10
-2.1649
20
104.5
30
1.3769
70
32
0
VERTEX
8
0
10
-1.7967
20
104.5
30
1.0596
70
32
0
VERTEX
8
0
10
-1.4178
20
104.5
30
0.735
70
32
0
VERTEX
8
0
10
-1.0293
20
104.5
30
0.4037
70
32
0
VERTEX
8
0
10
-0.6323
20
104.5
30
0.0663
70
32
0
VERTEX
8
0
10
-0.2278
20
104.5
30
-0.2766
70
32
0
VERTEX
8
0
10
0.1831
20
104.5
30
-0.6243
70
32
0
VERTEX
8
0
10
0.5992
20
104.5
30
-0.9761
70
32
0
VERTEX
8
0
10
1.0194
20
104.5
30
-1.3313
70
32
0
VERTEX
8
0
10
1.4426
20
104.5
30
-1.6891
70
32
0
VERTEX
8
0
10
1.8678
20
104.5
30
-2.0488
70
32
0
VERTEX
8
0
10
2.2937
20
104.5
30
-2.4097
70
32
0
VERTEX
8
0
10
2.7194
20
104.5
30
-2.7708
70
32
0
VERTEX
8
0
10
3.1436
20
104.5
30
-3.1316
70
32
0
VERTEX
8
0
10
3.5655
20
104.5
30
-3.4911
70
32
0
VERTEX
8
0
10
3.9838
20
104.5
30
-3.8484
70
32
0
VERTEX
8
0
10
4.3976
20
104.5
30
-4.2029
70
32
0
VERTEX
8
0
10
4.8059
20
104.5
30
-4.5536
70
32
0
VERTEX
8
0
10
5.2077
20
104.5
30
-4.8997
70
32
0
VERTEX
8
0
10
5.6018
20
104.5
30
-5.2405
70
32
0
VERTEX
8
0
10
5.9876
20
104.5
30
-5.5751
70
32
0
VERTEX
8
0
10
6.3639
20
104.5
30
-5.9026
70
32
0
VERTEX
8
0
10
6.7301
20
104.5
30
-6.2222
70
32
0
VERTEX
8
0
10
7.0851
20
104.5
30
-6.5332
70
32
0
VERTEX
8
0
10
7.4281
20
104.5
30
-6.8347
70
32
0
VERTEX
8
0
10
7.7584
20
104.5
30
-7.1261
70
32
0
VERTEX
8
0
10
8.0752
20
104.5
30
-7.4066
70
32
0
VERTEX
8
0
10
8.3778
20
104.5
30
-7.6754
70
32
0
VERTEX
8
0
10
8.6654
20
104.5
30
-7.9318
70
32
0
VERTEX
8
0
10
8.9376
20
104.5
30
-8.1752
70
32
0
VERTEX
8
0
10
9.1938
20
104.5
30
-8.4047
70
32
0
VERTEX
8
0
10
9.4335
20
104.5
30
-8.6196
70
32
0
VERTEX
8
0
10
9.6564
20
104.5
30
-8.8193
70
32
0
VERTEX
8
0
10
9.862
20
104.5
30
-9.0031
70
32
0
VERTEX
8
0
10
10.0497
20
104.5
30
-9.1707
70
32
0
VERTEX
8
0
10
10.2189
20
104.5
30
-9.3219
70
32
0
VERTEX
8
0
10
10.3688
20
104.5
30
-9.4566
70
32
0
VERTEX
8
0
10
10.499
20
104.5
30
-9.5749
70
32
0
VERTEX
8
0
10
10.609
20
104.5
30
-9.6763
70
32
0
VERTEX
8
0
10
10.6987
20
104.5
30
-9.7606
70
32
0
VERTEX
8
0
10
10.7677
20
104.5
30
-9.8277
70
32
0
VERTEX
8
0
10
10.8169
20
104.5
30
-9.8763
70
32
0
VERTEX
8
0
10
10.8941
20
114
30
-9.1334
70
32
0
VERTEX
8
0
10
10.8488
20
114
30
-9.082
70
32
0
VERTEX
8
0
10
10.7864
20
114
30
-9.0099
70
32
0
VERTEX
8
0
10
10.708
20
114
30
-8.9166
70
32
0
VERTEX
8
0
10
10.6141
20
114
30
-8.802
70
32
0
VERTEX
8
0
10
10.5046
20
114
30
-8.6666
70
32
0
VERTEX
8
0
10
10.3794
20
114
30
-8.5111
70
32
0
VERTEX
8
0
10
10.2382
20
114
30
-8.3362
70
32
0
VERTEX
8
0
10
10.0809
20
114
30
-8.143
70
32
0
VERTEX
8
0
10
9.9075
20
114
30
-7.932
70
32
0
VERTEX
8
0
10
9.7183
20
114
30
-7.704
70
32
0
VERTEX
8
0
10
9.5137
20
114
30
-7.4594
70
32
0
VERTEX
8
0
10
9.2944
20
114
30
-7.1987
70
32
0
VERTEX
8
0
10
9.0611
20
114
30
-6.9225
70
32
0
VERTEX
8
0
10
8.8145
20
114
30
-6.6313
70
32
0
VERTEX
8
0
10
8.5551
20
114
30
-6.3257
70
32
0
VERTEX
8
0
10
8.2836
20
114
30
-6.0066
70
32
0
VERTEX
8
0
10
8.0004
20
114
30
-5.6748
70
32
0
VERTEX
8
0
10
7.7062
20
114
30
-5.3312
70
32
0
VERTEX
8
0
10
7.4017
20
114
30
-4.9767
70
32
0
VERTEX
8
0
10
7.0874
20
114
30
-4.6121
70
32
0
VERTEX
8
0
10
6.7639
20
114
30
-4.2387
70
32
0
VERTEX
8
0
10
6.4317
20
114
30
-3.8575
70
32
0
VERTEX
8
0
10
6.0915
20
114
30
-3.4695
70
32
0
VERTEX
8
0
10
5.7438
20
114
30
-3.0759
70
32
0
VERTEX
8
0
10
5.3892
20
114
30
-2.678
70
32
0
VERTEX
8
0
10
5.028
20
114
30
-2.2771
70
32
0
VERTEX
8
0
10
4.6605
20
114
30
-1.8748
70
32
0
VERTEX
8
0
10
4.2866
20
114
30
-1.4729
70
32
0
VERTEX
8
0
10
3.9064
20
114
30
-1.0735
70
32
0
VERTEX
8
0
10
3.52
20
114
30
-0.678
70
32
0
VERTEX
8
0
10
3.1281
20
114
30
-0.288
70
32
0
VERTEX
8
0
10
2.731
20
114
30
0.0947
70
32
0
VERTEX
8
0
10
2.3294
20
114
30
0.4689
70
32
0
VERTEX
8
0
10
1.9239
20
114
30
0.8329
70
32
0
VERTEX
8
0
10
1.5151
20
114
30
1.1852
70
32
0
VERTEX
8
0
10
1.1046
20
114
30
1.5252
70
32
0
VERTEX
8
0
10
0.6934
20
114
30
1.852
70
32
0
VERTEX
8
0
10
0.283
20
114
30
2.1648
70
32
0
VERTEX
8
0
10
-0.1252
20
114
30
2.4634
70
32
0
VERTEX
8
0
10
-0.5298
20
114
30
2.747
70
32
0
VERTEX
8
0
10
-0.9292
20
114
30
3.0156
70
32
0
VERTEX
8
0
10
-1.3221
20
114
30
3.2689
70
32
0
VERTEX
8
0
10
-1.707
20
114
30
3.5066
70
32
0
VERTEX
8
0
10
-2.0826
20
114
30
3.7284
70
32
0
VERTEX
8
0
10
-2.4478
20
114
30
3.9338
70
32
0
VERTEX
8
0
10
-2.8016
20
114
30
4.1223
70
32
0
VERTEX
8
0
10
-3.1427
20
114
30
4.2936
70
32
0
VERTEX
8
0
10
-3.4701
20
114
30
4.4472
70
32
0
VERTEX
8
0
10
-3.7826
20
114
30
4.5828
70
32
0
VERTEX
8
0
10
-4.0791
20
114
30
4.7002
70
32
0
VERTEX
8
0
10
-4.3584
20
114
30
4.7993
70
32
0
VERTEX
8
0
10
-4.6193
20
114
30
4.8801
70
32
0
VERTEX
8
0
10
-4.8606
20
114
30
4.9424
70
32
0
VERTEX
8
0
10
-5.081
20
114
30
4.9866
70
32
0
VERTEX
8
0
10
-5.279
20
114
30
5.0131
70
32
0
VERTEX
8
0
10
-5.453
20
114
30
5.0217
70
32
0
VERTEX
8
0
10
-5.601
20
114
30
5.0138
70
32
0
VERTEX
8
0
10
-5.721
20
114
30
4.9925
70
32
0
VERTEX
8
0
10
-5.8107
20
114
30
4.9604
70
32
0
VERTEX
8
0
10
-5.8651
20
114
30
4.9192
70
32
0
VERTEX
8
0
10
-5.8935
20
114
30
4.8589
70
32
0
VERTEX
8
0
10
-5.8864
20
114
30
4.7661
70
32
0
VERTEX
8
0
10
-5.842
20
114
30
4.6552
70
32
0
VERTEX
8
0
10
-5.7704
20
114
30
4.5288
70
32
0
VERTEX
8
0
10
-5.6742
20
114
30
4.3878
70
32
0
VERTEX
8
0
10
-5.5529
20
114
30
4.2342
70
32
0
VERTEX
8
0
10
-5.4077
20
114
30
4.0686
70
32
0
VERTEX
8
0
10
-5.2402
20
114
30
3.8908
70
32
0
VERTEX
8
0
10
-5.0512
20
114
30
3.7013
70
32
0
VERTEX
8
0
10
-4.8414
20
114
30
3.5005
70
32
0
VERTEX
8
0
10
-4.6115
20
114
30
3.2887
70
32
0
VERTEX
8
0
10
-4.3625
20
114
30
3.0663
70
32
0
VERTEX
8
0
10
-4.0952
20
114
30
2.8337
70
32
0
VERTEX
8
0
10
-3.8102
20
114
30
2.5914
70
32
0
VERTEX
8
0
10
-3.5087
20
114
30
2.3397
70
32
0
VERTEX
8
0
10
-3.1915
20
114
30
2.0789
70
32
0
VERTEX
8
0
10
-2.8596
20
114
30
1.8094
70
32
0
VERTEX
8
0
10
-2.514
20
114
30
1.5317
70
32
0
VERTEX
8
0
10
-2.1557
20
114
30
1.2464
70
32
0
VERTEX
8
0
10
-1.7857
20
114
30
0.9538
70
32
0
VERTEX
8
0
10
-1.405
20
114
30
0.6546
70
32
0
VERTEX
8
0
10
-1.0147
20
114
30
0.3493
70
32
0
VERTEX
8
0
10
-0.6158
20
114
30
0.0383
70
32
0
VERTEX
8
0
10
-0.2095
20
114
30
-0.2776
70
32
0
VERTEX
8
0
10
0.2031
20
114
30
-0.5979
70
32
0
VERTEX
8
0
10
0.6211
20
114
30
-0.9219
70
32
0
VERTEX
8
0
10
1.0431
20
114
30
-1.2491
70
32
0
VERTEX
8
0
10
1.4682
20
114
30
-1.5788
70
32
0
VERTEX
8
0
10
1.8952
20
114
30
-1.9101
70
32
0
VERTEX
8
0
10
2.323
20
114
30
-2.2426
70
32
0
VERTEX
8
0
10
2.7506
20
114
30
-2.5753
70
32
0
VERTEX
8
0
10
3.1768
20
114
30
-2.9078
70
32
0
VERTEX
8
0
10
3.6006
20
114
30
-3.2391
70
32
0
VERTEX
8
0
10
4.0209
20
114
30
-3.5684
70
32
0
VERTEX
8
0
10
4.4367
20
114
30
-3.8952
70
32
0
VERTEX
8
0
10
4.847
20
114
30
-4.2185
70
32
0
VERTEX
8
0
10
5.2508
20
114
30
-4.5376
70
32
0
VERTEX
8
0
10
5.647
20
114
30
-4.8519
70
32
0
VERTEX
8
0
10
6.0347
20
114
30
-5.1605
70
32
0
VERTEX
8
0
10
6.4131
20
114
30
-5.4627
70
32
0
VERTEX
8
0
10
6.7813
20
114
30
-5.7576
70
32
0
VERTEX
8
0
10
7.1383
20
114
30
-6.0446
70
32
0
VERTEX
8
0
10
7.4833
20
114
30
-6.323
70
32
0
VERTEX
8
0
10
7.8155
20
114
30
-6.592
70
32
0
VERTEX
8
0
10
8.1342
20
114
30
-6.8509
70
32
0
VERTEX
8
0
10
8.4386
20
114
30
-7.0992
70
32
0
VERTEX
8
0
10
8.7281
20
114
30
-7.3361
70
32
0
VERTEX
8
0
10
9.002
20
114
30
-7.5609
70
32
0
VERTEX
8
0
10
9.2598
20
114
30
-7.773
70
32
0
VERTEX
8
0
10
9.5011
20
114
30
-7.9715
70
32
0
VERTEX
8
0
10
9.7254
20
114
30
-8.156
70
32
0
VERTEX
8
0
10
9.9323
20
114
30
-8.3258
70
32
0
VERTEX
8
0
10
10.1212
20
114
30
-8.4806
70
32
0
VERTEX
8
0
10
10.2914
20
114
30
-8.6203
70
32
0
VERTEX
8
0
10
10.4424
20
114
30
-8.7448
70
32
0
VERTEX
8
0
10
10.5734
20
114
30
-8.8541
70
32
0
VERTEX
8
0
10
10.6843
20
114
30
-8.9479
70
32
0
VERTEX
8
0
10
10.7747
20
114
30
-9.0261
70
32
0
VERTEX
8
0
10
10.8444
20
114
30
-9.0883
70
32
0
VERTEX
8
0
10
10.8941
20
114
30
-9.1334
70
32
0
VERTEX
8
0
10
10.71
20
123.5
30
-8.307
70
32
0
VERTEX
8
0
10
10.665
20
123.5
30
-8.2596
70
32
0
VERTEX
8
0
10
10.6029
20
123.5
30
-8.1933
70
32
0
VERTEX
8
0
10
10.5248
20
123.5
30
-8.1072
70
32
0
VERTEX
8
0
10
10.4312
20
123.5
30
-8.0014
70
32
0
VERTEX
8
0
10
10.3219
20
123.5
30
-7.8764
70
32
0
VERTEX
8
0
10
10.197
20
123.5
30
-7.7327
70
32
0
VERTEX
8
0
10
10.0562
20
123.5
30
-7.5713
70
32
0
VERTEX
8
0
10
9.8993
20
123.5
30
-7.3929
70
32
0
VERTEX
8
0
10
9.7265
20
123.5
30
-7.1981
70
32
0
VERTEX
8
0
10
9.5379
20
123.5
30
-6.9877
70
32
0
VERTEX
8
0
10
9.3341
20
123.5
30
-6.7621
70
32
0
VERTEX
8
0
10
9.1158
20
123.5
30
-6.5217
70
32
0
VERTEX
8
0
10
8.8835
20
123.5
30
-6.267
70
32
0
VERTEX
8
0
10
8.638
20
123.5
30
-5.9985
70
32
0
VERTEX
8
0
10
8.3798
20
123.5
30
-5.7167
70
32
0
VERTEX
8
0
10
8.1096
20
123.5
30
-5.4226
70
32
0
VERTEX
8
0
10
7.8277
20
123.5
30
-5.1168
70
32
0
VERTEX
8
0
10
7.535
20
123.5
30
-4.8001
70
32
0
VERTEX
8
0
10
7.232
20
123.5
30
-4.4733
70
32
0
VERTEX
8
0
10
6.9194
20
123.5
30
-4.1374
70
32
0
VERTEX
8
0
10
6.5977
20
123.5
30
-3.7933
70
32
0
VERTEX
8
0
10
6.2674
20
123.5
30
-3.4422
70
32
0
VERTEX
8
0
10
5.9292
20
123.5
30
-3.0848
70
32
0
VERTEX
8
0
10
5.5837
20
123.5
30
-2.7224
70
32
0
VERTEX
8
0
10
5.2315
20
123.5
30
-2.3561
70
32
0
VERTEX
8
0
10
4.8728
20
123.5
30
-1.9873
70
32
0
VERTEX
8
0
10
4.5081
20
123.5
30
-1.6174
70
32
0
VERTEX
8
0
10
4.1373
20
123.5
30
-1.248
70
32
0
VERTEX
8
0
10
3.7606
20
123.5
30
-0.8812
70
32
0
VERTEX
8
0
10
3.3782
20
123.5
30
-0.5185
70
32
0
VERTEX
8
0
10
2.9907
20
123.5
30
-0.1611
70
32
0
VERTEX
8
0
10
2.5985
20
123.5
30
0.1892
70
32
0
VERTEX
8
0
10
2.2023
20
123.5
30
0.5311
70
32
0
VERTEX
8
0
10
1.8028
20
123.5
30
0.8633
70
32
0
VERTEX
8
0
10
1.4006
20
123.5
30
1.1841
70
32
0
VERTEX
8
0
10
0.9971
20
123.5
30
1.4932
70
32
0
VERTEX
8
0
10
0.5935
20
123.5
30
1.7896
70
32
0
VERTEX
8
0
10
0.1912
20
123.5
30
2.0727
70
32
0
VERTEX
8
0
10
-0.2085
20
123.5
30
2.3424
70
32
0
VERTEX
8
0
10
-0.6043
20
123.5
30
2.598
70
32
0
VERTEX
8
0
10
-0.9945
20
123.5
30
2.8394
70
32
0
VERTEX
8
0
10
-1.378
20
123.5
30
3.0665
70
32
0
VERTEX
8
0
10
-1.7533
20
123.5
30
3.279
70
32
0
VERTEX
8
0
10
-2.1192
20
123.5
30
3.4767
70
32
0
VERTEX
8
0
10
-2.4746
20
123.5
30
3.6591
70
32
0
VERTEX
8
0
10
-2.8184
20
123.5
30
3.826
70
32
0
VERTEX
8
0
10
-3.1496
20
123.5
30
3.9768
70
32
0
VERTEX
8
0
10
-3.4671
20
123.5
30
4.1112
70
32
0
VERTEX
8
0
10
-3.7697
20
123.5
30
4.2291
70
32
0
VERTEX
8
0
10
-4.0565
20
123.5
30
4.3303
70
32
0
VERTEX
8
0
10
-4.3262
20
123.5
30
4.4146
70
32
0
VERTEX
8
0
10
-4.5777
20
123.5
30
4.4821
70
32
0
VERTEX
8
0
10
-4.8099
20
123.5
30
4.5327
70
32
0
VERTEX
8
0
10
-5.0214
20
123.5
30
4.5668
70
32
0
VERTEX
8
0
10
-5.211
20
123.5
30
4.5849
70
32
0
VERTEX
8
0
10
-5.3771
20
123.5
30
4.5868
70
32
0
VERTEX
8
0
10
-5.5178
20
123.5
30
4.5738
70
32
0
VERTEX
8
0
10
-5.6314
20
123.5
30
4.5493
70
32
0
VERTEX
8
0
10
-5.7157
20
123.5
30
4.5154
70
32
0
VERTEX
8
0
10
-5.766
20
123.5
30
4.4742
70
32
0
VERTEX
8
0
10
-5.7909
20
123.5
30
4.4157
70
32
0
VERTEX
8
0
10
-5.7808
20
123.5
30
4.3276
70
32
0
VERTEX
8
0
10
-5.7345
20
123.5
30
4.2235
70
32
0
VERTEX
8
0
10
-5.6616
20
123.5
30
4.1057
70
32
0
VERTEX
8
0
10
-5.5649
20
123.5
30
3.9748
70
32
0
VERTEX
8
0
10
-5.4438
20
123.5
30
3.8329
70
32
0
VERTEX
8
0
10
-5.2994
20
123.5
30
3.6804
70
32
0
VERTEX
8
0
10
-5.1334
20
123.5
30
3.517
70
32
0
VERTEX
8
0
10
-4.9465
20
123.5
30
3.3433
70
32
0
VERTEX
8
0
10
-4.7393
20
123.5
30
3.1596
70
32
0
VERTEX
8
0
10
-4.5127
20
123.5
30
2.9662
70
32
0
VERTEX
8
0
10
-4.2674
20
123.5
30
2.7633
70
32
0
VERTEX
8
0
10
-4.0043
20
123.5
30
2.5514
70
32
0
VERTEX
8
0
10
-3.724
20
123.5
30
2.3309
70
32
0
VERTEX
8
0
10
-3.4276
20
123.5
30
2.102
70
32
0
VERTEX
8
0
10
-3.1159
20
123.5
30
1.865
70
32
0
VERTEX
8
0
10
-2.79
20
123.5
30
1.6203
70
32
0
VERTEX
8
0
10
-2.4507
20
123.5
30
1.3683
70
32
0
VERTEX
8
0
10
-2.099
20
123.5
30
1.1094
70
32
0
VERTEX
8
0
10
-1.7358
20
123.5
30
0.8441
70
32
0
VERTEX
8
0
10
-1.3623
20
123.5
30
0.5728
70
32
0
VERTEX
8
0
10
-0.9794
20
123.5
30
0.296
70
32
0
VERTEX
8
0
10
-0.5881
20
123.5
30
0.0142
70
32
0
VERTEX
8
0
10
-0.1896
20
123.5
30
-0.272
70
32
0
VERTEX
8
0
10
0.2152
20
123.5
30
-0.5623
70
32
0
VERTEX
8
0
10
0.6251
20
123.5
30
-0.8559
70
32
0
VERTEX
8
0
10
1.039
20
123.5
30
-1.1523
70
32
0
VERTEX
8
0
10
1.4559
20
123.5
30
-1.4509
70
32
0
VERTEX
8
0
10
1.8748
20
123.5
30
-1.7512
70
32
0
VERTEX
8
0
10
2.2944
20
123.5
30
-2.0524
70
32
0
VERTEX
8
0
10
2.7138
20
123.5
30
-2.354
70
32
0
VERTEX
8
0
10
3.1319
20
123.5
30
-2.6552
70
32
0
VERTEX
8
0
10
3.5477
20
123.5
30
-2.9555
70
32
0
VERTEX
8
0
10
3.9601
20
123.5
30
-3.2541
70
32
0
VERTEX
8
0
10
4.3681
20
123.5
30
-3.5503
70
32
0
VERTEX
8
0
10
4.7707
20
123.5
30
-3.8435
70
32
0
VERTEX
8
0
10
5.1669
20
123.5
30
-4.1329
70
32
0
VERTEX
8
0
10
5.5558
20
123.5
30
-4.418
70
32
0
VERTEX
8
0
10
5.9364
20
123.5
30
-4.698
70
32
0
VERTEX
8
0
10
6.3078
20
123.5
30
-4.9721
70
32
0
VERTEX
8
0
10
6.6693
20
123.5
30
-5.2398
70
32
0
VERTEX
8
0
10
7.0198
20
123.5
30
-5.5003
70
32
0
VERTEX
8
0
10
7.3586
20
123.5
30
-5.753
70
32
0
VERTEX
8
0
10
7.6848
20
123.5
30
-5.9972
70
32
0
VERTEX
8
0
10
7.9978
20
123.5
30
-6.2324
70
32
0
VERTEX
8
0
10
8.2968
20
123.5
30
-6.4579
70
32
0
VERTEX
8
0
10
8.5812
20
123.5
30
-6.6731
70
32
0
VERTEX
8
0
10
8.8503
20
123.5
30
-6.8774
70
32
0
VERTEX
8
0
10
9.1036
20
123.5
30
-7.0701
70
32
0
VERTEX
8
0
10
9.3407
20
123.5
30
-7.2505
70
32
0
VERTEX
8
0
10
9.5611
20
123.5
30
-7.4181
70
32
0
VERTEX
8
0
10
9.7644
20
123.5
30
-7.5724
70
32
0
VERTEX
8
0
10
9.9499
20
123.5
30
-7.7131
70
32
0
VERTEX
8
0
10
10.1172
20
123.5
30
-7.84
70
32
0
VERTEX
8
0
10
10.2655
20
123.5
30
-7.9531
70
32
0
VERTEX
8
0
10
10.3943
20
123.5
30
-8.0526
70
32
0
VERTEX
8
0
10
10.5033
20
123.5
30
-8.1379
70
32
0
VERTEX
8
0
10
10.5923
20
123.5
30
-8.2091
70
32
0
VERTEX
8
0
10
10.6609
20
123.5
30
-8.2658
70
32
0
VERTEX
8
0
10
10.71
20
123.5
30
-8.307
70
32
0
VERTEX
8
0
10
10.3073
20
133
30
-7.4436
70
32
0
VERTEX
8
0
10
10.2636
20
133
30
-7.4007
70
32
0
VERTEX
8
0
10
10.2033
20
133
30
-7.3405
70
32
0
VERTEX
8
0
10
10.1274
20
133
30
-7.2622
70
32
0
VERTEX
8
0
10
10.0362
20
133
30
-7.1661
70
32
0
VERTEX
8
0
10
9.9297
20
133
30
-7.0524
70
32
0
VERTEX
8
0
10
9.808
20
133
30
-6.9217
70
32
0
VERTEX
8
0
10
9.6708
20
133
30
-6.7749
70
32
0
VERTEX
8
0
10
9.518
20
133
30
-6.6127
70
32
0
VERTEX
8
0
10
9.3497
20
133
30
-6.4357
70
32
0
VERTEX
8
0
10
9.1662
20
133
30
-6.2445
70
32
0
VERTEX
8
0
10
8.9679
20
133
30
-6.0395
70
32
0
VERTEX
8
0
10
8.7555
20
133
30
-5.8212
70
32
0
VERTEX
8
0
10
8.5295
20
133
30
-5.5899
70
32
0
VERTEX
8
0
10
8.2907
20
133
30
-5.346
70
32
0
VERTEX
8
0
10
8.0397
20
133
30
-5.0901
70
32
0
VERTEX
8
0
10
7.7768
20
133
30
-4.823
70
32
0
VERTEX
8
0
10
7.5028
20
133
30
-4.5454
70
32
0
VERTEX
8
0
10
7.2182
20
133
30
-4.2579
70
32
0
VERTEX
8
0
10
6.9237
20
133
30
-3.9613
70
32
0
VERTEX
8
0
10
6.6198
20
133
30
-3.6564
70
32
0
VERTEX
8
0
10
6.3071
20
133
30
-3.3442
70
32
0
VERTEX
8
0
10
5.9862
20
133
30
-3.0256
70
32
0
VERTEX
8
0
10
5.6576
20
133
30
-2.7015
70
32
0
VERTEX
8
0
10
5.3221
20
133
30
-2.3729
70
32
0
VERTEX
8
0
10
4.9801
20
133
30
-2.0408
70
32
0
VERTEX
8
0
10
4.6321
20
133
30
-1.7065
70
32
0
VERTEX
8
0
10
4.2782
20
133
30
-1.3714
70
32
0
VERTEX
8
0
10
3.9188
20
133
30
-1.0371
70
32
0
VERTEX
8
0
10
3.5538
20
133
30
-0.7053
70
32
0
VERTEX
8
0
10
3.1836
20
133
30
-0.3775
70
32
0
VERTEX
8
0
10
2.8089
20
133
30
-0.0549
70
32
0
VERTEX
8
0
10
2.43
20
133
30
0.2608
70
32
0
VERTEX
8
0
10
2.0476
20
133
30
0.5687
70
32
0
VERTEX
8
0
10
1.6624
20
133
30
0.8672
70
32
0
VERTEX
8
0
10
1.275
20
133
30
1.1551
70
32
0
VERTEX
8
0
10
0.8868
20
133
30
1.4319
70
32
0
VERTEX
8
0
10
0.4989
20
133
30
1.6968
70
32
0
VERTEX
8
0
10
0.1126
20
133
30
1.9493
70
32
0
VERTEX
8
0
10
-0.2707
20
133
30
2.1893
70
32
0
VERTEX
8
0
10
-0.65
20
133
30
2.4161
70
32
0
VERTEX
8
0
10
-1.0236
20
133
30
2.6299
70
32
0
VERTEX
8
0
10
-1.3904
20
133
30
2.8305
70
32
0
VERTEX
8
0
10
-1.749
20
133
30
3.0177
70
32
0
VERTEX
8
0
10
-2.0984
20
133
30
3.1913
70
32
0
VERTEX
8
0
10
-2.4375
20
133
30
3.3509
70
32
0
VERTEX
8
0
10
-2.7652
20
133
30
3.4963
70
32
0
VERTEX
8
0
10
-3.0805
20
133
30
3.627
70
32
0
VERTEX
8
0
10
-3.3825
20
133
30
3.7429
70
32
0
VERTEX
8
0
10
-3.67
20
133
30
3.8437
70
32
0
VERTEX
8
0
10
-3.942
20
133
30
3.9292
70
32
0
VERTEX
8
0
10
-4.1976
20
133
30
3.9996
70
32
0
VERTEX
8
0
10
-4.4356
20
133
30
4.0548
70
32
0
VERTEX
8
0
10
-4.6549
20
133
30
4.0948
70
32
0
VERTEX
8
0
10
-4.8543
20
133
30
4.12
70
32
0
VERTEX
8
0
10
-5.0326
20
133
30
4.1308
70
32
0
VERTEX
8
0
10
-5.1883
20
133
30
4.1273
70
32
0
VERTEX
8
0
10
-5.3198
20
133
30
4.1106
70
32
0
VERTEX
8
0
10
-5.4255
20
133
30
4.084
70
32
0
VERTEX
8
0
10
-5.5035
20
133
30
4.0495
70
32
0
VERTEX
8
0
10
-5.5493
20
133
30
4.0092
70
32
0
VERTEX
8
0
10
-5.5708
20
133
30
3.9536
70
32
0
VERTEX
8
0
10
-5.5585
20
133
30
3.8713
70
32
0
VERTEX
8
0
10
-5.5117
20
133
30
3.7752
70
32
0
VERTEX
8
0
10
-5.4396
20
133
30
3.6671
70
32
0
VERTEX
8
0
10
-5.3447
20
133
30
3.5475
70
32
0
VERTEX
8
0
10
-5.2266
20
133
30
3.4184
70
32
0
VERTEX
8
0
10
-5.0864
20
133
30
3.28
70
32
0
VERTEX
8
0
10
-4.9255
20
133
30
3.1323
70
32
0
VERTEX
8
0
10
-4.7447
20
133
30
2.9754
70
32
0
VERTEX
8
0
10
-4.5445
20
133
30
2.8098
70
32
0
VERTEX
8
0
10
-4.3259
20
133
30
2.6358
70
32
0
VERTEX
8
0
10
-4.0894
20
133
30
2.4535
70
32
0
VERTEX
8
0
10
-3.8359
20
133
30
2.2633
70
32
0
VERTEX
8
0
10
-3.5661
20
133
30
2.0655
70
32
0
VERTEX
8
0
10
-3.2808
20
133
30
1.8605
70
32
0
VERTEX
8
0
10
-2.981
20
133
30
1.6483
70
32
0
VERTEX
8
0
10
-2.6676
20
133
30
1.4294
70
32
0
VERTEX
8
0
10
-2.3414
20
133
30
1.204
70
32
0
VERTEX
8
0
10
-2.0034
20
133
30
0.9726
70
32
0
VERTEX
8
0
10
-1.6545
20
133
30
0.7355
70
32
0
VERTEX
8
0
10
-1.2955
20
133
30
0.4932
70
32
0
VERTEX
8
0
10
-0.9277
20
133
30
0.246
70
32
0
VERTEX
8
0
10
-0.5518
20
133
30
-0.0056
70
32
0
VERTEX
8
0
10
-0.169
20
133
30
-0.2611
70
32
0
VERTEX
8
0
10
0.2198
20
133
30
-0.5202
70
32
0
VERTEX
8
0
10
0.6135
20
133
30
-0.7823
70
32
0
VERTEX
8
0
10
1.0111
20
133
30
-1.0469
70
32
0
VERTEX
8
0
10
1.4115
20
133
30
-1.3135
70
32
0
VERTEX
8
0
10
1.8138
20
133
30
-1.5815
70
32
0
VERTEX
8
0
10
2.2169
20
133
30
-1.8504
70
32
0
VERTEX
8
0
10
2.6198
20
133
30
-2.1196
70
32
0
VERTEX
8
0
10
3.0215
20
133
30
-2.3886
70
32
0
VERTEX
8
0
10
3.4209
20
133
30
-2.6568
70
32
0
VERTEX
8
0
10
3.8171
20
133
30
-2.9234
70
32
0
VERTEX
8
0
10
4.2091
20
133
30
-3.188
70
32
0
VERTEX
8
0
10
4.5959
20
133
30
-3.4499
70
32
0
VERTEX
8
0
10
4.9767
20
133
30
-3.7086
70
32
0
VERTEX
8
0
10
5.3504
20
133
30
-3.9633
70
32
0
VERTEX
8
0
10
5.7162
20
133
30
-4.2136
70
32
0
VERTEX
8
0
10
6.0733
20
133
30
-4.4587
70
32
0
VERTEX
8
0
10
6.4207
20
133
30
-4.698
70
32
0
VERTEX
8
0
10
6.7577
20
133
30
-4.9309
70
32
0
VERTEX
8
0
10
7.0834
20
133
30
-5.1569
70
32
0
VERTEX
8
0
10
7.3971
20
133
30
-5.3754
70
32
0
VERTEX
8
0
10
7.6981
20
133
30
-5.5859
70
32
0
VERTEX
8
0
10
7.9857
20
133
30
-5.7877
70
32
0
VERTEX
8
0
10
8.2592
20
133
30
-5.9803
70
32
0
VERTEX
8
0
10
8.518
20
133
30
-6.1631
70
32
0
VERTEX
8
0
10
8.7617
20
133
30
-6.3356
70
32
0
VERTEX
8
0
10
8.9898
20
133
30
-6.4972
70
32
0
VERTEX
8
0
10
9.2018
20
133
30
-6.6472
70
32
0
VERTEX
8
0
10
9.3973
20
133
30
-6.7853
70
32
0
VERTEX
8
0
10
9.5757
20
133
30
-6.9113
70
32
0
VERTEX
8
0
10
9.7366
20
133
30
-7.0248
70
32
0
VERTEX
8
0
10
9.8793
20
133
30
-7.1262
70
32
0
VERTEX
8
0
10
10.0033
20
133
30
-7.2152
70
32
0
VERTEX
8
0
10
10.1082
20
133
30
-7.2917
70
32
0
VERTEX
8
0
10
10.1939
20
133
30
-7.3556
70
32
0
VERTEX
8
0
10
10.2601
20
133
30
-7.4066
70
32
0
VERTEX
8
0
10
10.3073
20
133
30
-7.4436
70
32
0
VERTEX
8
0
10
9.6951
20
142.5
30
-6.5545
70
32
0
VERTEX
8
0
10
9.6537
20
142.5
30
-6.5162
70
32
0
VERTEX
8
0
10
9.5964
20
142.5
30
-6.4625
70
32
0
VERTEX
8
0
10
9.5244
20
142.5
30
-6.3927
70
32
0
VERTEX
8
0
10
9.4377
20
142.5
30
-6.3069
70
32
0
VERTEX
8
0
10
9.3365
20
142.5
30
-6.2053
70
32
0
VERTEX
8
0
10
9.2208
20
142.5
30
-6.0886
70
32
0
VERTEX
8
0
10
9.0904
20
142.5
30
-5.9574
70
32
0
VERTEX
8
0
10
8.9452
20
142.5
30
-5.8125
70
32
0
VERTEX
8
0
10
8.7853
20
142.5
30
-5.6544
70
32
0
VERTEX
8
0
10
8.611
20
142.5
30
-5.4838
70
32
0
VERTEX
8
0
10
8.4228
20
142.5
30
-5.3009
70
32
0
VERTEX
8
0
10
8.2211
20
142.5
30
-5.106
70
32
0
VERTEX
8
0
10
8.0066
20
142.5
30
-4.8997
70
32
0
VERTEX
8
0
10
7.78
20
142.5
30
-4.6821
70
32
0
VERTEX
8
0
10
7.5417
20
142.5
30
-4.4539
70
32
0
VERTEX
8
0
10
7.2923
20
142.5
30
-4.2156
70
32
0
VERTEX
8
0
10
7.0323
20
142.5
30
-3.968
70
32
0
VERTEX
8
0
10
6.7622
20
142.5
30
-3.7116
70
32
0
VERTEX
8
0
10
6.4828
20
142.5
30
-3.4471
70
32
0
VERTEX
8
0
10
6.1946
20
142.5
30
-3.1753
70
32
0
VERTEX
8
0
10
5.898
20
142.5
30
-2.897
70
32
0
VERTEX
8
0
10
5.5936
20
142.5
30
-2.613
70
32
0
VERTEX
8
0
10
5.2821
20
142.5
30
-2.3242
70
32
0
VERTEX
8
0
10
4.9641
20
142.5
30
-2.0314
70
32
0
VERTEX
8
0
10
4.64
20
142.5
30
-1.7356
70
32
0
VERTEX
8
0
10
4.3102
20
142.5
30
-1.438
70
32
0
VERTEX
8
0
10
3.9751
20
142.5
30
-1.1398
70
32
0
VERTEX
8
0
10
3.6349
20
142.5
30
-0.8424
70
32
0
VERTEX
8
0
10
3.2897
20
142.5
30
-0.5476
70
32
0
VERTEX
8
0
10
2.9398
20
142.5
30
-0.2566
70
32
0
VERTEX
8
0
10
2.5858
20
142.5
30
0.0295
70
32
0
VERTEX
8
0
10
2.2282
20
142.5
30
0.3092
70
32
0
VERTEX
8
0
10
1.8676
20
142.5
30
0.5816
70
32
0
VERTEX
8
0
10
1.5047
20
142.5
30
0.8452
70
32
0
VERTEX
8
0
10
1.1401
20
142.5
30
1.099
70
32
0
VERTEX
8
0
10
0.7751
20
142.5
30
1.3426
70
32
0
VERTEX
8
0
10
0.4107
20
142.5
30
1.5753
70
32
0
VERTEX
8
0
10
0.048
20
142.5
30
1.7966
70
32
0
VERTEX
8
0
10
-0.3115
20
142.5
30
2.0065
70
32
0
VERTEX
8
0
10
-0.6668
20
142.5
30
2.2044
70
32
0
VERTEX
8
0
10
-1.0167
20
142.5
30
2.3904
70
32
0
VERTEX
8
0
10
-1.3598
20
142.5
30
2.5645
70
32
0
VERTEX
8
0
10
-1.6951
20
142.5
30
2.7265
70
32
0
VERTEX
8
0
10
-2.0215
20
142.5
30
2.8763
70
32
0
VERTEX
8
0
10
-2.338
20
142.5
30
3.0134
70
32
0
VERTEX
8
0
10
-2.6437
20
142.5
30
3.1378
70
32
0
VERTEX
8
0
10
-2.9375
20
142.5
30
3.2491
70
32
0
VERTEX
8
0
10
-3.2186
20
142.5
30
3.3471
70
32
0
VERTEX
8
0
10
-3.486
20
142.5
30
3.4316
70
32
0
VERTEX
8
0
10
-3.7387
20
142.5
30
3.5026
70
32
0
VERTEX
8
0
10
-3.9759
20
142.5
30
3.5601
70
32
0
VERTEX
8
0
10
-4.1964
20
142.5
30
3.6041
70
32
0
VERTEX
8
0
10
-4.3993
20
142.5
30
3.6346
70
32
0
VERTEX
8
0
10
-4.5834
20
142.5
30
3.6521
70
32
0
VERTEX
8
0
10
-4.7478
20
142.5
30
3.657
70
32
0
VERTEX
8
0
10
-4.891
20
142.5
30
3.6493
70
32
0
VERTEX
8
0
10
-5.0115
20
142.5
30
3.6302
70
32
0
VERTEX
8
0
10
-5.108
20
142.5
30
3.6027
70
32
0
VERTEX
8
0
10
-5.1787
20
142.5
30
3.5688
70
32
0
VERTEX
8
0
10
-5.2197
20
142.5
30
3.5304
70
32
0
VERTEX
8
0
10
-5.2379
20
142.5
30
3.4786
70
32
0
VERTEX
8
0
10
-5.2242
20
142.5
30
3.4032
70
32
0
VERTEX
8
0
10
-5.1785
20
142.5
30
3.3162
70
32
0
VERTEX
8
0
10
-5.1091
20
142.5
30
3.2188
70
32
0
VERTEX
8
0
10
-5.0183
20
142.5
30
3.1115
70
32
0
VERTEX
8
0
10
-4.906
20
142.5
30
2.996
70
32
0
VERTEX
8
0
10
-4.773
20
142.5
30
2.8727
70
32
0
VERTEX
8
0
10
-4.6208
20
142.5
30
2.7413
70
32
0
VERTEX
8
0
10
-4.45
20
142.5
30
2.6022
70
32
0
VERTEX
8
0
10
-4.2612
20
142.5
30
2.4556
70
32
0
VERTEX
8
0
10
-4.055
20
142.5
30
2.3017
70
32
0
VERTEX
8
0
10
-3.8322
20
142.5
30
2.1407
70
32
0
VERTEX
8
0
10
-3.5936
20
142.5
30
1.9729
70
32
0
VERTEX
8
0
10
-3.3397
20
142.5
30
1.7987
70
32
0
VERTEX
8
0
10
-3.0714
20
142.5
30
1.6182
70
32
0
VERTEX
8
0
10
-2.7896
20
142.5
30
1.4315
70
32
0
VERTEX
8
0
10
-2.495
20
142.5
30
1.239
70
32
0
VERTEX
8
0
10
-2.1885
20
142.5
30
1.041
70
32
0
VERTEX
8
0
10
-1.8709
20
142.5
30
0.8377
70
32
0
VERTEX
8
0
10
-1.5431
20
142.5
30
0.6295
70
32
0
VERTEX
8
0
10
-1.206
20
142.5
30
0.4168
70
32
0
VERTEX
8
0
10
-0.8605
20
142.5
30
0.1999
70
32
0
VERTEX
8
0
10
-0.5075
20
142.5
30
-0.0209
70
32
0
VERTEX
8
0
10
-0.148
20
142.5
30
-0.2451
70
32
0
VERTEX
8
0
10
0.2171
20
142.5
30
-0.4723
70
32
0
VERTEX
8
0
10
0.5867
20
142.5
30
-0.7022
70
32
0
VERTEX
8
0
10
0.9601
20
142.5
30
-0.9343
70
32
0
VERTEX
8
0
10
1.3361
20
142.5
30
-1.1682
70
32
0
VERTEX
8
0
10
1.7138
20
142.5
30
-1.4033
70
32
0
VERTEX
8
0
10
2.0924
20
142.5
30
-1.6392
70
32
0
VERTEX
8
0
10
2.4707
20
142.5
30
-1.8754
70
32
0
VERTEX
8
0
10
2.8479
20
142.5
30
-2.1115
70
32
0
VERTEX
8
0
10
3.223
20
142.5
30
-2.3468
70
32
0
VERTEX
8
0
10
3.5951
20
142.5
30
-2.5808
70
32
0
VERTEX
8
0
10
3.9633
20
142.5
30
-2.8131
70
32
0
VERTEX
8
0
10
4.3267
20
142.5
30
-3.043
70
32
0
VERTEX
8
0
10
4.6844
20
142.5
30
-3.2701
70
32
0
VERTEX
8
0
10
5.0355
20
142.5
30
-3.4938
70
32
0
VERTEX
8
0
10
5.3791
20
142.5
30
-3.7136
70
32
0
VERTEX
8
0
10
5.7146
20
142.5
30
-3.9289
70
32
0
VERTEX
8
0
10
6.0411
20
142.5
30
-4.1392
70
32
0
VERTEX
8
0
10
6.3577
20
142.5
30
-4.3439
70
32
0
VERTEX
8
0
10
6.6638
20
142.5
30
-4.5426
70
32
0
VERTEX
8
0
10
6.9587
20
142.5
30
-4.7347
70
32
0
VERTEX
8
0
10
7.2416
20
142.5
30
-4.9197
70
32
0
VERTEX
8
0
10
7.5119
20
142.5
30
-5.0971
70
32
0
VERTEX
8
0
10
7.769
20
142.5
30
-5.2665
70
32
0
VERTEX
8
0
10
8.0124
20
142.5
30
-5.4274
70
32
0
VERTEX
8
0
10
8.2415
20
142.5
30
-5.5792
70
32
0
VERTEX
8
0
10
8.4559
20
142.5
30
-5.7213
70
32
0
VERTEX
8
0
10
8.6553
20
142.5
30
-5.8533
70
32
0
VERTEX
8
0
10
8.8391
20
142.5
30
-5.9748
70
32
0
VERTEX
8
0
10
9.0068
20
142.5
30
-6.0856
70
32
0
VERTEX
8
0
10
9.1581
20
142.5
30
-6.1855
70
32
0
VERTEX
8
0
10
9.2923
20
142.5
30
-6.2746
70
32
0
VERTEX
8
0
10
9.4088
20
142.5
30
-6.353
70
32
0
VERTEX
8
0
10
9.5076
20
142.5
30
-6.4204
70
32
0
VERTEX
8
0
10
9.5882
20
142.5
30
-6.4767
70
32
0
VERTEX
8
0
10
9.6506
20
142.5
30
-6.5218
70
32
0
VERTEX
8
0
10
9.6951
20
142.5
30
-6.5545
70
32
0
VERTEX
8
0
10
8.869
20
152
30
-5.6397
70
32
0
VERTEX
8
0
10
8.8309
20
152
30
-5.6064
70
32
0
VERTEX
8
0
10
8.7781
20
152
30
-5.5597
70
32
0
VERTEX
8
0
10
8.7116
20
152
30
-5.4988
70
32
0
VERTEX
8
0
10
8.6317
20
152
30
-5.4239
70
32
0
VERTEX
8
0
10
8.5383
20
152
30
-5.3353
70
32
0
VERTEX
8
0
10
8.4315
20
152
30
-5.2334
70
32
0
VERTEX
8
0
10
8.3111
20
152
30
-5.119
70
32
0
VERTEX
8
0
10
8.1771
20
152
30
-4.9926
70
32
0
VERTEX
8
0
10
8.0296
20
152
30
-4.8547
70
32
0
VERTEX
8
0
10
7.8688
20
152
30
-4.7059
70
32
0
VERTEX
8
0
10
7.6952
20
152
30
-4.5464
70
32
0
VERTEX
8
0
10
7.5092
20
152
30
-4.3766
70
32
0
VERTEX
8
0
10
7.3115
20
152
30
-4.1967
70
32
0
VERTEX
8
0
10
7.1025
20
152
30
-4.0071
70
32
0
VERTEX
8
0
10
6.8828
20
152
30
-3.8082
70
32
0
VERTEX
8
0
10
6.6529
20
152
30
-3.6006
70
32
0
VERTEX
8
0
10
6.4132
20
152
30
-3.3849
70
32
0
VERTEX
8
0
10
6.1644
20
152
30
-3.1616
70
32
0
VERTEX
8
0
10
5.9068
20
152
30
-2.9312
70
32
0
VERTEX
8
0
10
5.6412
20
152
30
-2.6944
70
32
0
VERTEX
8
0
10
5.3679
20
152
30
-2.452
70
32
0
VERTEX
8
0
10
5.0875
20
152
30
-2.2048
70
32
0
VERTEX
8
0
10
4.8006
20
152
30
-1.9533
70
32
0
VERTEX
8
0
10
4.5077
20
152
30
-1.6985
70
32
0
VERTEX
8
0
10
4.2093
20
152
30
-1.4411
70
32
0
VERTEX
8
0
10
3.9057
20
152
30
-1.1823
70
32
0
VERTEX
8
0
10
3.5974
20
152
30
-0.923
70
32
0
VERTEX
8
0
10
3.2845
20
152
30
-0.6646
70
32
0
VERTEX
8
0
10
2.9671
20
152
30
-0.4087
70
32
0
VERTEX
8
0
10
2.6456
20
152
30
-0.1562
70
32
0
VERTEX
8
0
10
2.3207
20
152
30
0.0917
70
32
0
VERTEX
8
0
10
1.9925
20
152
30
0.3338
70
32
0
VERTEX
8
0
10
1.662
20
152
30
0.5692
70
32
0
VERTEX
8
0
10
1.3295
20
152
30
0.7967
70
32
0
VERTEX
8
0
10
0.9958
20
152
30
1.0154
70
32
0
VERTEX
8
0
10
0.662
20
152
30
1.2249
70
32
0
VERTEX
8
0
10
0.329
20
152
30
1.4245
70
32
0
VERTEX
8
0
10
-0.0022
20
152
30
1.6141
70
32
0
VERTEX
8
0
10
-0.3302
20
152
30
1.7934
70
32
0
VERTEX
8
0
10
-0.6542
20
152
30
1.9621
70
32
0
VERTEX
8
0
10
-0.973
20
152
30
2.1203
70
32
0
VERTEX
8
0
10
-1.2854
20
152
30
2.268
70
32
0
VERTEX
8
0
10
-1.5906
20
152
30
2.4049
70
32
0
VERTEX
8
0
10
-1.8873
20
152
30
2.5312
70
32
0
VERTEX
8
0
10
-2.175
20
152
30
2.6463
70
32
0
VERTEX
8
0
10
-2.4525
20
152
30
2.7503
70
32
0
VERTEX
8
0
10
-2.7191
20
152
30
2.8428
70
32
0
VERTEX
8
0
10
-2.9739
20
152
30
2.9237
70
32
0
VERTEX
8
0
10
-3.2161
20
152
30
2.9928
70
32
0
VERTEX
8
0
10
-3.4448
20
152
30
3.0502
70
32
0
VERTEX
8
0
10
-3.6591
20
152
30
3.0958
70
32
0
VERTEX
8
0
10
-3.8582
20
152
30
3.1297
70
32
0
VERTEX
8
0
10
-4.0411
20
152
30
3.152
70
32
0
VERTEX
8
0
10
-4.2069
20
152
30
3.1631
70
32
0
VERTEX
8
0
10
-4.3545
20
152
30
3.1633
70
32
0
VERTEX
8
0
10
-4.4829
20
152
30
3.1528
70
32
0
VERTEX
8
0
10
-4.5906
20
152
30
3.1326
70
32
0
VERTEX
8
0
10
-4.6765
20
152
30
3.1055
70
32
0
VERTEX
8
0
10
-4.7392
20
152
30
3.0732
70
32
0
VERTEX
8
0
10
-4.775
20
152
30
3.0378
70
32
0
VERTEX
8
0
10
-4.79
20
152
30
2.9908
70
32
0
VERTEX
8
0
10
-4.7758
20
152
30
2.9235
70
32
0
VERTEX
8
0
10
-4.7326
20
152
30
2.8465
70
32
0
VERTEX
8
0
10
-4.6678
20
152
30
2.7608
70
32
0
VERTEX
8
0
10
-4.5837
20
152
30
2.6667
70
32
0
VERTEX
8
0
10
-4.4799
20
152
30
2.5659
70
32
0
VERTEX
8
0
10
-4.3574
20
152
30
2.4586
70
32
0
VERTEX
8
0
10
-4.2175
20
152
30
2.3445
70
32
0
VERTEX
8
0
10
-4.0606
20
152
30
2.2239
70
32
0
VERTEX
8
0
10
-3.8873
20
152
30
2.097
70
32
0
VERTEX
8
0
10
-3.6984
20
152
30
1.964
70
32
0
VERTEX
8
0
10
-3.4944
20
152
30
1.8251
70
32
0
VERTEX
8
0
10
-3.2759
20
152
30
1.6805
70
32
0
VERTEX
8
0
10
-3.0436
20
152
30
1.5305
70
32
0
VERTEX
8
0
10
-2.7982
20
152
30
1.3752
70
32
0
VERTEX
8
0
10
-2.5404
20
152
30
1.2148
70
32
0
VERTEX
8
0
10
-2.2711
20
152
30
1.0494
70
32
0
VERTEX
8
0
10
-1.991
20
152
30
0.8793
70
32
0
VERTEX
8
0
10
-1.7007
20
152
30
0.7049
70
32
0
VERTEX
8
0
10
-1.4012
20
152
30
0.5263
70
32
0
VERTEX
8
0
10
-1.0932
20
152
30
0.3438
70
32
0
VERTEX
8
0
10
-0.7775
20
152
30
0.1578
70
32
0
VERTEX
8
0
10
-0.4551
20
152
30
-0.0315
70
32
0
VERTEX
8
0
10
-0.1267
20
152
30
-0.2237
70
32
0
VERTEX
8
0
10
0.2068
20
152
30
-0.4185
70
32
0
VERTEX
8
0
10
0.5445
20
152
30
-0.6156
70
32
0
VERTEX
8
0
10
0.8855
20
152
30
-0.8146
70
32
0
VERTEX
8
0
10
1.2289
20
152
30
-1.015
70
32
0
VERTEX
8
0
10
1.574
20
152
30
-1.2166
70
32
0
VERTEX
8
0
10
1.9197
20
152
30
-1.4188
70
32
0
VERTEX
8
0
10
2.2653
20
152
30
-1.6213
70
32
0
VERTEX
8
0
10
2.6099
20
152
30
-1.8237
70
32
0
VERTEX
8
0
10
2.9526
20
152
30
-2.0255
70
32
0
VERTEX
8
0
10
3.2926
20
152
30
-2.2263
70
32
0
VERTEX
8
0
10
3.629
20
152
30
-2.4255
70
32
0
VERTEX
8
0
10
3.961
20
152
30
-2.6227
70
32
0
VERTEX
8
0
10
4.2878
20
152
30
-2.8176
70
32
0
VERTEX
8
0
10
4.6087
20
152
30
-3.0096
70
32
0
VERTEX
8
0
10
4.9227
20
152
30
-3.1982
70
32
0
VERTEX
8
0
10
5.2293
20
152
30
-3.3831
70
32
0
VERTEX
8
0
10
5.5277
20
152
30
-3.5636
70
32
0
VERTEX
8
0
10
5.8172
20
152
30
-3.7394
70
32
0
VERTEX
8
0
10
6.097
20
152
30
-3.91
70
32
0
VERTEX
8
0
10
6.3665
20
152
30
-4.075
70
32
0
VERTEX
8
0
10
6.6252
20
152
30
-4.234
70
32
0
VERTEX
8
0
10
6.8723
20
152
30
-4.3865
70
32
0
VERTEX
8
0
10
7.1074
20
152
30
-4.5321
70
32
0
VERTEX
8
0
10
7.3299
20
152
30
-4.6704
70
32
0
VERTEX
8
0
10
7.5395
20
152
30
-4.8008
70
32
0
VERTEX
8
0
10
7.7355
20
152
30
-4.923
70
32
0
VERTEX
8
0
10
7.9178
20
152
30
-5.0365
70
32
0
VERTEX
8
0
10
8.0859
20
152
30
-5.1409
70
32
0
VERTEX
8
0
10
8.2393
20
152
30
-5.2361
70
32
0
VERTEX
8
0
10
8.3776
20
152
30
-5.322
70
32
0
VERTEX
8
0
10
8.5003
20
152
30
-5.3987
70
32
0
VERTEX
8
0
10
8.6069
20
152
30
-5.4661
70
32
0
VERTEX
8
0
10
8.6973
20
152
30
-5.5241
70
32
0
VERTEX
8
0
10
8.7711
20
152
30
-5.5726
70
32
0
VERTEX
8
0
10
8.8282
20
152
30
-5.6115
70
32
0
VERTEX
8
0
10
8.869
20
152
30
-5.6397
70
32
0
VERTEX
8
0
10
7.8105
20
161.5
30
-4.6909
70
32
0
VERTEX
8
0
10
7.7767
20
161.5
30
-4.6629
70
32
0
VERTEX
8
0
10
7.73
20
161.5
30
-4.6235
70
32
0
VERTEX
8
0
10
7.671
20
161.5
30
-4.5723
70
32
0
VERTEX
8
0
10
7.6
20
161.5
30
-4.5091
70
32
0
VERTEX
8
0
10
7.5172
20
161.5
30
-4.4344
70
32
0
VERTEX
8
0
10
7.4223
20
161.5
30
-4.3485
70
32
0
VERTEX
8
0
10
7.3155
20
161.5
30
-4.2519
70
32
0
VERTEX
8
0
10
7.1966
20
161.5
30
-4.1454
70
32
0
VERTEX
8
0
10
7.0657
20
161.5
30
-4.0292
70
32
0
VERTEX
8
0
10
6.9231
20
161.5
30
-3.9038
70
32
0
VERTEX
8
0
10
6.7691
20
161.5
30
-3.7694
70
32
0
VERTEX
8
0
10
6.6042
20
161.5
30
-3.6264
70
32
0
VERTEX
8
0
10
6.4288
20
161.5
30
-3.4749
70
32
0
VERTEX
8
0
10
6.2435
20
161.5
30
-3.3152
70
32
0
VERTEX
8
0
10
6.0488
20
161.5
30
-3.1477
70
32
0
VERTEX
8
0
10
5.8449
20
161.5
30
-2.9729
70
32
0
VERTEX
8
0
10
5.6325
20
161.5
30
-2.7913
70
32
0
VERTEX
8
0
10
5.4118
20
161.5
30
-2.6032
70
32
0
VERTEX
8
0
10
5.1836
20
161.5
30
-2.4093
70
32
0
VERTEX
8
0
10
4.9482
20
161.5
30
-2.21
70
32
0
VERTEX
8
0
10
4.706
20
161.5
30
-2.006
70
32
0
VERTEX
8
0
10
4.4575
20
161.5
30
-1.7979
70
32
0
VERTEX
8
0
10
4.2033
20
161.5
30
-1.5864
70
32
0
VERTEX
8
0
10
3.9438
20
161.5
30
-1.372
70
32
0
VERTEX
8
0
10
3.6795
20
161.5
30
-1.1556
70
32
0
VERTEX
8
0
10
3.4108
20
161.5
30
-0.938
70
32
0
VERTEX
8
0
10
3.1378
20
161.5
30
-0.7202
70
32
0
VERTEX
8
0
10
2.861
20
161.5
30
-0.5032
70
32
0
VERTEX
8
0
10
2.5803
20
161.5
30
-0.2884
70
32
0
VERTEX
8
0
10
2.2961
20
161.5
30
-0.0768
70
32
0
VERTEX
8
0
10
2.009
20
161.5
30
0.1308
70
32
0
VERTEX
8
0
10
1.7193
20
161.5
30
0.3334
70
32
0
VERTEX
8
0
10
1.4276
20
161.5
30
0.53
70
32
0
VERTEX
8
0
10
1.1345
20
161.5
30
0.7199
70
32
0
VERTEX
8
0
10
0.8404
20
161.5
30
0.9019
70
32
0
VERTEX
8
0
10
0.5465
20
161.5
30
1.0761
70
32
0
VERTEX
8
0
10
0.2535
20
161.5
30
1.2417
70
32
0
VERTEX
8
0
10
-0.0376
20
161.5
30
1.3987
70
32
0
VERTEX
8
0
10
-0.3259
20
161.5
30
1.5468
70
32
0
VERTEX
8
0
10
-0.6104
20
161.5
30
1.6858
70
32
0
VERTEX
8
0
10
-0.8901
20
161.5
30
1.8159
70
32
0
VERTEX
8
0
10
-1.1641
20
161.5
30
1.9369
70
32
0
VERTEX
8
0
10
-1.4316
20
161.5
30
2.0488
70
32
0
VERTEX
8
0
10
-1.6916
20
161.5
30
2.1516
70
32
0
VERTEX
8
0
10
-1.9433
20
161.5
30
2.245
70
32
0
VERTEX
8
0
10
-2.1861
20
161.5
30
2.329
70
32
0
VERTEX
8
0
10
-2.4192
20
161.5
30
2.4033
70
32
0
VERTEX
8
0
10
-2.6418
20
161.5
30
2.4677
70
32
0
VERTEX
8
0
10
-2.8532
20
161.5
30
2.5223
70
32
0
VERTEX
8
0
10
-3.0527
20
161.5
30
2.5669
70
32
0
VERTEX
8
0
10
-3.2394
20
161.5
30
2.6017
70
32
0
VERTEX
8
0
10
-3.4127
20
161.5
30
2.6267
70
32
0
VERTEX
8
0
10
-3.5717
20
161.5
30
2.642
70
32
0
VERTEX
8
0
10
-3.7156
20
161.5
30
2.6479
70
32
0
VERTEX
8
0
10
-3.8436
20
161.5
30
2.6448
70
32
0
VERTEX
8
0
10
-3.9545
20
161.5
30
2.6329
70
32
0
VERTEX
8
0
10
-4.0474
20
161.5
30
2.613
70
32
0
VERTEX
8
0
10
-4.1213
20
161.5
30
2.5876
70
32
0
VERTEX
8
0
10
-4.1748
20
161.5
30
2.5583
70
32
0
VERTEX
8
0
10
-4.2051
20
161.5
30
2.5267
70
32
0
VERTEX
8
0
10
-4.2171
20
161.5
30
2.4857
70
32
0
VERTEX
8
0
10
-4.2033
20
161.5
30
2.4277
70
32
0
VERTEX
8
0
10
-4.1641
20
161.5
30
2.3619
70
32
0
VERTEX
8
0
10
-4.1061
20
161.5
30
2.2891
70
32
0
VERTEX
8
0
10
-4.0311
20
161.5
30
2.2094
70
32
0
VERTEX
8
0
10
-3.939
20
161.5
30
2.1244
70
32
0
VERTEX
8
0
10
-3.8304
20
161.5
30
2.0341
70
32
0
VERTEX
8
0
10
-3.7066
20
161.5
30
1.9383
70
32
0
VERTEX
8
0
10
-3.568
20
161.5
30
1.8372
70
32
0
VERTEX
8
0
10
-3.4151
20
161.5
30
1.7311
70
32
0
VERTEX
8
0
10
-3.2484
20
161.5
30
1.6201
70
32
0
VERTEX
8
0
10
-3.0685
20
161.5
30
1.5043
70
32
0
VERTEX
8
0
10
-2.876
20
161.5
30
1.3838
70
32
0
VERTEX
8
0
10
-2.6714
20
161.5
30
1.2589
70
32
0
VERTEX
8
0
10
-2.4553
20
161.5
30
1.1298
70
32
0
VERTEX
8
0
10
-2.2284
20
161.5
30
0.9965
70
32
0
VERTEX
8
0
10
-1.9913
20
161.5
30
0.8591
70
32
0
VERTEX
8
0
10
-1.7448
20
161.5
30
0.7179
70
32
0
VERTEX
8
0
10
-1.4894
20
161.5
30
0.5732
70
32
0
VERTEX
8
0
10
-1.2259
20
161.5
30
0.425
70
32
0
VERTEX
8
0
10
-0.9549
20
161.5
30
0.2737
70
32
0
VERTEX
8
0
10
-0.6773
20
161.5
30
0.1195
70
32
0
VERTEX
8
0
10
-0.3937
20
161.5
30
-0.0374
70
32
0
VERTEX
8
0
10
-0.1048
20
161.5
30
-0.1967
70
32
0
VERTEX
8
0
10
0.1885
20
161.5
30
-0.3581
70
32
0
VERTEX
8
0
10
0.4854
20
161.5
30
-0.5214
70
32
0
VERTEX
8
0
10
0.7853
20
161.5
30
-0.6863
70
32
0
VERTEX
8
0
10
1.0874
20
161.5
30
-0.8524
70
32
0
VERTEX
8
0
10
1.3909
20
161.5
30
-1.0194
70
32
0
VERTEX
8
0
10
1.695
20
161.5
30
-1.187
70
32
0
VERTEX
8
0
10
1.999
20
161.5
30
-1.3549
70
32
0
VERTEX
8
0
10
2.3021
20
161.5
30
-1.5226
70
32
0
VERTEX
8
0
10
2.6035
20
161.5
30
-1.6899
70
32
0
VERTEX
8
0
10
2.9025
20
161.5
30
-1.8563
70
32
0
VERTEX
8
0
10
3.1985
20
161.5
30
-2.0215
70
32
0
VERTEX
8
0
10
3.4906
20
161.5
30
-2.1851
70
32
0
VERTEX
8
0
10
3.7781
20
161.5
30
-2.3467
70
32
0
VERTEX
8
0
10
4.0604
20
161.5
30
-2.506
70
32
0
VERTEX
8
0
10
4.3367
20
161.5
30
-2.6625
70
32
0
VERTEX
8
0
10
4.6065
20
161.5
30
-2.8159
70
32
0
VERTEX
8
0
10
4.869
20
161.5
30
-2.9657
70
32
0
VERTEX
8
0
10
5.1238
20
161.5
30
-3.1117
70
32
0
VERTEX
8
0
10
5.37
20
161.5
30
-3.2533
70
32
0
VERTEX
8
0
10
5.6073
20
161.5
30
-3.3903
70
32
0
VERTEX
8
0
10
5.8349
20
161.5
30
-3.5224
70
32
0
VERTEX
8
0
10
6.0525
20
161.5
30
-3.649
70
32
0
VERTEX
8
0
10
6.2594
20
161.5
30
-3.77
70
32
0
VERTEX
8
0
10
6.4553
20
161.5
30
-3.8849
70
32
0
VERTEX
8
0
10
6.6398
20
161.5
30
-3.9933
70
32
0
VERTEX
8
0
10
6.8124
20
161.5
30
-4.0949
70
32
0
VERTEX
8
0
10
6.9729
20
161.5
30
-4.1892
70
32
0
VERTEX
8
0
10
7.1208
20
161.5
30
-4.276
70
32
0
VERTEX
8
0
10
7.2559
20
161.5
30
-4.3551
70
32
0
VERTEX
8
0
10
7.3776
20
161.5
30
-4.4264
70
32
0
VERTEX
8
0
10
7.4856
20
161.5
30
-4.4901
70
32
0
VERTEX
8
0
10
7.5795
20
161.5
30
-4.5462
70
32
0
VERTEX
8
0
10
7.6591
20
161.5
30
-4.5945
70
32
0
VERTEX
8
0
10
7.7242
20
161.5
30
-4.6349
70
32
0
VERTEX
8
0
10
7.7745
20
161.5
30
-4.6673
70
32
0
VERTEX
8
0
10
7.8105
20
161.5
30
-4.6909
70
32
0
VERTEX
8
0
10
6.4557
20
171
30
-3.6753
70
32
0
VERTEX
8
0
10
6.4276
20
171
30
-3.6531
70
32
0
VERTEX
8
0
10
6.3888
20
171
30
-3.6219
70
32
0
VERTEX
8
0
10
6.3398
20
171
30
-3.5813
70
32
0
VERTEX
8
0
10
6.2807
20
171
30
-3.5311
70
32
0
VERTEX
8
0
10
6.2117
20
171
30
-3.4718
70
32
0
VERTEX
8
0
10
6.1328
20
171
30
-3.4036
70
32
0
VERTEX
8
0
10
6.0439
20
171
30
-3.3269
70
32
0
VERTEX
8
0
10
5.9449
20
171
30
-3.2423
70
32
0
VERTEX
8
0
10
5.836
20
171
30
-3.1501
70
32
0
VERTEX
8
0
10
5.7174
20
171
30
-3.0506
70
32
0
VERTEX
8
0
10
5.5893
20
171
30
-2.944
70
32
0
VERTEX
8
0
10
5.4522
20
171
30
-2.8305
70
32
0
VERTEX
8
0
10
5.3064
20
171
30
-2.7104
70
32
0
VERTEX
8
0
10
5.1523
20
171
30
-2.5837
70
32
0
VERTEX
8
0
10
4.9904
20
171
30
-2.4509
70
32
0
VERTEX
8
0
10
4.8209
20
171
30
-2.3123
70
32
0
VERTEX
8
0
10
4.6442
20
171
30
-2.1683
70
32
0
VERTEX
8
0
10
4.4608
20
171
30
-2.0192
70
32
0
VERTEX
8
0
10
4.2711
20
171
30
-1.8654
70
32
0
VERTEX
8
0
10
4.0754
20
171
30
-1.7074
70
32
0
VERTEX
8
0
10
3.8741
20
171
30
-1.5457
70
32
0
VERTEX
8
0
10
3.6676
20
171
30
-1.3809
70
32
0
VERTEX
8
0
10
3.4564
20
171
30
-1.2133
70
32
0
VERTEX
8
0
10
3.2408
20
171
30
-1.0435
70
32
0
VERTEX
8
0
10
3.0213
20
171
30
-0.8721
70
32
0
VERTEX
8
0
10
2.7981
20
171
30
-0.6998
70
32
0
VERTEX
8
0
10
2.5714
20
171
30
-0.5275
70
32
0
VERTEX
8
0
10
2.3416
20
171
30
-0.3559
70
32
0
VERTEX
8
0
10
2.1087
20
171
30
-0.1861
70
32
0
VERTEX
8
0
10
1.8731
20
171
30
-0.019
70
32
0
VERTEX
8
0
10
1.6351
20
171
30
0.1448
70
32
0
VERTEX
8
0
10
1.3951
20
171
30
0.3044
70
32
0
VERTEX
8
0
10
1.1536
20
171
30
0.4592
70
32
0
VERTEX
8
0
10
0.9111
20
171
30
0.6083
70
32
0
VERTEX
8
0
10
0.6679
20
171
30
0.7512
70
32
0
VERTEX
8
0
10
0.425
20
171
30
0.8875
70
32
0
VERTEX
8
0
10
0.1831
20
171
30
1.017
70
32
0
VERTEX
8
0
10
-0.0572
20
171
30
1.1394
70
32
0
VERTEX
8
0
10
-0.295
20
171
30
1.2547
70
32
0
VERTEX
8
0
10
-0.5296
20
171
30
1.3626
70
32
0
VERTEX
8
0
10
-0.7601
20
171
30
1.4633
70
32
0
VERTEX
8
0
10
-0.9857
20
171
30
1.5567
70
32
0
VERTEX
8
0
10
-1.2059
20
171
30
1.6429
70
32
0
VERTEX
8
0
10
-1.4197
20
171
30
1.7217
70
32
0
VERTEX
8
0
10
-1.6267
20
171
30
1.7931
70
32
0
VERTEX
8
0
10
-1.8262
20
171
30
1.8569
70
32
0
VERTEX
8
0
10
-2.0176
20
171
30
1.913
70
32
0
VERTEX
8
0
10
-2.2003
20
171
30
1.9613
70
32
0
VERTEX
8
0
10
-2.3737
20
171
30
2.0018
70
32
0
VERTEX
8
0
10
-2.5371
20
171
30
2.0344
70
32
0
VERTEX
8
0
10
-2.69
20
171
30
2.0592
70
32
0
VERTEX
8
0
10
-2.8317
20
171
30
2.0763
70
32
0
VERTEX
8
0
10
-2.9616
20
171
30
2.0857
70
32
0
VERTEX
8
0
10
-3.079
20
171
30
2.0878
70
32
0
VERTEX
8
0
10
-3.1833
20
171
30
2.0829
70
32
0
VERTEX
8
0
10
-3.2735
20
171
30
2.071
70
32
0
VERTEX
8
0
10
-3.3488
20
171
30
2.0531
70
32
0
VERTEX
8
0
10
-3.4086
20
171
30
2.0309
70
32
0
VERTEX
8
0
10
-3.4517
20
171
30
2.006
70
32
0
VERTEX
8
0
10
-3.4758
20
171
30
1.9797
70
32
0
VERTEX
8
0
10
-3.4847
20
171
30
1.9461
70
32
0
VERTEX
8
0
10
-3.4724
20
171
30
1.899
70
32
0
VERTEX
8
0
10
-3.4392
20
171
30
1.8462
70
32
0
VERTEX
8
0
10
-3.3905
20
171
30
1.7879
70
32
0
VERTEX
8
0
10
-3.3279
20
171
30
1.7244
70
32
0
VERTEX
8
0
10
-3.2511
20
171
30
1.6568
70
32
0
VERTEX
8
0
10
-3.161
20
171
30
1.5853
70
32
0
VERTEX
8
0
10
-3.0582
20
171
30
1.5095
70
32
0
VERTEX
8
0
10
-2.9433
20
171
30
1.4298
70
32
0
VERTEX
8
0
10
-2.8166
20
171
30
1.3462
70
32
0
VERTEX
8
0
10
-2.6787
20
171
30
1.2589
70
32
0
VERTEX
8
0
10
-2.5298
20
171
30
1.1679
70
32
0
VERTEX
8
0
10
-2.3706
20
171
30
1.0733
70
32
0
VERTEX
8
0
10
-2.2014
20
171
30
0.9754
70
32
0
VERTEX
8
0
10
-2.0228
20
171
30
0.8743
70
32
0
VERTEX
8
0
10
-1.8353
20
171
30
0.7699
70
32
0
VERTEX
8
0
10
-1.6395
20
171
30
0.6625
70
32
0
VERTEX
8
0
10
-1.4359
20
171
30
0.552
70
32
0
VERTEX
8
0
10
-1.2249
20
171
30
0.4389
70
32
0
VERTEX
8
0
10
-1.0073
20
171
30
0.3232
70
32
0
VERTEX
8
0
10
-0.7836
20
171
30
0.205
70
32
0
VERTEX
8
0
10
-0.5543
20
171
30
0.0845
70
32
0
VERTEX
8
0
10
-0.3202
20
171
30
-0.038
70
32
0
VERTEX
8
0
10
-0.0817
20
171
30
-0.1623
70
32
0
VERTEX
8
0
10
0.1604
20
171
30
-0.2883
70
32
0
VERTEX
8
0
10
0.4056
20
171
30
-0.4158
70
32
0
VERTEX
8
0
10
0.6532
20
171
30
-0.5445
70
32
0
VERTEX
8
0
10
0.9026
20
171
30
-0.6741
70
32
0
VERTEX
8
0
10
1.1531
20
171
30
-0.8045
70
32
0
VERTEX
8
0
10
1.4042
20
171
30
-0.9354
70
32
0
VERTEX
8
0
10
1.6552
20
171
30
-1.0664
70
32
0
VERTEX
8
0
10
1.9054
20
171
30
-1.1974
70
32
0
VERTEX
8
0
10
2.1543
20
171
30
-1.328
70
32
0
VERTEX
8
0
10
2.4012
20
171
30
-1.458
70
32
0
VERTEX
8
0
10
2.6456
20
171
30
-1.587
70
32
0
VERTEX
8
0
10
2.8868
20
171
30
-1.7148
70
32
0
VERTEX
8
0
10
3.1242
20
171
30
-1.8411
70
32
0
VERTEX
8
0
10
3.3573
20
171
30
-1.9656
70
32
0
VERTEX
8
0
10
3.5856
20
171
30
-2.0879
70
32
0
VERTEX
8
0
10
3.8084
20
171
30
-2.2078
70
32
0
VERTEX
8
0
10
4.0253
20
171
30
-2.325
70
32
0
VERTEX
8
0
10
4.2357
20
171
30
-2.4391
70
32
0
VERTEX
8
0
10
4.4391
20
171
30
-2.5499
70
32
0
VERTEX
8
0
10
4.6351
20
171
30
-2.6571
70
32
0
VERTEX
8
0
10
4.8232
20
171
30
-2.7603
70
32
0
VERTEX
8
0
10
5.0029
20
171
30
-2.8595
70
32
0
VERTEX
8
0
10
5.1739
20
171
30
-2.9541
70
32
0
VERTEX
8
0
10
5.3358
20
171
30
-3.0441
70
32
0
VERTEX
8
0
10
5.4882
20
171
30
-3.1289
70
32
0
VERTEX
8
0
10
5.6308
20
171
30
-3.2084
70
32
0
VERTEX
8
0
10
5.7634
20
171
30
-3.2823
70
32
0
VERTEX
8
0
10
5.8856
20
171
30
-3.3502
70
32
0
VERTEX
8
0
10
5.9972
20
171
30
-3.4121
70
32
0
VERTEX
8
0
10
6.0978
20
171
30
-3.468
70
32
0
VERTEX
8
0
10
6.1871
20
171
30
-3.5178
70
32
0
VERTEX
8
0
10
6.2647
20
171
30
-3.5618
70
32
0
VERTEX
8
0
10
6.3305
20
171
30
-3.5996
70
32
0
VERTEX
8
0
10
6.3843
20
171
30
-3.6313
70
32
0
VERTEX
8
0
10
6.4259
20
171
30
-3.6568
70
32
0
VERTEX
8
0
10
6.4557
20
171
30
-3.6753
70
32
0
VERTEX
8
0
10
4.6047
20
180.5
30
-2.493
70
32
0
VERTEX
8
0
10
4.5845
20
180.5
30
-2.4778
70
32
0
VERTEX
8
0
10
4.5567
20
180.5
30
-2.4564
70
32
0
VERTEX
8
0
10
4.5215
20
180.5
30
-2.4285
70
32
0
VERTEX
8
0
10
4.4792
20
180.5
30
-2.394
70
32
0
VERTEX
8
0
10
4.4297
20
180.5
30
-2.3533
70
32
0
VERTEX
8
0
10
4.373
20
180.5
30
-2.3064
70
32
0
VERTEX
8
0
10
4.3092
20
180.5
30
-2.2537
70
32
0
VERTEX
8
0
10
4.2382
20
180.5
30
-2.1955
70
32
0
VERTEX
8
0
10
4.1601
20
180.5
30
-2.1322
70
32
0
VERTEX
8
0
10
4.075
20
180.5
30
-2.0638
70
32
0
VERTEX
8
0
10
3.9831
20
180.5
30
-1.9907
70
32
0
VERTEX
8
0
10
3.8848
20
180.5
30
-1.9128
70
32
0
VERTEX
8
0
10
3.7802
20
180.5
30
-1.8303
70
32
0
VERTEX
8
0
10
3.6697
20
180.5
30
-1.7433
70
32
0
VERTEX
8
0
10
3.5536
20
180.5
30
-1.6522
70
32
0
VERTEX
8
0
10
3.4321
20
180.5
30
-1.557
70
32
0
VERTEX
8
0
10
3.3054
20
180.5
30
-1.4582
70
32
0
VERTEX
8
0
10
3.174
20
180.5
30
-1.3559
70
32
0
VERTEX
8
0
10
3.0379
20
180.5
30
-1.2504
70
32
0
VERTEX
8
0
10
2.8976
20
180.5
30
-1.142
70
32
0
VERTEX
8
0
10
2.7534
20
180.5
30
-1.0311
70
32
0
VERTEX
8
0
10
2.6054
20
180.5
30
-0.918
70
32
0
VERTEX
8
0
10
2.454
20
180.5
30
-0.8031
70
32
0
VERTEX
8
0
10
2.2995
20
180.5
30
-0.6866
70
32
0
VERTEX
8
0
10
2.1422
20
180.5
30
-0.5692
70
32
0
VERTEX
8
0
10
1.9823
20
180.5
30
-0.4511
70
32
0
VERTEX
8
0
10
1.82
20
180.5
30
-0.3331
70
32
0
VERTEX
8
0
10
1.6555
20
180.5
30
-0.2156
70
32
0
VERTEX
8
0
10
1.4888
20
180.5
30
-0.0994
70
32
0
VERTEX
8
0
10
1.3203
20
180.5
30
0.0148
70
32
0
VERTEX
8
0
10
1.1501
20
180.5
30
0.1266
70
32
0
VERTEX
8
0
10
0.9786
20
180.5
30
0.2355
70
32
0
VERTEX
8
0
10
0.8061
20
180.5
30
0.3409
70
32
0
VERTEX
8
0
10
0.6329
20
180.5
30
0.4424
70
32
0
VERTEX
8
0
10
0.4594
20
180.5
30
0.5394
70
32
0
VERTEX
8
0
10
0.2862
20
180.5
30
0.6318
70
32
0
VERTEX
8
0
10
0.1137
20
180.5
30
0.7195
70
32
0
VERTEX
8
0
10
-0.0575
20
180.5
30
0.8021
70
32
0
VERTEX
8
0
10
-0.2268
20
180.5
30
0.8798
70
32
0
VERTEX
8
0
10
-0.3937
20
180.5
30
0.9523
70
32
0
VERTEX
8
0
10
-0.5576
20
180.5
30
1.0198
70
32
0
VERTEX
8
0
10
-0.7181
20
180.5
30
1.0822
70
32
0
VERTEX
8
0
10
-0.8745
20
180.5
30
1.1396
70
32
0
VERTEX
8
0
10
-1.0264
20
180.5
30
1.192
70
32
0
VERTEX
8
0
10
-1.1733
20
180.5
30
1.2392
70
32
0
VERTEX
8
0
10
-1.3149
20
180.5
30
1.2812
70
32
0
VERTEX
8
0
10
-1.4506
20
180.5
30
1.3178
70
32
0
VERTEX
8
0
10
-1.5801
20
180.5
30
1.3491
70
32
0
VERTEX
8
0
10
-1.7028
20
180.5
30
1.375
70
32
0
VERTEX
8
0
10
-1.8185
20
180.5
30
1.3955
70
32
0
VERTEX
8
0
10
-1.9266
20
180.5
30
1.4107
70
32
0
VERTEX
8
0
10
-2.0267
20
180.5
30
1.4206
70
32
0
VERTEX
8
0
10
-2.1184
20
180.5
30
1.4253
70
32
0
VERTEX
8
0
10
-2.2012
20
180.5
30
1.425
70
32
0
VERTEX
8
0
10
-2.2746
20
180.5
30
1.42
70
32
0
VERTEX
8
0
10
-2.338
20
180.5
30
1.4103
70
32
0
VERTEX
8
0
10
-2.3908
20
180.5
30
1.3965
70
32
0
VERTEX
8
0
10
-2.4326
20
180.5
30
1.38
70
32
0
VERTEX
8
0
10
-2.4626
20
180.5
30
1.3618
70
32
0
VERTEX
8
0
10
-2.4792
20
180.5
30
1.3429
70
32
0
VERTEX
8
0
10
-2.485
20
180.5
30
1.319
70
32
0
VERTEX
8
0
10
-2.4756
20
180.5
30
1.2861
70
32
0
VERTEX
8
0
10
-2.4514
20
180.5
30
1.2493
70
32
0
VERTEX
8
0
10
-2.4162
20
180.5
30
1.209
70
32
0
VERTEX
8
0
10
-2.3711
20
180.5
30
1.1652
70
32
0
VERTEX
8
0
10
-2.316
20
180.5
30
1.1187
70
32
0
VERTEX
8
0
10
-2.2514
20
180.5
30
1.0697
70
32
0
VERTEX
8
0
10
-2.1779
20
180.5
30
1.0178
70
32
0
VERTEX
8
0
10
-2.0957
20
180.5
30
0.9634
70
32
0
VERTEX
8
0
10
-2.0052
20
180.5
30
0.9064
70
32
0
VERTEX
8
0
10
-1.9066
20
180.5
30
0.8469
70
32
0
VERTEX
8
0
10
-1.8004
20
180.5
30
0.785
70
32
0
VERTEX
8
0
10
-1.6867
20
180.5
30
0.7208
70
32
0
VERTEX
8
0
10
-1.566
20
180.5
30
0.6543
70
32
0
VERTEX
8
0
10
-1.4387
20
180.5
30
0.5857
70
32
0
VERTEX
8
0
10
-1.305
20
180.5
30
0.515
70
32
0
VERTEX
8
0
10
-1.1653
20
180.5
30
0.4422
70
32
0
VERTEX
8
0
10
-1.0202
20
180.5
30
0.3675
70
32
0
VERTEX
8
0
10
-0.8698
20
180.5
30
0.2909
70
32
0
VERTEX
8
0
10
-0.7147
20
180.5
30
0.2126
70
32
0
VERTEX
8
0
10
-0.5553
20
180.5
30
0.1327
70
32
0
VERTEX
8
0
10
-0.3919
20
180.5
30
0.0512
70
32
0
VERTEX
8
0
10
-0.2251
20
180.5
30
-0.0316
70
32
0
VERTEX
8
0
10
-0.0552
20
180.5
30
-0.1156
70
32
0
VERTEX
8
0
10
0.1174
20
180.5
30
-0.2008
70
32
0
VERTEX
8
0
10
0.2921
20
180.5
30
-0.2869
70
32
0
VERTEX
8
0
10
0.4685
20
180.5
30
-0.3739
70
32
0
VERTEX
8
0
10
0.6462
20
180.5
30
-0.4615
70
32
0
VERTEX
8
0
10
0.8247
20
180.5
30
-0.5496
70
32
0
VERTEX
8
0
10
1.0036
20
180.5
30
-0.6381
70
32
0
VERTEX
8
0
10
1.1825
20
180.5
30
-0.7266
70
32
0
VERTEX
8
0
10
1.3608
20
180.5
30
-0.8152
70
32
0
VERTEX
8
0
10
1.5381
20
180.5
30
-0.9035
70
32
0
VERTEX
8
0
10
1.7141
20
180.5
30
-0.9914
70
32
0
VERTEX
8
0
10
1.8882
20
180.5
30
-1.0786
70
32
0
VERTEX
8
0
10
2.0601
20
180.5
30
-1.1651
70
32
0
VERTEX
8
0
10
2.2294
20
180.5
30
-1.2505
70
32
0
VERTEX
8
0
10
2.3955
20
180.5
30
-1.3347
70
32
0
VERTEX
8
0
10
2.5582
20
180.5
30
-1.4175
70
32
0
VERTEX
8
0
10
2.717
20
180.5
30
-1.4986
70
32
0
VERTEX
8
0
10
2.8716
20
180.5
30
-1.5779
70
32
0
VERTEX
8
0
10
3.0216
20
180.5
30
-1.6552
70
32
0
VERTEX
8
0
10
3.1666
20
180.5
30
-1.7302
70
32
0
VERTEX
8
0
10
3.3063
20
180.5
30
-1.8028
70
32
0
VERTEX
8
0
10
3.4404
20
180.5
30
-1.8728
70
32
0
VERTEX
8
0
10
3.5686
20
180.5
30
-1.9399
70
32
0
VERTEX
8
0
10
3.6905
20
180.5
30
-2.0041
70
32
0
VERTEX
8
0
10
3.8059
20
180.5
30
-2.065
70
32
0
VERTEX
8
0
10
3.9146
20
180.5
30
-2.1225
70
32
0
VERTEX
8
0
10
4.0163
20
180.5
30
-2.1764
70
32
0
VERTEX
8
0
10
4.1109
20
180.5
30
-2.2264
70
32
0
VERTEX
8
0
10
4.1981
20
180.5
30
-2.2725
70
32
0
VERTEX
8
0
10
4.2776
20
180.5
30
-2.3144
70
32
0
VERTEX
8
0
10
4.3494
20
180.5
30
-2.3523
70
32
0
VERTEX
8
0
10
4.413
20
180.5
30
-2.3861
70
32
0
VERTEX
8
0
10
4.4684
20
180.5
30
-2.4159
70
32
0
VERTEX
8
0
10
4.5153
20
180.5
30
-2.4416
70
32
0
VERTEX
8
0
10
4.5537
20
180.5
30
-2.4631
70
32
0
VERTEX
8
0
10
4.5834
20
180.5
30
-2.4804
70
32
0
VERTEX
8
0
10
4.6047
20
180.5
30
-2.493
70
32
0
VERTEX
8
0
10
0.2326
20
190
30
-0.1201
70
32
0
VERTEX
8
0
10
0.2316
20
190
30
-0.1194
70
32
0
VERTEX
8
0
10
0.2302
20
190
30
-0.1183
70
32
0
VERTEX
8
0
10
0.2284
20
190
30
-0.117
70
32
0
VERTEX
8
0
10
0.2263
20
190
30
-0.1153
70
32
0
VERTEX
8
0
10
0.2237
20
190
30
-0.1133
70
32
0
VERTEX
8
0
10
0.2209
20
190
30
-0.111
70
32
0
VERTEX
8
0
10
0.2176
20
190
30
-0.1084
70
32
0
VERTEX
8
0
10
0.214
20
190
30
-0.1056
70
32
0
VERTEX
8
0
10
0.21
20
190
30
-0.1025
70
32
0
VERTEX
8
0
10
0.2057
20
190
30
-0.0992
70
32
0
VERTEX
8
0
10
0.2011
20
190
30
-0.0956
70
32
0
VERTEX
8
0
10
0.1961
20
190
30
-0.0918
70
32
0
VERTEX
8
0
10
0.1908
20
190
30
-0.0878
70
32
0
VERTEX
8
0
10
0.1852
20
190
30
-0.0836
70
32
0
VERTEX
8
0
10
0.1793
20
190
30
-0.0791
70
32
0
VERTEX
8
0
10
0.1731
20
190
30
-0.0745
70
32
0
VERTEX
8
0
10
0.1667
20
190
30
-0.0697
70
32
0
VERTEX
8
0
10
0.16
20
190
30
-0.0647
70
32
0
VERTEX
8
0
10
0.1531
20
190
30
-0.0595
70
32
0
VERTEX
8
0
10
0.146
20
190
30
-0.0543
70
32
0
VERTEX
8
0
10
0.1387
20
190
30
-0.0489
70
32
0
VERTEX
8
0
10
0.1311
20
190
30
-0.0433
70
32
0
VERTEX
8
0
10
0.1235
20
190
30
-0.0377
70
32
0
VERTEX
8
0
10
0.1156
20
190
30
-0.0321
70
32
0
VERTEX
8
0
10
0.1076
20
190
30
-0.0264
70
32
0
VERTEX
8
0
10
0.0995
20
190
30
-0.0206
70
32
0
VERTEX
8
0
10
0.0913
20
190
30
-0.0149
70
32
0
VERTEX
8
0
10
0.083
20
190
30
-0.0092
70
32
0
VERTEX
8
0
10
0.0745
20
190
30
-0.0035
70
32
0
VERTEX
8
0
10
0.066
20
190
30
0.002
70
32
0
VERTEX
8
0
10
0.0574
20
190
30
0.0075
70
32
0
VERTEX
8
0
10
0.0487
20
190
30
0.0127
70
32
0
VERTEX
8
0
10
0.04
20
190
30
0.0178
70
32
0
VERTEX
8
0
10
0.0312
20
190
30
0.0227
70
32
0
VERTEX
8
0
10
0.0224
20
190
30
0.0274
70
32
0
VERTEX
8
0
10
0.0137
20
190
30
0.0319
70
32
0
VERTEX
8
0
10
0.005
20
190
30
0.0361
70
32
0
VERTEX
8
0
10
-0.0037
20
190
30
0.04
70
32
0
VERTEX
8
0
10
-0.0122
20
190
30
0.0438
70
32
0
VERTEX
8
0
10
-0.0206
20
190
30
0.0472
70
32
0
VERTEX
8
0
10
-0.0289
20
190
30
0.0504
70
32
0
VERTEX
8
0
10
-0.037
20
190
30
0.0534
70
32
0
VERTEX
8
0
10
-0.0448
20
190
30
0.0561
70
32
0
VERTEX
8
0
10
-0.0525
20
190
30
0.0586
70
32
0
VERTEX
8
0
10
-0.0599
20
190
30
0.0608
70
32
0
VERTEX
8
0
10
-0.067
20
190
30
0.0628
70
32
0
VERTEX
8
0
10
-0.0738
20
190
30
0.0645
70
32
0
VERTEX
8
0
10
-0.0803
20
190
30
0.0659
70
32
0
VERTEX
8
0
10
-0.0865
20
190
30
0.0671
70
32
0
VERTEX
8
0
10
-0.0923
20
190
30
0.068
70
32
0
VERTEX
8
0
10
-0.0977
20
190
30
0.0686
70
32
0
VERTEX
8
0
10
-0.1027
20
190
30
0.069
70
32
0
VERTEX
8
0
10
-0.1073
20
190
30
0.0692
70
32
0
VERTEX
8
0
10
-0.1114
20
190
30
0.0691
70
32
0
VERTEX
8
0
10
-0.1151
20
190
30
0.0688
70
32
0
VERTEX
8
0
10
-0.1183
20
190
30
0.0682
70
32
0
VERTEX
8
0
10
-0.1209
20
190
30
0.0675
70
32
0
VERTEX
8
0
10
-0.123
20
190
30
0.0666
70
32
0
VERTEX
8
0
10
-0.1244
20
190
30
0.0657
70
32
0
VERTEX
8
0
10
-0.1252
20
190
30
0.0647
70
32
0
VERTEX
8
0
10
-0.1255
20
190
30
0.0635
70
32
0
VERTEX
8
0
10
-0.125
20
190
30
0.0619
70
32
0
VERTEX
8
0
10
-0.1238
20
190
30
0.0601
70
32
0
VERTEX
8
0
10
-0.122
20
190
30
0.0581
70
32
0
VERTEX
8
0
10
-0.1197
20
190
30
0.0559
70
32
0
VERTEX
8
0
10
-0.1169
20
190
30
0.0537
70
32
0
VERTEX
8
0
10
-0.1136
20
190
30
0.0513
70
32
0
VERTEX
8
0
10
-0.1099
20
190
30
0.0488
70
32
0
VERTEX
8
0
10
-0.1057
20
190
30
0.0461
70
32
0
VERTEX
8
0
10
-0.1011
20
190
30
0.0433
70
32
0
VERTEX
8
0
10
-0.0961
20
190
30
0.0405
70
32
0
VERTEX
8
0
10
-0.0908
20
190
30
0.0375
70
32
0
VERTEX
8
0
10
-0.085
20
190
30
0.0344
70
32
0
VERTEX
8
0
10
-0.0789
20
190
30
0.0312
70
32
0
VERTEX
8
0
10
-0.0725
20
190
30
0.0279
70
32
0
VERTEX
8
0
10
-0.0657
20
190
30
0.0245
70
32
0
VERTEX
8
0
10
-0.0587
20
190
30
0.021
70
32
0
VERTEX
8
0
10
-0.0514
20
190
30
0.0174
70
32
0
VERTEX
8
0
10
-0.0438
20
190
30
0.0137
70
32
0
VERTEX
8
0
10
-0.0359
20
190
30
0.0099
70
32
0
VERTEX
8
0
10
-0.0279
20
190
30
0.0061
70
32
0
VERTEX
8
0
10
-0.0196
20
190
30
0.0022
70
32
0
VERTEX
8
0
10
-0.0112
20
190
30
-0.0018
70
32
0
VERTEX
8
0
10
-0.0026
20
190
30
-0.0058
70
32
0
VERTEX
8
0
10
0.0061
20
190
30
-0.0099
70
32
0
VERTEX
8
0
10
0.0149
20
190
30
-0.0141
70
32
0
VERTEX
8
0
10
0.0238
20
190
30
-0.0182
70
32
0
VERTEX
8
0
10
0.0328
20
190
30
-0.0224
70
32
0
VERTEX
8
0
10
0.0418
20
190
30
-0.0267
70
32
0
VERTEX
8
0
10
0.0508
20
190
30
-0.0309
70
32
0
VERTEX
8
0
10
0.0598
20
190
30
-0.0352
70
32
0
VERTEX
8
0
10
0.0688
20
190
30
-0.0394
70
32
0
VERTEX
8
0
10
0.0778
20
190
30
-0.0437
70
32
0
VERTEX
8
0
10
0.0867
20
190
30
-0.0479
70
32
0
VERTEX
8
0
10
0.0954
20
190
30
-0.0521
70
32
0
VERTEX
8
0
10
0.1041
20
190
30
-0.0562
70
32
0
VERTEX
8
0
10
0.1127
20
190
30
-0.0603
70
32
0
VERTEX
8
0
10
0.1211
20
190
30
-0.0644
70
32
0
VERTEX
8
0
10
0.1293
20
190
30
-0.0684
70
32
0
VERTEX
8
0
10
0.1373
20
190
30
-0.0723
70
32
0
VERTEX
8
0
10
0.1451
20
190
30
-0.0761
70
32
0
VERTEX
8
0
10
0.1527
20
190
30
-0.0798
70
32
0
VERTEX
8
0
10
0.16
20
190
30
-0.0834
70
32
0
VERTEX
8
0
10
0.167
20
190
30
-0.0869
70
32
0
VERTEX
8
0
10
0.1738
20
190
30
-0.0903
70
32
0
VERTEX
8
0
10
0.1803
20
190
30
-0.0935
70
32
0
VERTEX
8
0
10
0.1865
20
190
30
-0.0966
70
32
0
VERTEX
8
0
10
0.1923
20
190
30
-0.0995
70
32
0
VERTEX
8
0
10
0.1978
20
190
30
-0.1023
70
32
0
VERTEX
8
0
10
0.2029
20
190
30
-0.1049
70
32
0
VERTEX
8
0
10
0.2077
20
190
30
-0.1073
70
32
0
VERTEX
8
0
10
0.2121
20
190
30
-0.1095
70
32
0
VERTEX
8
0
10
0.2161
20
190
30
-0.1115
70
32
0
VERTEX
8
0
10
0.2197
20
190
30
-0.1133
70
32
0
VERTEX
8
0
10
0.2229
20
190
30
-0.115
70
32
0
VERTEX
8
0
10
0.2257
20
190
30
-0.1164
70
32
0
VERTEX
8
0
10
0.2281
20
190
30
-0.1176
70
32
0
VERTEX
8
0
10
0.23
20
190
30
-0.1187
70
32
0
VERTEX
8
0
10
0.2316
20
190
30
-0.1195
70
32
0
VERTEX
8
0
10
0.2326
20
190
30
-0.1201
70
32
0
SEQEND
0
ENDSEC
0
EOF
