  0
SECTION
  2
HEADER
  9
$ACADVER
  1
AC1009
  9
$EXTMIN
 10
-67.5000
 20
-67.5000
 30
-22.5000
  9
$EXTMAX
 10
67.5000
 20
67.5000
 30
247.5000
  9
$LUNITS
 70
     2
  9
$CLAYER
  8
Propeller-Surface
  0
ENDSEC
  0
SECTION
  2
TABLES
  0
TABLE
  2
LAYER
 70
     1
  0
LAYER
  2
0
 70
     0
 62
     7
  6
CONTINUOUS
  0
ENDTAB
  0
ENDSEC
  0
SECTION
  2
BLOCKS
  0
ENDSEC
  0
SECTION
  2
ENTITIES
  0
POLYLINE
 70
16
 71
17
 72
121
 75
5
  8
0
 66
1
  0
VERTEX
 70
64
  8
0
 10
15.1083
 20
45.0000
 30
-23.8511
  0
VERTEX
 70
64
  8
0
 10
15.0566
 20
45.0000
 30
-23.7198
  0
VERTEX
 70
64
  8
0
 10
14.9865
 20
45.0000
 30
-23.5364
  0
VERTEX
 70
64
  8
0
 10
14.9018
 20
45.0000
 30
-23.3000
  0
VERTEX
 70
64
  8
0
 10
14.8036
 20
45.0000
 30
-23.0111
  0
VERTEX
 70
64
  8
0
 10
14.6926
 20
45.0000
 30
-22.6704
  0
VERTEX
 70
64
  8
0
 10
14.5692
 20
45.0000
 30
-22.2788
  0
VERTEX
 70
64
  8
0
 10
14.4336
 20
45.0000
 30
-21.8375
  0
VERTEX
 70
64
  8
0
 10
14.2858
 20
45.0000
 30
-21.3478
  0
VERTEX
 70
64
  8
0
 10
14.1261
 20
45.0000
 30
-20.8110
  0
VERTEX
 70
64
  8
0
 10
13.9549
 20
45.0000
 30
-20.2285
  0
VERTEX
 70
64
  8
0
 10
13.7728
 20
45.0000
 30
-19.6018
  0
VERTEX
 70
64
  8
0
 10
13.5803
 20
45.0000
 30
-18.9324
  0
VERTEX
 70
64
  8
0
 10
13.3778
 20
45.0000
 30
-18.2218
  0
VERTEX
 70
64
  8
0
 10
13.1656
 20
45.0000
 30
-17.4718
  0
VERTEX
 70
64
  8
0
 10
12.9436
 20
45.0000
 30
-16.6841
  0
VERTEX
 70
64
  8
0
 10
12.7112
 20
45.0000
 30
-15.8609
  0
VERTEX
 70
64
  8
0
 10
12.4678
 20
45.0000
 30
-15.0043
  0
VERTEX
 70
64
  8
0
 10
12.2128
 20
45.0000
 30
-14.1166
  0
VERTEX
 70
64
  8
0
 10
11.9452
 20
45.0000
 30
-13.2000
  0
VERTEX
 70
64
  8
0
 10
11.6642
 20
45.0000
 30
-12.2572
  0
VERTEX
 70
64
  8
0
 10
11.3680
 20
45.0000
 30
-11.2907
  0
VERTEX
 70
64
  8
0
 10
11.0554
 20
45.0000
 30
-10.3036
  0
VERTEX
 70
64
  8
0
 10
10.7253
 20
45.0000
 30
-9.2986
  0
VERTEX
 70
64
  8
0
 10
10.3757
 20
45.0000
 30
-8.2791
  0
VERTEX
 70
64
  8
0
 10
10.0059
 20
45.0000
 30
-7.2484
  0
VERTEX
 70
64
  8
0
 10
9.6136
 20
45.0000
 30
-6.2102
  0
VERTEX
 70
64
  8
0
 10
9.1978
 20
45.0000
 30
-5.1683
  0
VERTEX
 70
64
  8
0
 10
8.7575
 20
45.0000
 30
-4.1268
  0
VERTEX
 70
64
  8
0
 10
8.2906
 20
45.0000
 30
-3.0902
  0
VERTEX
 70
64
  8
0
 10
7.7978
 20
45.0000
 30
-2.0622
  0
VERTEX
 70
64
  8
0
 10
7.2789
 20
45.0000
 30
-1.0469
  0
VERTEX
 70
64
  8
0
 10
6.7347
 20
45.0000
 30
-0.0479
  0
VERTEX
 70
64
  8
0
 10
6.1671
 20
45.0000
 30
0.9315
  0
VERTEX
 70
64
  8
0
 10
5.5771
 20
45.0000
 30
1.8877
  0
VERTEX
 70
64
  8
0
 10
4.9668
 20
45.0000
 30
2.8176
  0
VERTEX
 70
64
  8
0
 10
4.3385
 20
45.0000
 30
3.7184
  0
VERTEX
 70
64
  8
0
 10
3.6950
 20
45.0000
 30
4.5878
  0
VERTEX
 70
64
  8
0
 10
3.0392
 20
45.0000
 30
5.4234
  0
VERTEX
 70
64
  8
0
 10
2.3738
 20
45.0000
 30
6.2229
  0
VERTEX
 70
64
  8
0
 10
1.7016
 20
45.0000
 30
6.9840
  0
VERTEX
 70
64
  8
0
 10
1.0254
 20
45.0000
 30
7.7043
  0
VERTEX
 70
64
  8
0
 10
0.3487
 20
45.0000
 30
8.3827
  0
VERTEX
 70
64
  8
0
 10
-0.3255
 20
45.0000
 30
9.0170
  0
VERTEX
 70
64
  8
0
 10
-0.9935
 20
45.0000
 30
9.6066
  0
VERTEX
 70
64
  8
0
 10
-1.6526
 20
45.0000
 30
10.1499
  0
VERTEX
 70
64
  8
0
 10
-2.2993
 20
45.0000
 30
10.6460
  0
VERTEX
 70
64
  8
0
 10
-2.9309
 20
45.0000
 30
11.0930
  0
VERTEX
 70
64
  8
0
 10
-3.5440
 20
45.0000
 30
11.4906
  0
VERTEX
 70
64
  8
0
 10
-4.1355
 20
45.0000
 30
11.8379
  0
VERTEX
 70
64
  8
0
 10
-4.7015
 20
45.0000
 30
12.1352
  0
VERTEX
 70
64
  8
0
 10
-5.2386
 20
45.0000
 30
12.3827
  0
VERTEX
 70
64
  8
0
 10
-5.7433
 20
45.0000
 30
12.5824
  0
VERTEX
 70
64
  8
0
 10
-6.2116
 20
45.0000
 30
12.7340
  0
VERTEX
 70
64
  8
0
 10
-6.6397
 20
45.0000
 30
12.8391
  0
VERTEX
 70
64
  8
0
 10
-7.0263
 20
45.0000
 30
12.9098
  0
VERTEX
 70
64
  8
0
 10
-7.3664
 20
45.0000
 30
12.9413
  0
VERTEX
 70
64
  8
0
 10
-7.6550
 20
45.0000
 30
12.9326
  0
VERTEX
 70
64
  8
0
 10
-7.8912
 20
45.0000
 30
12.8994
  0
VERTEX
 70
64
  8
0
 10
-8.0757
 20
45.0000
 30
12.8524
  0
VERTEX
 70
64
  8
0
 10
-8.2031
 20
45.0000
 30
12.7940
  0
VERTEX
 70
64
  8
0
 10
-8.3024
 20
45.0000
 30
12.7060
  0
VERTEX
 70
64
  8
0
 10
-8.3877
 20
45.0000
 30
12.5520
  0
VERTEX
 70
64
  8
0
 10
-8.4322
 20
45.0000
 30
12.3313
  0
VERTEX
 70
64
  8
0
 10
-8.4338
 20
45.0000
 30
12.0506
  0
VERTEX
 70
64
  8
0
 10
-8.4067
 20
45.0000
 30
11.7217
  0
VERTEX
 70
64
  8
0
 10
-8.3214
 20
45.0000
 30
11.3459
  0
VERTEX
 70
64
  8
0
 10
-8.1865
 20
45.0000
 30
10.9294
  0
VERTEX
 70
64
  8
0
 10
-8.0137
 20
45.0000
 30
10.4760
  0
VERTEX
 70
64
  8
0
 10
-7.8030
 20
45.0000
 30
9.9864
  0
VERTEX
 70
64
  8
0
 10
-7.5554
 20
45.0000
 30
9.4629
  0
VERTEX
 70
64
  8
0
 10
-7.2728
 20
45.0000
 30
8.9071
  0
VERTEX
 70
64
  8
0
 10
-6.9569
 20
45.0000
 30
8.3204
  0
VERTEX
 70
64
  8
0
 10
-6.6095
 20
45.0000
 30
7.7039
  0
VERTEX
 70
64
  8
0
 10
-6.2318
 20
45.0000
 30
7.0594
  0
VERTEX
 70
64
  8
0
 10
-5.8253
 20
45.0000
 30
6.3882
  0
VERTEX
 70
64
  8
0
 10
-5.3920
 20
45.0000
 30
5.6915
  0
VERTEX
 70
64
  8
0
 10
-4.9334
 20
45.0000
 30
4.9710
  0
VERTEX
 70
64
  8
0
 10
-4.4512
 20
45.0000
 30
4.2279
  0
VERTEX
 70
64
  8
0
 10
-3.9469
 20
45.0000
 30
3.4640
  0
VERTEX
 70
64
  8
0
 10
-3.4224
 20
45.0000
 30
2.6809
  0
VERTEX
 70
64
  8
0
 10
-2.8792
 20
45.0000
 30
1.8800
  0
VERTEX
 70
64
  8
0
 10
-2.3192
 20
45.0000
 30
1.0633
  0
VERTEX
 70
64
  8
0
 10
-1.7442
 20
45.0000
 30
0.2323
  0
VERTEX
 70
64
  8
0
 10
-1.1558
 20
45.0000
 30
-0.6112
  0
VERTEX
 70
64
  8
0
 10
-0.5559
 20
45.0000
 30
-1.4654
  0
VERTEX
 70
64
  8
0
 10
0.0537
 20
45.0000
 30
-2.3285
  0
VERTEX
 70
64
  8
0
 10
0.6711
 20
45.0000
 30
-3.1987
  0
VERTEX
 70
64
  8
0
 10
1.2945
 20
45.0000
 30
-4.0741
  0
VERTEX
 70
64
  8
0
 10
1.9221
 20
45.0000
 30
-4.9528
  0
VERTEX
 70
64
  8
0
 10
2.5522
 20
45.0000
 30
-5.8329
  0
VERTEX
 70
64
  8
0
 10
3.1829
 20
45.0000
 30
-6.7125
  0
VERTEX
 70
64
  8
0
 10
3.8123
 20
45.0000
 30
-7.5898
  0
VERTEX
 70
64
  8
0
 10
4.4388
 20
45.0000
 30
-8.4626
  0
VERTEX
 70
64
  8
0
 10
5.0608
 20
45.0000
 30
-9.3292
  0
VERTEX
 70
64
  8
0
 10
5.6765
 20
45.0000
 30
-10.1873
  0
VERTEX
 70
64
  8
0
 10
6.2846
 20
45.0000
 30
-11.0351
  0
VERTEX
 70
64
  8
0
 10
6.8834
 20
45.0000
 30
-11.8705
  0
VERTEX
 70
64
  8
0
 10
7.4715
 20
45.0000
 30
-12.6916
  0
VERTEX
 70
64
  8
0
 10
8.0473
 20
45.0000
 30
-13.4964
  0
VERTEX
 70
64
  8
0
 10
8.6094
 20
45.0000
 30
-14.2831
  0
VERTEX
 70
64
  8
0
 10
9.1563
 20
45.0000
 30
-15.0500
  0
VERTEX
 70
64
  8
0
 10
9.6863
 20
45.0000
 30
-15.7953
  0
VERTEX
 70
64
  8
0
 10
10.1981
 20
45.0000
 30
-16.5175
  0
VERTEX
 70
64
  8
0
 10
10.6902
 20
45.0000
 30
-17.2150
  0
VERTEX
 70
64
  8
0
 10
11.1612
 20
45.0000
 30
-17.8861
  0
VERTEX
 70
64
  8
0
 10
11.6100
 20
45.0000
 30
-18.5294
  0
VERTEX
 70
64
  8
0
 10
12.0355
 20
45.0000
 30
-19.1434
  0
VERTEX
 70
64
  8
0
 10
12.4364
 20
45.0000
 30
-19.7266
  0
VERTEX
 70
64
  8
0
 10
12.8123
 20
45.0000
 30
-20.2774
  0
VERTEX
 70
64
  8
0
 10
13.1621
 20
45.0000
 30
-20.7944
  0
VERTEX
 70
64
  8
0
 10
13.4854
 20
45.0000
 30
-21.2763
  0
VERTEX
 70
64
  8
0
 10
13.7813
 20
45.0000
 30
-21.7217
  0
VERTEX
 70
64
  8
0
 10
14.0494
 20
45.0000
 30
-22.1295
  0
VERTEX
 70
64
  8
0
 10
14.2890
 20
45.0000
 30
-22.4986
  0
VERTEX
 70
64
  8
0
 10
14.4992
 20
45.0000
 30
-22.8283
  0
VERTEX
 70
64
  8
0
 10
14.6797
 20
45.0000
 30
-23.1176
  0
VERTEX
 70
64
  8
0
 10
14.8306
 20
45.0000
 30
-23.3655
  0
VERTEX
 70
64
  8
0
 10
14.9518
 20
45.0000
 30
-23.5711
  0
VERTEX
 70
64
  8
0
 10
15.0434
 20
45.0000
 30
-23.7337
  0
VERTEX
 70
64
  8
0
 10
15.1083
 20
45.0000
 30
-23.8511
  0
VERTEX
 70
64
  8
0
 10
19.9953
 20
56.2500
 30
-25.0791
  0
VERTEX
 70
64
  8
0
 10
19.9198
 20
56.2500
 30
-24.9401
  0
VERTEX
 70
64
  8
0
 10
19.8166
 20
56.2500
 30
-24.7458
  0
VERTEX
 70
64
  8
0
 10
19.6894
 20
56.2500
 30
-24.4949
  0
VERTEX
 70
64
  8
0
 10
19.5392
 20
56.2500
 30
-24.1877
  0
VERTEX
 70
64
  8
0
 10
19.3666
 20
56.2500
 30
-23.8251
  0
VERTEX
 70
64
  8
0
 10
19.1718
 20
56.2500
 30
-23.4082
  0
VERTEX
 70
64
  8
0
 10
18.9545
 20
56.2500
 30
-22.9384
  0
VERTEX
 70
64
  8
0
 10
18.7145
 20
56.2500
 30
-22.4174
  0
VERTEX
 70
64
  8
0
 10
18.4522
 20
56.2500
 30
-21.8466
  0
VERTEX
 70
64
  8
0
 10
18.1681
 20
56.2500
 30
-21.2278
  0
VERTEX
 70
64
  8
0
 10
17.8628
 20
56.2500
 30
-20.5622
  0
VERTEX
 70
64
  8
0
 10
17.5375
 20
56.2500
 30
-19.8515
  0
VERTEX
 70
64
  8
0
 10
17.1929
 20
56.2500
 30
-19.0972
  0
VERTEX
 70
64
  8
0
 10
16.8300
 20
56.2500
 30
-18.3011
  0
VERTEX
 70
64
  8
0
 10
16.4491
 20
56.2500
 30
-17.4652
  0
VERTEX
 70
64
  8
0
 10
16.0502
 20
56.2500
 30
-16.5918
  0
VERTEX
 70
64
  8
0
 10
15.6335
 20
56.2500
 30
-15.6832
  0
VERTEX
 70
64
  8
0
 10
15.1991
 20
56.2500
 30
-14.7418
  0
VERTEX
 70
64
  8
0
 10
14.7469
 20
56.2500
 30
-13.7702
  0
VERTEX
 70
64
  8
0
 10
14.2768
 20
56.2500
 30
-12.7712
  0
VERTEX
 70
64
  8
0
 10
13.7879
 20
56.2500
 30
-11.7478
  0
VERTEX
 70
64
  8
0
 10
13.2801
 20
56.2500
 30
-10.7030
  0
VERTEX
 70
64
  8
0
 10
12.7529
 20
56.2500
 30
-9.6402
  0
VERTEX
 70
64
  8
0
 10
12.2057
 20
56.2500
 30
-8.5626
  0
VERTEX
 70
64
  8
0
 10
11.6383
 20
56.2500
 30
-7.4739
  0
VERTEX
 70
64
  8
0
 10
11.0496
 20
56.2500
 30
-6.3781
  0
VERTEX
 70
64
  8
0
 10
10.4388
 20
56.2500
 30
-5.2793
  0
VERTEX
 70
64
  8
0
 10
9.8055
 20
56.2500
 30
-4.1819
  0
VERTEX
 70
64
  8
0
 10
9.1482
 20
56.2500
 30
-3.0909
  0
VERTEX
 70
64
  8
0
 10
8.4674
 20
56.2500
 30
-2.0103
  0
VERTEX
 70
64
  8
0
 10
7.7637
 20
56.2500
 30
-0.9442
  0
VERTEX
 70
64
  8
0
 10
7.0379
 20
56.2500
 30
0.1032
  0
VERTEX
 70
64
  8
0
 10
6.2919
 20
56.2500
 30
1.1287
  0
VERTEX
 70
64
  8
0
 10
5.5269
 20
56.2500
 30
2.1283
  0
VERTEX
 70
64
  8
0
 10
4.7449
 20
56.2500
 30
3.0986
  0
VERTEX
 70
64
  8
0
 10
3.9490
 20
56.2500
 30
4.0371
  0
VERTEX
 70
64
  8
0
 10
3.1419
 20
56.2500
 30
4.9414
  0
VERTEX
 70
64
  8
0
 10
2.3270
 20
56.2500
 30
5.8092
  0
VERTEX
 70
64
  8
0
 10
1.5077
 20
56.2500
 30
6.6386
  0
VERTEX
 70
64
  8
0
 10
0.6869
 20
56.2500
 30
7.4273
  0
VERTEX
 70
64
  8
0
 10
-0.1319
 20
56.2500
 30
8.1737
  0
VERTEX
 70
64
  8
0
 10
-0.9448
 20
56.2500
 30
8.8766
  0
VERTEX
 70
64
  8
0
 10
-1.7487
 20
56.2500
 30
9.5343
  0
VERTEX
 70
64
  8
0
 10
-2.5397
 20
56.2500
 30
10.1462
  0
VERTEX
 70
64
  8
0
 10
-3.3150
 20
56.2500
 30
10.7107
  0
VERTEX
 70
64
  8
0
 10
-4.0712
 20
56.2500
 30
11.2270
  0
VERTEX
 70
64
  8
0
 10
-4.8054
 20
56.2500
 30
11.6934
  0
VERTEX
 70
64
  8
0
 10
-5.5144
 20
56.2500
 30
12.1093
  0
VERTEX
 70
64
  8
0
 10
-6.1949
 20
56.2500
 30
12.4740
  0
VERTEX
 70
64
  8
0
 10
-6.8434
 20
56.2500
 30
12.7875
  0
VERTEX
 70
64
  8
0
 10
-7.4565
 20
56.2500
 30
13.0501
  0
VERTEX
 70
64
  8
0
 10
-8.0309
 20
56.2500
 30
13.2631
  0
VERTEX
 70
64
  8
0
 10
-8.5627
 20
56.2500
 30
13.4263
  0
VERTEX
 70
64
  8
0
 10
-9.0483
 20
56.2500
 30
13.5413
  0
VERTEX
 70
64
  8
0
 10
-9.4863
 20
56.2500
 30
13.6168
  0
VERTEX
 70
64
  8
0
 10
-9.8716
 20
56.2500
 30
13.6493
  0
VERTEX
 70
64
  8
0
 10
-10.1987
 20
56.2500
 30
13.6392
  0
VERTEX
 70
64
  8
0
 10
-10.4660
 20
56.2500
 30
13.6002
  0
VERTEX
 70
64
  8
0
 10
-10.6724
 20
56.2500
 30
13.5413
  0
VERTEX
 70
64
  8
0
 10
-10.8098
 20
56.2500
 30
13.4652
  0
VERTEX
 70
64
  8
0
 10
-10.9069
 20
56.2500
 30
13.3503
  0
VERTEX
 70
64
  8
0
 10
-10.9650
 20
56.2500
 30
13.1569
  0
VERTEX
 70
64
  8
0
 10
-10.9612
 20
56.2500
 30
12.8982
  0
VERTEX
 70
64
  8
0
 10
-10.9027
 20
56.2500
 30
12.5832
  0
VERTEX
 70
64
  8
0
 10
-10.8022
 20
56.2500
 30
12.2199
  0
VERTEX
 70
64
  8
0
 10
-10.6383
 20
56.2500
 30
11.8135
  0
VERTEX
 70
64
  8
0
 10
-10.4185
 20
56.2500
 30
11.3681
  0
VERTEX
 70
64
  8
0
 10
-10.1527
 20
56.2500
 30
10.8858
  0
VERTEX
 70
64
  8
0
 10
-9.8415
 20
56.2500
 30
10.3675
  0
VERTEX
 70
64
  8
0
 10
-9.4863
 20
56.2500
 30
9.8152
  0
VERTEX
 70
64
  8
0
 10
-9.0891
 20
56.2500
 30
9.2304
  0
VERTEX
 70
64
  8
0
 10
-8.6520
 20
56.2500
 30
8.6143
  0
VERTEX
 70
64
  8
0
 10
-8.1768
 20
56.2500
 30
7.9681
  0
VERTEX
 70
64
  8
0
 10
-7.6651
 20
56.2500
 30
7.2933
  0
VERTEX
 70
64
  8
0
 10
-7.1189
 20
56.2500
 30
6.5914
  0
VERTEX
 70
64
  8
0
 10
-6.5403
 20
56.2500
 30
5.8634
  0
VERTEX
 70
64
  8
0
 10
-5.9313
 20
56.2500
 30
5.1108
  0
VERTEX
 70
64
  8
0
 10
-5.2940
 20
56.2500
 30
4.3350
  0
VERTEX
 70
64
  8
0
 10
-4.6302
 20
56.2500
 30
3.5377
  0
VERTEX
 70
64
  8
0
 10
-3.9421
 20
56.2500
 30
2.7204
  0
VERTEX
 70
64
  8
0
 10
-3.2318
 20
56.2500
 30
1.8848
  0
VERTEX
 70
64
  8
0
 10
-2.5014
 20
56.2500
 30
1.0325
  0
VERTEX
 70
64
  8
0
 10
-1.7532
 20
56.2500
 30
0.1652
  0
VERTEX
 70
64
  8
0
 10
-0.9892
 20
56.2500
 30
-0.7152
  0
VERTEX
 70
64
  8
0
 10
-0.2118
 20
56.2500
 30
-1.6070
  0
VERTEX
 70
64
  8
0
 10
0.5768
 20
56.2500
 30
-2.5083
  0
VERTEX
 70
64
  8
0
 10
1.3745
 20
56.2500
 30
-3.4173
  0
VERTEX
 70
64
  8
0
 10
2.1788
 20
56.2500
 30
-4.3321
  0
VERTEX
 70
64
  8
0
 10
2.9877
 20
56.2500
 30
-5.2507
  0
VERTEX
 70
64
  8
0
 10
3.7990
 20
56.2500
 30
-6.1711
  0
VERTEX
 70
64
  8
0
 10
4.6104
 20
56.2500
 30
-7.0913
  0
VERTEX
 70
64
  8
0
 10
5.4196
 20
56.2500
 30
-8.0094
  0
VERTEX
 70
64
  8
0
 10
6.2246
 20
56.2500
 30
-8.9234
  0
VERTEX
 70
64
  8
0
 10
7.0234
 20
56.2500
 30
-9.8310
  0
VERTEX
 70
64
  8
0
 10
7.8139
 20
56.2500
 30
-10.7302
  0
VERTEX
 70
64
  8
0
 10
8.5941
 20
56.2500
 30
-11.6190
  0
VERTEX
 70
64
  8
0
 10
9.3621
 20
56.2500
 30
-12.4952
  0
VERTEX
 70
64
  8
0
 10
10.1160
 20
56.2500
 30
-13.3568
  0
VERTEX
 70
64
  8
0
 10
10.8540
 20
56.2500
 30
-14.2017
  0
VERTEX
 70
64
  8
0
 10
11.5742
 20
56.2500
 30
-15.0279
  0
VERTEX
 70
64
  8
0
 10
12.2748
 20
56.2500
 30
-15.8336
  0
VERTEX
 70
64
  8
0
 10
12.9540
 20
56.2500
 30
-16.6169
  0
VERTEX
 70
64
  8
0
 10
13.6100
 20
56.2500
 30
-17.3762
  0
VERTEX
 70
64
  8
0
 10
14.2412
 20
56.2500
 30
-18.1096
  0
VERTEX
 70
64
  8
0
 10
14.8460
 20
56.2500
 30
-18.8155
  0
VERTEX
 70
64
  8
0
 10
15.4229
 20
56.2500
 30
-19.4921
  0
VERTEX
 70
64
  8
0
 10
15.9706
 20
56.2500
 30
-20.1378
  0
VERTEX
 70
64
  8
0
 10
16.4878
 20
56.2500
 30
-20.7511
  0
VERTEX
 70
64
  8
0
 10
16.9735
 20
56.2500
 30
-21.3302
  0
VERTEX
 70
64
  8
0
 10
17.4269
 20
56.2500
 30
-21.8735
  0
VERTEX
 70
64
  8
0
 10
17.8471
 20
56.2500
 30
-22.3794
  0
VERTEX
 70
64
  8
0
 10
18.2333
 20
56.2500
 30
-22.8467
  0
VERTEX
 70
64
  8
0
 10
18.5844
 20
56.2500
 30
-23.2740
  0
VERTEX
 70
64
  8
0
 10
18.8996
 20
56.2500
 30
-23.6606
  0
VERTEX
 70
64
  8
0
 10
19.1775
 20
56.2500
 30
-24.0058
  0
VERTEX
 70
64
  8
0
 10
19.4175
 20
56.2500
 30
-24.3088
  0
VERTEX
 70
64
  8
0
 10
19.6192
 20
56.2500
 30
-24.5686
  0
VERTEX
 70
64
  8
0
 10
19.7823
 20
56.2500
 30
-24.7844
  0
VERTEX
 70
64
  8
0
 10
19.9068
 20
56.2500
 30
-24.9554
  0
VERTEX
 70
64
  8
0
 10
19.9953
 20
56.2500
 30
-25.0791
  0
VERTEX
 70
64
  8
0
 10
23.1559
 20
67.5000
 30
-24.1647
  0
VERTEX
 70
64
  8
0
 10
23.0636
 20
67.5000
 30
-24.0306
  0
VERTEX
 70
64
  8
0
 10
22.9367
 20
67.5000
 30
-23.8431
  0
VERTEX
 70
64
  8
0
 10
22.7786
 20
67.5000
 30
-23.6005
  0
VERTEX
 70
64
  8
0
 10
22.5902
 20
67.5000
 30
-23.3031
  0
VERTEX
 70
64
  8
0
 10
22.3718
 20
67.5000
 30
-22.9520
  0
VERTEX
 70
64
  8
0
 10
22.1230
 20
67.5000
 30
-22.5485
  0
VERTEX
 70
64
  8
0
 10
21.8436
 20
67.5000
 30
-22.0943
  0
VERTEX
 70
64
  8
0
 10
21.5329
 20
67.5000
 30
-21.5913
  0
VERTEX
 70
64
  8
0
 10
21.1912
 20
67.5000
 30
-21.0411
  0
VERTEX
 70
64
  8
0
 10
20.8189
 20
67.5000
 30
-20.4454
  0
VERTEX
 70
64
  8
0
 10
20.4171
 20
67.5000
 30
-19.8054
  0
VERTEX
 70
64
  8
0
 10
19.9871
 20
67.5000
 30
-19.1227
  0
VERTEX
 70
64
  8
0
 10
19.5301
 20
67.5000
 30
-18.3985
  0
VERTEX
 70
64
  8
0
 10
19.0475
 20
67.5000
 30
-17.6345
  0
VERTEX
 70
64
  8
0
 10
18.5403
 20
67.5000
 30
-16.8325
  0
VERTEX
 70
64
  8
0
 10
18.0091
 20
67.5000
 30
-15.9948
  0
VERTEX
 70
64
  8
0
 10
17.4547
 20
67.5000
 30
-15.1236
  0
VERTEX
 70
64
  8
0
 10
16.8782
 20
67.5000
 30
-14.2212
  0
VERTEX
 70
64
  8
0
 10
16.2803
 20
67.5000
 30
-13.2898
  0
VERTEX
 70
64
  8
0
 10
15.6617
 20
67.5000
 30
-12.3322
  0
VERTEX
 70
64
  8
0
 10
15.0228
 20
67.5000
 30
-11.3513
  0
VERTEX
 70
64
  8
0
 10
14.3642
 20
67.5000
 30
-10.3500
  0
VERTEX
 70
64
  8
0
 10
13.6867
 20
67.5000
 30
-9.3311
  0
VERTEX
 70
64
  8
0
 10
12.9907
 20
67.5000
 30
-8.2979
  0
VERTEX
 70
64
  8
0
 10
12.2768
 20
67.5000
 30
-7.2536
  0
VERTEX
 70
64
  8
0
 10
11.5449
 20
67.5000
 30
-6.2020
  0
VERTEX
 70
64
  8
0
 10
10.7951
 20
67.5000
 30
-5.1472
  0
VERTEX
 70
64
  8
0
 10
10.0271
 20
67.5000
 30
-4.0933
  0
VERTEX
 70
64
  8
0
 10
9.2399
 20
67.5000
 30
-3.0454
  0
VERTEX
 70
64
  8
0
 10
8.4342
 20
67.5000
 30
-2.0074
  0
VERTEX
 70
64
  8
0
 10
7.6110
 20
67.5000
 30
-0.9832
  0
VERTEX
 70
64
  8
0
 10
6.7707
 20
67.5000
 30
0.0232
  0
VERTEX
 70
64
  8
0
 10
5.9154
 20
67.5000
 30
1.0083
  0
VERTEX
 70
64
  8
0
 10
5.0461
 20
67.5000
 30
1.9682
  0
VERTEX
 70
64
  8
0
 10
4.1644
 20
67.5000
 30
2.8993
  0
VERTEX
 70
64
  8
0
 10
3.2737
 20
67.5000
 30
3.7998
  0
VERTEX
 70
64
  8
0
 10
2.3768
 20
67.5000
 30
4.6670
  0
VERTEX
 70
64
  8
0
 10
1.4769
 20
67.5000
 30
5.4991
  0
VERTEX
 70
64
  8
0
 10
0.5777
 20
67.5000
 30
6.2948
  0
VERTEX
 70
64
  8
0
 10
-0.3180
 20
67.5000
 30
7.0519
  0
VERTEX
 70
64
  8
0
 10
-1.2062
 20
67.5000
 30
7.7696
  0
VERTEX
 70
64
  8
0
 10
-2.0834
 20
67.5000
 30
8.4470
  0
VERTEX
 70
64
  8
0
 10
-2.9464
 20
67.5000
 30
9.0828
  0
VERTEX
 70
64
  8
0
 10
-3.7917
 20
67.5000
 30
9.6764
  0
VERTEX
 70
64
  8
0
 10
-4.6168
 20
67.5000
 30
10.2260
  0
VERTEX
 70
64
  8
0
 10
-5.4184
 20
67.5000
 30
10.7311
  0
VERTEX
 70
64
  8
0
 10
-6.1939
 20
67.5000
 30
11.1900
  0
VERTEX
 70
64
  8
0
 10
-6.9405
 20
67.5000
 30
11.6019
  0
VERTEX
 70
64
  8
0
 10
-7.6551
 20
67.5000
 30
11.9662
  0
VERTEX
 70
64
  8
0
 10
-8.3349
 20
67.5000
 30
12.2823
  0
VERTEX
 70
64
  8
0
 10
-8.9766
 20
67.5000
 30
12.5503
  0
VERTEX
 70
64
  8
0
 10
-9.5775
 20
67.5000
 30
12.7705
  0
VERTEX
 70
64
  8
0
 10
-10.1340
 20
67.5000
 30
12.9428
  0
VERTEX
 70
64
  8
0
 10
-10.6428
 20
67.5000
 30
13.0681
  0
VERTEX
 70
64
  8
0
 10
-11.1017
 20
67.5000
 30
13.1505
  0
VERTEX
 70
64
  8
0
 10
-11.5060
 20
67.5000
 30
13.1883
  0
VERTEX
 70
64
  8
0
 10
-11.8507
 20
67.5000
 30
13.1832
  0
VERTEX
 70
64
  8
0
 10
-12.1321
 20
67.5000
 30
13.1455
  0
VERTEX
 70
64
  8
0
 10
-12.3465
 20
67.5000
 30
13.0818
  0
VERTEX
 70
64
  8
0
 10
-12.4834
 20
67.5000
 30
12.9955
  0
VERTEX
 70
64
  8
0
 10
-12.5686
 20
67.5000
 30
12.8637
  0
VERTEX
 70
64
  8
0
 10
-12.5897
 20
67.5000
 30
12.6498
  0
VERTEX
 70
64
  8
0
 10
-12.5331
 20
67.5000
 30
12.3798
  0
VERTEX
 70
64
  8
0
 10
-12.4156
 20
67.5000
 30
12.0626
  0
VERTEX
 70
64
  8
0
 10
-12.2466
 20
67.5000
 30
11.7027
  0
VERTEX
 70
64
  8
0
 10
-12.0164
 20
67.5000
 30
11.3057
  0
VERTEX
 70
64
  8
0
 10
-11.7297
 20
67.5000
 30
10.8740
  0
VERTEX
 70
64
  8
0
 10
-11.3931
 20
67.5000
 30
10.4082
  0
VERTEX
 70
64
  8
0
 10
-11.0078
 20
67.5000
 30
9.9094
  0
VERTEX
 70
64
  8
0
 10
-10.5754
 20
67.5000
 30
9.3791
  0
VERTEX
 70
64
  8
0
 10
-10.0980
 20
67.5000
 30
8.8184
  0
VERTEX
 70
64
  8
0
 10
-9.5775
 20
67.5000
 30
8.2284
  0
VERTEX
 70
64
  8
0
 10
-9.0158
 20
67.5000
 30
7.6101
  0
VERTEX
 70
64
  8
0
 10
-8.4146
 20
67.5000
 30
6.9651
  0
VERTEX
 70
64
  8
0
 10
-7.7762
 20
67.5000
 30
6.2942
  0
VERTEX
 70
64
  8
0
 10
-7.1027
 20
67.5000
 30
5.5986
  0
VERTEX
 70
64
  8
0
 10
-6.3965
 20
67.5000
 30
4.8795
  0
VERTEX
 70
64
  8
0
 10
-5.6596
 20
67.5000
 30
4.1382
  0
VERTEX
 70
64
  8
0
 10
-4.8942
 20
67.5000
 30
3.3762
  0
VERTEX
 70
64
  8
0
 10
-4.1026
 20
67.5000
 30
2.5950
  0
VERTEX
 70
64
  8
0
 10
-3.2871
 20
67.5000
 30
1.7959
  0
VERTEX
 70
64
  8
0
 10
-2.4500
 20
67.5000
 30
0.9806
  0
VERTEX
 70
64
  8
0
 10
-1.5938
 20
67.5000
 30
0.1506
  0
VERTEX
 70
64
  8
0
 10
-0.7209
 20
67.5000
 30
-0.6924
  0
VERTEX
 70
64
  8
0
 10
0.1663
 20
67.5000
 30
-1.5467
  0
VERTEX
 70
64
  8
0
 10
1.0653
 20
67.5000
 30
-2.4107
  0
VERTEX
 70
64
  8
0
 10
1.9736
 20
67.5000
 30
-3.2826
  0
VERTEX
 70
64
  8
0
 10
2.8889
 20
67.5000
 30
-4.1605
  0
VERTEX
 70
64
  8
0
 10
3.8086
 20
67.5000
 30
-5.0425
  0
VERTEX
 70
64
  8
0
 10
4.7304
 20
67.5000
 30
-5.9269
  0
VERTEX
 70
64
  8
0
 10
5.6518
 20
67.5000
 30
-6.8116
  0
VERTEX
 70
64
  8
0
 10
6.5703
 20
67.5000
 30
-7.6948
  0
VERTEX
 70
64
  8
0
 10
7.4838
 20
67.5000
 30
-8.5744
  0
VERTEX
 70
64
  8
0
 10
8.3898
 20
67.5000
 30
-9.4485
  0
VERTEX
 70
64
  8
0
 10
9.2861
 20
67.5000
 30
-10.3149
  0
VERTEX
 70
64
  8
0
 10
10.1706
 20
67.5000
 30
-11.1718
  0
VERTEX
 70
64
  8
0
 10
11.0410
 20
67.5000
 30
-12.0171
  0
VERTEX
 70
64
  8
0
 10
11.8950
 20
67.5000
 30
-12.8488
  0
VERTEX
 70
64
  8
0
 10
12.7309
 20
67.5000
 30
-13.6649
  0
VERTEX
 70
64
  8
0
 10
13.5464
 20
67.5000
 30
-14.4634
  0
VERTEX
 70
64
  8
0
 10
14.3398
 20
67.5000
 30
-15.2424
  0
VERTEX
 70
64
  8
0
 10
15.1090
 20
67.5000
 30
-16.0001
  0
VERTEX
 70
64
  8
0
 10
15.8522
 20
67.5000
 30
-16.7347
  0
VERTEX
 70
64
  8
0
 10
16.5675
 20
67.5000
 30
-17.4444
  0
VERTEX
 70
64
  8
0
 10
17.2534
 20
67.5000
 30
-18.1275
  0
VERTEX
 70
64
  8
0
 10
17.9081
 20
67.5000
 30
-18.7822
  0
VERTEX
 70
64
  8
0
 10
18.5303
 20
67.5000
 30
-19.4069
  0
VERTEX
 70
64
  8
0
 10
19.1186
 20
67.5000
 30
-20.0001
  0
VERTEX
 70
64
  8
0
 10
19.6719
 20
67.5000
 30
-20.5597
  0
VERTEX
 70
64
  8
0
 10
20.1893
 20
67.5000
 30
-21.0842
  0
VERTEX
 70
64
  8
0
 10
20.6698
 20
67.5000
 30
-21.5720
  0
VERTEX
 70
64
  8
0
 10
21.1124
 20
67.5000
 30
-22.0218
  0
VERTEX
 70
64
  8
0
 10
21.5160
 20
67.5000
 30
-22.4326
  0
VERTEX
 70
64
  8
0
 10
21.8792
 20
67.5000
 30
-22.8036
  0
VERTEX
 70
64
  8
0
 10
22.2007
 20
67.5000
 30
-23.1345
  0
VERTEX
 70
64
  8
0
 10
22.4791
 20
67.5000
 30
-23.4250
  0
VERTEX
 70
64
  8
0
 10
22.7141
 20
67.5000
 30
-23.6742
  0
VERTEX
 70
64
  8
0
 10
22.9050
 20
67.5000
 30
-23.8813
  0
VERTEX
 70
64
  8
0
 10
23.0515
 20
67.5000
 30
-24.0457
  0
VERTEX
 70
64
  8
0
 10
23.1559
 20
67.5000
 30
-24.1647
  0
VERTEX
 70
64
  8
0
 10
25.0179
 20
78.7500
 30
-22.4093
  0
VERTEX
 70
64
  8
0
 10
24.9150
 20
78.7500
 30
-22.2844
  0
VERTEX
 70
64
  8
0
 10
24.7731
 20
78.7500
 30
-22.1095
  0
VERTEX
 70
64
  8
0
 10
24.5953
 20
78.7500
 30
-21.8829
  0
VERTEX
 70
64
  8
0
 10
24.3823
 20
78.7500
 30
-21.6051
  0
VERTEX
 70
64
  8
0
 10
24.1342
 20
78.7500
 30
-21.2769
  0
VERTEX
 70
64
  8
0
 10
23.8505
 20
78.7500
 30
-20.9000
  0
VERTEX
 70
64
  8
0
 10
23.5308
 20
78.7500
 30
-20.4763
  0
VERTEX
 70
64
  8
0
 10
23.1742
 20
78.7500
 30
-20.0078
  0
VERTEX
 70
64
  8
0
 10
22.7811
 20
78.7500
 30
-19.4962
  0
VERTEX
 70
64
  8
0
 10
22.3519
 20
78.7500
 30
-18.9431
  0
VERTEX
 70
64
  8
0
 10
21.8878
 20
78.7500
 30
-18.3497
  0
VERTEX
 70
64
  8
0
 10
21.3901
 20
78.7500
 30
-17.7173
  0
VERTEX
 70
64
  8
0
 10
20.8605
 20
78.7500
 30
-17.0470
  0
VERTEX
 70
64
  8
0
 10
20.3007
 20
78.7500
 30
-16.3402
  0
VERTEX
 70
64
  8
0
 10
19.7120
 20
78.7500
 30
-15.5985
  0
VERTEX
 70
64
  8
0
 10
19.0954
 20
78.7500
 30
-14.8240
  0
VERTEX
 70
64
  8
0
 10
18.4524
 20
78.7500
 30
-14.0188
  0
VERTEX
 70
64
  8
0
 10
17.7843
 20
78.7500
 30
-13.1847
  0
VERTEX
 70
64
  8
0
 10
17.0927
 20
78.7500
 30
-12.3239
  0
VERTEX
 70
64
  8
0
 10
16.3788
 20
78.7500
 30
-11.4388
  0
VERTEX
 70
64
  8
0
 10
15.6437
 20
78.7500
 30
-10.5321
  0
VERTEX
 70
64
  8
0
 10
14.8888
 20
78.7500
 30
-9.6062
  0
VERTEX
 70
64
  8
0
 10
14.1155
 20
78.7500
 30
-8.6637
  0
VERTEX
 70
64
  8
0
 10
13.3250
 20
78.7500
 30
-7.7074
  0
VERTEX
 70
64
  8
0
 10
12.5184
 20
78.7500
 30
-6.7403
  0
VERTEX
 70
64
  8
0
 10
11.6966
 20
78.7500
 30
-5.7658
  0
VERTEX
 70
64
  8
0
 10
10.8597
 20
78.7500
 30
-4.7875
  0
VERTEX
 70
64
  8
0
 10
10.0081
 20
78.7500
 30
-3.8096
  0
VERTEX
 70
64
  8
0
 10
9.1411
 20
78.7500
 30
-2.8369
  0
VERTEX
 70
64
  8
0
 10
8.2594
 20
78.7500
 30
-1.8733
  0
VERTEX
 70
64
  8
0
 10
7.3642
 20
78.7500
 30
-0.9221
  0
VERTEX
 70
64
  8
0
 10
6.4560
 20
78.7500
 30
0.0124
  0
VERTEX
 70
64
  8
0
 10
5.5367
 20
78.7500
 30
0.9271
  0
VERTEX
 70
64
  8
0
 10
4.6074
 20
78.7500
 30
1.8180
  0
VERTEX
 70
64
  8
0
 10
3.6694
 20
78.7500
 30
2.6815
  0
VERTEX
 70
64
  8
0
 10
2.7263
 20
78.7500
 30
3.5161
  0
VERTEX
 70
64
  8
0
 10
1.7806
 20
78.7500
 30
4.3195
  0
VERTEX
 70
64
  8
0
 10
0.8356
 20
78.7500
 30
5.0899
  0
VERTEX
 70
64
  8
0
 10
-0.1050
 20
78.7500
 30
5.8266
  0
VERTEX
 70
64
  8
0
 10
-1.0386
 20
78.7500
 30
6.5275
  0
VERTEX
 70
64
  8
0
 10
-1.9610
 20
78.7500
 30
7.1926
  0
VERTEX
 70
64
  8
0
 10
-2.8689
 20
78.7500
 30
7.8212
  0
VERTEX
 70
64
  8
0
 10
-3.7594
 20
78.7500
 30
8.4122
  0
VERTEX
 70
64
  8
0
 10
-4.6292
 20
78.7500
 30
8.9650
  0
VERTEX
 70
64
  8
0
 10
-5.4758
 20
78.7500
 30
9.4781
  0
VERTEX
 70
64
  8
0
 10
-6.2965
 20
78.7500
 30
9.9508
  0
VERTEX
 70
64
  8
0
 10
-7.0887
 20
78.7500
 30
10.3815
  0
VERTEX
 70
64
  8
0
 10
-7.8499
 20
78.7500
 30
10.7695
  0
VERTEX
 70
64
  8
0
 10
-8.5773
 20
78.7500
 30
11.1140
  0
VERTEX
 70
64
  8
0
 10
-9.2684
 20
78.7500
 30
11.4141
  0
VERTEX
 70
64
  8
0
 10
-9.9203
 20
78.7500
 30
11.6698
  0
VERTEX
 70
64
  8
0
 10
-10.5302
 20
78.7500
 30
11.8806
  0
VERTEX
 70
64
  8
0
 10
-11.0952
 20
78.7500
 30
12.0465
  0
VERTEX
 70
64
  8
0
 10
-11.6121
 20
78.7500
 30
12.1679
  0
VERTEX
 70
64
  8
0
 10
-12.0776
 20
78.7500
 30
12.2457
  0
VERTEX
 70
64
  8
0
 10
-12.4877
 20
78.7500
 30
12.2796
  0
VERTEX
 70
64
  8
0
 10
-12.8378
 20
78.7500
 30
12.2722
  0
VERTEX
 70
64
  8
0
 10
-13.1229
 20
78.7500
 30
12.2314
  0
VERTEX
 70
64
  8
0
 10
-13.3372
 20
78.7500
 30
12.1624
  0
VERTEX
 70
64
  8
0
 10
-13.4687
 20
78.7500
 30
12.0693
  0
VERTEX
 70
64
  8
0
 10
-13.5406
 20
78.7500
 30
11.9291
  0
VERTEX
 70
64
  8
0
 10
-13.5310
 20
78.7500
 30
11.7095
  0
VERTEX
 70
64
  8
0
 10
-13.4347
 20
78.7500
 30
11.4441
  0
VERTEX
 70
64
  8
0
 10
-13.2754
 20
78.7500
 30
11.1401
  0
VERTEX
 70
64
  8
0
 10
-13.0591
 20
78.7500
 30
10.7997
  0
VERTEX
 70
64
  8
0
 10
-12.7846
 20
78.7500
 30
10.4278
  0
VERTEX
 70
64
  8
0
 10
-12.4544
 20
78.7500
 30
10.0254
  0
VERTEX
 70
64
  8
0
 10
-12.0727
 20
78.7500
 30
9.5926
  0
VERTEX
 70
64
  8
0
 10
-11.6412
 20
78.7500
 30
9.1305
  0
VERTEX
 70
64
  8
0
 10
-11.1612
 20
78.7500
 30
8.6401
  0
VERTEX
 70
64
  8
0
 10
-10.6348
 20
78.7500
 30
8.1223
  0
VERTEX
 70
64
  8
0
 10
-10.0641
 20
78.7500
 30
7.5779
  0
VERTEX
 70
64
  8
0
 10
-9.4508
 20
78.7500
 30
7.0080
  0
VERTEX
 70
64
  8
0
 10
-8.7967
 20
78.7500
 30
6.4138
  0
VERTEX
 70
64
  8
0
 10
-8.1041
 20
78.7500
 30
5.7961
  0
VERTEX
 70
64
  8
0
 10
-7.3752
 20
78.7500
 30
5.1558
  0
VERTEX
 70
64
  8
0
 10
-6.6124
 20
78.7500
 30
4.4938
  0
VERTEX
 70
64
  8
0
 10
-5.8180
 20
78.7500
 30
3.8114
  0
VERTEX
 70
64
  8
0
 10
-4.9939
 20
78.7500
 30
3.1098
  0
VERTEX
 70
64
  8
0
 10
-4.1428
 20
78.7500
 30
2.3904
  0
VERTEX
 70
64
  8
0
 10
-3.2670
 20
78.7500
 30
1.6544
  0
VERTEX
 70
64
  8
0
 10
-2.3690
 20
78.7500
 30
0.9032
  0
VERTEX
 70
64
  8
0
 10
-1.4512
 20
78.7500
 30
0.1381
  0
VERTEX
 70
64
  8
0
 10
-0.5162
 20
78.7500
 30
-0.6392
  0
VERTEX
 70
64
  8
0
 10
0.4334
 20
78.7500
 30
-1.4275
  0
VERTEX
 70
64
  8
0
 10
1.3952
 20
78.7500
 30
-2.2250
  0
VERTEX
 70
64
  8
0
 10
2.3664
 20
78.7500
 30
-3.0302
  0
VERTEX
 70
64
  8
0
 10
3.3447
 20
78.7500
 30
-3.8415
  0
VERTEX
 70
64
  8
0
 10
4.3273
 20
78.7500
 30
-4.6570
  0
VERTEX
 70
64
  8
0
 10
5.3119
 20
78.7500
 30
-5.4751
  0
VERTEX
 70
64
  8
0
 10
6.2958
 20
78.7500
 30
-6.2939
  0
VERTEX
 70
64
  8
0
 10
7.2764
 20
78.7500
 30
-7.1118
  0
VERTEX
 70
64
  8
0
 10
8.2515
 20
78.7500
 30
-7.9269
  0
VERTEX
 70
64
  8
0
 10
9.2185
 20
78.7500
 30
-8.7372
  0
VERTEX
 70
64
  8
0
 10
10.1751
 20
78.7500
 30
-9.5408
  0
VERTEX
 70
64
  8
0
 10
11.1190
 20
78.7500
 30
-10.3360
  0
VERTEX
 70
64
  8
0
 10
12.0477
 20
78.7500
 30
-11.1209
  0
VERTEX
 70
64
  8
0
 10
12.9590
 20
78.7500
 30
-11.8937
  0
VERTEX
 70
64
  8
0
 10
13.8507
 20
78.7500
 30
-12.6524
  0
VERTEX
 70
64
  8
0
 10
14.7208
 20
78.7500
 30
-13.3951
  0
VERTEX
 70
64
  8
0
 10
15.5673
 20
78.7500
 30
-14.1200
  0
VERTEX
 70
64
  8
0
 10
16.3881
 20
78.7500
 30
-14.8252
  0
VERTEX
 70
64
  8
0
 10
17.1812
 20
78.7500
 30
-15.5092
  0
VERTEX
 70
64
  8
0
 10
17.9449
 20
78.7500
 30
-16.1701
  0
VERTEX
 70
64
  8
0
 10
18.6774
 20
78.7500
 30
-16.8063
  0
VERTEX
 70
64
  8
0
 10
19.3770
 20
78.7500
 30
-17.4161
  0
VERTEX
 70
64
  8
0
 10
20.0422
 20
78.7500
 30
-17.9978
  0
VERTEX
 70
64
  8
0
 10
20.6716
 20
78.7500
 30
-18.5499
  0
VERTEX
 70
64
  8
0
 10
21.2640
 20
78.7500
 30
-19.0705
  0
VERTEX
 70
64
  8
0
 10
21.8185
 20
78.7500
 30
-19.5581
  0
VERTEX
 70
64
  8
0
 10
22.3339
 20
78.7500
 30
-20.0110
  0
VERTEX
 70
64
  8
0
 10
22.8093
 20
78.7500
 30
-20.4279
  0
VERTEX
 70
64
  8
0
 10
23.2432
 20
78.7500
 30
-20.8082
  0
VERTEX
 70
64
  8
0
 10
23.6345
 20
78.7500
 30
-21.1511
  0
VERTEX
 70
64
  8
0
 10
23.9813
 20
78.7500
 30
-21.4568
  0
VERTEX
 70
64
  8
0
 10
24.2822
 20
78.7500
 30
-21.7251
  0
VERTEX
 70
64
  8
0
 10
24.5368
 20
78.7500
 30
-21.9552
  0
VERTEX
 70
64
  8
0
 10
24.7442
 20
78.7500
 30
-22.1467
  0
VERTEX
 70
64
  8
0
 10
24.9039
 20
78.7500
 30
-22.2990
  0
VERTEX
 70
64
  8
0
 10
25.0179
 20
78.7500
 30
-22.4093
  0
VERTEX
 70
64
  8
0
 10
26.2728
 20
90.0000
 30
-20.6576
  0
VERTEX
 70
64
  8
0
 10
26.1626
 20
90.0000
 30
-20.5401
  0
VERTEX
 70
64
  8
0
 10
26.0106
 20
90.0000
 30
-20.3755
  0
VERTEX
 70
64
  8
0
 10
25.8196
 20
90.0000
 30
-20.1618
  0
VERTEX
 70
64
  8
0
 10
25.5903
 20
90.0000
 30
-19.8995
  0
VERTEX
 70
64
  8
0
 10
25.3230
 20
90.0000
 30
-19.5894
  0
VERTEX
 70
64
  8
0
 10
25.0173
 20
90.0000
 30
-19.2333
  0
VERTEX
 70
64
  8
0
 10
24.6728
 20
90.0000
 30
-18.8329
  0
VERTEX
 70
64
  8
0
 10
24.2888
 20
90.0000
 30
-18.3904
  0
VERTEX
 70
64
  8
0
 10
23.8658
 20
90.0000
 30
-17.9074
  0
VERTEX
 70
64
  8
0
 10
23.4043
 20
90.0000
 30
-17.3855
  0
VERTEX
 70
64
  8
0
 10
22.9056
 20
90.0000
 30
-16.8259
  0
VERTEX
 70
64
  8
0
 10
22.3710
 20
90.0000
 30
-16.2296
  0
VERTEX
 70
64
  8
0
 10
21.8024
 20
90.0000
 30
-15.5978
  0
VERTEX
 70
64
  8
0
 10
21.2014
 20
90.0000
 30
-14.9316
  0
VERTEX
 70
64
  8
0
 10
20.5695
 20
90.0000
 30
-14.2326
  0
VERTEX
 70
64
  8
0
 10
19.9078
 20
90.0000
 30
-13.5029
  0
VERTEX
 70
64
  8
0
 10
19.2179
 20
90.0000
 30
-12.7442
  0
VERTEX
 70
64
  8
0
 10
18.5013
 20
90.0000
 30
-11.9586
  0
VERTEX
 70
64
  8
0
 10
17.7596
 20
90.0000
 30
-11.1479
  0
VERTEX
 70
64
  8
0
 10
16.9942
 20
90.0000
 30
-10.3145
  0
VERTEX
 70
64
  8
0
 10
16.2064
 20
90.0000
 30
-9.4610
  0
VERTEX
 70
64
  8
0
 10
15.3977
 20
90.0000
 30
-8.5897
  0
VERTEX
 70
64
  8
0
 10
14.5697
 20
90.0000
 30
-7.7031
  0
VERTEX
 70
64
  8
0
 10
13.7237
 20
90.0000
 30
-6.8039
  0
VERTEX
 70
64
  8
0
 10
12.8611
 20
90.0000
 30
-5.8949
  0
VERTEX
 70
64
  8
0
 10
11.9828
 20
90.0000
 30
-4.9796
  0
VERTEX
 70
64
  8
0
 10
11.0894
 20
90.0000
 30
-4.0615
  0
VERTEX
 70
64
  8
0
 10
10.1814
 20
90.0000
 30
-3.1448
  0
VERTEX
 70
64
  8
0
 10
9.2584
 20
90.0000
 30
-2.2342
  0
VERTEX
 70
64
  8
0
 10
8.3213
 20
90.0000
 30
-1.3335
  0
VERTEX
 70
64
  8
0
 10
7.3717
 20
90.0000
 30
-0.4460
  0
VERTEX
 70
64
  8
0
 10
6.4103
 20
90.0000
 30
0.4241
  0
VERTEX
 70
64
  8
0
 10
5.4390
 20
90.0000
 30
1.2738
  0
VERTEX
 70
64
  8
0
 10
4.4594
 20
90.0000
 30
2.0992
  0
VERTEX
 70
64
  8
0
 10
3.4728
 20
90.0000
 30
2.8968
  0
VERTEX
 70
64
  8
0
 10
2.4830
 20
90.0000
 30
3.6655
  0
VERTEX
 70
64
  8
0
 10
1.4927
 20
90.0000
 30
4.4029
  0
VERTEX
 70
64
  8
0
 10
0.5051
 20
90.0000
 30
5.1077
  0
VERTEX
 70
64
  8
0
 10
-0.4759
 20
90.0000
 30
5.7793
  0
VERTEX
 70
64
  8
0
 10
-1.4476
 20
90.0000
 30
6.4158
  0
VERTEX
 70
64
  8
0
 10
-2.4060
 20
90.0000
 30
7.0174
  0
VERTEX
 70
64
  8
0
 10
-3.3478
 20
90.0000
 30
7.5837
  0
VERTEX
 70
64
  8
0
 10
-4.2697
 20
90.0000
 30
8.1138
  0
VERTEX
 70
64
  8
0
 10
-5.1687
 20
90.0000
 30
8.6073
  0
VERTEX
 70
64
  8
0
 10
-6.0422
 20
90.0000
 30
9.0628
  0
VERTEX
 70
64
  8
0
 10
-6.8872
 20
90.0000
 30
9.4799
  0
VERTEX
 70
64
  8
0
 10
-7.7014
 20
90.0000
 30
9.8571
  0
VERTEX
 70
64
  8
0
 10
-8.4820
 20
90.0000
 30
10.1938
  0
VERTEX
 70
64
  8
0
 10
-9.2264
 20
90.0000
 30
10.4895
  0
VERTEX
 70
64
  8
0
 10
-9.9318
 20
90.0000
 30
10.7435
  0
VERTEX
 70
64
  8
0
 10
-10.5954
 20
90.0000
 30
10.9558
  0
VERTEX
 70
64
  8
0
 10
-11.2146
 20
90.0000
 30
11.1263
  0
VERTEX
 70
64
  8
0
 10
-11.7862
 20
90.0000
 30
11.2549
  0
VERTEX
 70
64
  8
0
 10
-12.3072
 20
90.0000
 30
11.3425
  0
VERTEX
 70
64
  8
0
 10
-12.7744
 20
90.0000
 30
11.3901
  0
VERTEX
 70
64
  8
0
 10
-13.1838
 20
90.0000
 30
11.3976
  0
VERTEX
 70
64
  8
0
 10
-13.5311
 20
90.0000
 30
11.3679
  0
VERTEX
 70
64
  8
0
 10
-13.8116
 20
90.0000
 30
11.3092
  0
VERTEX
 70
64
  8
0
 10
-14.0199
 20
90.0000
 30
11.2271
  0
VERTEX
 70
64
  8
0
 10
-14.1446
 20
90.0000
 30
11.1262
  0
VERTEX
 70
64
  8
0
 10
-14.2071
 20
90.0000
 30
10.9824
  0
VERTEX
 70
64
  8
0
 10
-14.1835
 20
90.0000
 30
10.7649
  0
VERTEX
 70
64
  8
0
 10
-14.0710
 20
90.0000
 30
10.5076
  0
VERTEX
 70
64
  8
0
 10
-13.8934
 20
90.0000
 30
10.2158
  0
VERTEX
 70
64
  8
0
 10
-13.6569
 20
90.0000
 30
9.8916
  0
VERTEX
 70
64
  8
0
 10
-13.3606
 20
90.0000
 30
9.5397
  0
VERTEX
 70
64
  8
0
 10
-13.0071
 20
90.0000
 30
9.1612
  0
VERTEX
 70
64
  8
0
 10
-12.6004
 20
90.0000
 30
8.7558
  0
VERTEX
 70
64
  8
0
 10
-12.1424
 20
90.0000
 30
8.3244
  0
VERTEX
 70
64
  8
0
 10
-11.6345
 20
90.0000
 30
7.8681
  0
VERTEX
 70
64
  8
0
 10
-11.0788
 20
90.0000
 30
7.3874
  0
VERTEX
 70
64
  8
0
 10
-10.4773
 20
90.0000
 30
6.8832
  0
VERTEX
 70
64
  8
0
 10
-9.8319
 20
90.0000
 30
6.3564
  0
VERTEX
 70
64
  8
0
 10
-9.1445
 20
90.0000
 30
5.8081
  0
VERTEX
 70
64
  8
0
 10
-8.4173
 20
90.0000
 30
5.2389
  0
VERTEX
 70
64
  8
0
 10
-7.6527
 20
90.0000
 30
4.6495
  0
VERTEX
 70
64
  8
0
 10
-6.8530
 20
90.0000
 30
4.0408
  0
VERTEX
 70
64
  8
0
 10
-6.0205
 20
90.0000
 30
3.4137
  0
VERTEX
 70
64
  8
0
 10
-5.1575
 20
90.0000
 30
2.7697
  0
VERTEX
 70
64
  8
0
 10
-4.2664
 20
90.0000
 30
2.1095
  0
VERTEX
 70
64
  8
0
 10
-3.3498
 20
90.0000
 30
1.4345
  0
VERTEX
 70
64
  8
0
 10
-2.4101
 20
90.0000
 30
0.7458
  0
VERTEX
 70
64
  8
0
 10
-1.4499
 20
90.0000
 30
0.0446
  0
VERTEX
 70
64
  8
0
 10
-0.4718
 20
90.0000
 30
-0.6677
  0
VERTEX
 70
64
  8
0
 10
0.5215
 20
90.0000
 30
-1.3899
  0
VERTEX
 70
64
  8
0
 10
1.5274
 20
90.0000
 30
-2.1205
  0
VERTEX
 70
64
  8
0
 10
2.5432
 20
90.0000
 30
-2.8582
  0
VERTEX
 70
64
  8
0
 10
3.5664
 20
90.0000
 30
-3.6014
  0
VERTEX
 70
64
  8
0
 10
4.5942
 20
90.0000
 30
-4.3486
  0
VERTEX
 70
64
  8
0
 10
5.6240
 20
90.0000
 30
-5.0981
  0
VERTEX
 70
64
  8
0
 10
6.6533
 20
90.0000
 30
-5.8485
  0
VERTEX
 70
64
  8
0
 10
7.6793
 20
90.0000
 30
-6.5982
  0
VERTEX
 70
64
  8
0
 10
8.6996
 20
90.0000
 30
-7.3454
  0
VERTEX
 70
64
  8
0
 10
9.7115
 20
90.0000
 30
-8.0883
  0
VERTEX
 70
64
  8
0
 10
10.7127
 20
90.0000
 30
-8.8254
  0
VERTEX
 70
64
  8
0
 10
11.7007
 20
90.0000
 30
-9.5548
  0
VERTEX
 70
64
  8
0
 10
12.6730
 20
90.0000
 30
-10.2750
  0
VERTEX
 70
64
  8
0
 10
13.6272
 20
90.0000
 30
-10.9843
  0
VERTEX
 70
64
  8
0
 10
14.5612
 20
90.0000
 30
-11.6808
  0
VERTEX
 70
64
  8
0
 10
15.4726
 20
90.0000
 30
-12.3629
  0
VERTEX
 70
64
  8
0
 10
16.3594
 20
90.0000
 30
-13.0287
  0
VERTEX
 70
64
  8
0
 10
17.2194
 20
90.0000
 30
-13.6767
  0
VERTEX
 70
64
  8
0
 10
18.0507
 20
90.0000
 30
-14.3054
  0
VERTEX
 70
64
  8
0
 10
18.8512
 20
90.0000
 30
-14.9130
  0
VERTEX
 70
64
  8
0
 10
19.6191
 20
90.0000
 30
-15.4980
  0
VERTEX
 70
64
  8
0
 10
20.3528
 20
90.0000
 30
-16.0589
  0
VERTEX
 70
64
  8
0
 10
21.0504
 20
90.0000
 30
-16.5941
  0
VERTEX
 70
64
  8
0
 10
21.7106
 20
90.0000
 30
-17.1023
  0
VERTEX
 70
64
  8
0
 10
22.3322
 20
90.0000
 30
-17.5815
  0
VERTEX
 70
64
  8
0
 10
22.9138
 20
90.0000
 30
-18.0303
  0
VERTEX
 70
64
  8
0
 10
23.4546
 20
90.0000
 30
-18.4471
  0
VERTEX
 70
64
  8
0
 10
23.9532
 20
90.0000
 30
-18.8309
  0
VERTEX
 70
64
  8
0
 10
24.4084
 20
90.0000
 30
-19.1808
  0
VERTEX
 70
64
  8
0
 10
24.8188
 20
90.0000
 30
-19.4964
  0
VERTEX
 70
64
  8
0
 10
25.1826
 20
90.0000
 30
-19.7778
  0
VERTEX
 70
64
  8
0
 10
25.4986
 20
90.0000
 30
-20.0250
  0
VERTEX
 70
64
  8
0
 10
25.7661
 20
90.0000
 30
-20.2373
  0
VERTEX
 70
64
  8
0
 10
25.9843
 20
90.0000
 30
-20.4142
  0
VERTEX
 70
64
  8
0
 10
26.1526
 20
90.0000
 30
-20.5553
  0
VERTEX
 70
64
  8
0
 10
26.2728
 20
90.0000
 30
-20.6576
  0
VERTEX
 70
64
  8
0
 10
26.6578
 20
101.2500
 30
-18.7128
  0
VERTEX
 70
64
  8
0
 10
26.5444
 20
101.2500
 30
-18.6043
  0
VERTEX
 70
64
  8
0
 10
26.3878
 20
101.2500
 30
-18.4522
  0
VERTEX
 70
64
  8
0
 10
26.1906
 20
101.2500
 30
-18.2544
  0
VERTEX
 70
64
  8
0
 10
25.9537
 20
101.2500
 30
-18.0112
  0
VERTEX
 70
64
  8
0
 10
25.6772
 20
101.2500
 30
-17.7236
  0
VERTEX
 70
64
  8
0
 10
25.3608
 20
101.2500
 30
-17.3932
  0
VERTEX
 70
64
  8
0
 10
25.0044
 20
101.2500
 30
-17.0218
  0
VERTEX
 70
64
  8
0
 10
24.6074
 20
101.2500
 30
-16.6115
  0
VERTEX
 70
64
  8
0
 10
24.1703
 20
101.2500
 30
-16.1639
  0
VERTEX
 70
64
  8
0
 10
23.6936
 20
101.2500
 30
-15.6805
  0
VERTEX
 70
64
  8
0
 10
23.1787
 20
101.2500
 30
-15.1623
  0
VERTEX
 70
64
  8
0
 10
22.6270
 20
101.2500
 30
-14.6103
  0
VERTEX
 70
64
  8
0
 10
22.0403
 20
101.2500
 30
-14.0255
  0
VERTEX
 70
64
  8
0
 10
21.4202
 20
101.2500
 30
-13.4090
  0
VERTEX
 70
64
  8
0
 10
20.7684
 20
101.2500
 30
-12.7623
  0
VERTEX
 70
64
  8
0
 10
20.0859
 20
101.2500
 30
-12.0871
  0
VERTEX
 70
64
  8
0
 10
19.3745
 20
101.2500
 30
-11.3854
  0
VERTEX
 70
64
  8
0
 10
18.6356
 20
101.2500
 30
-10.6588
  0
VERTEX
 70
64
  8
0
 10
17.8710
 20
101.2500
 30
-9.9091
  0
VERTEX
 70
64
  8
0
 10
17.0822
 20
101.2500
 30
-9.1386
  0
VERTEX
 70
64
  8
0
 10
16.2705
 20
101.2500
 30
-8.3497
  0
VERTEX
 70
64
  8
0
 10
15.4374
 20
101.2500
 30
-7.5446
  0
VERTEX
 70
64
  8
0
 10
14.5848
 20
101.2500
 30
-6.7256
  0
VERTEX
 70
64
  8
0
 10
13.7141
 20
101.2500
 30
-5.8953
  0
VERTEX
 70
64
  8
0
 10
12.8266
 20
101.2500
 30
-5.0564
  0
VERTEX
 70
64
  8
0
 10
11.9236
 20
101.2500
 30
-4.2122
  0
VERTEX
 70
64
  8
0
 10
11.0057
 20
101.2500
 30
-3.3660
  0
VERTEX
 70
64
  8
0
 10
10.0736
 20
101.2500
 30
-2.5219
  0
VERTEX
 70
64
  8
0
 10
9.1273
 20
101.2500
 30
-1.6846
  0
VERTEX
 70
64
  8
0
 10
8.1679
 20
101.2500
 30
-0.8577
  0
VERTEX
 70
64
  8
0
 10
7.1969
 20
101.2500
 30
-0.0443
  0
VERTEX
 70
64
  8
0
 10
6.2154
 20
101.2500
 30
0.7516
  0
VERTEX
 70
64
  8
0
 10
5.2253
 20
101.2500
 30
1.5270
  0
VERTEX
 70
64
  8
0
 10
4.2284
 20
101.2500
 30
2.2784
  0
VERTEX
 70
64
  8
0
 10
3.2262
 20
101.2500
 30
3.0025
  0
VERTEX
 70
64
  8
0
 10
2.2224
 20
101.2500
 30
3.6981
  0
VERTEX
 70
64
  8
0
 10
1.2198
 20
101.2500
 30
4.3634
  0
VERTEX
 70
64
  8
0
 10
0.2215
 20
101.2500
 30
4.9970
  0
VERTEX
 70
64
  8
0
 10
-0.7686
 20
101.2500
 30
5.5986
  0
VERTEX
 70
64
  8
0
 10
-1.7478
 20
101.2500
 30
6.1666
  0
VERTEX
 70
64
  8
0
 10
-2.7123
 20
101.2500
 30
6.7014
  0
VERTEX
 70
64
  8
0
 10
-3.6586
 20
101.2500
 30
7.2027
  0
VERTEX
 70
64
  8
0
 10
-4.5838
 20
101.2500
 30
7.6697
  0
VERTEX
 70
64
  8
0
 10
-5.4846
 20
101.2500
 30
8.1025
  0
VERTEX
 70
64
  8
0
 10
-6.3587
 20
101.2500
 30
8.4996
  0
VERTEX
 70
64
  8
0
 10
-7.2030
 20
101.2500
 30
8.8607
  0
VERTEX
 70
64
  8
0
 10
-8.0153
 20
101.2500
 30
9.1847
  0
VERTEX
 70
64
  8
0
 10
-8.7927
 20
101.2500
 30
9.4712
  0
VERTEX
 70
64
  8
0
 10
-9.5326
 20
101.2500
 30
9.7195
  0
VERTEX
 70
64
  8
0
 10
-10.2325
 20
101.2500
 30
9.9293
  0
VERTEX
 70
64
  8
0
 10
-10.8895
 20
101.2500
 30
10.1009
  0
VERTEX
 70
64
  8
0
 10
-11.5010
 20
101.2500
 30
10.2340
  0
VERTEX
 70
64
  8
0
 10
-12.0640
 20
101.2500
 30
10.3290
  0
VERTEX
 70
64
  8
0
 10
-12.5757
 20
101.2500
 30
10.3867
  0
VERTEX
 70
64
  8
0
 10
-13.0328
 20
101.2500
 30
10.4083
  0
VERTEX
 70
64
  8
0
 10
-13.4316
 20
101.2500
 30
10.3940
  0
VERTEX
 70
64
  8
0
 10
-13.7679
 20
101.2500
 30
10.3467
  0
VERTEX
 70
64
  8
0
 10
-14.0378
 20
101.2500
 30
10.2748
  0
VERTEX
 70
64
  8
0
 10
-14.2362
 20
101.2500
 30
10.1838
  0
VERTEX
 70
64
  8
0
 10
-14.3522
 20
101.2500
 30
10.0791
  0
VERTEX
 70
64
  8
0
 10
-14.4053
 20
101.2500
 30
9.9359
  0
VERTEX
 70
64
  8
0
 10
-14.3709
 20
101.2500
 30
9.7255
  0
VERTEX
 70
64
  8
0
 10
-14.2478
 20
101.2500
 30
9.4810
  0
VERTEX
 70
64
  8
0
 10
-14.0595
 20
101.2500
 30
9.2065
  0
VERTEX
 70
64
  8
0
 10
-13.8123
 20
101.2500
 30
8.9035
  0
VERTEX
 70
64
  8
0
 10
-13.5053
 20
101.2500
 30
8.5768
  0
VERTEX
 70
64
  8
0
 10
-13.1413
 20
101.2500
 30
8.2271
  0
VERTEX
 70
64
  8
0
 10
-12.7242
 20
101.2500
 30
7.8541
  0
VERTEX
 70
64
  8
0
 10
-12.2557
 20
101.2500
 30
7.4585
  0
VERTEX
 70
64
  8
0
 10
-11.7373
 20
101.2500
 30
7.0413
  0
VERTEX
 70
64
  8
0
 10
-11.1712
 20
101.2500
 30
6.6030
  0
VERTEX
 70
64
  8
0
 10
-10.5592
 20
101.2500
 30
6.1442
  0
VERTEX
 70
64
  8
0
 10
-9.9034
 20
101.2500
 30
5.6656
  0
VERTEX
 70
64
  8
0
 10
-9.2054
 20
101.2500
 30
5.1684
  0
VERTEX
 70
64
  8
0
 10
-8.4677
 20
101.2500
 30
4.6529
  0
VERTEX
 70
64
  8
0
 10
-7.6925
 20
101.2500
 30
4.1198
  0
VERTEX
 70
64
  8
0
 10
-6.8822
 20
101.2500
 30
3.5698
  0
VERTEX
 70
64
  8
0
 10
-6.0390
 20
101.2500
 30
3.0036
  0
VERTEX
 70
64
  8
0
 10
-5.1651
 20
101.2500
 30
2.4225
  0
VERTEX
 70
64
  8
0
 10
-4.2631
 20
101.2500
 30
1.8272
  0
VERTEX
 70
64
  8
0
 10
-3.3355
 20
101.2500
 30
1.2188
  0
VERTEX
 70
64
  8
0
 10
-2.3846
 20
101.2500
 30
0.5983
  0
VERTEX
 70
64
  8
0
 10
-1.4132
 20
101.2500
 30
-0.0332
  0
VERTEX
 70
64
  8
0
 10
-0.4239
 20
101.2500
 30
-0.6747
  0
VERTEX
 70
64
  8
0
 10
0.5809
 20
101.2500
 30
-1.3249
  0
VERTEX
 70
64
  8
0
 10
1.5984
 20
101.2500
 30
-1.9827
  0
VERTEX
 70
64
  8
0
 10
2.6259
 20
101.2500
 30
-2.6468
  0
VERTEX
 70
64
  8
0
 10
3.6608
 20
101.2500
 30
-3.3159
  0
VERTEX
 70
64
  8
0
 10
4.7004
 20
101.2500
 30
-3.9887
  0
VERTEX
 70
64
  8
0
 10
5.7422
 20
101.2500
 30
-4.6637
  0
VERTEX
 70
64
  8
0
 10
6.7834
 20
101.2500
 30
-5.3395
  0
VERTEX
 70
64
  8
0
 10
7.8215
 20
101.2500
 30
-6.0147
  0
VERTEX
 70
64
  8
0
 10
8.8538
 20
101.2500
 30
-6.6878
  0
VERTEX
 70
64
  8
0
 10
9.8778
 20
101.2500
 30
-7.3573
  0
VERTEX
 70
64
  8
0
 10
10.8910
 20
101.2500
 30
-8.0216
  0
VERTEX
 70
64
  8
0
 10
11.8910
 20
101.2500
 30
-8.6792
  0
VERTEX
 70
64
  8
0
 10
12.8752
 20
101.2500
 30
-9.3286
  0
VERTEX
 70
64
  8
0
 10
13.8412
 20
101.2500
 30
-9.9684
  0
VERTEX
 70
64
  8
0
 10
14.7868
 20
101.2500
 30
-10.5968
  0
VERTEX
 70
64
  8
0
 10
15.7098
 20
101.2500
 30
-11.2123
  0
VERTEX
 70
64
  8
0
 10
16.6079
 20
101.2500
 30
-11.8133
  0
VERTEX
 70
64
  8
0
 10
17.4791
 20
101.2500
 30
-12.3984
  0
VERTEX
 70
64
  8
0
 10
18.3212
 20
101.2500
 30
-12.9662
  0
VERTEX
 70
64
  8
0
 10
19.1323
 20
101.2500
 30
-13.5152
  0
VERTEX
 70
64
  8
0
 10
19.9105
 20
101.2500
 30
-14.0438
  0
VERTEX
 70
64
  8
0
 10
20.6540
 20
101.2500
 30
-14.5508
  0
VERTEX
 70
64
  8
0
 10
21.3612
 20
101.2500
 30
-15.0348
  0
VERTEX
 70
64
  8
0
 10
22.0305
 20
101.2500
 30
-15.4944
  0
VERTEX
 70
64
  8
0
 10
22.6606
 20
101.2500
 30
-15.9278
  0
VERTEX
 70
64
  8
0
 10
23.2504
 20
101.2500
 30
-16.3338
  0
VERTEX
 70
64
  8
0
 10
23.7986
 20
101.2500
 30
-16.7109
  0
VERTEX
 70
64
  8
0
 10
24.3041
 20
101.2500
 30
-17.0579
  0
VERTEX
 70
64
  8
0
 10
24.7655
 20
101.2500
 30
-17.3744
  0
VERTEX
 70
64
  8
0
 10
25.1816
 20
101.2500
 30
-17.6598
  0
VERTEX
 70
64
  8
0
 10
25.5505
 20
101.2500
 30
-17.9144
  0
VERTEX
 70
64
  8
0
 10
25.8711
 20
101.2500
 30
-18.1383
  0
VERTEX
 70
64
  8
0
 10
26.1426
 20
101.2500
 30
-18.3307
  0
VERTEX
 70
64
  8
0
 10
26.3642
 20
101.2500
 30
-18.4913
  0
VERTEX
 70
64
  8
0
 10
26.5355
 20
101.2500
 30
-18.6197
  0
VERTEX
 70
64
  8
0
 10
26.6578
 20
101.2500
 30
-18.7128
  0
VERTEX
 70
64
  8
0
 10
26.4180
 20
112.5000
 30
-16.7762
  0
VERTEX
 70
64
  8
0
 10
26.3043
 20
112.5000
 30
-16.6771
  0
VERTEX
 70
64
  8
0
 10
26.1472
 20
112.5000
 30
-16.5380
  0
VERTEX
 70
64
  8
0
 10
25.9491
 20
112.5000
 30
-16.3570
  0
VERTEX
 70
64
  8
0
 10
25.7109
 20
112.5000
 30
-16.1341
  0
VERTEX
 70
64
  8
0
 10
25.4327
 20
112.5000
 30
-15.8703
  0
VERTEX
 70
64
  8
0
 10
25.1145
 20
112.5000
 30
-15.5673
  0
VERTEX
 70
64
  8
0
 10
24.7558
 20
112.5000
 30
-15.2266
  0
VERTEX
 70
64
  8
0
 10
24.3566
 20
112.5000
 30
-14.8505
  0
VERTEX
 70
64
  8
0
 10
23.9171
 20
112.5000
 30
-14.4403
  0
VERTEX
 70
64
  8
0
 10
23.4381
 20
112.5000
 30
-13.9974
  0
VERTEX
 70
64
  8
0
 10
22.9209
 20
112.5000
 30
-13.5229
  0
VERTEX
 70
64
  8
0
 10
22.3668
 20
112.5000
 30
-13.0177
  0
VERTEX
 70
64
  8
0
 10
21.7777
 20
112.5000
 30
-12.4825
  0
VERTEX
 70
64
  8
0
 10
21.1552
 20
112.5000
 30
-11.9183
  0
VERTEX
 70
64
  8
0
 10
20.5008
 20
112.5000
 30
-11.3265
  0
VERTEX
 70
64
  8
0
 10
19.8158
 20
112.5000
 30
-10.7088
  0
VERTEX
 70
64
  8
0
 10
19.1017
 20
112.5000
 30
-10.0669
  0
VERTEX
 70
64
  8
0
 10
18.3603
 20
112.5000
 30
-9.4023
  0
VERTEX
 70
64
  8
0
 10
17.5931
 20
112.5000
 30
-8.7168
  0
VERTEX
 70
64
  8
0
 10
16.8017
 20
112.5000
 30
-8.0123
  0
VERTEX
 70
64
  8
0
 10
15.9876
 20
112.5000
 30
-7.2911
  0
VERTEX
 70
64
  8
0
 10
15.1523
 20
112.5000
 30
-6.5554
  0
VERTEX
 70
64
  8
0
 10
14.2975
 20
112.5000
 30
-5.8072
  0
VERTEX
 70
64
  8
0
 10
13.4249
 20
112.5000
 30
-5.0490
  0
VERTEX
 70
64
  8
0
 10
12.5358
 20
112.5000
 30
-4.2833
  0
VERTEX
 70
64
  8
0
 10
11.6315
 20
112.5000
 30
-3.5130
  0
VERTEX
 70
64
  8
0
 10
10.7130
 20
112.5000
 30
-2.7417
  0
VERTEX
 70
64
  8
0
 10
9.7808
 20
112.5000
 30
-1.9730
  0
VERTEX
 70
64
  8
0
 10
8.8354
 20
112.5000
 30
-1.2113
  0
VERTEX
 70
64
  8
0
 10
7.8777
 20
112.5000
 30
-0.4603
  0
VERTEX
 70
64
  8
0
 10
6.9096
 20
112.5000
 30
0.2773
  0
VERTEX
 70
64
  8
0
 10
5.9322
 20
112.5000
 30
0.9975
  0
VERTEX
 70
64
  8
0
 10
4.9475
 20
112.5000
 30
1.6978
  0
VERTEX
 70
64
  8
0
 10
3.9572
 20
112.5000
 30
2.3748
  0
VERTEX
 70
64
  8
0
 10
2.9631
 20
112.5000
 30
3.0251
  0
VERTEX
 70
64
  8
0
 10
1.9688
 20
112.5000
 30
3.6483
  0
VERTEX
 70
64
  8
0
 10
0.9769
 20
112.5000
 30
4.2422
  0
VERTEX
 70
64
  8
0
 10
-0.0094
 20
112.5000
 30
4.8060
  0
VERTEX
 70
64
  8
0
 10
-0.9865
 20
112.5000
 30
5.3394
  0
VERTEX
 70
64
  8
0
 10
-1.9516
 20
112.5000
 30
5.8411
  0
VERTEX
 70
64
  8
0
 10
-2.9010
 20
112.5000
 30
6.3116
  0
VERTEX
 70
64
  8
0
 10
-3.8316
 20
112.5000
 30
6.7506
  0
VERTEX
 70
64
  8
0
 10
-4.7403
 20
112.5000
 30
7.1578
  0
VERTEX
 70
64
  8
0
 10
-5.6242
 20
112.5000
 30
7.5331
  0
VERTEX
 70
64
  8
0
 10
-6.4808
 20
112.5000
 30
7.8754
  0
VERTEX
 70
64
  8
0
 10
-7.3073
 20
112.5000
 30
8.1845
  0
VERTEX
 70
64
  8
0
 10
-8.1013
 20
112.5000
 30
8.4594
  0
VERTEX
 70
64
  8
0
 10
-8.8602
 20
112.5000
 30
8.6998
  0
VERTEX
 70
64
  8
0
 10
-9.5814
 20
112.5000
 30
8.9053
  0
VERTEX
 70
64
  8
0
 10
-10.2624
 20
112.5000
 30
9.0756
  0
VERTEX
 70
64
  8
0
 10
-10.9007
 20
112.5000
 30
9.2111
  0
VERTEX
 70
64
  8
0
 10
-11.4935
 20
112.5000
 30
9.3117
  0
VERTEX
 70
64
  8
0
 10
-12.0381
 20
112.5000
 30
9.3778
  0
VERTEX
 70
64
  8
0
 10
-12.5318
 20
112.5000
 30
9.4105
  0
VERTEX
 70
64
  8
0
 10
-12.9715
 20
112.5000
 30
9.4109
  0
VERTEX
 70
64
  8
0
 10
-13.3536
 20
112.5000
 30
9.3794
  0
VERTEX
 70
64
  8
0
 10
-13.6744
 20
112.5000
 30
9.3191
  0
VERTEX
 70
64
  8
0
 10
-13.9302
 20
112.5000
 30
9.2381
  0
VERTEX
 70
64
  8
0
 10
-14.1165
 20
112.5000
 30
9.1419
  0
VERTEX
 70
64
  8
0
 10
-14.2232
 20
112.5000
 30
9.0363
  0
VERTEX
 70
64
  8
0
 10
-14.2679
 20
112.5000
 30
8.8964
  0
VERTEX
 70
64
  8
0
 10
-14.2255
 20
112.5000
 30
8.6960
  0
VERTEX
 70
64
  8
0
 10
-14.0965
 20
112.5000
 30
8.4668
  0
VERTEX
 70
64
  8
0
 10
-13.9036
 20
112.5000
 30
8.2117
  0
VERTEX
 70
64
  8
0
 10
-13.6528
 20
112.5000
 30
7.9319
  0
VERTEX
 70
64
  8
0
 10
-13.3437
 20
112.5000
 30
7.6319
  0
VERTEX
 70
64
  8
0
 10
-12.9788
 20
112.5000
 30
7.3125
  0
VERTEX
 70
64
  8
0
 10
-12.5618
 20
112.5000
 30
6.9731
  0
VERTEX
 70
64
  8
0
 10
-12.0946
 20
112.5000
 30
6.6142
  0
VERTEX
 70
64
  8
0
 10
-11.5785
 20
112.5000
 30
6.2368
  0
VERTEX
 70
64
  8
0
 10
-11.0156
 20
112.5000
 30
5.8412
  0
VERTEX
 70
64
  8
0
 10
-10.4079
 20
112.5000
 30
5.4280
  0
VERTEX
 70
64
  8
0
 10
-9.7571
 20
112.5000
 30
4.9978
  0
VERTEX
 70
64
  8
0
 10
-9.0651
 20
112.5000
 30
4.5516
  0
VERTEX
 70
64
  8
0
 10
-8.3341
 20
112.5000
 30
4.0897
  0
VERTEX
 70
64
  8
0
 10
-7.5664
 20
112.5000
 30
3.6124
  0
VERTEX
 70
64
  8
0
 10
-6.7642
 20
112.5000
 30
3.1205
  0
VERTEX
 70
64
  8
0
 10
-5.9297
 20
112.5000
 30
2.6146
  0
VERTEX
 70
64
  8
0
 10
-5.0652
 20
112.5000
 30
2.0956
  0
VERTEX
 70
64
  8
0
 10
-4.1730
 20
112.5000
 30
1.5644
  0
VERTEX
 70
64
  8
0
 10
-3.2556
 20
112.5000
 30
1.0216
  0
VERTEX
 70
64
  8
0
 10
-2.3154
 20
112.5000
 30
0.4683
  0
VERTEX
 70
64
  8
0
 10
-1.3550
 20
112.5000
 30
-0.0947
  0
VERTEX
 70
64
  8
0
 10
-0.3768
 20
112.5000
 30
-0.6664
  0
VERTEX
 70
64
  8
0
 10
0.6164
 20
112.5000
 30
-1.2459
  0
VERTEX
 70
64
  8
0
 10
1.6222
 20
112.5000
 30
-1.8320
  0
VERTEX
 70
64
  8
0
 10
2.6380
 20
112.5000
 30
-2.4238
  0
VERTEX
 70
64
  8
0
 10
3.6610
 20
112.5000
 30
-3.0200
  0
VERTEX
 70
64
  8
0
 10
4.6888
 20
112.5000
 30
-3.6195
  0
VERTEX
 70
64
  8
0
 10
5.7187
 20
112.5000
 30
-4.2211
  0
VERTEX
 70
64
  8
0
 10
6.7481
 20
112.5000
 30
-4.8234
  0
VERTEX
 70
64
  8
0
 10
7.7744
 20
112.5000
 30
-5.4254
  0
VERTEX
 70
64
  8
0
 10
8.7951
 20
112.5000
 30
-6.0256
  0
VERTEX
 70
64
  8
0
 10
9.8077
 20
112.5000
 30
-6.6227
  0
VERTEX
 70
64
  8
0
 10
10.8098
 20
112.5000
 30
-7.2153
  0
VERTEX
 70
64
  8
0
 10
11.7987
 20
112.5000
 30
-7.8020
  0
VERTEX
 70
64
  8
0
 10
12.7723
 20
112.5000
 30
-8.3816
  0
VERTEX
 70
64
  8
0
 10
13.7279
 20
112.5000
 30
-8.9527
  0
VERTEX
 70
64
  8
0
 10
14.6634
 20
112.5000
 30
-9.5138
  0
VERTEX
 70
64
  8
0
 10
15.5766
 20
112.5000
 30
-10.0636
  0
VERTEX
 70
64
  8
0
 10
16.4654
 20
112.5000
 30
-10.6006
  0
VERTEX
 70
64
  8
0
 10
17.3275
 20
112.5000
 30
-11.1235
  0
VERTEX
 70
64
  8
0
 10
18.1610
 20
112.5000
 30
-11.6310
  0
VERTEX
 70
64
  8
0
 10
18.9639
 20
112.5000
 30
-12.1218
  0
VERTEX
 70
64
  8
0
 10
19.7343
 20
112.5000
 30
-12.5947
  0
VERTEX
 70
64
  8
0
 10
20.4705
 20
112.5000
 30
-13.0483
  0
VERTEX
 70
64
  8
0
 10
21.1708
 20
112.5000
 30
-13.4814
  0
VERTEX
 70
64
  8
0
 10
21.8336
 20
112.5000
 30
-13.8927
  0
VERTEX
 70
64
  8
0
 10
22.4577
 20
112.5000
 30
-14.2808
  0
VERTEX
 70
64
  8
0
 10
23.0417
 20
112.5000
 30
-14.6442
  0
VERTEX
 70
64
  8
0
 10
23.5847
 20
112.5000
 30
-14.9817
  0
VERTEX
 70
64
  8
0
 10
24.0853
 20
112.5000
 30
-15.2924
  0
VERTEX
 70
64
  8
0
 10
24.5422
 20
112.5000
 30
-15.5756
  0
VERTEX
 70
64
  8
0
 10
24.9542
 20
112.5000
 30
-15.8311
  0
VERTEX
 70
64
  8
0
 10
25.3197
 20
112.5000
 30
-16.0591
  0
VERTEX
 70
64
  8
0
 10
25.6373
 20
112.5000
 30
-16.2597
  0
VERTEX
 70
64
  8
0
 10
25.9064
 20
112.5000
 30
-16.4323
  0
VERTEX
 70
64
  8
0
 10
26.1263
 20
112.5000
 30
-16.5766
  0
VERTEX
 70
64
  8
0
 10
26.2964
 20
112.5000
 30
-16.6922
  0
VERTEX
 70
64
  8
0
 10
26.4180
 20
112.5000
 30
-16.7762
  0
VERTEX
 70
64
  8
0
 10
25.7344
 20
123.7500
 30
-14.9414
  0
VERTEX
 70
64
  8
0
 10
25.6226
 20
123.7500
 30
-14.8516
  0
VERTEX
 70
64
  8
0
 10
25.4681
 20
123.7500
 30
-14.7254
  0
VERTEX
 70
64
  8
0
 10
25.2731
 20
123.7500
 30
-14.5608
  0
VERTEX
 70
64
  8
0
 10
25.0383
 20
123.7500
 30
-14.3581
  0
VERTEX
 70
64
  8
0
 10
24.7641
 20
123.7500
 30
-14.1180
  0
VERTEX
 70
64
  8
0
 10
24.4502
 20
123.7500
 30
-13.8420
  0
VERTEX
 70
64
  8
0
 10
24.0966
 20
123.7500
 30
-13.5319
  0
VERTEX
 70
64
  8
0
 10
23.7030
 20
123.7500
 30
-13.1896
  0
VERTEX
 70
64
  8
0
 10
23.2700
 20
123.7500
 30
-12.8165
  0
VERTEX
 70
64
  8
0
 10
22.7981
 20
123.7500
 30
-12.4138
  0
VERTEX
 70
64
  8
0
 10
22.2888
 20
123.7500
 30
-11.9826
  0
VERTEX
 70
64
  8
0
 10
21.7433
 20
123.7500
 30
-11.5234
  0
VERTEX
 70
64
  8
0
 10
21.1633
 20
123.7500
 30
-11.0371
  0
VERTEX
 70
64
  8
0
 10
20.5505
 20
123.7500
 30
-10.5246
  0
VERTEX
 70
64
  8
0
 10
19.9064
 20
123.7500
 30
-9.9871
  0
VERTEX
 70
64
  8
0
 10
19.2322
 20
123.7500
 30
-9.4261
  0
VERTEX
 70
64
  8
0
 10
18.5295
 20
123.7500
 30
-8.8432
  0
VERTEX
 70
64
  8
0
 10
17.7999
 20
123.7500
 30
-8.2397
  0
VERTEX
 70
64
  8
0
 10
17.0451
 20
123.7500
 30
-7.6173
  0
VERTEX
 70
64
  8
0
 10
16.2666
 20
123.7500
 30
-6.9779
  0
VERTEX
 70
64
  8
0
 10
15.4658
 20
123.7500
 30
-6.3234
  0
VERTEX
 70
64
  8
0
 10
14.6443
 20
123.7500
 30
-5.6560
  0
VERTEX
 70
64
  8
0
 10
13.8039
 20
123.7500
 30
-4.9774
  0
VERTEX
 70
64
  8
0
 10
12.9461
 20
123.7500
 30
-4.2900
  0
VERTEX
 70
64
  8
0
 10
12.0725
 20
123.7500
 30
-3.5960
  0
VERTEX
 70
64
  8
0
 10
11.1842
 20
123.7500
 30
-2.8984
  0
VERTEX
 70
64
  8
0
 10
10.2823
 20
123.7500
 30
-2.2002
  0
VERTEX
 70
64
  8
0
 10
9.3676
 20
123.7500
 30
-1.5050
  0
VERTEX
 70
64
  8
0
 10
8.4405
 20
123.7500
 30
-0.8171
  0
VERTEX
 70
64
  8
0
 10
7.5022
 20
123.7500
 30
-0.1397
  0
VERTEX
 70
64
  8
0
 10
6.5546
 20
123.7500
 30
0.5245
  0
VERTEX
 70
64
  8
0
 10
5.5986
 20
123.7500
 30
1.1719
  0
VERTEX
 70
64
  8
0
 10
4.6366
 20
123.7500
 30
1.8001
  0
VERTEX
 70
64
  8
0
 10
3.6701
 20
123.7500
 30
2.4059
  0
VERTEX
 70
64
  8
0
 10
2.7011
 20
123.7500
 30
2.9862
  0
VERTEX
 70
64
  8
0
 10
1.7328
 20
123.7500
 30
3.5407
  0
VERTEX
 70
64
  8
0
 10
0.7679
 20
123.7500
 30
4.0676
  0
VERTEX
 70
64
  8
0
 10
-0.1905
 20
123.7500
 30
4.5660
  0
VERTEX
 70
64
  8
0
 10
-1.1390
 20
123.7500
 30
5.0359
  0
VERTEX
 70
64
  8
0
 10
-2.0750
 20
123.7500
 30
5.4761
  0
VERTEX
 70
64
  8
0
 10
-2.9948
 20
123.7500
 30
5.8872
  0
VERTEX
 70
64
  8
0
 10
-3.8956
 20
123.7500
 30
6.2692
  0
VERTEX
 70
64
  8
0
 10
-4.7744
 20
123.7500
 30
6.6218
  0
VERTEX
 70
64
  8
0
 10
-5.6284
 20
123.7500
 30
6.9450
  0
VERTEX
 70
64
  8
0
 10
-6.4552
 20
123.7500
 30
7.2378
  0
VERTEX
 70
64
  8
0
 10
-7.2521
 20
123.7500
 30
7.5003
  0
VERTEX
 70
64
  8
0
 10
-8.0169
 20
123.7500
 30
7.7315
  0
VERTEX
 70
64
  8
0
 10
-8.7470
 20
123.7500
 30
7.9312
  0
VERTEX
 70
64
  8
0
 10
-9.4400
 20
123.7500
 30
8.0992
  0
VERTEX
 70
64
  8
0
 10
-10.0936
 20
123.7500
 30
8.2353
  0
VERTEX
 70
64
  8
0
 10
-10.7051
 20
123.7500
 30
8.3399
  0
VERTEX
 70
64
  8
0
 10
-11.2721
 20
123.7500
 30
8.4131
  0
VERTEX
 70
64
  8
0
 10
-11.7921
 20
123.7500
 30
8.4553
  0
VERTEX
 70
64
  8
0
 10
-12.2624
 20
123.7500
 30
8.4677
  0
VERTEX
 70
64
  8
0
 10
-12.6802
 20
123.7500
 30
8.4515
  0
VERTEX
 70
64
  8
0
 10
-13.0421
 20
123.7500
 30
8.4071
  0
VERTEX
 70
64
  8
0
 10
-13.3445
 20
123.7500
 30
8.3377
  0
VERTEX
 70
64
  8
0
 10
-13.5845
 20
123.7500
 30
8.2511
  0
VERTEX
 70
64
  8
0
 10
-13.7580
 20
123.7500
 30
8.1527
  0
VERTEX
 70
64
  8
0
 10
-13.8554
 20
123.7500
 30
8.0482
  0
VERTEX
 70
64
  8
0
 10
-13.8925
 20
123.7500
 30
7.9137
  0
VERTEX
 70
64
  8
0
 10
-13.8446
 20
123.7500
 30
7.7249
  0
VERTEX
 70
64
  8
0
 10
-13.7134
 20
123.7500
 30
7.5120
  0
VERTEX
 70
64
  8
0
 10
-13.5205
 20
123.7500
 30
7.2769
  0
VERTEX
 70
64
  8
0
 10
-13.2716
 20
123.7500
 30
7.0205
  0
VERTEX
 70
64
  8
0
 10
-12.9666
 20
123.7500
 30
6.7472
  0
VERTEX
 70
64
  8
0
 10
-12.6078
 20
123.7500
 30
6.4575
  0
VERTEX
 70
64
  8
0
 10
-12.1989
 20
123.7500
 30
6.1507
  0
VERTEX
 70
64
  8
0
 10
-11.7413
 20
123.7500
 30
5.8274
  0
VERTEX
 70
64
  8
0
 10
-11.2367
 20
123.7500
 30
5.4883
  0
VERTEX
 70
64
  8
0
 10
-10.6870
 20
123.7500
 30
5.1337
  0
VERTEX
 70
64
  8
0
 10
-10.0939
 20
123.7500
 30
4.7641
  0
VERTEX
 70
64
  8
0
 10
-9.4594
 20
123.7500
 30
4.3799
  0
VERTEX
 70
64
  8
0
 10
-8.7850
 20
123.7500
 30
3.9821
  0
VERTEX
 70
64
  8
0
 10
-8.0730
 20
123.7500
 30
3.5708
  0
VERTEX
 70
64
  8
0
 10
-7.3256
 20
123.7500
 30
3.1464
  0
VERTEX
 70
64
  8
0
 10
-6.5448
 20
123.7500
 30
2.7093
  0
VERTEX
 70
64
  8
0
 10
-5.7328
 20
123.7500
 30
2.2601
  0
VERTEX
 70
64
  8
0
 10
-4.8918
 20
123.7500
 30
1.7997
  0
VERTEX
 70
64
  8
0
 10
-4.0240
 20
123.7500
 30
1.3287
  0
VERTEX
 70
64
  8
0
 10
-3.1318
 20
123.7500
 30
0.8477
  0
VERTEX
 70
64
  8
0
 10
-2.2176
 20
123.7500
 30
0.3575
  0
VERTEX
 70
64
  8
0
 10
-1.2838
 20
123.7500
 30
-0.1412
  0
VERTEX
 70
64
  8
0
 10
-0.3329
 20
123.7500
 30
-0.6474
  0
VERTEX
 70
64
  8
0
 10
0.6328
 20
123.7500
 30
-1.1604
  0
VERTEX
 70
64
  8
0
 10
1.6106
 20
123.7500
 30
-1.6794
  0
VERTEX
 70
64
  8
0
 10
2.5980
 20
123.7500
 30
-2.2032
  0
VERTEX
 70
64
  8
0
 10
3.5925
 20
123.7500
 30
-2.7311
  0
VERTEX
 70
64
  8
0
 10
4.5917
 20
123.7500
 30
-3.2619
  0
VERTEX
 70
64
  8
0
 10
5.5930
 20
123.7500
 30
-3.7945
  0
VERTEX
 70
64
  8
0
 10
6.5938
 20
123.7500
 30
-4.3279
  0
VERTEX
 70
64
  8
0
 10
7.5917
 20
123.7500
 30
-4.8611
  0
VERTEX
 70
64
  8
0
 10
8.5842
 20
123.7500
 30
-5.3928
  0
VERTEX
 70
64
  8
0
 10
9.5688
 20
123.7500
 30
-5.9219
  0
VERTEX
 70
64
  8
0
 10
10.5433
 20
123.7500
 30
-6.4470
  0
VERTEX
 70
64
  8
0
 10
11.5051
 20
123.7500
 30
-6.9671
  0
VERTEX
 70
64
  8
0
 10
12.4520
 20
123.7500
 30
-7.4810
  0
VERTEX
 70
64
  8
0
 10
13.3815
 20
123.7500
 30
-7.9875
  0
VERTEX
 70
64
  8
0
 10
14.2916
 20
123.7500
 30
-8.4854
  0
VERTEX
 70
64
  8
0
 10
15.1801
 20
123.7500
 30
-8.9732
  0
VERTEX
 70
64
  8
0
 10
16.0448
 20
123.7500
 30
-9.4498
  0
VERTEX
 70
64
  8
0
 10
16.8837
 20
123.7500
 30
-9.9141
  0
VERTEX
 70
64
  8
0
 10
17.6948
 20
123.7500
 30
-10.3648
  0
VERTEX
 70
64
  8
0
 10
18.4762
 20
123.7500
 30
-10.8008
  0
VERTEX
 70
64
  8
0
 10
19.2261
 20
123.7500
 30
-11.2210
  0
VERTEX
 70
64
  8
0
 10
19.9427
 20
123.7500
 30
-11.6241
  0
VERTEX
 70
64
  8
0
 10
20.6244
 20
123.7500
 30
-12.0092
  0
VERTEX
 70
64
  8
0
 10
21.2697
 20
123.7500
 30
-12.3749
  0
VERTEX
 70
64
  8
0
 10
21.8773
 20
123.7500
 30
-12.7201
  0
VERTEX
 70
64
  8
0
 10
22.4460
 20
123.7500
 30
-13.0433
  0
VERTEX
 70
64
  8
0
 10
22.9746
 20
123.7500
 30
-13.3435
  0
VERTEX
 70
64
  8
0
 10
23.4620
 20
123.7500
 30
-13.6198
  0
VERTEX
 70
64
  8
0
 10
23.9068
 20
123.7500
 30
-13.8716
  0
VERTEX
 70
64
  8
0
 10
24.3079
 20
123.7500
 30
-14.0987
  0
VERTEX
 70
64
  8
0
 10
24.6638
 20
123.7500
 30
-14.3016
  0
VERTEX
 70
64
  8
0
 10
24.9731
 20
123.7500
 30
-14.4802
  0
VERTEX
 70
64
  8
0
 10
25.2354
 20
123.7500
 30
-14.6340
  0
VERTEX
 70
64
  8
0
 10
25.4497
 20
123.7500
 30
-14.7628
  0
VERTEX
 70
64
  8
0
 10
25.6157
 20
123.7500
 30
-14.8662
  0
VERTEX
 70
64
  8
0
 10
25.7344
 20
123.7500
 30
-14.9414
  0
VERTEX
 70
64
  8
0
 10
24.7284
 20
135.0000
 30
-13.2414
  0
VERTEX
 70
64
  8
0
 10
24.6202
 20
135.0000
 30
-13.1604
  0
VERTEX
 70
64
  8
0
 10
24.4705
 20
135.0000
 30
-13.0465
  0
VERTEX
 70
64
  8
0
 10
24.2814
 20
135.0000
 30
-12.8978
  0
VERTEX
 70
64
  8
0
 10
24.0537
 20
135.0000
 30
-12.7144
  0
VERTEX
 70
64
  8
0
 10
23.7875
 20
135.0000
 30
-12.4971
  0
VERTEX
 70
64
  8
0
 10
23.4829
 20
135.0000
 30
-12.2473
  0
VERTEX
 70
64
  8
0
 10
23.1397
 20
135.0000
 30
-11.9667
  0
VERTEX
 70
64
  8
0
 10
22.7579
 20
135.0000
 30
-11.6569
  0
VERTEX
 70
64
  8
0
 10
22.3378
 20
135.0000
 30
-11.3194
  0
VERTEX
 70
64
  8
0
 10
21.8802
 20
135.0000
 30
-10.9554
  0
VERTEX
 70
64
  8
0
 10
21.3863
 20
135.0000
 30
-10.5656
  0
VERTEX
 70
64
  8
0
 10
20.8576
 20
135.0000
 30
-10.1508
  0
VERTEX
 70
64
  8
0
 10
20.2954
 20
135.0000
 30
-9.7115
  0
VERTEX
 70
64
  8
0
 10
19.7015
 20
135.0000
 30
-9.2485
  0
VERTEX
 70
64
  8
0
 10
19.0772
 20
135.0000
 30
-8.7630
  0
VERTEX
 70
64
  8
0
 10
18.4239
 20
135.0000
 30
-8.2564
  0
VERTEX
 70
64
  8
0
 10
17.7430
 20
135.0000
 30
-7.7300
  0
VERTEX
 70
64
  8
0
 10
17.0361
 20
135.0000
 30
-7.1852
  0
VERTEX
 70
64
  8
0
 10
16.3048
 20
135.0000
 30
-6.6233
  0
VERTEX
 70
64
  8
0
 10
15.5507
 20
135.0000
 30
-6.0462
  0
VERTEX
 70
64
  8
0
 10
14.7750
 20
135.0000
 30
-5.4556
  0
VERTEX
 70
64
  8
0
 10
13.9795
 20
135.0000
 30
-4.8534
  0
VERTEX
 70
64
  8
0
 10
13.1658
 20
135.0000
 30
-4.2414
  0
VERTEX
 70
64
  8
0
 10
12.3354
 20
135.0000
 30
-3.6216
  0
VERTEX
 70
64
  8
0
 10
11.4899
 20
135.0000
 30
-2.9962
  0
VERTEX
 70
64
  8
0
 10
10.6304
 20
135.0000
 30
-2.3678
  0
VERTEX
 70
64
  8
0
 10
9.7581
 20
135.0000
 30
-1.7393
  0
VERTEX
 70
64
  8
0
 10
8.8738
 20
135.0000
 30
-1.1140
  0
VERTEX
 70
64
  8
0
 10
7.9781
 20
135.0000
 30
-0.4960
  0
VERTEX
 70
64
  8
0
 10
7.0722
 20
135.0000
 30
0.1117
  0
VERTEX
 70
64
  8
0
 10
6.1579
 20
135.0000
 30
0.7067
  0
VERTEX
 70
64
  8
0
 10
5.2364
 20
135.0000
 30
1.2856
  0
VERTEX
 70
64
  8
0
 10
4.3097
 20
135.0000
 30
1.8462
  0
VERTEX
 70
64
  8
0
 10
3.3795
 20
135.0000
 30
2.3855
  0
VERTEX
 70
64
  8
0
 10
2.4478
 20
135.0000
 30
2.9009
  0
VERTEX
 70
64
  8
0
 10
1.5176
 20
135.0000
 30
3.3918
  0
VERTEX
 70
64
  8
0
 10
0.5915
 20
135.0000
 30
3.8569
  0
VERTEX
 70
64
  8
0
 10
-0.3276
 20
135.0000
 30
4.2953
  0
VERTEX
 70
64
  8
0
 10
-1.2364
 20
135.0000
 30
4.7072
  0
VERTEX
 70
64
  8
0
 10
-2.1324
 20
135.0000
 30
5.0916
  0
VERTEX
 70
64
  8
0
 10
-3.0123
 20
135.0000
 30
5.4491
  0
VERTEX
 70
64
  8
0
 10
-3.8732
 20
135.0000
 30
5.7797
  0
VERTEX
 70
64
  8
0
 10
-4.7126
 20
135.0000
 30
6.0834
  0
VERTEX
 70
64
  8
0
 10
-5.5276
 20
135.0000
 30
6.3602
  0
VERTEX
 70
64
  8
0
 10
-6.3160
 20
135.0000
 30
6.6092
  0
VERTEX
 70
64
  8
0
 10
-7.0753
 20
135.0000
 30
6.8307
  0
VERTEX
 70
64
  8
0
 10
-7.8033
 20
135.0000
 30
7.0237
  0
VERTEX
 70
64
  8
0
 10
-8.4976
 20
135.0000
 30
7.1881
  0
VERTEX
 70
64
  8
0
 10
-9.1559
 20
135.0000
 30
7.3239
  0
VERTEX
 70
64
  8
0
 10
-9.7760
 20
135.0000
 30
7.4309
  0
VERTEX
 70
64
  8
0
 10
-10.3555
 20
135.0000
 30
7.5096
  0
VERTEX
 70
64
  8
0
 10
-10.8921
 20
135.0000
 30
7.5602
  0
VERTEX
 70
64
  8
0
 10
-11.3833
 20
135.0000
 30
7.5832
  0
VERTEX
 70
64
  8
0
 10
-11.8267
 20
135.0000
 30
7.5795
  0
VERTEX
 70
64
  8
0
 10
-12.2198
 20
135.0000
 30
7.5507
  0
VERTEX
 70
64
  8
0
 10
-12.5593
 20
135.0000
 30
7.4972
  0
VERTEX
 70
64
  8
0
 10
-12.8420
 20
135.0000
 30
7.4220
  0
VERTEX
 70
64
  8
0
 10
-13.0653
 20
135.0000
 30
7.3326
  0
VERTEX
 70
64
  8
0
 10
-13.2255
 20
135.0000
 30
7.2343
  0
VERTEX
 70
64
  8
0
 10
-13.3138
 20
135.0000
 30
7.1327
  0
VERTEX
 70
64
  8
0
 10
-13.3444
 20
135.0000
 30
7.0048
  0
VERTEX
 70
64
  8
0
 10
-13.2932
 20
135.0000
 30
6.8284
  0
VERTEX
 70
64
  8
0
 10
-13.1627
 20
135.0000
 30
6.6321
  0
VERTEX
 70
64
  8
0
 10
-12.9733
 20
135.0000
 30
6.4169
  0
VERTEX
 70
64
  8
0
 10
-12.7306
 20
135.0000
 30
6.1835
  0
VERTEX
 70
64
  8
0
 10
-12.4344
 20
135.0000
 30
5.9358
  0
VERTEX
 70
64
  8
0
 10
-12.0870
 20
135.0000
 30
5.6746
  0
VERTEX
 70
64
  8
0
 10
-11.6917
 20
135.0000
 30
5.3988
  0
VERTEX
 70
64
  8
0
 10
-11.2502
 20
135.0000
 30
5.1090
  0
VERTEX
 70
64
  8
0
 10
-10.7639
 20
135.0000
 30
4.8060
  0
VERTEX
 70
64
  8
0
 10
-10.2344
 20
135.0000
 30
4.4898
  0
VERTEX
 70
64
  8
0
 10
-9.6638
 20
135.0000
 30
4.1608
  0
VERTEX
 70
64
  8
0
 10
-9.0535
 20
135.0000
 30
3.8195
  0
VERTEX
 70
64
  8
0
 10
-8.4053
 20
135.0000
 30
3.4666
  0
VERTEX
 70
64
  8
0
 10
-7.7212
 20
135.0000
 30
3.1022
  0
VERTEX
 70
64
  8
0
 10
-7.0033
 20
135.0000
 30
2.7266
  0
VERTEX
 70
64
  8
0
 10
-6.2535
 20
135.0000
 30
2.3401
  0
VERTEX
 70
64
  8
0
 10
-5.4740
 20
135.0000
 30
1.9433
  0
VERTEX
 70
64
  8
0
 10
-4.6668
 20
135.0000
 30
1.5368
  0
VERTEX
 70
64
  8
0
 10
-3.8340
 20
135.0000
 30
1.1212
  0
VERTEX
 70
64
  8
0
 10
-2.9779
 20
135.0000
 30
0.6970
  0
VERTEX
 70
64
  8
0
 10
-2.1008
 20
135.0000
 30
0.2649
  0
VERTEX
 70
64
  8
0
 10
-1.2049
 20
135.0000
 30
-0.1746
  0
VERTEX
 70
64
  8
0
 10
-0.2926
 20
135.0000
 30
-0.6207
  0
VERTEX
 70
64
  8
0
 10
0.6338
 20
135.0000
 30
-1.0727
  0
VERTEX
 70
64
  8
0
 10
1.5717
 20
135.0000
 30
-1.5298
  0
VERTEX
 70
64
  8
0
 10
2.5190
 20
135.0000
 30
-1.9914
  0
VERTEX
 70
64
  8
0
 10
3.4730
 20
135.0000
 30
-2.4564
  0
VERTEX
 70
64
  8
0
 10
4.4315
 20
135.0000
 30
-2.9240
  0
VERTEX
 70
64
  8
0
 10
5.3921
 20
135.0000
 30
-3.3933
  0
VERTEX
 70
64
  8
0
 10
6.3522
 20
135.0000
 30
-3.8634
  0
VERTEX
 70
64
  8
0
 10
7.3096
 20
135.0000
 30
-4.3333
  0
VERTEX
 70
64
  8
0
 10
8.2619
 20
135.0000
 30
-4.8021
  0
VERTEX
 70
64
  8
0
 10
9.2066
 20
135.0000
 30
-5.2685
  0
VERTEX
 70
64
  8
0
 10
10.1417
 20
135.0000
 30
-5.7317
  0
VERTEX
 70
64
  8
0
 10
11.0647
 20
135.0000
 30
-6.1905
  0
VERTEX
 70
64
  8
0
 10
11.9734
 20
135.0000
 30
-6.6439
  0
VERTEX
 70
64
  8
0
 10
12.8655
 20
135.0000
 30
-7.0909
  0
VERTEX
 70
64
  8
0
 10
13.7390
 20
135.0000
 30
-7.5304
  0
VERTEX
 70
64
  8
0
 10
14.5918
 20
135.0000
 30
-7.9611
  0
VERTEX
 70
64
  8
0
 10
15.4219
 20
135.0000
 30
-8.3821
  0
VERTEX
 70
64
  8
0
 10
16.2273
 20
135.0000
 30
-8.7923
  0
VERTEX
 70
64
  8
0
 10
17.0060
 20
135.0000
 30
-9.1906
  0
VERTEX
 70
64
  8
0
 10
17.7563
 20
135.0000
 30
-9.5760
  0
VERTEX
 70
64
  8
0
 10
18.4764
 20
135.0000
 30
-9.9475
  0
VERTEX
 70
64
  8
0
 10
19.1645
 20
135.0000
 30
-10.3041
  0
VERTEX
 70
64
  8
0
 10
19.8192
 20
135.0000
 30
-10.6447
  0
VERTEX
 70
64
  8
0
 10
20.4390
 20
135.0000
 30
-10.9684
  0
VERTEX
 70
64
  8
0
 10
21.0226
 20
135.0000
 30
-11.2738
  0
VERTEX
 70
64
  8
0
 10
21.5689
 20
135.0000
 30
-11.5599
  0
VERTEX
 70
64
  8
0
 10
22.0766
 20
135.0000
 30
-11.8255
  0
VERTEX
 70
64
  8
0
 10
22.5447
 20
135.0000
 30
-12.0700
  0
VERTEX
 70
64
  8
0
 10
22.9720
 20
135.0000
 30
-12.2928
  0
VERTEX
 70
64
  8
0
 10
23.3572
 20
135.0000
 30
-12.4938
  0
VERTEX
 70
64
  8
0
 10
23.6990
 20
135.0000
 30
-12.6733
  0
VERTEX
 70
64
  8
0
 10
23.9962
 20
135.0000
 30
-12.8315
  0
VERTEX
 70
64
  8
0
 10
24.2483
 20
135.0000
 30
-12.9680
  0
VERTEX
 70
64
  8
0
 10
24.4544
 20
135.0000
 30
-13.0824
  0
VERTEX
 70
64
  8
0
 10
24.6141
 20
135.0000
 30
-13.1744
  0
VERTEX
 70
64
  8
0
 10
24.7284
 20
135.0000
 30
-13.2414
  0
VERTEX
 70
64
  8
0
 10
23.4720
 20
146.2500
 30
-11.6762
  0
VERTEX
 70
64
  8
0
 10
23.3686
 20
146.2500
 30
-11.6035
  0
VERTEX
 70
64
  8
0
 10
23.2256
 20
146.2500
 30
-11.5013
  0
VERTEX
 70
64
  8
0
 10
23.0448
 20
146.2500
 30
-11.3677
  0
VERTEX
 70
64
  8
0
 10
22.8269
 20
146.2500
 30
-11.2028
  0
VERTEX
 70
64
  8
0
 10
22.5722
 20
146.2500
 30
-11.0072
  0
VERTEX
 70
64
  8
0
 10
22.2806
 20
146.2500
 30
-10.7825
  0
VERTEX
 70
64
  8
0
 10
21.9522
 20
146.2500
 30
-10.5299
  0
VERTEX
 70
64
  8
0
 10
21.5867
 20
146.2500
 30
-10.2513
  0
VERTEX
 70
64
  8
0
 10
21.1848
 20
146.2500
 30
-9.9478
  0
VERTEX
 70
64
  8
0
 10
20.7472
 20
146.2500
 30
-9.6206
  0
VERTEX
 70
64
  8
0
 10
20.2749
 20
146.2500
 30
-9.2703
  0
VERTEX
 70
64
  8
0
 10
19.7693
 20
146.2500
 30
-8.8975
  0
VERTEX
 70
64
  8
0
 10
19.2318
 20
146.2500
 30
-8.5030
  0
VERTEX
 70
64
  8
0
 10
18.6640
 20
146.2500
 30
-8.0871
  0
VERTEX
 70
64
  8
0
 10
18.0672
 20
146.2500
 30
-7.6511
  0
VERTEX
 70
64
  8
0
 10
17.4427
 20
146.2500
 30
-7.1961
  0
VERTEX
 70
64
  8
0
 10
16.7919
 20
146.2500
 30
-6.7235
  0
VERTEX
 70
64
  8
0
 10
16.1162
 20
146.2500
 30
-6.2344
  0
VERTEX
 70
64
  8
0
 10
15.4173
 20
146.2500
 30
-5.7300
  0
VERTEX
 70
64
  8
0
 10
14.6966
 20
146.2500
 30
-5.2120
  0
VERTEX
 70
64
  8
0
 10
13.9555
 20
146.2500
 30
-4.6821
  0
VERTEX
 70
64
  8
0
 10
13.1954
 20
146.2500
 30
-4.1418
  0
VERTEX
 70
64
  8
0
 10
12.4181
 20
146.2500
 30
-3.5930
  0
VERTEX
 70
64
  8
0
 10
11.6250
 20
146.2500
 30
-3.0372
  0
VERTEX
 70
64
  8
0
 10
10.8176
 20
146.2500
 30
-2.4767
  0
VERTEX
 70
64
  8
0
 10
9.9971
 20
146.2500
 30
-1.9137
  0
VERTEX
 70
64
  8
0
 10
9.1645
 20
146.2500
 30
-1.3511
  0
VERTEX
 70
64
  8
0
 10
8.3209
 20
146.2500
 30
-0.7918
  0
VERTEX
 70
64
  8
0
 10
7.4669
 20
146.2500
 30
-0.2396
  0
VERTEX
 70
64
  8
0
 10
6.6036
 20
146.2500
 30
0.3027
  0
VERTEX
 70
64
  8
0
 10
5.7327
 20
146.2500
 30
0.8329
  0
VERTEX
 70
64
  8
0
 10
4.8556
 20
146.2500
 30
1.3479
  0
VERTEX
 70
64
  8
0
 10
3.9742
 20
146.2500
 30
1.8455
  0
VERTEX
 70
64
  8
0
 10
3.0902
 20
146.2500
 30
2.3233
  0
VERTEX
 70
64
  8
0
 10
2.2053
 20
146.2500
 30
2.7786
  0
VERTEX
 70
64
  8
0
 10
1.3225
 20
146.2500
 30
3.2111
  0
VERTEX
 70
64
  8
0
 10
0.4444
 20
146.2500
 30
3.6196
  0
VERTEX
 70
64
  8
0
 10
-0.4265
 20
146.2500
 30
4.0034
  0
VERTEX
 70
64
  8
0
 10
-1.2870
 20
146.2500
 30
4.3627
  0
VERTEX
 70
64
  8
0
 10
-2.1348
 20
146.2500
 30
4.6966
  0
VERTEX
 70
64
  8
0
 10
-2.9668
 20
146.2500
 30
5.0059
  0
VERTEX
 70
64
  8
0
 10
-3.7804
 20
146.2500
 30
5.2906
  0
VERTEX
 70
64
  8
0
 10
-4.5730
 20
146.2500
 30
5.5507
  0
VERTEX
 70
64
  8
0
 10
-5.3421
 20
146.2500
 30
5.7864
  0
VERTEX
 70
64
  8
0
 10
-6.0856
 20
146.2500
 30
5.9970
  0
VERTEX
 70
64
  8
0
 10
-6.8011
 20
146.2500
 30
6.1826
  0
VERTEX
 70
64
  8
0
 10
-7.4866
 20
146.2500
 30
6.3424
  0
VERTEX
 70
64
  8
0
 10
-8.1398
 20
146.2500
 30
6.4766
  0
VERTEX
 70
64
  8
0
 10
-8.7586
 20
146.2500
 30
6.5850
  0
VERTEX
 70
64
  8
0
 10
-9.3409
 20
146.2500
 30
6.6675
  0
VERTEX
 70
64
  8
0
 10
-9.8844
 20
146.2500
 30
6.7248
  0
VERTEX
 70
64
  8
0
 10
-10.3871
 20
146.2500
 30
6.7570
  0
VERTEX
 70
64
  8
0
 10
-10.8467
 20
146.2500
 30
6.7647
  0
VERTEX
 70
64
  8
0
 10
-11.2608
 20
146.2500
 30
6.7489
  0
VERTEX
 70
64
  8
0
 10
-11.6272
 20
146.2500
 30
6.7109
  0
VERTEX
 70
64
  8
0
 10
-11.9428
 20
146.2500
 30
6.6514
  0
VERTEX
 70
64
  8
0
 10
-12.2048
 20
146.2500
 30
6.5732
  0
VERTEX
 70
64
  8
0
 10
-12.4109
 20
146.2500
 30
6.4834
  0
VERTEX
 70
64
  8
0
 10
-12.5578
 20
146.2500
 30
6.3871
  0
VERTEX
 70
64
  8
0
 10
-12.6375
 20
146.2500
 30
6.2898
  0
VERTEX
 70
64
  8
0
 10
-12.6625
 20
146.2500
 30
6.1694
  0
VERTEX
 70
64
  8
0
 10
-12.6097
 20
146.2500
 30
6.0061
  0
VERTEX
 70
64
  8
0
 10
-12.4823
 20
146.2500
 30
5.8264
  0
VERTEX
 70
64
  8
0
 10
-12.2993
 20
146.2500
 30
5.6306
  0
VERTEX
 70
64
  8
0
 10
-12.0660
 20
146.2500
 30
5.4193
  0
VERTEX
 70
64
  8
0
 10
-11.7823
 20
146.2500
 30
5.1963
  0
VERTEX
 70
64
  8
0
 10
-11.4505
 20
146.2500
 30
4.9620
  0
VERTEX
 70
64
  8
0
 10
-11.0735
 20
146.2500
 30
4.7155
  0
VERTEX
 70
64
  8
0
 10
-10.6530
 20
146.2500
 30
4.4572
  0
VERTEX
 70
64
  8
0
 10
-10.1901
 20
146.2500
 30
4.1877
  0
VERTEX
 70
64
  8
0
 10
-9.6867
 20
146.2500
 30
3.9071
  0
VERTEX
 70
64
  8
0
 10
-9.1443
 20
146.2500
 30
3.6158
  0
VERTEX
 70
64
  8
0
 10
-8.5647
 20
146.2500
 30
3.3141
  0
VERTEX
 70
64
  8
0
 10
-7.9493
 20
146.2500
 30
3.0026
  0
VERTEX
 70
64
  8
0
 10
-7.3000
 20
146.2500
 30
2.6814
  0
VERTEX
 70
64
  8
0
 10
-6.6188
 20
146.2500
 30
2.3507
  0
VERTEX
 70
64
  8
0
 10
-5.9075
 20
146.2500
 30
2.0107
  0
VERTEX
 70
64
  8
0
 10
-5.1682
 20
146.2500
 30
1.6618
  0
VERTEX
 70
64
  8
0
 10
-4.4027
 20
146.2500
 30
1.3048
  0
VERTEX
 70
64
  8
0
 10
-3.6131
 20
146.2500
 30
0.9399
  0
VERTEX
 70
64
  8
0
 10
-2.8014
 20
146.2500
 30
0.5676
  0
VERTEX
 70
64
  8
0
 10
-1.9699
 20
146.2500
 30
0.1885
  0
VERTEX
 70
64
  8
0
 10
-1.1207
 20
146.2500
 30
-0.1969
  0
VERTEX
 70
64
  8
0
 10
-0.2559
 20
146.2500
 30
-0.5881
  0
VERTEX
 70
64
  8
0
 10
0.6221
 20
146.2500
 30
-0.9843
  0
VERTEX
 70
64
  8
0
 10
1.5112
 20
146.2500
 30
-1.3851
  0
VERTEX
 70
64
  8
0
 10
2.4090
 20
146.2500
 30
-1.7896
  0
VERTEX
 70
64
  8
0
 10
3.3133
 20
146.2500
 30
-2.1973
  0
VERTEX
 70
64
  8
0
 10
4.2218
 20
146.2500
 30
-2.6072
  0
VERTEX
 70
64
  8
0
 10
5.1323
 20
146.2500
 30
-3.0187
  0
VERTEX
 70
64
  8
0
 10
6.0424
 20
146.2500
 30
-3.4309
  0
VERTEX
 70
64
  8
0
 10
6.9500
 20
146.2500
 30
-3.8431
  0
VERTEX
 70
64
  8
0
 10
7.8527
 20
146.2500
 30
-4.2542
  0
VERTEX
 70
64
  8
0
 10
8.7484
 20
146.2500
 30
-4.6635
  0
VERTEX
 70
64
  8
0
 10
9.6349
 20
146.2500
 30
-5.0699
  0
VERTEX
 70
64
  8
0
 10
10.5100
 20
146.2500
 30
-5.4726
  0
VERTEX
 70
64
  8
0
 10
11.3715
 20
146.2500
 30
-5.8707
  0
VERTEX
 70
64
  8
0
 10
12.2175
 20
146.2500
 30
-6.2633
  0
VERTEX
 70
64
  8
0
 10
13.0458
 20
146.2500
 30
-6.6493
  0
VERTEX
 70
64
  8
0
 10
13.8546
 20
146.2500
 30
-7.0278
  0
VERTEX
 70
64
  8
0
 10
14.6418
 20
146.2500
 30
-7.3978
  0
VERTEX
 70
64
  8
0
 10
15.4057
 20
146.2500
 30
-7.7583
  0
VERTEX
 70
64
  8
0
 10
16.1443
 20
146.2500
 30
-8.1086
  0
VERTEX
 70
64
  8
0
 10
16.8560
 20
146.2500
 30
-8.4476
  0
VERTEX
 70
64
  8
0
 10
17.5391
 20
146.2500
 30
-8.7745
  0
VERTEX
 70
64
  8
0
 10
18.1920
 20
146.2500
 30
-9.0882
  0
VERTEX
 70
64
  8
0
 10
18.8132
 20
146.2500
 30
-9.3881
  0
VERTEX
 70
64
  8
0
 10
19.4012
 20
146.2500
 30
-9.6731
  0
VERTEX
 70
64
  8
0
 10
19.9550
 20
146.2500
 30
-9.9420
  0
VERTEX
 70
64
  8
0
 10
20.4733
 20
146.2500
 30
-10.1939
  0
VERTEX
 70
64
  8
0
 10
20.9550
 20
146.2500
 30
-10.4279
  0
VERTEX
 70
64
  8
0
 10
21.3992
 20
146.2500
 30
-10.6431
  0
VERTEX
 70
64
  8
0
 10
21.8046
 20
146.2500
 30
-10.8393
  0
VERTEX
 70
64
  8
0
 10
22.1701
 20
146.2500
 30
-11.0162
  0
VERTEX
 70
64
  8
0
 10
22.4944
 20
146.2500
 30
-11.1743
  0
VERTEX
 70
64
  8
0
 10
22.7765
 20
146.2500
 30
-11.3138
  0
VERTEX
 70
64
  8
0
 10
23.0158
 20
146.2500
 30
-11.4342
  0
VERTEX
 70
64
  8
0
 10
23.2116
 20
146.2500
 30
-11.5353
  0
VERTEX
 70
64
  8
0
 10
23.3633
 20
146.2500
 30
-11.6168
  0
VERTEX
 70
64
  8
0
 10
23.4720
 20
146.2500
 30
-11.6762
  0
VERTEX
 70
64
  8
0
 10
21.9977
 20
157.5000
 30
-10.2284
  0
VERTEX
 70
64
  8
0
 10
21.9004
 20
157.5000
 30
-10.1637
  0
VERTEX
 70
64
  8
0
 10
21.7656
 20
157.5000
 30
-10.0727
  0
VERTEX
 70
64
  8
0
 10
21.5951
 20
157.5000
 30
-9.9535
  0
VERTEX
 70
64
  8
0
 10
21.3895
 20
157.5000
 30
-9.8063
  0
VERTEX
 70
64
  8
0
 10
21.1491
 20
157.5000
 30
-9.6316
  0
VERTEX
 70
64
  8
0
 10
20.8739
 20
157.5000
 30
-9.4308
  0
VERTEX
 70
64
  8
0
 10
20.5639
 20
157.5000
 30
-9.2051
  0
VERTEX
 70
64
  8
0
 10
20.2190
 20
157.5000
 30
-8.9563
  0
VERTEX
 70
64
  8
0
 10
19.8399
 20
157.5000
 30
-8.6854
  0
VERTEX
 70
64
  8
0
 10
19.4270
 20
157.5000
 30
-8.3934
  0
VERTEX
 70
64
  8
0
 10
18.9816
 20
157.5000
 30
-8.0809
  0
VERTEX
 70
64
  8
0
 10
18.5048
 20
157.5000
 30
-7.7484
  0
VERTEX
 70
64
  8
0
 10
17.9979
 20
157.5000
 30
-7.3965
  0
VERTEX
 70
64
  8
0
 10
17.4625
 20
157.5000
 30
-7.0257
  0
VERTEX
 70
64
  8
0
 10
16.8998
 20
157.5000
 30
-6.6369
  0
VERTEX
 70
64
  8
0
 10
16.3110
 20
157.5000
 30
-6.2313
  0
VERTEX
 70
64
  8
0
 10
15.6974
 20
157.5000
 30
-5.8099
  0
VERTEX
 70
64
  8
0
 10
15.0605
 20
157.5000
 30
-5.3739
  0
VERTEX
 70
64
  8
0
 10
14.4016
 20
157.5000
 30
-4.9244
  0
VERTEX
 70
64
  8
0
 10
13.7223
 20
157.5000
 30
-4.4628
  0
VERTEX
 70
64
  8
0
 10
13.0238
 20
157.5000
 30
-3.9907
  0
VERTEX
 70
64
  8
0
 10
12.3075
 20
157.5000
 30
-3.5095
  0
VERTEX
 70
64
  8
0
 10
11.5751
 20
157.5000
 30
-3.0207
  0
VERTEX
 70
64
  8
0
 10
10.8278
 20
157.5000
 30
-2.5260
  0
VERTEX
 70
64
  8
0
 10
10.0673
 20
157.5000
 30
-2.0272
  0
VERTEX
 70
64
  8
0
 10
9.2945
 20
157.5000
 30
-1.5264
  0
VERTEX
 70
64
  8
0
 10
8.5107
 20
157.5000
 30
-1.0263
  0
VERTEX
 70
64
  8
0
 10
7.7166
 20
157.5000
 30
-0.5295
  0
VERTEX
 70
64
  8
0
 10
6.9131
 20
157.5000
 30
-0.0395
  0
VERTEX
 70
64
  8
0
 10
6.1013
 20
157.5000
 30
0.4411
  0
VERTEX
 70
64
  8
0
 10
5.2828
 20
157.5000
 30
0.9104
  0
VERTEX
 70
64
  8
0
 10
4.4588
 20
157.5000
 30
1.3653
  0
VERTEX
 70
64
  8
0
 10
3.6313
 20
157.5000
 30
1.8042
  0
VERTEX
 70
64
  8
0
 10
2.8019
 20
157.5000
 30
2.2246
  0
VERTEX
 70
64
  8
0
 10
1.9722
 20
157.5000
 30
2.6241
  0
VERTEX
 70
64
  8
0
 10
1.1451
 20
157.5000
 30
3.0027
  0
VERTEX
 70
64
  8
0
 10
0.3228
 20
157.5000
 30
3.3591
  0
VERTEX
 70
64
  8
0
 10
-0.4922
 20
157.5000
 30
3.6929
  0
VERTEX
 70
64
  8
0
 10
-1.2970
 20
157.5000
 30
4.0043
  0
VERTEX
 70
64
  8
0
 10
-2.0894
 20
157.5000
 30
4.2925
  0
VERTEX
 70
64
  8
0
 10
-2.8666
 20
157.5000
 30
4.5583
  0
VERTEX
 70
64
  8
0
 10
-3.6262
 20
157.5000
 30
4.8019
  0
VERTEX
 70
64
  8
0
 10
-4.3657
 20
157.5000
 30
5.0232
  0
VERTEX
 70
64
  8
0
 10
-5.0829
 20
157.5000
 30
5.2225
  0
VERTEX
 70
64
  8
0
 10
-5.7758
 20
157.5000
 30
5.3991
  0
VERTEX
 70
64
  8
0
 10
-6.4423
 20
157.5000
 30
5.5533
  0
VERTEX
 70
64
  8
0
 10
-7.0803
 20
157.5000
 30
5.6845
  0
VERTEX
 70
64
  8
0
 10
-7.6878
 20
157.5000
 30
5.7926
  0
VERTEX
 70
64
  8
0
 10
-8.2629
 20
157.5000
 30
5.8778
  0
VERTEX
 70
64
  8
0
 10
-8.8035
 20
157.5000
 30
5.9400
  0
VERTEX
 70
64
  8
0
 10
-9.3077
 20
157.5000
 30
5.9797
  0
VERTEX
 70
64
  8
0
 10
-9.7735
 20
157.5000
 30
5.9972
  0
VERTEX
 70
64
  8
0
 10
-10.1988
 20
157.5000
 30
5.9931
  0
VERTEX
 70
64
  8
0
 10
-10.5815
 20
157.5000
 30
5.9683
  0
VERTEX
 70
64
  8
0
 10
-10.9196
 20
157.5000
 30
5.9243
  0
VERTEX
 70
64
  8
0
 10
-11.2101
 20
157.5000
 30
5.8616
  0
VERTEX
 70
64
  8
0
 10
-11.4505
 20
157.5000
 30
5.7828
  0
VERTEX
 70
64
  8
0
 10
-11.6389
 20
157.5000
 30
5.6947
  0
VERTEX
 70
64
  8
0
 10
-11.7725
 20
157.5000
 30
5.6020
  0
VERTEX
 70
64
  8
0
 10
-11.8438
 20
157.5000
 30
5.5100
  0
VERTEX
 70
64
  8
0
 10
-11.8640
 20
157.5000
 30
5.3981
  0
VERTEX
 70
64
  8
0
 10
-11.8112
 20
157.5000
 30
5.2483
  0
VERTEX
 70
64
  8
0
 10
-11.6889
 20
157.5000
 30
5.0852
  0
VERTEX
 70
64
  8
0
 10
-11.5149
 20
157.5000
 30
4.9086
  0
VERTEX
 70
64
  8
0
 10
-11.2939
 20
157.5000
 30
4.7188
  0
VERTEX
 70
64
  8
0
 10
-11.0261
 20
157.5000
 30
4.5194
  0
VERTEX
 70
64
  8
0
 10
-10.7134
 20
157.5000
 30
4.3108
  0
VERTEX
 70
64
  8
0
 10
-10.3587
 20
157.5000
 30
4.0919
  0
VERTEX
 70
64
  8
0
 10
-9.9633
 20
157.5000
 30
3.8632
  0
VERTEX
 70
64
  8
0
 10
-9.5286
 20
157.5000
 30
3.6253
  0
VERTEX
 70
64
  8
0
 10
-9.0560
 20
157.5000
 30
3.3780
  0
VERTEX
 70
64
  8
0
 10
-8.5472
 20
157.5000
 30
3.1217
  0
VERTEX
 70
64
  8
0
 10
-8.0037
 20
157.5000
 30
2.8568
  0
VERTEX
 70
64
  8
0
 10
-7.4268
 20
157.5000
 30
2.5836
  0
VERTEX
 70
64
  8
0
 10
-6.8183
 20
157.5000
 30
2.3024
  0
VERTEX
 70
64
  8
0
 10
-6.1801
 20
157.5000
 30
2.0130
  0
VERTEX
 70
64
  8
0
 10
-5.5138
 20
157.5000
 30
1.7158
  0
VERTEX
 70
64
  8
0
 10
-4.8214
 20
157.5000
 30
1.4112
  0
VERTEX
 70
64
  8
0
 10
-4.1046
 20
157.5000
 30
1.0996
  0
VERTEX
 70
64
  8
0
 10
-3.3652
 20
157.5000
 30
0.7813
  0
VERTEX
 70
64
  8
0
 10
-2.6053
 20
157.5000
 30
0.4567
  0
VERTEX
 70
64
  8
0
 10
-1.8269
 20
157.5000
 30
0.1263
  0
VERTEX
 70
64
  8
0
 10
-1.0319
 20
157.5000
 30
-0.2095
  0
VERTEX
 70
64
  8
0
 10
-0.2224
 20
157.5000
 30
-0.5502
  0
VERTEX
 70
64
  8
0
 10
0.5995
 20
157.5000
 30
-0.8954
  0
VERTEX
 70
64
  8
0
 10
1.4317
 20
157.5000
 30
-1.2444
  0
VERTEX
 70
64
  8
0
 10
2.2721
 20
157.5000
 30
-1.5967
  0
VERTEX
 70
64
  8
0
 10
3.1186
 20
157.5000
 30
-1.9518
  0
VERTEX
 70
64
  8
0
 10
3.9690
 20
157.5000
 30
-2.3088
  0
VERTEX
 70
64
  8
0
 10
4.8213
 20
157.5000
 30
-2.6673
  0
VERTEX
 70
64
  8
0
 10
5.6733
 20
157.5000
 30
-3.0264
  0
VERTEX
 70
64
  8
0
 10
6.5229
 20
157.5000
 30
-3.3855
  0
VERTEX
 70
64
  8
0
 10
7.3680
 20
157.5000
 30
-3.7438
  0
VERTEX
 70
64
  8
0
 10
8.2065
 20
157.5000
 30
-4.1005
  0
VERTEX
 70
64
  8
0
 10
9.0365
 20
157.5000
 30
-4.4549
  0
VERTEX
 70
64
  8
0
 10
9.8558
 20
157.5000
 30
-4.8060
  0
VERTEX
 70
64
  8
0
 10
10.6625
 20
157.5000
 30
-5.1533
  0
VERTEX
 70
64
  8
0
 10
11.4547
 20
157.5000
 30
-5.4958
  0
VERTEX
 70
64
  8
0
 10
12.2303
 20
157.5000
 30
-5.8327
  0
VERTEX
 70
64
  8
0
 10
12.9877
 20
157.5000
 30
-6.1631
  0
VERTEX
 70
64
  8
0
 10
13.7250
 20
157.5000
 30
-6.4861
  0
VERTEX
 70
64
  8
0
 10
14.4404
 20
157.5000
 30
-6.8010
  0
VERTEX
 70
64
  8
0
 10
15.1322
 20
157.5000
 30
-7.1070
  0
VERTEX
 70
64
  8
0
 10
15.7989
 20
157.5000
 30
-7.4033
  0
VERTEX
 70
64
  8
0
 10
16.4387
 20
157.5000
 30
-7.6889
  0
VERTEX
 70
64
  8
0
 10
17.0503
 20
157.5000
 30
-7.9633
  0
VERTEX
 70
64
  8
0
 10
17.6323
 20
157.5000
 30
-8.2255
  0
VERTEX
 70
64
  8
0
 10
18.1832
 20
157.5000
 30
-8.4748
  0
VERTEX
 70
64
  8
0
 10
18.7020
 20
157.5000
 30
-8.7101
  0
VERTEX
 70
64
  8
0
 10
19.1876
 20
157.5000
 30
-8.9305
  0
VERTEX
 70
64
  8
0
 10
19.6390
 20
157.5000
 30
-9.1351
  0
VERTEX
 70
64
  8
0
 10
20.0551
 20
157.5000
 30
-9.3234
  0
VERTEX
 70
64
  8
0
 10
20.4349
 20
157.5000
 30
-9.4949
  0
VERTEX
 70
64
  8
0
 10
20.7773
 20
157.5000
 30
-9.6497
  0
VERTEX
 70
64
  8
0
 10
21.0812
 20
157.5000
 30
-9.7881
  0
VERTEX
 70
64
  8
0
 10
21.3456
 20
157.5000
 30
-9.9102
  0
VERTEX
 70
64
  8
0
 10
21.5699
 20
157.5000
 30
-10.0157
  0
VERTEX
 70
64
  8
0
 10
21.7534
 20
157.5000
 30
-10.1045
  0
VERTEX
 70
64
  8
0
 10
21.8958
 20
157.5000
 30
-10.1762
  0
VERTEX
 70
64
  8
0
 10
21.9977
 20
157.5000
 30
-10.2284
  0
VERTEX
 70
64
  8
0
 10
20.3040
 20
168.7500
 30
-8.8712
  0
VERTEX
 70
64
  8
0
 10
20.2138
 20
168.7500
 30
-8.8142
  0
VERTEX
 70
64
  8
0
 10
20.0887
 20
168.7500
 30
-8.7340
  0
VERTEX
 70
64
  8
0
 10
19.9305
 20
168.7500
 30
-8.6288
  0
VERTEX
 70
64
  8
0
 10
19.7397
 20
168.7500
 30
-8.4987
  0
VERTEX
 70
64
  8
0
 10
19.5164
 20
168.7500
 30
-8.3443
  0
VERTEX
 70
64
  8
0
 10
19.2608
 20
168.7500
 30
-8.1668
  0
VERTEX
 70
64
  8
0
 10
18.9730
 20
168.7500
 30
-7.9674
  0
VERTEX
 70
64
  8
0
 10
18.6528
 20
168.7500
 30
-7.7475
  0
VERTEX
 70
64
  8
0
 10
18.3008
 20
168.7500
 30
-7.5082
  0
VERTEX
 70
64
  8
0
 10
17.9176
 20
168.7500
 30
-7.2504
  0
VERTEX
 70
64
  8
0
 10
17.5042
 20
168.7500
 30
-6.9745
  0
VERTEX
 70
64
  8
0
 10
17.0618
 20
168.7500
 30
-6.6811
  0
VERTEX
 70
64
  8
0
 10
16.5915
 20
168.7500
 30
-6.3705
  0
VERTEX
 70
64
  8
0
 10
16.0947
 20
168.7500
 30
-6.0434
  0
VERTEX
 70
64
  8
0
 10
15.5727
 20
168.7500
 30
-5.7003
  0
VERTEX
 70
64
  8
0
 10
15.0264
 20
168.7500
 30
-5.3425
  0
VERTEX
 70
64
  8
0
 10
14.4571
 20
168.7500
 30
-4.9708
  0
VERTEX
 70
64
  8
0
 10
13.8662
 20
168.7500
 30
-4.5863
  0
VERTEX
 70
64
  8
0
 10
13.2551
 20
168.7500
 30
-4.1899
  0
VERTEX
 70
64
  8
0
 10
12.6249
 20
168.7500
 30
-3.7828
  0
VERTEX
 70
64
  8
0
 10
11.9771
 20
168.7500
 30
-3.3666
  0
VERTEX
 70
64
  8
0
 10
11.3128
 20
168.7500
 30
-2.9425
  0
VERTEX
 70
64
  8
0
 10
10.6336
 20
168.7500
 30
-2.5118
  0
VERTEX
 70
64
  8
0
 10
9.9408
 20
168.7500
 30
-2.0759
  0
VERTEX
 70
64
  8
0
 10
9.2356
 20
168.7500
 30
-1.6366
  0
VERTEX
 70
64
  8
0
 10
8.5194
 20
168.7500
 30
-1.1959
  0
VERTEX
 70
64
  8
0
 10
7.7930
 20
168.7500
 30
-0.7559
  0
VERTEX
 70
64
  8
0
 10
7.0574
 20
168.7500
 30
-0.3191
  0
VERTEX
 70
64
  8
0
 10
6.3132
 20
168.7500
 30
0.1111
  0
VERTEX
 70
64
  8
0
 10
5.5617
 20
168.7500
 30
0.5327
  0
VERTEX
 70
64
  8
0
 10
4.8043
 20
168.7500
 30
0.9437
  0
VERTEX
 70
64
  8
0
 10
4.0423
 20
168.7500
 30
1.3416
  0
VERTEX
 70
64
  8
0
 10
3.2774
 20
168.7500
 30
1.7247
  0
VERTEX
 70
64
  8
0
 10
2.5110
 20
168.7500
 30
2.0909
  0
VERTEX
 70
64
  8
0
 10
1.7450
 20
168.7500
 30
2.4381
  0
VERTEX
 70
64
  8
0
 10
0.9816
 20
168.7500
 30
2.7662
  0
VERTEX
 70
64
  8
0
 10
0.2232
 20
168.7500
 30
3.0741
  0
VERTEX
 70
64
  8
0
 10
-0.5281
 20
168.7500
 30
3.3616
  0
VERTEX
 70
64
  8
0
 10
-1.2696
 20
168.7500
 30
3.6288
  0
VERTEX
 70
64
  8
0
 10
-1.9993
 20
168.7500
 30
3.8751
  0
VERTEX
 70
64
  8
0
 10
-2.7146
 20
168.7500
 30
4.1012
  0
VERTEX
 70
64
  8
0
 10
-3.4133
 20
168.7500
 30
4.3074
  0
VERTEX
 70
64
  8
0
 10
-4.0933
 20
168.7500
 30
4.4937
  0
VERTEX
 70
64
  8
0
 10
-4.7525
 20
168.7500
 30
4.6604
  0
VERTEX
 70
64
  8
0
 10
-5.3889
 20
168.7500
 30
4.8069
  0
VERTEX
 70
64
  8
0
 10
-6.0007
 20
168.7500
 30
4.9336
  0
VERTEX
 70
64
  8
0
 10
-6.5861
 20
168.7500
 30
5.0397
  0
VERTEX
 70
64
  8
0
 10
-7.1431
 20
168.7500
 30
5.1256
  0
VERTEX
 70
64
  8
0
 10
-7.6700
 20
168.7500
 30
5.1911
  0
VERTEX
 70
64
  8
0
 10
-8.1650
 20
168.7500
 30
5.2363
  0
VERTEX
 70
64
  8
0
 10
-8.6263
 20
168.7500
 30
5.2619
  0
VERTEX
 70
64
  8
0
 10
-9.0520
 20
168.7500
 30
5.2679
  0
VERTEX
 70
64
  8
0
 10
-9.4402
 20
168.7500
 30
5.2551
  0
VERTEX
 70
64
  8
0
 10
-9.7891
 20
168.7500
 30
5.2244
  0
VERTEX
 70
64
  8
0
 10
-10.0969
 20
168.7500
 30
5.1770
  0
VERTEX
 70
64
  8
0
 10
-10.3608
 20
168.7500
 30
5.1135
  0
VERTEX
 70
64
  8
0
 10
-10.5786
 20
168.7500
 30
5.0365
  0
VERTEX
 70
64
  8
0
 10
-10.7488
 20
168.7500
 30
4.9521
  0
VERTEX
 70
64
  8
0
 10
-10.8688
 20
168.7500
 30
4.8646
  0
VERTEX
 70
64
  8
0
 10
-10.9320
 20
168.7500
 30
4.7791
  0
VERTEX
 70
64
  8
0
 10
-10.9480
 20
168.7500
 30
4.6764
  0
VERTEX
 70
64
  8
0
 10
-10.8966
 20
168.7500
 30
4.5408
  0
VERTEX
 70
64
  8
0
 10
-10.7815
 20
168.7500
 30
4.3944
  0
VERTEX
 70
64
  8
0
 10
-10.6189
 20
168.7500
 30
4.2368
  0
VERTEX
 70
64
  8
0
 10
-10.4130
 20
168.7500
 30
4.0683
  0
VERTEX
 70
64
  8
0
 10
-10.1642
 20
168.7500
 30
3.8919
  0
VERTEX
 70
64
  8
0
 10
-9.8742
 20
168.7500
 30
3.7081
  0
VERTEX
 70
64
  8
0
 10
-9.5457
 20
168.7500
 30
3.5158
  0
VERTEX
 70
64
  8
0
 10
-9.1798
 20
168.7500
 30
3.3154
  0
VERTEX
 70
64
  8
0
 10
-8.7778
 20
168.7500
 30
3.1073
  0
VERTEX
 70
64
  8
0
 10
-8.3410
 20
168.7500
 30
2.8916
  0
VERTEX
 70
64
  8
0
 10
-7.8710
 20
168.7500
 30
2.6685
  0
VERTEX
 70
64
  8
0
 10
-7.3690
 20
168.7500
 30
2.4381
  0
VERTEX
 70
64
  8
0
 10
-6.8364
 20
168.7500
 30
2.2010
  0
VERTEX
 70
64
  8
0
 10
-6.2749
 20
168.7500
 30
1.9571
  0
VERTEX
 70
64
  8
0
 10
-5.6859
 20
168.7500
 30
1.7065
  0
VERTEX
 70
64
  8
0
 10
-5.0713
 20
168.7500
 30
1.4493
  0
VERTEX
 70
64
  8
0
 10
-4.4325
 20
168.7500
 30
1.1859
  0
VERTEX
 70
64
  8
0
 10
-3.7713
 20
168.7500
 30
0.9166
  0
VERTEX
 70
64
  8
0
 10
-3.0894
 20
168.7500
 30
0.6417
  0
VERTEX
 70
64
  8
0
 10
-2.3887
 20
168.7500
 30
0.3616
  0
VERTEX
 70
64
  8
0
 10
-1.6708
 20
168.7500
 30
0.0764
  0
VERTEX
 70
64
  8
0
 10
-0.9378
 20
168.7500
 30
-0.2133
  0
VERTEX
 70
64
  8
0
 10
-0.1913
 20
168.7500
 30
-0.5072
  0
VERTEX
 70
64
  8
0
 10
0.5665
 20
168.7500
 30
-0.8048
  0
VERTEX
 70
64
  8
0
 10
1.3338
 20
168.7500
 30
-1.1058
  0
VERTEX
 70
64
  8
0
 10
2.1087
 20
168.7500
 30
-1.4096
  0
VERTEX
 70
64
  8
0
 10
2.8892
 20
168.7500
 30
-1.7158
  0
VERTEX
 70
64
  8
0
 10
3.6733
 20
168.7500
 30
-2.0237
  0
VERTEX
 70
64
  8
0
 10
4.4592
 20
168.7500
 30
-2.3328
  0
VERTEX
 70
64
  8
0
 10
5.2448
 20
168.7500
 30
-2.6426
  0
VERTEX
 70
64
  8
0
 10
6.0282
 20
168.7500
 30
-2.9524
  0
VERTEX
 70
64
  8
0
 10
6.8074
 20
168.7500
 30
-3.2616
  0
VERTEX
 70
64
  8
0
 10
7.5807
 20
168.7500
 30
-3.5695
  0
VERTEX
 70
64
  8
0
 10
8.3461
 20
168.7500
 30
-3.8754
  0
VERTEX
 70
64
  8
0
 10
9.1017
 20
168.7500
 30
-4.1786
  0
VERTEX
 70
64
  8
0
 10
9.8457
 20
168.7500
 30
-4.4784
  0
VERTEX
 70
64
  8
0
 10
10.5763
 20
168.7500
 30
-4.7743
  0
VERTEX
 70
64
  8
0
 10
11.2918
 20
168.7500
 30
-5.0654
  0
VERTEX
 70
64
  8
0
 10
11.9904
 20
168.7500
 30
-5.3510
  0
VERTEX
 70
64
  8
0
 10
12.6705
 20
168.7500
 30
-5.6303
  0
VERTEX
 70
64
  8
0
 10
13.3304
 20
168.7500
 30
-5.9026
  0
VERTEX
 70
64
  8
0
 10
13.9686
 20
168.7500
 30
-6.1672
  0
VERTEX
 70
64
  8
0
 10
14.5837
 20
168.7500
 30
-6.4235
  0
VERTEX
 70
64
  8
0
 10
15.1740
 20
168.7500
 30
-6.6708
  0
VERTEX
 70
64
  8
0
 10
15.7383
 20
168.7500
 30
-6.9083
  0
VERTEX
 70
64
  8
0
 10
16.2753
 20
168.7500
 30
-7.1353
  0
VERTEX
 70
64
  8
0
 10
16.7836
 20
168.7500
 30
-7.3512
  0
VERTEX
 70
64
  8
0
 10
17.2624
 20
168.7500
 30
-7.5550
  0
VERTEX
 70
64
  8
0
 10
17.7105
 20
168.7500
 30
-7.7459
  0
VERTEX
 70
64
  8
0
 10
18.1270
 20
168.7500
 30
-7.9231
  0
VERTEX
 70
64
  8
0
 10
18.5109
 20
168.7500
 30
-8.0862
  0
VERTEX
 70
64
  8
0
 10
18.8614
 20
168.7500
 30
-8.2348
  0
VERTEX
 70
64
  8
0
 10
19.1774
 20
168.7500
 30
-8.3688
  0
VERTEX
 70
64
  8
0
 10
19.4578
 20
168.7500
 30
-8.4886
  0
VERTEX
 70
64
  8
0
 10
19.7018
 20
168.7500
 30
-8.5945
  0
VERTEX
 70
64
  8
0
 10
19.9088
 20
168.7500
 30
-8.6861
  0
VERTEX
 70
64
  8
0
 10
20.0783
 20
168.7500
 30
-8.7632
  0
VERTEX
 70
64
  8
0
 10
20.2098
 20
168.7500
 30
-8.8257
  0
VERTEX
 70
64
  8
0
 10
20.3040
 20
168.7500
 30
-8.8712
  0
VERTEX
 70
64
  8
0
 10
18.3542
 20
180.0000
 30
-7.5699
  0
VERTEX
 70
64
  8
0
 10
18.2723
 20
180.0000
 30
-7.5206
  0
VERTEX
 70
64
  8
0
 10
18.1588
 20
180.0000
 30
-7.4510
  0
VERTEX
 70
64
  8
0
 10
18.0151
 20
180.0000
 30
-7.3597
  0
VERTEX
 70
64
  8
0
 10
17.8417
 20
180.0000
 30
-7.2467
  0
VERTEX
 70
64
  8
0
 10
17.6389
 20
180.0000
 30
-7.1126
  0
VERTEX
 70
64
  8
0
 10
17.4066
 20
180.0000
 30
-6.9583
  0
VERTEX
 70
64
  8
0
 10
17.1450
 20
180.0000
 30
-6.7850
  0
VERTEX
 70
64
  8
0
 10
16.8541
 20
180.0000
 30
-6.5940
  0
VERTEX
 70
64
  8
0
 10
16.5343
 20
180.0000
 30
-6.3861
  0
VERTEX
 70
64
  8
0
 10
16.1863
 20
180.0000
 30
-6.1622
  0
VERTEX
 70
64
  8
0
 10
15.8108
 20
180.0000
 30
-5.9228
  0
VERTEX
 70
64
  8
0
 10
15.4090
 20
180.0000
 30
-5.6682
  0
VERTEX
 70
64
  8
0
 10
14.9819
 20
180.0000
 30
-5.3987
  0
VERTEX
 70
64
  8
0
 10
14.5308
 20
180.0000
 30
-5.1148
  0
VERTEX
 70
64
  8
0
 10
14.0567
 20
180.0000
 30
-4.8172
  0
VERTEX
 70
64
  8
0
 10
13.5607
 20
180.0000
 30
-4.5068
  0
VERTEX
 70
64
  8
0
 10
13.0438
 20
180.0000
 30
-4.1844
  0
VERTEX
 70
64
  8
0
 10
12.5073
 20
180.0000
 30
-3.8509
  0
VERTEX
 70
64
  8
0
 10
11.9524
 20
180.0000
 30
-3.5071
  0
VERTEX
 70
64
  8
0
 10
11.3804
 20
180.0000
 30
-3.1542
  0
VERTEX
 70
64
  8
0
 10
10.7922
 20
180.0000
 30
-2.7934
  0
VERTEX
 70
64
  8
0
 10
10.1893
 20
180.0000
 30
-2.4258
  0
VERTEX
 70
64
  8
0
 10
9.5728
 20
180.0000
 30
-2.0525
  0
VERTEX
 70
64
  8
0
 10
8.9440
 20
180.0000
 30
-1.6750
  0
VERTEX
 70
64
  8
0
 10
8.3042
 20
180.0000
 30
-1.2945
  0
VERTEX
 70
64
  8
0
 10
7.6543
 20
180.0000
 30
-0.9130
  0
VERTEX
 70
64
  8
0
 10
6.9954
 20
180.0000
 30
-0.5323
  0
VERTEX
 70
64
  8
0
 10
6.3283
 20
180.0000
 30
-0.1547
  0
VERTEX
 70
64
  8
0
 10
5.6536
 20
180.0000
 30
0.2169
  0
VERTEX
 70
64
  8
0
 10
4.9725
 20
180.0000
 30
0.5806
  0
VERTEX
 70
64
  8
0
 10
4.2864
 20
180.0000
 30
0.9347
  0
VERTEX
 70
64
  8
0
 10
3.5964
 20
180.0000
 30
1.2770
  0
VERTEX
 70
64
  8
0
 10
2.9040
 20
180.0000
 30
1.6060
  0
VERTEX
 70
64
  8
0
 10
2.2107
 20
180.0000
 30
1.9198
  0
VERTEX
 70
64
  8
0
 10
1.5179
 20
180.0000
 30
2.2166
  0
VERTEX
 70
64
  8
0
 10
0.8280
 20
180.0000
 30
2.4963
  0
VERTEX
 70
64
  8
0
 10
0.1428
 20
180.0000
 30
2.7581
  0
VERTEX
 70
64
  8
0
 10
-0.5355
 20
180.0000
 30
3.0016
  0
VERTEX
 70
64
  8
0
 10
-1.2048
 20
180.0000
 30
3.2272
  0
VERTEX
 70
64
  8
0
 10
-1.8631
 20
180.0000
 30
3.4343
  0
VERTEX
 70
64
  8
0
 10
-2.5081
 20
180.0000
 30
3.6236
  0
VERTEX
 70
64
  8
0
 10
-3.1379
 20
180.0000
 30
3.7954
  0
VERTEX
 70
64
  8
0
 10
-3.7505
 20
180.0000
 30
3.9496
  0
VERTEX
 70
64
  8
0
 10
-4.3441
 20
180.0000
 30
4.0867
  0
VERTEX
 70
64
  8
0
 10
-4.9170
 20
180.0000
 30
4.2062
  0
VERTEX
 70
64
  8
0
 10
-5.4674
 20
180.0000
 30
4.3082
  0
VERTEX
 70
64
  8
0
 10
-5.9938
 20
180.0000
 30
4.3924
  0
VERTEX
 70
64
  8
0
 10
-6.4944
 20
180.0000
 30
4.4590
  0
VERTEX
 70
64
  8
0
 10
-6.9677
 20
180.0000
 30
4.5079
  0
VERTEX
 70
64
  8
0
 10
-7.4120
 20
180.0000
 30
4.5392
  0
VERTEX
 70
64
  8
0
 10
-7.8256
 20
180.0000
 30
4.5535
  0
VERTEX
 70
64
  8
0
 10
-8.2071
 20
180.0000
 30
4.5511
  0
VERTEX
 70
64
  8
0
 10
-8.5547
 20
180.0000
 30
4.5324
  0
VERTEX
 70
64
  8
0
 10
-8.8667
 20
180.0000
 30
4.4984
  0
VERTEX
 70
64
  8
0
 10
-9.1415
 20
180.0000
 30
4.4502
  0
VERTEX
 70
64
  8
0
 10
-9.3767
 20
180.0000
 30
4.3884
  0
VERTEX
 70
64
  8
0
 10
-9.5705
 20
180.0000
 30
4.3154
  0
VERTEX
 70
64
  8
0
 10
-9.7214
 20
180.0000
 30
4.2365
  0
VERTEX
 70
64
  8
0
 10
-9.8272
 20
180.0000
 30
4.1559
  0
VERTEX
 70
64
  8
0
 10
-9.8822
 20
180.0000
 30
4.0781
  0
VERTEX
 70
64
  8
0
 10
-9.8947
 20
180.0000
 30
3.9859
  0
VERTEX
 70
64
  8
0
 10
-9.8461
 20
180.0000
 30
3.8653
  0
VERTEX
 70
64
  8
0
 10
-9.7403
 20
180.0000
 30
3.7363
  0
VERTEX
 70
64
  8
0
 10
-9.5917
 20
180.0000
 30
3.5982
  0
VERTEX
 70
64
  8
0
 10
-9.4041
 20
180.0000
 30
3.4510
  0
VERTEX
 70
64
  8
0
 10
-9.1779
 20
180.0000
 30
3.2977
  0
VERTEX
 70
64
  8
0
 10
-8.9148
 20
180.0000
 30
3.1383
  0
VERTEX
 70
64
  8
0
 10
-8.6168
 20
180.0000
 30
2.9722
  0
VERTEX
 70
64
  8
0
 10
-8.2854
 20
180.0000
 30
2.7995
  0
VERTEX
 70
64
  8
0
 10
-7.9213
 20
180.0000
 30
2.6206
  0
VERTEX
 70
64
  8
0
 10
-7.5261
 20
180.0000
 30
2.4355
  0
VERTEX
 70
64
  8
0
 10
-7.1008
 20
180.0000
 30
2.2443
  0
VERTEX
 70
64
  8
0
 10
-6.6468
 20
180.0000
 30
2.0472
  0
VERTEX
 70
64
  8
0
 10
-6.1653
 20
180.0000
 30
1.8447
  0
VERTEX
 70
64
  8
0
 10
-5.6577
 20
180.0000
 30
1.6367
  0
VERTEX
 70
64
  8
0
 10
-5.1254
 20
180.0000
 30
1.4231
  0
VERTEX
 70
64
  8
0
 10
-4.5700
 20
180.0000
 30
1.2041
  0
VERTEX
 70
64
  8
0
 10
-3.9929
 20
180.0000
 30
0.9800
  0
VERTEX
 70
64
  8
0
 10
-3.3956
 20
180.0000
 30
0.7511
  0
VERTEX
 70
64
  8
0
 10
-2.7796
 20
180.0000
 30
0.5175
  0
VERTEX
 70
64
  8
0
 10
-2.1466
 20
180.0000
 30
0.2795
  0
VERTEX
 70
64
  8
0
 10
-1.4982
 20
180.0000
 30
0.0374
  0
VERTEX
 70
64
  8
0
 10
-0.8361
 20
180.0000
 30
-0.2085
  0
VERTEX
 70
64
  8
0
 10
-0.1620
 20
180.0000
 30
-0.4579
  0
VERTEX
 70
64
  8
0
 10
0.5224
 20
180.0000
 30
-0.7104
  0
VERTEX
 70
64
  8
0
 10
1.2154
 20
180.0000
 30
-0.9658
  0
VERTEX
 70
64
  8
0
 10
1.9153
 20
180.0000
 30
-1.2236
  0
VERTEX
 70
64
  8
0
 10
2.6201
 20
180.0000
 30
-1.4834
  0
VERTEX
 70
64
  8
0
 10
3.3283
 20
180.0000
 30
-1.7447
  0
VERTEX
 70
64
  8
0
 10
4.0381
 20
180.0000
 30
-2.0070
  0
VERTEX
 70
64
  8
0
 10
4.7476
 20
180.0000
 30
-2.2699
  0
VERTEX
 70
64
  8
0
 10
5.4552
 20
180.0000
 30
-2.5329
  0
VERTEX
 70
64
  8
0
 10
6.1591
 20
180.0000
 30
-2.7954
  0
VERTEX
 70
64
  8
0
 10
6.8575
 20
180.0000
 30
-3.0568
  0
VERTEX
 70
64
  8
0
 10
7.5489
 20
180.0000
 30
-3.3166
  0
VERTEX
 70
64
  8
0
 10
8.2314
 20
180.0000
 30
-3.5742
  0
VERTEX
 70
64
  8
0
 10
8.9035
 20
180.0000
 30
-3.8290
  0
VERTEX
 70
64
  8
0
 10
9.5635
 20
180.0000
 30
-4.0805
  0
VERTEX
 70
64
  8
0
 10
10.2099
 20
180.0000
 30
-4.3280
  0
VERTEX
 70
64
  8
0
 10
10.8410
 20
180.0000
 30
-4.5708
  0
VERTEX
 70
64
  8
0
 10
11.4555
 20
180.0000
 30
-4.8084
  0
VERTEX
 70
64
  8
0
 10
12.0518
 20
180.0000
 30
-5.0401
  0
VERTEX
 70
64
  8
0
 10
12.6284
 20
180.0000
 30
-5.2653
  0
VERTEX
 70
64
  8
0
 10
13.1842
 20
180.0000
 30
-5.4835
  0
VERTEX
 70
64
  8
0
 10
13.7176
 20
180.0000
 30
-5.6940
  0
VERTEX
 70
64
  8
0
 10
14.2276
 20
180.0000
 30
-5.8963
  0
VERTEX
 70
64
  8
0
 10
14.7128
 20
180.0000
 30
-6.0897
  0
VERTEX
 70
64
  8
0
 10
15.1722
 20
180.0000
 30
-6.2736
  0
VERTEX
 70
64
  8
0
 10
15.6049
 20
180.0000
 30
-6.4473
  0
VERTEX
 70
64
  8
0
 10
16.0099
 20
180.0000
 30
-6.6100
  0
VERTEX
 70
64
  8
0
 10
16.3863
 20
180.0000
 30
-6.7611
  0
VERTEX
 70
64
  8
0
 10
16.7333
 20
180.0000
 30
-6.9000
  0
VERTEX
 70
64
  8
0
 10
17.0500
 20
180.0000
 30
-7.0266
  0
VERTEX
 70
64
  8
0
 10
17.3356
 20
180.0000
 30
-7.1407
  0
VERTEX
 70
64
  8
0
 10
17.5890
 20
180.0000
 30
-7.2429
  0
VERTEX
 70
64
  8
0
 10
17.8096
 20
180.0000
 30
-7.3333
  0
VERTEX
 70
64
  8
0
 10
17.9967
 20
180.0000
 30
-7.4115
  0
VERTEX
 70
64
  8
0
 10
18.1500
 20
180.0000
 30
-7.4774
  0
VERTEX
 70
64
  8
0
 10
18.2690
 20
180.0000
 30
-7.5309
  0
VERTEX
 70
64
  8
0
 10
18.3542
 20
180.0000
 30
-7.5699
  0
VERTEX
 70
64
  8
0
 10
16.0640
 20
191.2500
 30
-6.2791
  0
VERTEX
 70
64
  8
0
 10
15.9920
 20
191.2500
 30
-6.2376
  0
VERTEX
 70
64
  8
0
 10
15.8924
 20
191.2500
 30
-6.1790
  0
VERTEX
 70
64
  8
0
 10
15.7661
 20
191.2500
 30
-6.1020
  0
VERTEX
 70
64
  8
0
 10
15.6136
 20
191.2500
 30
-6.0066
  0
VERTEX
 70
64
  8
0
 10
15.4353
 20
191.2500
 30
-5.8934
  0
VERTEX
 70
64
  8
0
 10
15.2311
 20
191.2500
 30
-5.7631
  0
VERTEX
 70
64
  8
0
 10
15.0010
 20
191.2500
 30
-5.6168
  0
VERTEX
 70
64
  8
0
 10
14.7453
 20
191.2500
 30
-5.4556
  0
VERTEX
 70
64
  8
0
 10
14.4642
 20
191.2500
 30
-5.2802
  0
VERTEX
 70
64
  8
0
 10
14.1583
 20
191.2500
 30
-5.0914
  0
VERTEX
 70
64
  8
0
 10
13.8283
 20
191.2500
 30
-4.8895
  0
VERTEX
 70
64
  8
0
 10
13.4752
 20
191.2500
 30
-4.6748
  0
VERTEX
 70
64
  8
0
 10
13.0999
 20
191.2500
 30
-4.4476
  0
VERTEX
 70
64
  8
0
 10
12.7035
 20
191.2500
 30
-4.2083
  0
VERTEX
 70
64
  8
0
 10
12.2869
 20
191.2500
 30
-3.9575
  0
VERTEX
 70
64
  8
0
 10
11.8511
 20
191.2500
 30
-3.6959
  0
VERTEX
 70
64
  8
0
 10
11.3969
 20
191.2500
 30
-3.4242
  0
VERTEX
 70
64
  8
0
 10
10.9256
 20
191.2500
 30
-3.1432
  0
VERTEX
 70
64
  8
0
 10
10.4381
 20
191.2500
 30
-2.8535
  0
VERTEX
 70
64
  8
0
 10
9.9355
 20
191.2500
 30
-2.5562
  0
VERTEX
 70
64
  8
0
 10
9.4189
 20
191.2500
 30
-2.2523
  0
VERTEX
 70
64
  8
0
 10
8.8892
 20
191.2500
 30
-1.9427
  0
VERTEX
 70
64
  8
0
 10
8.3477
 20
191.2500
 30
-1.6284
  0
VERTEX
 70
64
  8
0
 10
7.7955
 20
191.2500
 30
-1.3106
  0
VERTEX
 70
64
  8
0
 10
7.2336
 20
191.2500
 30
-0.9905
  0
VERTEX
 70
64
  8
0
 10
6.6630
 20
191.2500
 30
-0.6696
  0
VERTEX
 70
64
  8
0
 10
6.0846
 20
191.2500
 30
-0.3496
  0
VERTEX
 70
64
  8
0
 10
5.4991
 20
191.2500
 30
-0.0324
  0
VERTEX
 70
64
  8
0
 10
4.9071
 20
191.2500
 30
0.2795
  0
VERTEX
 70
64
  8
0
 10
4.3097
 20
191.2500
 30
0.5845
  0
VERTEX
 70
64
  8
0
 10
3.7080
 20
191.2500
 30
0.8810
  0
VERTEX
 70
64
  8
0
 10
3.1031
 20
191.2500
 30
1.1672
  0
VERTEX
 70
64
  8
0
 10
2.4964
 20
191.2500
 30
1.4418
  0
VERTEX
 70
64
  8
0
 10
1.8892
 20
191.2500
 30
1.7031
  0
VERTEX
 70
64
  8
0
 10
1.2827
 20
191.2500
 30
1.9497
  0
VERTEX
 70
64
  8
0
 10
0.6789
 20
191.2500
 30
2.1816
  0
VERTEX
 70
64
  8
0
 10
0.0796
 20
191.2500
 30
2.3979
  0
VERTEX
 70
64
  8
0
 10
-0.5135
 20
191.2500
 30
2.5985
  0
VERTEX
 70
64
  8
0
 10
-1.0985
 20
191.2500
 30
2.7837
  0
VERTEX
 70
64
  8
0
 10
-1.6736
 20
191.2500
 30
2.9529
  0
VERTEX
 70
64
  8
0
 10
-2.2369
 20
191.2500
 30
3.1069
  0
VERTEX
 70
64
  8
0
 10
-2.7866
 20
191.2500
 30
3.2460
  0
VERTEX
 70
64
  8
0
 10
-3.3213
 20
191.2500
 30
3.3701
  0
VERTEX
 70
64
  8
0
 10
-3.8390
 20
191.2500
 30
3.4796
  0
VERTEX
 70
64
  8
0
 10
-4.3386
 20
191.2500
 30
3.5741
  0
VERTEX
 70
64
  8
0
 10
-4.8183
 20
191.2500
 30
3.6538
  0
VERTEX
 70
64
  8
0
 10
-5.2768
 20
191.2500
 30
3.7185
  0
VERTEX
 70
64
  8
0
 10
-5.7128
 20
191.2500
 30
3.7683
  0
VERTEX
 70
64
  8
0
 10
-6.1246
 20
191.2500
 30
3.8031
  0
VERTEX
 70
64
  8
0
 10
-6.5110
 20
191.2500
 30
3.8232
  0
VERTEX
 70
64
  8
0
 10
-6.8705
 20
191.2500
 30
3.8289
  0
VERTEX
 70
64
  8
0
 10
-7.2018
 20
191.2500
 30
3.8206
  0
VERTEX
 70
64
  8
0
 10
-7.5034
 20
191.2500
 30
3.7988
  0
VERTEX
 70
64
  8
0
 10
-7.7739
 20
191.2500
 30
3.7642
  0
VERTEX
 70
64
  8
0
 10
-8.0118
 20
191.2500
 30
3.7179
  0
VERTEX
 70
64
  8
0
 10
-8.2151
 20
191.2500
 30
3.6605
  0
VERTEX
 70
64
  8
0
 10
-8.3822
 20
191.2500
 30
3.5939
  0
VERTEX
 70
64
  8
0
 10
-8.5120
 20
191.2500
 30
3.5230
  0
VERTEX
 70
64
  8
0
 10
-8.6026
 20
191.2500
 30
3.4513
  0
VERTEX
 70
64
  8
0
 10
-8.6492
 20
191.2500
 30
3.3828
  0
VERTEX
 70
64
  8
0
 10
-8.6585
 20
191.2500
 30
3.3025
  0
VERTEX
 70
64
  8
0
 10
-8.6144
 20
191.2500
 30
3.1986
  0
VERTEX
 70
64
  8
0
 10
-8.5204
 20
191.2500
 30
3.0883
  0
VERTEX
 70
64
  8
0
 10
-8.3890
 20
191.2500
 30
2.9707
  0
VERTEX
 70
64
  8
0
 10
-8.2238
 20
191.2500
 30
2.8459
  0
VERTEX
 70
64
  8
0
 10
-8.0249
 20
191.2500
 30
2.7163
  0
VERTEX
 70
64
  8
0
 10
-7.7937
 20
191.2500
 30
2.5822
  0
VERTEX
 70
64
  8
0
 10
-7.5323
 20
191.2500
 30
2.4427
  0
VERTEX
 70
64
  8
0
 10
-7.2416
 20
191.2500
 30
2.2980
  0
VERTEX
 70
64
  8
0
 10
-6.9225
 20
191.2500
 30
2.1485
  0
VERTEX
 70
64
  8
0
 10
-6.5762
 20
191.2500
 30
1.9940
  0
VERTEX
 70
64
  8
0
 10
-6.2038
 20
191.2500
 30
1.8348
  0
VERTEX
 70
64
  8
0
 10
-5.8063
 20
191.2500
 30
1.6710
  0
VERTEX
 70
64
  8
0
 10
-5.3848
 20
191.2500
 30
1.5029
  0
VERTEX
 70
64
  8
0
 10
-4.9405
 20
191.2500
 30
1.3303
  0
VERTEX
 70
64
  8
0
 10
-4.4748
 20
191.2500
 30
1.1534
  0
VERTEX
 70
64
  8
0
 10
-3.9888
 20
191.2500
 30
0.9722
  0
VERTEX
 70
64
  8
0
 10
-3.4839
 20
191.2500
 30
0.7868
  0
VERTEX
 70
64
  8
0
 10
-2.9614
 20
191.2500
 30
0.5976
  0
VERTEX
 70
64
  8
0
 10
-2.4226
 20
191.2500
 30
0.4047
  0
VERTEX
 70
64
  8
0
 10
-1.8690
 20
191.2500
 30
0.2082
  0
VERTEX
 70
64
  8
0
 10
-1.3019
 20
191.2500
 30
0.0084
  0
VERTEX
 70
64
  8
0
 10
-0.7229
 20
191.2500
 30
-0.1946
  0
VERTEX
 70
64
  8
0
 10
-0.1333
 20
191.2500
 30
-0.4003
  0
VERTEX
 70
64
  8
0
 10
0.4652
 20
191.2500
 30
-0.6087
  0
VERTEX
 70
64
  8
0
 10
1.0713
 20
191.2500
 30
-0.8193
  0
VERTEX
 70
64
  8
0
 10
1.6833
 20
191.2500
 30
-1.0319
  0
VERTEX
 70
64
  8
0
 10
2.2997
 20
191.2500
 30
-1.2462
  0
VERTEX
 70
64
  8
0
 10
2.9190
 20
191.2500
 30
-1.4617
  0
VERTEX
 70
64
  8
0
 10
3.5397
 20
191.2500
 30
-1.6781
  0
VERTEX
 70
64
  8
0
 10
4.1603
 20
191.2500
 30
-1.8950
  0
VERTEX
 70
64
  8
0
 10
4.7791
 20
191.2500
 30
-2.1120
  0
VERTEX
 70
64
  8
0
 10
5.3947
 20
191.2500
 30
-2.3287
  0
VERTEX
 70
64
  8
0
 10
6.0055
 20
191.2500
 30
-2.5445
  0
VERTEX
 70
64
  8
0
 10
6.6102
 20
191.2500
 30
-2.7590
  0
VERTEX
 70
64
  8
0
 10
7.2072
 20
191.2500
 30
-2.9718
  0
VERTEX
 70
64
  8
0
 10
7.7951
 20
191.2500
 30
-3.1822
  0
VERTEX
 70
64
  8
0
 10
8.3724
 20
191.2500
 30
-3.3901
  0
VERTEX
 70
64
  8
0
 10
8.9378
 20
191.2500
 30
-3.5946
  0
VERTEX
 70
64
  8
0
 10
9.4899
 20
191.2500
 30
-3.7953
  0
VERTEX
 70
64
  8
0
 10
10.0274
 20
191.2500
 30
-3.9918
  0
VERTEX
 70
64
  8
0
 10
10.5491
 20
191.2500
 30
-4.1834
  0
VERTEX
 70
64
  8
0
 10
11.0536
 20
191.2500
 30
-4.3697
  0
VERTEX
 70
64
  8
0
 10
11.5398
 20
191.2500
 30
-4.5503
  0
VERTEX
 70
64
  8
0
 10
12.0065
 20
191.2500
 30
-4.7245
  0
VERTEX
 70
64
  8
0
 10
12.4527
 20
191.2500
 30
-4.8920
  0
VERTEX
 70
64
  8
0
 10
12.8773
 20
191.2500
 30
-5.0521
  0
VERTEX
 70
64
  8
0
 10
13.2793
 20
191.2500
 30
-5.2045
  0
VERTEX
 70
64
  8
0
 10
13.6579
 20
191.2500
 30
-5.3484
  0
VERTEX
 70
64
  8
0
 10
14.0123
 20
191.2500
 30
-5.4831
  0
VERTEX
 70
64
  8
0
 10
14.3417
 20
191.2500
 30
-5.6083
  0
VERTEX
 70
64
  8
0
 10
14.6453
 20
191.2500
 30
-5.7234
  0
VERTEX
 70
64
  8
0
 10
14.9224
 20
191.2500
 30
-5.8282
  0
VERTEX
 70
64
  8
0
 10
15.1723
 20
191.2500
 30
-5.9228
  0
VERTEX
 70
64
  8
0
 10
15.3941
 20
191.2500
 30
-6.0074
  0
VERTEX
 70
64
  8
0
 10
15.5871
 20
191.2500
 30
-6.0824
  0
VERTEX
 70
64
  8
0
 10
15.7509
 20
191.2500
 30
-6.1473
  0
VERTEX
 70
64
  8
0
 10
15.8851
 20
191.2500
 30
-6.2020
  0
VERTEX
 70
64
  8
0
 10
15.9894
 20
191.2500
 30
-6.2466
  0
VERTEX
 70
64
  8
0
 10
16.0640
 20
191.2500
 30
-6.2791
  0
VERTEX
 70
64
  8
0
 10
13.2564
 20
202.5000
 30
-4.9283
  0
VERTEX
 70
64
  8
0
 10
13.1968
 20
202.5000
 30
-4.8952
  0
VERTEX
 70
64
  8
0
 10
13.1143
 20
202.5000
 30
-4.8485
  0
VERTEX
 70
64
  8
0
 10
13.0097
 20
202.5000
 30
-4.7871
  0
VERTEX
 70
64
  8
0
 10
12.8834
 20
202.5000
 30
-4.7110
  0
VERTEX
 70
64
  8
0
 10
12.7356
 20
202.5000
 30
-4.6206
  0
VERTEX
 70
64
  8
0
 10
12.5664
 20
202.5000
 30
-4.5166
  0
VERTEX
 70
64
  8
0
 10
12.3758
 20
202.5000
 30
-4.3998
  0
VERTEX
 70
64
  8
0
 10
12.1639
 20
202.5000
 30
-4.2711
  0
VERTEX
 70
64
  8
0
 10
11.9311
 20
202.5000
 30
-4.1312
  0
VERTEX
 70
64
  8
0
 10
11.6777
 20
202.5000
 30
-3.9805
  0
VERTEX
 70
64
  8
0
 10
11.4044
 20
202.5000
 30
-3.8195
  0
VERTEX
 70
64
  8
0
 10
11.1119
 20
202.5000
 30
-3.6483
  0
VERTEX
 70
64
  8
0
 10
10.8011
 20
202.5000
 30
-3.4672
  0
VERTEX
 70
64
  8
0
 10
10.4728
 20
202.5000
 30
-3.2764
  0
VERTEX
 70
64
  8
0
 10
10.1279
 20
202.5000
 30
-3.0765
  0
VERTEX
 70
64
  8
0
 10
9.7669
 20
202.5000
 30
-2.8679
  0
VERTEX
 70
64
  8
0
 10
9.3909
 20
202.5000
 30
-2.6514
  0
VERTEX
 70
64
  8
0
 10
9.0006
 20
202.5000
 30
-2.4275
  0
VERTEX
 70
64
  8
0
 10
8.5970
 20
202.5000
 30
-2.1967
  0
VERTEX
 70
64
  8
0
 10
8.1808
 20
202.5000
 30
-1.9598
  0
VERTEX
 70
64
  8
0
 10
7.7531
 20
202.5000
 30
-1.7177
  0
VERTEX
 70
64
  8
0
 10
7.3146
 20
202.5000
 30
-1.4711
  0
VERTEX
 70
64
  8
0
 10
6.8664
 20
202.5000
 30
-1.2209
  0
VERTEX
 70
64
  8
0
 10
6.4093
 20
202.5000
 30
-0.9679
  0
VERTEX
 70
64
  8
0
 10
5.9442
 20
202.5000
 30
-0.7131
  0
VERTEX
 70
64
  8
0
 10
5.4720
 20
202.5000
 30
-0.4578
  0
VERTEX
 70
64
  8
0
 10
4.9934
 20
202.5000
 30
-0.2033
  0
VERTEX
 70
64
  8
0
 10
4.5090
 20
202.5000
 30
0.0487
  0
VERTEX
 70
64
  8
0
 10
4.0194
 20
202.5000
 30
0.2963
  0
VERTEX
 70
64
  8
0
 10
3.5254
 20
202.5000
 30
0.5382
  0
VERTEX
 70
64
  8
0
 10
3.0280
 20
202.5000
 30
0.7730
  0
VERTEX
 70
64
  8
0
 10
2.5282
 20
202.5000
 30
0.9994
  0
VERTEX
 70
64
  8
0
 10
2.0270
 20
202.5000
 30
1.2162
  0
VERTEX
 70
64
  8
0
 10
1.5256
 20
202.5000
 30
1.4222
  0
VERTEX
 70
64
  8
0
 10
1.0249
 20
202.5000
 30
1.6161
  0
VERTEX
 70
64
  8
0
 10
0.5268
 20
202.5000
 30
1.7979
  0
VERTEX
 70
64
  8
0
 10
0.0324
 20
202.5000
 30
1.9671
  0
VERTEX
 70
64
  8
0
 10
-0.4566
 20
202.5000
 30
2.1234
  0
VERTEX
 70
64
  8
0
 10
-0.9387
 20
202.5000
 30
2.2672
  0
VERTEX
 70
64
  8
0
 10
-1.4125
 20
202.5000
 30
2.3981
  0
VERTEX
 70
64
  8
0
 10
-1.8765
 20
202.5000
 30
2.5167
  0
VERTEX
 70
64
  8
0
 10
-2.3291
 20
202.5000
 30
2.6231
  0
VERTEX
 70
64
  8
0
 10
-2.7691
 20
202.5000
 30
2.7176
  0
VERTEX
 70
64
  8
0
 10
-3.1951
 20
202.5000
 30
2.8003
  0
VERTEX
 70
64
  8
0
 10
-3.6060
 20
202.5000
 30
2.8709
  0
VERTEX
 70
64
  8
0
 10
-4.0004
 20
202.5000
 30
2.9297
  0
VERTEX
 70
64
  8
0
 10
-4.3772
 20
202.5000
 30
2.9765
  0
VERTEX
 70
64
  8
0
 10
-4.7353
 20
202.5000
 30
3.0113
  0
VERTEX
 70
64
  8
0
 10
-5.0734
 20
202.5000
 30
3.0342
  0
VERTEX
 70
64
  8
0
 10
-5.3905
 20
202.5000
 30
3.0454
  0
VERTEX
 70
64
  8
0
 10
-5.6854
 20
202.5000
 30
3.0452
  0
VERTEX
 70
64
  8
0
 10
-5.9569
 20
202.5000
 30
3.0339
  0
VERTEX
 70
64
  8
0
 10
-6.2038
 20
202.5000
 30
3.0118
  0
VERTEX
 70
64
  8
0
 10
-6.4251
 20
202.5000
 30
2.9798
  0
VERTEX
 70
64
  8
0
 10
-6.6195
 20
202.5000
 30
2.9386
  0
VERTEX
 70
64
  8
0
 10
-6.7855
 20
202.5000
 30
2.8887
  0
VERTEX
 70
64
  8
0
 10
-6.9215
 20
202.5000
 30
2.8318
  0
VERTEX
 70
64
  8
0
 10
-7.0270
 20
202.5000
 30
2.7719
  0
VERTEX
 70
64
  8
0
 10
-7.1003
 20
202.5000
 30
2.7119
  0
VERTEX
 70
64
  8
0
 10
-7.1375
 20
202.5000
 30
2.6551
  0
VERTEX
 70
64
  8
0
 10
-7.1441
 20
202.5000
 30
2.5891
  0
VERTEX
 70
64
  8
0
 10
-7.1065
 20
202.5000
 30
2.5045
  0
VERTEX
 70
64
  8
0
 10
-7.0279
 20
202.5000
 30
2.4154
  0
VERTEX
 70
64
  8
0
 10
-6.9186
 20
202.5000
 30
2.3208
  0
VERTEX
 70
64
  8
0
 10
-6.7814
 20
202.5000
 30
2.2207
  0
VERTEX
 70
64
  8
0
 10
-6.6165
 20
202.5000
 30
2.1172
  0
VERTEX
 70
64
  8
0
 10
-6.4252
 20
202.5000
 30
2.0104
  0
VERTEX
 70
64
  8
0
 10
-6.2089
 20
202.5000
 30
1.8996
  0
VERTEX
 70
64
  8
0
 10
-5.9686
 20
202.5000
 30
1.7849
  0
VERTEX
 70
64
  8
0
 10
-5.7050
 20
202.5000
 30
1.6667
  0
VERTEX
 70
64
  8
0
 10
-5.4189
 20
202.5000
 30
1.5449
  0
VERTEX
 70
64
  8
0
 10
-5.1114
 20
202.5000
 30
1.4194
  0
VERTEX
 70
64
  8
0
 10
-4.7833
 20
202.5000
 30
1.2906
  0
VERTEX
 70
64
  8
0
 10
-4.4354
 20
202.5000
 30
1.1585
  0
VERTEX
 70
64
  8
0
 10
-4.0688
 20
202.5000
 30
1.0231
  0
VERTEX
 70
64
  8
0
 10
-3.6845
 20
202.5000
 30
0.8844
  0
VERTEX
 70
64
  8
0
 10
-3.2836
 20
202.5000
 30
0.7425
  0
VERTEX
 70
64
  8
0
 10
-2.8671
 20
202.5000
 30
0.5974
  0
VERTEX
 70
64
  8
0
 10
-2.4362
 20
202.5000
 30
0.4494
  0
VERTEX
 70
64
  8
0
 10
-1.9918
 20
202.5000
 30
0.2986
  0
VERTEX
 70
64
  8
0
 10
-1.5352
 20
202.5000
 30
0.1451
  0
VERTEX
 70
64
  8
0
 10
-1.0675
 20
202.5000
 30
-0.0110
  0
VERTEX
 70
64
  8
0
 10
-0.5900
 20
202.5000
 30
-0.1694
  0
VERTEX
 70
64
  8
0
 10
-0.1038
 20
202.5000
 30
-0.3300
  0
VERTEX
 70
64
  8
0
 10
0.3898
 20
202.5000
 30
-0.4927
  0
VERTEX
 70
64
  8
0
 10
0.8895
 20
202.5000
 30
-0.6570
  0
VERTEX
 70
64
  8
0
 10
1.3942
 20
202.5000
 30
-0.8230
  0
VERTEX
 70
64
  8
0
 10
1.9025
 20
202.5000
 30
-0.9902
  0
VERTEX
 70
64
  8
0
 10
2.4132
 20
202.5000
 30
-1.1585
  0
VERTEX
 70
64
  8
0
 10
2.9251
 20
202.5000
 30
-1.3274
  0
VERTEX
 70
64
  8
0
 10
3.4368
 20
202.5000
 30
-1.4967
  0
VERTEX
 70
64
  8
0
 10
3.9471
 20
202.5000
 30
-1.6662
  0
VERTEX
 70
64
  8
0
 10
4.4548
 20
202.5000
 30
-1.8354
  0
VERTEX
 70
64
  8
0
 10
4.9586
 20
202.5000
 30
-2.0040
  0
VERTEX
 70
64
  8
0
 10
5.4573
 20
202.5000
 30
-2.1716
  0
VERTEX
 70
64
  8
0
 10
5.9497
 20
202.5000
 30
-2.3378
  0
VERTEX
 70
64
  8
0
 10
6.4345
 20
202.5000
 30
-2.5024
  0
VERTEX
 70
64
  8
0
 10
6.9107
 20
202.5000
 30
-2.6648
  0
VERTEX
 70
64
  8
0
 10
7.3770
 20
202.5000
 30
-2.8248
  0
VERTEX
 70
64
  8
0
 10
7.8324
 20
202.5000
 30
-2.9818
  0
VERTEX
 70
64
  8
0
 10
8.2758
 20
202.5000
 30
-3.1355
  0
VERTEX
 70
64
  8
0
 10
8.7061
 20
202.5000
 30
-3.2855
  0
VERTEX
 70
64
  8
0
 10
9.1223
 20
202.5000
 30
-3.4313
  0
VERTEX
 70
64
  8
0
 10
9.5234
 20
202.5000
 30
-3.5727
  0
VERTEX
 70
64
  8
0
 10
9.9085
 20
202.5000
 30
-3.7092
  0
VERTEX
 70
64
  8
0
 10
10.2766
 20
202.5000
 30
-3.8404
  0
VERTEX
 70
64
  8
0
 10
10.6269
 20
202.5000
 30
-3.9659
  0
VERTEX
 70
64
  8
0
 10
10.9586
 20
202.5000
 30
-4.0853
  0
VERTEX
 70
64
  8
0
 10
11.2710
 20
202.5000
 30
-4.1981
  0
VERTEX
 70
64
  8
0
 10
11.5633
 20
202.5000
 30
-4.3037
  0
VERTEX
 70
64
  8
0
 10
11.8351
 20
202.5000
 30
-4.4018
  0
VERTEX
 70
64
  8
0
 10
12.0856
 20
202.5000
 30
-4.4920
  0
VERTEX
 70
64
  8
0
 10
12.3143
 20
202.5000
 30
-4.5742
  0
VERTEX
 70
64
  8
0
 10
12.5204
 20
202.5000
 30
-4.6483
  0
VERTEX
 70
64
  8
0
 10
12.7034
 20
202.5000
 30
-4.7147
  0
VERTEX
 70
64
  8
0
 10
12.8627
 20
202.5000
 30
-4.7734
  0
VERTEX
 70
64
  8
0
 10
12.9979
 20
202.5000
 30
-4.8244
  0
VERTEX
 70
64
  8
0
 10
13.1087
 20
202.5000
 30
-4.8675
  0
VERTEX
 70
64
  8
0
 10
13.1947
 20
202.5000
 30
-4.9026
  0
VERTEX
 70
64
  8
0
 10
13.2564
 20
202.5000
 30
-4.9283
  0
VERTEX
 70
64
  8
0
 10
9.4740
 20
213.7500
 30
-3.3603
  0
VERTEX
 70
64
  8
0
 10
9.4313
 20
213.7500
 30
-3.3375
  0
VERTEX
 70
64
  8
0
 10
9.3721
 20
213.7500
 30
-3.3052
  0
VERTEX
 70
64
  8
0
 10
9.2971
 20
213.7500
 30
-3.2627
  0
VERTEX
 70
64
  8
0
 10
9.2066
 20
213.7500
 30
-3.2099
  0
VERTEX
 70
64
  8
0
 10
9.1006
 20
213.7500
 30
-3.1473
  0
VERTEX
 70
64
  8
0
 10
8.9792
 20
213.7500
 30
-3.0752
  0
VERTEX
 70
64
  8
0
 10
8.8425
 20
213.7500
 30
-2.9942
  0
VERTEX
 70
64
  8
0
 10
8.6905
 20
213.7500
 30
-2.9050
  0
VERTEX
 70
64
  8
0
 10
8.5236
 20
213.7500
 30
-2.8081
  0
VERTEX
 70
64
  8
0
 10
8.3418
 20
213.7500
 30
-2.7037
  0
VERTEX
 70
64
  8
0
 10
8.1459
 20
213.7500
 30
-2.5922
  0
VERTEX
 70
64
  8
0
 10
7.9362
 20
213.7500
 30
-2.4737
  0
VERTEX
 70
64
  8
0
 10
7.7134
 20
213.7500
 30
-2.3483
  0
VERTEX
 70
64
  8
0
 10
7.4780
 20
213.7500
 30
-2.2163
  0
VERTEX
 70
64
  8
0
 10
7.2307
 20
213.7500
 30
-2.0778
  0
VERTEX
 70
64
  8
0
 10
6.9720
 20
213.7500
 30
-1.9335
  0
VERTEX
 70
64
  8
0
 10
6.7024
 20
213.7500
 30
-1.7837
  0
VERTEX
 70
64
  8
0
 10
6.4226
 20
213.7500
 30
-1.6287
  0
VERTEX
 70
64
  8
0
 10
6.1333
 20
213.7500
 30
-1.4690
  0
VERTEX
 70
64
  8
0
 10
5.8350
 20
213.7500
 30
-1.3051
  0
VERTEX
 70
64
  8
0
 10
5.5284
 20
213.7500
 30
-1.1376
  0
VERTEX
 70
64
  8
0
 10
5.2142
 20
213.7500
 30
-0.9671
  0
VERTEX
 70
64
  8
0
 10
4.8929
 20
213.7500
 30
-0.7940
  0
VERTEX
 70
64
  8
0
 10
4.5654
 20
213.7500
 30
-0.6191
  0
VERTEX
 70
64
  8
0
 10
4.2321
 20
213.7500
 30
-0.4431
  0
VERTEX
 70
64
  8
0
 10
3.8938
 20
213.7500
 30
-0.2667
  0
VERTEX
 70
64
  8
0
 10
3.5509
 20
213.7500
 30
-0.0910
  0
VERTEX
 70
64
  8
0
 10
3.2040
 20
213.7500
 30
0.0830
  0
VERTEX
 70
64
  8
0
 10
2.8533
 20
213.7500
 30
0.2537
  0
VERTEX
 70
64
  8
0
 10
2.4997
 20
213.7500
 30
0.4203
  0
VERTEX
 70
64
  8
0
 10
2.1437
 20
213.7500
 30
0.5819
  0
VERTEX
 70
64
  8
0
 10
1.7860
 20
213.7500
 30
0.7374
  0
VERTEX
 70
64
  8
0
 10
1.4275
 20
213.7500
 30
0.8861
  0
VERTEX
 70
64
  8
0
 10
1.0690
 20
213.7500
 30
1.0271
  0
VERTEX
 70
64
  8
0
 10
0.7111
 20
213.7500
 30
1.1595
  0
VERTEX
 70
64
  8
0
 10
0.3551
 20
213.7500
 30
1.2834
  0
VERTEX
 70
64
  8
0
 10
0.0020
 20
213.7500
 30
1.3983
  0
VERTEX
 70
64
  8
0
 10
-0.3473
 20
213.7500
 30
1.5042
  0
VERTEX
 70
64
  8
0
 10
-0.6914
 20
213.7500
 30
1.6012
  0
VERTEX
 70
64
  8
0
 10
-1.0296
 20
213.7500
 30
1.6892
  0
VERTEX
 70
64
  8
0
 10
-1.3606
 20
213.7500
 30
1.7685
  0
VERTEX
 70
64
  8
0
 10
-1.6834
 20
213.7500
 30
1.8393
  0
VERTEX
 70
64
  8
0
 10
-1.9971
 20
213.7500
 30
1.9017
  0
VERTEX
 70
64
  8
0
 10
-2.3008
 20
213.7500
 30
1.9559
  0
VERTEX
 70
64
  8
0
 10
-2.5935
 20
213.7500
 30
2.0017
  0
VERTEX
 70
64
  8
0
 10
-2.8744
 20
213.7500
 30
2.0392
  0
VERTEX
 70
64
  8
0
 10
-3.1428
 20
213.7500
 30
2.0684
  0
VERTEX
 70
64
  8
0
 10
-3.3976
 20
213.7500
 30
2.0893
  0
VERTEX
 70
64
  8
0
 10
-3.6382
 20
213.7500
 30
2.1020
  0
VERTEX
 70
64
  8
0
 10
-3.8636
 20
213.7500
 30
2.1065
  0
VERTEX
 70
64
  8
0
 10
-4.0732
 20
213.7500
 30
2.1032
  0
VERTEX
 70
64
  8
0
 10
-4.2660
 20
213.7500
 30
2.0923
  0
VERTEX
 70
64
  8
0
 10
-4.4413
 20
213.7500
 30
2.0740
  0
VERTEX
 70
64
  8
0
 10
-4.5982
 20
213.7500
 30
2.0488
  0
VERTEX
 70
64
  8
0
 10
-4.7359
 20
213.7500
 30
2.0174
  0
VERTEX
 70
64
  8
0
 10
-4.8533
 20
213.7500
 30
1.9802
  0
VERTEX
 70
64
  8
0
 10
-4.9494
 20
213.7500
 30
1.9383
  0
VERTEX
 70
64
  8
0
 10
-5.0237
 20
213.7500
 30
1.8946
  0
VERTEX
 70
64
  8
0
 10
-5.0752
 20
213.7500
 30
1.8512
  0
VERTEX
 70
64
  8
0
 10
-5.1010
 20
213.7500
 30
1.8105
  0
VERTEX
 70
64
  8
0
 10
-5.1050
 20
213.7500
 30
1.7635
  0
VERTEX
 70
64
  8
0
 10
-5.0773
 20
213.7500
 30
1.7038
  0
VERTEX
 70
64
  8
0
 10
-5.0205
 20
213.7500
 30
1.6412
  0
VERTEX
 70
64
  8
0
 10
-4.9418
 20
213.7500
 30
1.5752
  0
VERTEX
 70
64
  8
0
 10
-4.8433
 20
213.7500
 30
1.5055
  0
VERTEX
 70
64
  8
0
 10
-4.7250
 20
213.7500
 30
1.4337
  0
VERTEX
 70
64
  8
0
 10
-4.5878
 20
213.7500
 30
1.3599
  0
VERTEX
 70
64
  8
0
 10
-4.4330
 20
213.7500
 30
1.2835
  0
VERTEX
 70
64
  8
0
 10
-4.2610
 20
213.7500
 30
1.2046
  0
VERTEX
 70
64
  8
0
 10
-4.0723
 20
213.7500
 30
1.1234
  0
VERTEX
 70
64
  8
0
 10
-3.8677
 20
213.7500
 30
1.0398
  0
VERTEX
 70
64
  8
0
 10
-3.6478
 20
213.7500
 30
0.9540
  0
VERTEX
 70
64
  8
0
 10
-3.4132
 20
213.7500
 30
0.8659
  0
VERTEX
 70
64
  8
0
 10
-3.1646
 20
213.7500
 30
0.7758
  0
VERTEX
 70
64
  8
0
 10
-2.9026
 20
213.7500
 30
0.6835
  0
VERTEX
 70
64
  8
0
 10
-2.6280
 20
213.7500
 30
0.5890
  0
VERTEX
 70
64
  8
0
 10
-2.3416
 20
213.7500
 30
0.4925
  0
VERTEX
 70
64
  8
0
 10
-2.0440
 20
213.7500
 30
0.3939
  0
VERTEX
 70
64
  8
0
 10
-1.7362
 20
213.7500
 30
0.2933
  0
VERTEX
 70
64
  8
0
 10
-1.4187
 20
213.7500
 30
0.1909
  0
VERTEX
 70
64
  8
0
 10
-1.0926
 20
213.7500
 30
0.0867
  0
VERTEX
 70
64
  8
0
 10
-0.7586
 20
213.7500
 30
-0.0192
  0
VERTEX
 70
64
  8
0
 10
-0.4175
 20
213.7500
 30
-0.1267
  0
VERTEX
 70
64
  8
0
 10
-0.0703
 20
213.7500
 30
-0.2357
  0
VERTEX
 70
64
  8
0
 10
0.2823
 20
213.7500
 30
-0.3459
  0
VERTEX
 70
64
  8
0
 10
0.6392
 20
213.7500
 30
-0.4574
  0
VERTEX
 70
64
  8
0
 10
0.9997
 20
213.7500
 30
-0.5699
  0
VERTEX
 70
64
  8
0
 10
1.3627
 20
213.7500
 30
-0.6833
  0
VERTEX
 70
64
  8
0
 10
1.7275
 20
213.7500
 30
-0.7974
  0
VERTEX
 70
64
  8
0
 10
2.0931
 20
213.7500
 30
-0.9120
  0
VERTEX
 70
64
  8
0
 10
2.4585
 20
213.7500
 30
-1.0269
  0
VERTEX
 70
64
  8
0
 10
2.8230
 20
213.7500
 30
-1.1418
  0
VERTEX
 70
64
  8
0
 10
3.1856
 20
213.7500
 30
-1.2566
  0
VERTEX
 70
64
  8
0
 10
3.5455
 20
213.7500
 30
-1.3711
  0
VERTEX
 70
64
  8
0
 10
3.9017
 20
213.7500
 30
-1.4848
  0
VERTEX
 70
64
  8
0
 10
4.2534
 20
213.7500
 30
-1.5977
  0
VERTEX
 70
64
  8
0
 10
4.5998
 20
213.7500
 30
-1.7094
  0
VERTEX
 70
64
  8
0
 10
4.9399
 20
213.7500
 30
-1.8198
  0
VERTEX
 70
64
  8
0
 10
5.2731
 20
213.7500
 30
-1.9285
  0
VERTEX
 70
64
  8
0
 10
5.5984
 20
213.7500
 30
-2.0352
  0
VERTEX
 70
64
  8
0
 10
5.9151
 20
213.7500
 30
-2.1396
  0
VERTEX
 70
64
  8
0
 10
6.2226
 20
213.7500
 30
-2.2416
  0
VERTEX
 70
64
  8
0
 10
6.5199
 20
213.7500
 30
-2.3408
  0
VERTEX
 70
64
  8
0
 10
6.8065
 20
213.7500
 30
-2.4370
  0
VERTEX
 70
64
  8
0
 10
7.0816
 20
213.7500
 30
-2.5298
  0
VERTEX
 70
64
  8
0
 10
7.3446
 20
213.7500
 30
-2.6191
  0
VERTEX
 70
64
  8
0
 10
7.5949
 20
213.7500
 30
-2.7046
  0
VERTEX
 70
64
  8
0
 10
7.8319
 20
213.7500
 30
-2.7859
  0
VERTEX
 70
64
  8
0
 10
8.0551
 20
213.7500
 30
-2.8627
  0
VERTEX
 70
64
  8
0
 10
8.2641
 20
213.7500
 30
-2.9346
  0
VERTEX
 70
64
  8
0
 10
8.4583
 20
213.7500
 30
-3.0014
  0
VERTEX
 70
64
  8
0
 10
8.6373
 20
213.7500
 30
-3.0628
  0
VERTEX
 70
64
  8
0
 10
8.8006
 20
213.7500
 30
-3.1188
  0
VERTEX
 70
64
  8
0
 10
8.9479
 20
213.7500
 30
-3.1693
  0
VERTEX
 70
64
  8
0
 10
9.0787
 20
213.7500
 30
-3.2145
  0
VERTEX
 70
64
  8
0
 10
9.1925
 20
213.7500
 30
-3.2545
  0
VERTEX
 70
64
  8
0
 10
9.2892
 20
213.7500
 30
-3.2893
  0
VERTEX
 70
64
  8
0
 10
9.3684
 20
213.7500
 30
-3.3187
  0
VERTEX
 70
64
  8
0
 10
9.4299
 20
213.7500
 30
-3.3427
  0
VERTEX
 70
64
  8
0
 10
9.4740
 20
213.7500
 30
-3.3603
  0
VERTEX
 70
64
  8
0
 10
5.0810
 20
225.0000
 30
-1.7242
  0
VERTEX
 70
64
  8
0
 10
5.0580
 20
225.0000
 30
-1.7123
  0
VERTEX
 70
64
  8
0
 10
5.0262
 20
225.0000
 30
-1.6955
  0
VERTEX
 70
64
  8
0
 10
4.9859
 20
225.0000
 30
-1.6734
  0
VERTEX
 70
64
  8
0
 10
4.9372
 20
225.0000
 30
-1.6459
  0
VERTEX
 70
64
  8
0
 10
4.8801
 20
225.0000
 30
-1.6132
  0
VERTEX
 70
64
  8
0
 10
4.8148
 20
225.0000
 30
-1.5756
  0
VERTEX
 70
64
  8
0
 10
4.7413
 20
225.0000
 30
-1.5334
  0
VERTEX
 70
64
  8
0
 10
4.6595
 20
225.0000
 30
-1.4869
  0
VERTEX
 70
64
  8
0
 10
4.5697
 20
225.0000
 30
-1.4364
  0
VERTEX
 70
64
  8
0
 10
4.4719
 20
225.0000
 30
-1.3821
  0
VERTEX
 70
64
  8
0
 10
4.3665
 20
225.0000
 30
-1.3240
  0
VERTEX
 70
64
  8
0
 10
4.2538
 20
225.0000
 30
-1.2622
  0
VERTEX
 70
64
  8
0
 10
4.1339
 20
225.0000
 30
-1.1970
  0
VERTEX
 70
64
  8
0
 10
4.0073
 20
225.0000
 30
-1.1282
  0
VERTEX
 70
64
  8
0
 10
3.8743
 20
225.0000
 30
-1.0561
  0
VERTEX
 70
64
  8
0
 10
3.7352
 20
225.0000
 30
-0.9810
  0
VERTEX
 70
64
  8
0
 10
3.5902
 20
225.0000
 30
-0.9030
  0
VERTEX
 70
64
  8
0
 10
3.4398
 20
225.0000
 30
-0.8223
  0
VERTEX
 70
64
  8
0
 10
3.2842
 20
225.0000
 30
-0.7392
  0
VERTEX
 70
64
  8
0
 10
3.1238
 20
225.0000
 30
-0.6539
  0
VERTEX
 70
64
  8
0
 10
2.9589
 20
225.0000
 30
-0.5668
  0
VERTEX
 70
64
  8
0
 10
2.7900
 20
225.0000
 30
-0.4780
  0
VERTEX
 70
64
  8
0
 10
2.6172
 20
225.0000
 30
-0.3880
  0
VERTEX
 70
64
  8
0
 10
2.4411
 20
225.0000
 30
-0.2971
  0
VERTEX
 70
64
  8
0
 10
2.2620
 20
225.0000
 30
-0.2055
  0
VERTEX
 70
64
  8
0
 10
2.0801
 20
225.0000
 30
-0.1139
  0
VERTEX
 70
64
  8
0
 10
1.8958
 20
225.0000
 30
-0.0226
  0
VERTEX
 70
64
  8
0
 10
1.7094
 20
225.0000
 30
0.0677
  0
VERTEX
 70
64
  8
0
 10
1.5210
 20
225.0000
 30
0.1563
  0
VERTEX
 70
64
  8
0
 10
1.3310
 20
225.0000
 30
0.2426
  0
VERTEX
 70
64
  8
0
 10
1.1399
 20
225.0000
 30
0.3262
  0
VERTEX
 70
64
  8
0
 10
0.9478
 20
225.0000
 30
0.4066
  0
VERTEX
 70
64
  8
0
 10
0.7554
 20
225.0000
 30
0.4833
  0
VERTEX
 70
64
  8
0
 10
0.5630
 20
225.0000
 30
0.5560
  0
VERTEX
 70
64
  8
0
 10
0.3710
 20
225.0000
 30
0.6241
  0
VERTEX
 70
64
  8
0
 10
0.1801
 20
225.0000
 30
0.6876
  0
VERTEX
 70
64
  8
0
 10
-0.0092
 20
225.0000
 30
0.7463
  0
VERTEX
 70
64
  8
0
 10
-0.1963
 20
225.0000
 30
0.8003
  0
VERTEX
 70
64
  8
0
 10
-0.3807
 20
225.0000
 30
0.8495
  0
VERTEX
 70
64
  8
0
 10
-0.5618
 20
225.0000
 30
0.8940
  0
VERTEX
 70
64
  8
0
 10
-0.7391
 20
225.0000
 30
0.9339
  0
VERTEX
 70
64
  8
0
 10
-0.9119
 20
225.0000
 30
0.9693
  0
VERTEX
 70
64
  8
0
 10
-1.0798
 20
225.0000
 30
1.0004
  0
VERTEX
 70
64
  8
0
 10
-1.2423
 20
225.0000
 30
1.0271
  0
VERTEX
 70
64
  8
0
 10
-1.3988
 20
225.0000
 30
1.0494
  0
VERTEX
 70
64
  8
0
 10
-1.5490
 20
225.0000
 30
1.0674
  0
VERTEX
 70
64
  8
0
 10
-1.6925
 20
225.0000
 30
1.0810
  0
VERTEX
 70
64
  8
0
 10
-1.8286
 20
225.0000
 30
1.0903
  0
VERTEX
 70
64
  8
0
 10
-1.9571
 20
225.0000
 30
1.0953
  0
VERTEX
 70
64
  8
0
 10
-2.0775
 20
225.0000
 30
1.0961
  0
VERTEX
 70
64
  8
0
 10
-2.1893
 20
225.0000
 30
1.0928
  0
VERTEX
 70
64
  8
0
 10
-2.2921
 20
225.0000
 30
1.0855
  0
VERTEX
 70
64
  8
0
 10
-2.3855
 20
225.0000
 30
1.0744
  0
VERTEX
 70
64
  8
0
 10
-2.4691
 20
225.0000
 30
1.0599
  0
VERTEX
 70
64
  8
0
 10
-2.5424
 20
225.0000
 30
1.0421
  0
VERTEX
 70
64
  8
0
 10
-2.6048
 20
225.0000
 30
1.0214
  0
VERTEX
 70
64
  8
0
 10
-2.6557
 20
225.0000
 30
0.9984
  0
VERTEX
 70
64
  8
0
 10
-2.6951
 20
225.0000
 30
0.9745
  0
VERTEX
 70
64
  8
0
 10
-2.7222
 20
225.0000
 30
0.9509
  0
VERTEX
 70
64
  8
0
 10
-2.7357
 20
225.0000
 30
0.9290
  0
VERTEX
 70
64
  8
0
 10
-2.7375
 20
225.0000
 30
0.9039
  0
VERTEX
 70
64
  8
0
 10
-2.7223
 20
225.0000
 30
0.8722
  0
VERTEX
 70
64
  8
0
 10
-2.6915
 20
225.0000
 30
0.8393
  0
VERTEX
 70
64
  8
0
 10
-2.6491
 20
225.0000
 30
0.8046
  0
VERTEX
 70
64
  8
0
 10
-2.5959
 20
225.0000
 30
0.7681
  0
VERTEX
 70
64
  8
0
 10
-2.5323
 20
225.0000
 30
0.7307
  0
VERTEX
 70
64
  8
0
 10
-2.4585
 20
225.0000
 30
0.6923
  0
VERTEX
 70
64
  8
0
 10
-2.3753
 20
225.0000
 30
0.6526
  0
VERTEX
 70
64
  8
0
 10
-2.2829
 20
225.0000
 30
0.6117
  0
VERTEX
 70
64
  8
0
 10
-2.1817
 20
225.0000
 30
0.5698
  0
VERTEX
 70
64
  8
0
 10
-2.0719
 20
225.0000
 30
0.5267
  0
VERTEX
 70
64
  8
0
 10
-1.9539
 20
225.0000
 30
0.4825
  0
VERTEX
 70
64
  8
0
 10
-1.8280
 20
225.0000
 30
0.4372
  0
VERTEX
 70
64
  8
0
 10
-1.6947
 20
225.0000
 30
0.3909
  0
VERTEX
 70
64
  8
0
 10
-1.5542
 20
225.0000
 30
0.3436
  0
VERTEX
 70
64
  8
0
 10
-1.4069
 20
225.0000
 30
0.2952
  0
VERTEX
 70
64
  8
0
 10
-1.2533
 20
225.0000
 30
0.2457
  0
VERTEX
 70
64
  8
0
 10
-1.0938
 20
225.0000
 30
0.1953
  0
VERTEX
 70
64
  8
0
 10
-0.9288
 20
225.0000
 30
0.1439
  0
VERTEX
 70
64
  8
0
 10
-0.7586
 20
225.0000
 30
0.0915
  0
VERTEX
 70
64
  8
0
 10
-0.5838
 20
225.0000
 30
0.0383
  0
VERTEX
 70
64
  8
0
 10
-0.4047
 20
225.0000
 30
-0.0158
  0
VERTEX
 70
64
  8
0
 10
-0.2219
 20
225.0000
 30
-0.0707
  0
VERTEX
 70
64
  8
0
 10
-0.0358
 20
225.0000
 30
-0.1263
  0
VERTEX
 70
64
  8
0
 10
0.1532
 20
225.0000
 30
-0.1826
  0
VERTEX
 70
64
  8
0
 10
0.3445
 20
225.0000
 30
-0.2395
  0
VERTEX
 70
64
  8
0
 10
0.5377
 20
225.0000
 30
-0.2969
  0
VERTEX
 70
64
  8
0
 10
0.7323
 20
225.0000
 30
-0.3548
  0
VERTEX
 70
64
  8
0
 10
0.9278
 20
225.0000
 30
-0.4130
  0
VERTEX
 70
64
  8
0
 10
1.1238
 20
225.0000
 30
-0.4715
  0
VERTEX
 70
64
  8
0
 10
1.3197
 20
225.0000
 30
-0.5301
  0
VERTEX
 70
64
  8
0
 10
1.5150
 20
225.0000
 30
-0.5888
  0
VERTEX
 70
64
  8
0
 10
1.7094
 20
225.0000
 30
-0.6474
  0
VERTEX
 70
64
  8
0
 10
1.9023
 20
225.0000
 30
-0.7058
  0
VERTEX
 70
64
  8
0
 10
2.0933
 20
225.0000
 30
-0.7640
  0
VERTEX
 70
64
  8
0
 10
2.2818
 20
225.0000
 30
-0.8216
  0
VERTEX
 70
64
  8
0
 10
2.4675
 20
225.0000
 30
-0.8787
  0
VERTEX
 70
64
  8
0
 10
2.6498
 20
225.0000
 30
-0.9351
  0
VERTEX
 70
64
  8
0
 10
2.8284
 20
225.0000
 30
-0.9907
  0
VERTEX
 70
64
  8
0
 10
3.0028
 20
225.0000
 30
-1.0453
  0
VERTEX
 70
64
  8
0
 10
3.1726
 20
225.0000
 30
-1.0987
  0
VERTEX
 70
64
  8
0
 10
3.3375
 20
225.0000
 30
-1.1509
  0
VERTEX
 70
64
  8
0
 10
3.4969
 20
225.0000
 30
-1.2017
  0
VERTEX
 70
64
  8
0
 10
3.6505
 20
225.0000
 30
-1.2509
  0
VERTEX
 70
64
  8
0
 10
3.7980
 20
225.0000
 30
-1.2985
  0
VERTEX
 70
64
  8
0
 10
3.9391
 20
225.0000
 30
-1.3442
  0
VERTEX
 70
64
  8
0
 10
4.0733
 20
225.0000
 30
-1.3880
  0
VERTEX
 70
64
  8
0
 10
4.2004
 20
225.0000
 30
-1.4296
  0
VERTEX
 70
64
  8
0
 10
4.3201
 20
225.0000
 30
-1.4690
  0
VERTEX
 70
64
  8
0
 10
4.4321
 20
225.0000
 30
-1.5059
  0
VERTEX
 70
64
  8
0
 10
4.5362
 20
225.0000
 30
-1.5401
  0
VERTEX
 70
64
  8
0
 10
4.6322
 20
225.0000
 30
-1.5716
  0
VERTEX
 70
64
  8
0
 10
4.7198
 20
225.0000
 30
-1.6002
  0
VERTEX
 70
64
  8
0
 10
4.7988
 20
225.0000
 30
-1.6261
  0
VERTEX
 70
64
  8
0
 10
4.8689
 20
225.0000
 30
-1.6493
  0
VERTEX
 70
64
  8
0
 10
4.9300
 20
225.0000
 30
-1.6698
  0
VERTEX
 70
64
  8
0
 10
4.9818
 20
225.0000
 30
-1.6877
  0
VERTEX
 70
64
  8
0
 10
5.0243
 20
225.0000
 30
-1.7028
  0
VERTEX
 70
64
  8
0
 10
5.0573
 20
225.0000
 30
-1.7152
  0
VERTEX
 70
64
  8
0
 10
5.0810
 20
225.0000
 30
-1.7242
  0
SEQEND
  0
ENDSEC
  0
EOF
