  0
SECTION
  2
HEADER
  9
$ACADVER
  1
AC1014
  9
$HANDSEED
  5
FFFF
  9
$MEASUREMENT
 70
     1
  0
ENDSEC
  0
SECTION
  2
TABLES
  0
TABLE
  2
VPORT
  5
8
330
0
100
AcDbSymbolTable
 70
     4
  0
VPORT
  5
2E
330
8
100
AcDbSymbolTableRecord
100
AcDbViewportTableRecord
  2
*ACTIVE
 70
     0
 10
0.0
 20
0.0
 11
1.0
 21
1.0
 12
210.0
 22
148.5
 13
0.0
 23
0.0
 14
10.0
 24
10.0
 15
10.0
 25
10.0
 16
0.0
 26
0.0
 36
1.0
 17
0.0
 27
0.0
 37
0.0
 40
341.0
 41
1.24
 42
50.0
 43
0.0
 44
0.0
 50
0.0
 51
0.0
 71
     0
 72
   100
 73
     1
 74
     3
 75
     0
 76
     0
 77
     0
 78
     0
  0
ENDTAB
  0
TABLE
  2
LTYPE
  5
5
330
0
100
AcDbSymbolTable
 70
     1
  0
LTYPE
  5
14
330
5
100
AcDbSymbolTableRecord
100
AcDbLinetypeTableRecord
  2
BYBLOCK
 70
     0
  3

 72
    65
 73
     0
 40
0.0
  0
LTYPE
  5
15
330
5
100
AcDbSymbolTableRecord
100
AcDbLinetypeTableRecord
  2
BYLAYER
 70
     0
  3

 72
    65
 73
     0
 40
0.0
  0
LTYPE
  5
16
330
5
100
AcDbSymbolTableRecord
100
AcDbLinetypeTableRecord
  2
CONTINUOUS
 70
     0
  3
Solid line
 72
    65
 73
     0
 40
0.0
  0
ENDTAB
  0
TABLE
  2
LAYER
  5
2
100
AcDbSymbolTable
 70
1
  0
LAYER
  5
50
100
AcDbSymbolTableRecord
100
AcDbLayerTableRecord
  2
0
 70
0
  6
CONTINUOUS
  0
ENDTAB
  0
TABLE
  2
STYLE
  5
3
330
0
100
AcDbSymbolTable
 70
     1
  0
STYLE
  5
11
330
3
100
AcDbSymbolTableRecord
100
AcDbTextStyleTableRecord
  2
STANDARD
 70
     0
 40
0.0
 41
1.0
 50
0.0
 71
     0
 42
2.5
  3
txt
  4

  0
ENDTAB
  0
TABLE
  2
VIEW
  5
6
330
0
100
AcDbSymbolTable
 70
     0
  0
ENDTAB
  0
TABLE
  2
UCS
  5
7
330
0
100
AcDbSymbolTable
 70
     0
  0
ENDTAB
  0
TABLE
  2
APPID
  5
9
330
0
100
AcDbSymbolTable
 70
     2
  0
APPID
  5
12
330
9
100
AcDbSymbolTableRecord
100
AcDbRegAppTableRecord
  2
ACAD
 70
     0
  0
ENDTAB
  0
TABLE
  2
DIMSTYLE
  5
A
330
0
100
AcDbSymbolTable
 70
     1
  0
DIMSTYLE
105
27
330
A
100
AcDbSymbolTableRecord
100
AcDbDimStyleTableRecord
  2
ISO-25
 70
     0
  3

  4

  5

  6

  7

 40
1.0
 41
2.5
 42
0.625
 43
3.75
 44
1.25
 45
0.0
 46
0.0
 47
0.0
 48
0.0
140
2.5
141
2.5
142
0.0
143
0.03937007874016
144
1.0
145
0.0
146
1.0
147
0.625
 71
     0
 72
     0
 73
     0
 74
     0
 75
     0
 76
     0
 77
     1
 78
     8
170
     0
171
     3
172
     1
173
     0
174
     0
175
     0
176
     0
177
     0
178
     0
270
     2
271
     2
272
     2
273
     2
274
     3
340
11
275
     0
280
     0
281
     0
282
     0
283
     0
284
     8
285
     0
286
     0
287
     3
288
     0
  0
ENDTAB
  0
TABLE
  2
BLOCK_RECORD
  5
1
330
0
100
AcDbSymbolTable
 70
     1
  0
BLOCK_RECORD
  5
1F
330
1
100
AcDbSymbolTableRecord
100
AcDbBlockTableRecord
  2
*MODEL_SPACE
  0
BLOCK_RECORD
  5
1B
330
1
100
AcDbSymbolTableRecord
100
AcDbBlockTableRecord
  2
*PAPER_SPACE
  0
ENDTAB
  0
ENDSEC
  0
SECTION
  2
BLOCKS
  0
BLOCK
  5
20
330
1F
100
AcDbEntity
  8
0
100
AcDbBlockBegin
  2
*MODEL_SPACE
 70
     0
 10
0.0
 20
0.0
 30
0.0
  3
*MODEL_SPACE
  1

  0
ENDBLK
  5
21
330
1F
100
AcDbEntity
  8
0
100
AcDbBlockEnd
  0
BLOCK
  5
1C
330
1B
100
AcDbEntity
 67
     1
  8
0
100
AcDbBlockBegin
  2
*PAPER_SPACE
  1

  0
ENDBLK
  5
1D
330
1B
100
AcDbEntity
 67
     1
  8
0
100
AcDbBlockEnd
  0
ENDSEC
  0
SECTION
  2
ENTITIES
  0
LWPOLYLINE
  5
100
100
AcDbEntity
  8
0
 62
7
100
AcDbPolyline
 90
29
 70
0
 10
51.941840
 20
169.792698
 30
0.0
 10
17.408021
 20
81.781749
 30
0.0
 10
37.524809
 20
94.690023
 30
0.0
 10
27.801695
 20
66.526517
 30
0.0
 10
24.616537
 20
74.237954
 30
0.0
 10
22.101939
 20
38.865934
 30
0.0
 10
39.704129
 20
61.329680
 30
0.0
 10
33.836731
 20
61.329680
 30
0.0
 10
56.468117
 20
121.847686
 30
0.0
 10
37.692449
 20
109.274695
 30
0.0
 10
60.826754
 20
160.069584
 30
0.0
 10
60.517669
 20
159.805027
 30
0.0
 10
60.137205
 20
159.565682
 30
0.0
 10
59.611366
 20
159.336160
 30
0.0
 10
58.944081
 20
159.177360
 30
0.0
 10
58.139278
 20
159.150184
 30
0.0
 10
57.200887
 20
159.315532
 30
0.0
 10
56.132837
 20
159.734304
 30
0.0
 10
55.586657
 20
160.086691
 30
0.0
 10
55.079522
 20
160.565300
 30
0.0
 10
54.611186
 20
161.150976
 30
0.0
 10
54.181405
 20
161.824564
 30
0.0
 10
53.436520
 20
163.358863
 30
0.0
 10
52.842905
 20
165.014962
 30
0.0
 10
52.398593
 20
166.639628
 30
0.0
 10
52.101622
 20
168.079629
 30
0.0
 10
51.950026
 20
169.181730
 30
0.0
 10
51.941840
 20
169.792698
 30
0.0
 10
51.941840
 20
169.792698
 30
0.0
  0
LWPOLYLINE
  5
101
100
AcDbEntity
  8
0
 62
7
100
AcDbPolyline
 90
12
 70
0
 10
8.950447
 20
21.954493
 30
0.0
 10
9.567803
 20
22.031657
 30
0.0
 10
10.015395
 20
22.263173
 30
0.0
 10
10.287414
 20
22.645160
 30
0.0
 10
10.378095
 20
23.173780
 30
0.0
 10
10.287414
 20
23.696602
 30
0.0
 10
10.015395
 20
24.076671
 30
0.0
 10
9.567803
 20
24.313962
 30
0.0
 10
8.950447
 20
24.393068
 30
0.0
 10
7.306723
 20
24.393068
 30
0.0
 10
7.306723
 20
21.954493
 30
0.0
 10
8.950447
 20
21.954493
 30
0.0
  0
LWPOLYLINE
  5
102
100
AcDbEntity
  8
0
 62
7
100
AcDbPolyline
 90
12
 70
0
 10
9.050768
 20
16.915282
 30
0.0
 10
9.834040
 20
17.009814
 30
0.0
 10
10.393529
 20
17.293415
 30
0.0
 10
10.735001
 20
17.768010
 30
0.0
 10
10.848832
 20
18.435534
 30
0.0
 10
10.736930
 20
19.089548
 30
0.0
 10
10.401246
 20
19.554500
 30
0.0
 10
9.839828
 20
19.838097
 30
0.0
 10
9.050768
 20
19.932636
 30
0.0
 10
7.306723
 20
19.932636
 30
0.0
 10
7.306723
 20
16.915282
 30
0.0
 10
9.050768
 20
16.915282
 30
0.0
  0
LWPOLYLINE
  5
103
100
AcDbEntity
  8
0
 62
7
100
AcDbPolyline
 90
28
 70
0
 10
11.813459
 20
21.059318
 30
0.0
 10
12.662323
 20
20.663817
 30
0.0
 10
13.295126
 20
20.032955
 30
0.0
 10
13.688685
 20
19.199515
 30
0.0
 10
13.819883
 20
18.196306
 30
0.0
 10
13.749459
 20
17.415922
 30
0.0
 10
13.538204
 20
16.741647
 30
0.0
 10
13.186117
 20
16.173483
 30
0.0
 10
12.693199
 20
15.711427
 30
0.0
 10
12.056540
 20
15.353551
 30
0.0
 10
11.273262
 20
15.097925
 30
0.0
 10
10.343364
 20
14.944550
 30
0.0
 10
9.266845
 20
14.893425
 30
0.0
 10
4.335673
 20
14.893425
 30
0.0
 10
4.335673
 20
26.414928
 30
0.0
 10
8.796107
 20
26.414928
 30
0.0
 10
9.913140
 20
26.369582
 30
0.0
 10
10.864260
 20
26.233567
 30
0.0
 10
11.649468
 20
26.006882
 30
0.0
 10
12.268763
 20
25.689526
 30
0.0
 10
12.741424
 20
25.272319
 30
0.0
 10
13.079042
 20
24.746114
 30
0.0
 10
13.281615
 20
24.110909
 30
0.0
 10
13.349145
 20
23.366705
 30
0.0
 10
13.250745
 20
22.587282
 30
0.0
 10
12.955577
 20
21.931342
 30
0.0
 10
12.473257
 20
21.420085
 30
0.0
 10
11.813459
 20
21.059318
 30
0.0
  0
LWPOLYLINE
  5
104
100
AcDbEntity
  8
0
 62
7
100
AcDbPolyline
 90
13
 70
0
 10
16.427836
 20
26.414928
 30
0.0
 10
24.445814
 20
26.414928
 30
0.0
 10
24.445814
 20
24.169274
 30
0.0
 10
19.398887
 20
24.169274
 30
0.0
 10
19.398887
 20
22.023945
 30
0.0
 10
24.144850
 20
22.023945
 30
0.0
 10
24.144850
 20
19.778294
 30
0.0
 10
19.398887
 20
19.778294
 30
0.0
 10
19.398887
 20
17.139076
 30
0.0
 10
24.615588
 20
17.139076
 30
0.0
 10
24.615588
 20
14.893425
 30
0.0
 10
16.427836
 20
14.893425
 30
0.0
 10
16.427836
 20
26.414928
 30
0.0
  0
LWPOLYLINE
  5
105
100
AcDbEntity
  8
0
 62
7
100
AcDbPolyline
 90
14
 70
0
 10
26.305217
 20
26.414928
 30
0.0
 10
29.152796
 20
26.414928
 30
0.0
 10
31.143784
 20
18.041967
 30
0.0
 10
33.119339
 20
26.414928
 30
0.0
 10
35.982351
 20
26.414928
 30
0.0
 10
37.957907
 20
18.041967
 30
0.0
 10
39.948897
 20
26.414928
 30
0.0
 10
42.773323
 20
26.414928
 30
0.0
 10
40.056935
 20
14.893425
 30
0.0
 10
36.630582
 20
14.893425
 30
0.0
 10
34.539270
 20
23.652234
 30
0.0
 10
32.471112
 20
14.893425
 30
0.0
 10
29.044756
 20
14.893425
 30
0.0
 10
26.305217
 20
26.414928
 30
0.0
  0
LWPOLYLINE
  5
106
100
AcDbEntity
  8
0
 62
7
100
AcDbPolyline
 90
9
 70
0
 10
51.061005
 20
16.992453
 30
0.0
 10
46.415362
 20
16.992453
 30
0.0
 10
45.682244
 20
14.893425
 30
0.0
 10
42.695760
 20
14.893425
 30
0.0
 10
46.963268
 20
26.414928
 30
0.0
 10
50.505380
 20
26.414928
 30
0.0
 10
54.772887
 20
14.893425
 30
0.0
 10
51.786403
 20
14.893425
 30
0.0
 10
51.061005
 20
16.992453
 30
0.0
  0
LWPOLYLINE
  5
107
100
AcDbEntity
  8
0
 62
7
100
AcDbPolyline
 90
4
 70
0
 10
47.156195
 20
19.130066
 30
0.0
 10
50.312453
 20
19.130066
 30
0.0
 10
48.738183
 20
23.713971
 30
0.0
 10
47.156195
 20
19.130066
 30
0.0
  0
LWPOLYLINE
  5
108
100
AcDbEntity
  8
0
 62
7
100
AcDbPolyline
 90
12
 70
0
 10
60.567965
 20
21.306262
 30
0.0
 10
61.368599
 20
21.393075
 30
0.0
 10
61.903006
 20
21.653528
 30
0.0
 10
62.209753
 20
22.112686
 30
0.0
 10
62.312008
 20
22.795648
 30
0.0
 10
62.209753
 20
23.470879
 30
0.0
 10
61.903006
 20
23.922330
 30
0.0
 10
61.368599
 20
24.176985
 30
0.0
 10
60.567965
 20
24.261880
 30
0.0
 10
59.317808
 20
24.261880
 30
0.0
 10
59.317808
 20
21.306262
 30
0.0
 10
60.567965
 20
21.306262
 30
0.0
  0
LWPOLYLINE
  5
109
100
AcDbEntity
  8
0
 62
7
100
AcDbPolyline
 90
30
 70
0
 10
59.317808
 20
19.253539
 30
0.0
 10
59.317808
 20
14.893425
 30
0.0
 10
56.346756
 20
14.893425
 30
0.0
 10
56.346756
 20
26.414928
 30
0.0
 10
60.884362
 20
26.414928
 30
0.0
 10
61.946411
 20
26.367171
 30
0.0
 10
62.856052
 20
26.223921
 30
0.0
 10
63.613286
 20
25.985178
 30
0.0
 10
64.218112
 20
25.650941
 30
0.0
 10
64.684021
 20
25.213478
 30
0.0
 10
65.016815
 20
24.665086
 30
0.0
 10
65.216495
 20
24.005766
 30
0.0
 10
65.283060
 20
23.235516
 30
0.0
 10
65.144146
 20
22.195643
 30
0.0
 10
64.970515
 20
21.752399
 30
0.0
 10
64.727435
 20
21.360282
 30
0.0
 10
64.038684
 20
20.723625
 30
0.0
 10
63.068276
 20
20.279899
 30
0.0
 10
63.645116
 20
20.052244
 30
0.0
 10
64.156376
 20
19.647106
 30
0.0
 10
64.644469
 20
19.033599
 30
0.0
 10
65.136437
 20
18.165439
 30
0.0
 10
66.749292
 20
14.893425
 30
0.0
 10
63.585316
 20
14.893425
 30
0.0
 10
62.180820
 20
17.756437
 30
0.0
 10
61.752521
 20
18.483762
 30
0.0
 10
61.316514
 20
18.937139
 30
0.0
 10
60.811045
 20
19.174435
 30
0.0
 10
60.158963
 20
19.253539
 30
0.0
 10
59.317808
 20
19.253539
 30
0.0
  0
LWPOLYLINE
  5
10a
100
AcDbEntity
  8
0
 62
7
100
AcDbPolyline
 90
13
 70
0
 10
68.562395
 20
26.414928
 30
0.0
 10
76.580371
 20
26.414928
 30
0.0
 10
76.580371
 20
24.169274
 30
0.0
 10
71.533444
 20
24.169274
 30
0.0
 10
71.533444
 20
22.023945
 30
0.0
 10
76.279409
 20
22.023945
 30
0.0
 10
76.279409
 20
19.778294
 30
0.0
 10
71.533444
 20
19.778294
 30
0.0
 10
71.533444
 20
17.139076
 30
0.0
 10
76.750147
 20
17.139076
 30
0.0
 10
76.750147
 20
14.893425
 30
0.0
 10
68.562395
 20
14.893425
 30
0.0
 10
68.562395
 20
26.414928
 30
0.0
  0
LWPOLYLINE
  5
10b
100
AcDbEntity
  8
0
 62
7
100
AcDbPolyline
 90
7
 70
0
 10
20.803443
 20
209.161054
 30
0.0
 10
24.198929
 20
209.161054
 30
0.0
 10
24.198929
 20
198.560082
 30
0.0
 10
30.160874
 20
198.560082
 30
0.0
 10
30.160874
 20
195.993623
 30
0.0
 10
20.803443
 20
195.993623
 30
0.0
 10
20.803443
 20
209.161054
 30
0.0
  0
LWPOLYLINE
  5
10c
100
AcDbEntity
  8
0
 62
7
100
AcDbPolyline
 90
5
 70
0
 10
31.855266
 20
209.161054
 30
0.0
 10
35.250752
 20
209.161054
 30
0.0
 10
35.250752
 20
195.993623
 30
0.0
 10
31.855266
 20
195.993623
 30
0.0
 10
31.855266
 20
209.161054
 30
0.0
  0
LWPOLYLINE
  5
10d
100
AcDbEntity
  8
0
 62
7
100
AcDbPolyline
 90
8
 70
0
 10
36.574727
 20
209.161054
 30
0.0
 10
39.987852
 20
209.161054
 30
0.0
 10
43.480352
 20
199.442026
 30
0.0
 10
46.964033
 20
209.161054
 30
0.0
 10
50.377158
 20
209.161054
 30
0.0
 10
45.500005
 20
195.993623
 30
0.0
 10
41.451880
 20
195.993623
 30
0.0
 10
36.574727
 20
209.161054
 30
0.0
  0
LWPOLYLINE
  5
10e
100
AcDbEntity
  8
0
 62
7
100
AcDbPolyline
 90
13
 70
0
 10
51.665855
 20
209.161054
 30
0.0
 10
60.829258
 20
209.161054
 30
0.0
 10
60.829258
 20
206.594596
 30
0.0
 10
55.061341
 20
206.594596
 30
0.0
 10
55.061341
 20
204.142790
 30
0.0
 10
60.485299
 20
204.142790
 30
0.0
 10
60.485299
 20
201.576332
 30
0.0
 10
55.061341
 20
201.576332
 30
0.0
 10
55.061341
 20
198.560082
 30
0.0
 10
61.023286
 20
198.560082
 30
0.0
 10
61.023286
 20
195.993623
 30
0.0
 10
51.665855
 20
195.993623
 30
0.0
 10
51.665855
 20
209.161054
 30
0.0
  0
LWPOLYLINE
  5
10f
100
AcDbEntity
  8
0
 62
7
100
AcDbPolyline
 90
14
 70
0
 10
9.218574
 20
191.279453
 30
0.0
 10
12.472949
 20
191.279453
 30
0.0
 10
14.748366
 20
181.710355
 30
0.0
 10
17.006143
 20
191.279453
 30
0.0
 10
20.278157
 20
191.279453
 30
0.0
 10
22.535935
 20
181.710355
 30
0.0
 10
24.811352
 20
191.279453
 30
0.0
 10
28.039268
 20
191.279453
 30
0.0
 10
24.934824
 20
178.112022
 30
0.0
 10
21.018991
 20
178.112022
 30
0.0
 10
18.628921
 20
188.122092
 30
0.0
 10
16.265310
 20
178.112022
 30
0.0
 10
12.349477
 20
178.112022
 30
0.0
 10
9.218574
 20
191.279453
 30
0.0
  0
LWPOLYLINE
  5
110
100
AcDbEntity
  8
0
 62
7
100
AcDbPolyline
 90
5
 70
0
 10
29.821855
 20
191.279453
 30
0.0
 10
33.217341
 20
191.279453
 30
0.0
 10
33.217341
 20
178.112022
 30
0.0
 10
29.821855
 20
178.112022
 30
0.0
 10
29.821855
 20
191.279453
 30
0.0
  0
LWPOLYLINE
  5
111
100
AcDbEntity
  8
0
 62
7
100
AcDbPolyline
 90
12
 70
0
 10
40.935413
 20
185.440980
 30
0.0
 10
41.850425
 20
185.540195
 30
0.0
 10
42.461177
 20
185.837855
 30
0.0
 10
42.811743
 20
186.362607
 30
0.0
 10
42.928608
 20
187.143133
 30
0.0
 10
42.811743
 20
187.914828
 30
0.0
 10
42.461177
 20
188.430772
 30
0.0
 10
41.850425
 20
188.721807
 30
0.0
 10
40.935413
 20
188.818828
 30
0.0
 10
39.506663
 20
188.818828
 30
0.0
 10
39.506663
 20
185.440980
 30
0.0
 10
40.935413
 20
185.440980
 30
0.0
  0
LWPOLYLINE
  5
112
100
AcDbEntity
  8
0
 62
7
100
AcDbPolyline
 90
32
 70
0
 10
39.506663
 20
183.095008
 30
0.0
 10
39.506663
 20
178.112022
 30
0.0
 10
36.111177
 20
178.112022
 30
0.0
 10
36.111177
 20
191.279453
 30
0.0
 10
41.297011
 20
191.279453
 30
0.0
 10
42.510781
 20
191.224876
 30
0.0
 10
43.550372
 20
191.061163
 30
0.0
 10
44.415781
 20
190.788313
 30
0.0
 10
45.107011
 20
190.406328
 30
0.0
 10
45.639478
 20
189.906369
 30
0.0
 10
46.019815
 20
189.279636
 30
0.0
 10
46.248020
 20
188.526127
 30
0.0
 10
46.324094
 20
187.645842
 30
0.0
 10
46.284400
 20
187.022413
 30
0.0
 10
46.165335
 20
186.457416
 30
0.0
 10
45.966900
 20
185.950850
 30
0.0
 10
45.689094
 20
185.502717
 30
0.0
 10
45.335758
 20
185.111350
 30
0.0
 10
44.901950
 20
184.775108
 30
0.0
 10
43.792913
 20
184.267994
 30
0.0
 10
44.452159
 20
184.007817
 30
0.0
 10
45.036455
 20
183.544800
 30
0.0
 10
45.594276
 20
182.843652
 30
0.0
 10
46.156524
 20
181.851467
 30
0.0
 10
47.999788
 20
178.112022
 30
0.0
 10
44.383816
 20
178.112022
 30
0.0
 10
42.778677
 20
181.384036
 30
0.0
 10
42.289192
 20
182.215266
 30
0.0
 10
41.790899
 20
182.733411
 30
0.0
 10
41.213221
 20
183.004606
 30
0.0
 10
40.467983
 20
183.095008
 30
0.0
 10
39.506663
 20
183.095008
 30
0.0
  0
LWPOLYLINE
  5
113
100
AcDbEntity
  8
0
 62
7
100
AcDbPolyline
 90
13
 70
0
 10
49.561885
 20
191.279453
 30
0.0
 10
58.725288
 20
191.279453
 30
0.0
 10
58.725288
 20
188.712994
 30
0.0
 10
52.957372
 20
188.712994
 30
0.0
 10
52.957372
 20
186.261189
 30
0.0
 10
58.381330
 20
186.261189
 30
0.0
 10
58.381330
 20
183.694730
 30
0.0
 10
52.957372
 20
183.694730
 30
0.0
 10
52.957372
 20
180.678480
 30
0.0
 10
58.919316
 20
180.678480
 30
0.0
 10
58.919316
 20
178.112022
 30
0.0
 10
49.561885
 20
178.112022
 30
0.0
 10
49.561885
 20
191.279453
 30
0.0
  0
LWPOLYLINE
  5
114
100
AcDbEntity
  8
0
 62
7
100
AcDbPolyline
 90
67
 70
0
 10
70.623780
 20
190.864939
 30
0.0
 10
70.623780
 20
188.077994
 30
0.0
 10
69.552209
 20
188.503525
 30
0.0
 10
68.507113
 20
188.810008
 30
0.0
 10
67.503895
 20
188.995210
 30
0.0
 10
66.558016
 20
189.056953
 30
0.0
 10
65.499679
 20
188.973161
 30
0.0
 10
64.758849
 20
188.721814
 30
0.0
 10
64.322283
 20
188.294064
 30
0.0
 10
64.176766
 20
187.681119
 30
0.0
 10
64.273775
 20
187.209273
 30
0.0
 10
64.564822
 20
186.852092
 30
0.0
 10
65.120442
 20
186.580887
 30
0.0
 10
65.993572
 20
186.349383
 30
0.0
 10
67.439961
 20
186.058342
 30
0.0
 10
68.458600
 20
185.809189
 30
0.0
 10
69.318494
 20
185.502712
 30
0.0
 10
70.019642
 20
185.138911
 30
0.0
 10
70.562044
 20
184.717786
 30
0.0
 10
70.967181
 20
184.220587
 30
0.0
 10
71.256567
 20
183.628581
 30
0.0
 10
71.430202
 20
182.941768
 30
0.0
 10
71.488086
 20
182.160147
 30
0.0
 10
71.407051
 20
181.140398
 30
0.0
 10
71.163962
 20
180.259556
 30
0.0
 10
70.758821
 20
179.517620
 30
0.0
 10
70.191627
 20
178.914592
 30
0.0
 10
69.462364
 20
178.451571
 30
0.0
 10
68.562228
 20
178.120843
 30
0.0
 10
67.491218
 20
177.922405
 30
0.0
 10
66.249336
 20
177.856258
 30
0.0
 10
64.994765
 20
177.915792
 30
0.0
 10
63.735794
 20
178.094383
 30
0.0
 10
62.474611
 20
178.389835
 30
0.0
 10
61.213433
 20
178.799939
 30
0.0
 10
61.213433
 20
181.666258
 30
0.0
 10
62.452562
 20
181.077558
 30
0.0
 10
63.647599
 20
180.652022
 30
0.0
 10
64.807352
 20
180.400668
 30
0.0
 10
65.923016
 20
180.316883
 30
0.0
 10
66.904173
 20
180.409487
 30
0.0
 10
67.625169
 20
180.687300
 30
0.0
 10
68.068339
 20
181.137089
 30
0.0
 10
68.216072
 20
181.745633
 30
0.0
 10
68.114641
 20
182.292436
 30
0.0
 10
67.810377
 20
182.698133
 30
0.0
 10
67.212853
 20
183.015630
 30
0.0
 10
66.214058
 20
183.297855
 30
0.0
 10
64.899961
 20
183.588897
 30
0.0
 10
63.978326
 20
183.831980
 30
0.0
 10
63.188985
 20
184.137903
 30
0.0
 10
62.531937
 20
184.506667
 30
0.0
 10
62.007183
 20
184.938272
 30
0.0
 10
61.609755
 20
185.441528
 30
0.0
 10
61.325879
 20
186.025264
 30
0.0
 10
61.155554
 20
186.689479
 30
0.0
 10
61.098780
 20
187.434175
 30
0.0
 10
61.178153
 20
188.360762
 30
0.0
 10
61.416278
 20
189.173802
 30
0.0
 10
61.813153
 20
189.873296
 30
0.0
 10
62.368780
 20
190.459244
 30
0.0
 10
63.073231
 20
190.922259
 30
0.0
 10
63.916589
 20
191.252986
 30
0.0
 10
64.898855
 20
191.451425
 30
0.0
 10
66.020030
 20
191.517578
 30
0.0
 10
68.251349
 20
191.350008
 30
0.0
 10
70.623780
 20
190.864939
 30
0.0
  0
LWPOLYLINE
  5
115
100
AcDbEntity
  8
0
 62
7
100
AcDbPolyline
 90
5
 70
0
 10
0.372635
 20
221.864826
 30
0.0
 10
80.879667
 20
221.864826
 30
0.0
 10
80.879667
 20
0.372644
 30
0.0
 10
0.372635
 20
0.372644
 30
0.0
 10
0.372635
 20
221.864826
 30
0.0
  0
ENDSEC
  0
SECTION
  2
OBJECTS
  0
DICTIONARY
  5
C
330
0
100
AcDbDictionary
  3
ACAD_GROUP
350
D
  3
ACAD_MLINESTYLE
350
17
  0
DICTIONARY
  5
D
330
C
100
AcDbDictionary
  0
DICTIONARY
  5
1A
330
C
100
AcDbDictionary
  0
DICTIONARY
  5
17
330
C
100
AcDbDictionary
  3
STANDARD
350
18
  0
DICTIONARY
  5
19
330
C
100
AcDbDictionary
  0
ENDSEC
  0
EOF
