solid OpenSCAD_Model
  facet normal -2.22045e-16 -1 0
    outer loop
      vertex -4.05014 -3 20.695
      vertex -3.89337 -3 20
      vertex -5 -3 29
    endloop
  endfacet
  facet normal -2.22045e-16 -1 0
    outer loop
      vertex -7 -3 30
      vertex -7 -3 29
      vertex -5 -3 29
    endloop
  endfacet
  facet normal -2.22045e-16 -1 0
    outer loop
      vertex -2 -3 30
      vertex -7 -3 30
      vertex -5 -3 29
    endloop
  endfacet
  facet normal -2.22045e-16 -1 0
    outer loop
      vertex -5 -3 23.3071
      vertex -4.05014 -3 20.695
      vertex -5 -3 29
    endloop
  endfacet
  facet normal -2.22045e-16 -1 0
    outer loop
      vertex -4.20878 -3 20
      vertex -3.89337 -3 20
      vertex -4.05014 -3 20.695
    endloop
  endfacet
  facet normal -2.22045e-16 -1 0
    outer loop
      vertex -3.89337 -3 20
      vertex -2 -3 20
      vertex -5 -3 29
    endloop
  endfacet
  facet normal -2.22045e-16 -1 0
    outer loop
      vertex -2 -3 20
      vertex -2 -3 30
      vertex -5 -3 29
    endloop
  endfacet
  facet normal 0 0 -1
    outer loop
      vertex -5 -2 29
      vertex -5 -3 29
      vertex -7 -2 29
    endloop
  endfacet
  facet normal 0 0 -1
    outer loop
      vertex -7 -2 29
      vertex -5 -3 29
      vertex -7 -3 29
    endloop
  endfacet
  facet normal -1 2.22045e-16 0
    outer loop
      vertex -7 -3 29
      vertex -7 -3 30
      vertex -7 -2 29
    endloop
  endfacet
  facet normal -1 2.22045e-16 0
    outer loop
      vertex -7 -2 29
      vertex -7 -3 30
      vertex -7 -2 30
    endloop
  endfacet
  facet normal 0 0 1
    outer loop
      vertex -7 -2 30
      vertex -7 -3 30
      vertex -2 -3 30
    endloop
  endfacet
  facet normal 0 0 1
    outer loop
      vertex -4 -2 30
      vertex -7 -2 30
      vertex -2 -3 30
    endloop
  endfacet
  facet normal 0 0 1
    outer loop
      vertex -7 2 30
      vertex -7 1 30
      vertex -2 2 30
    endloop
  endfacet
  facet normal 0 0 1
    outer loop
      vertex -7 1 30
      vertex -4 1 30
      vertex -2 2 30
    endloop
  endfacet
  facet normal 0 0 1
    outer loop
      vertex -2 2 30
      vertex -4 -2 30
      vertex -2 -3 30
    endloop
  endfacet
  facet normal 0 0 1
    outer loop
      vertex -4 1 30
      vertex -4 -2 30
      vertex -2 2 30
    endloop
  endfacet
  facet normal 1 -2.22045e-16 0
    outer loop
      vertex -2 -3 30
      vertex -2 -3 20
      vertex -2 -2.07363 20
    endloop
  endfacet
  facet normal 1 -2.22045e-16 0
    outer loop
      vertex -2 2 30
      vertex -2 -3 30
      vertex -2 2 20
    endloop
  endfacet
  facet normal 1 -2.22045e-16 0
    outer loop
      vertex -2 2 20
      vertex -2 -3 30
      vertex -2 -2.07363 20
    endloop
  endfacet
  facet normal 0 0 1
    outer loop
      vertex -3.53553 -3.53553 20
      vertex -1.91342 -4.6194 20
      vertex 0 -5 20
    endloop
  endfacet
  facet normal 0 0 1
    outer loop
      vertex 3.53553 -3.53553 20
      vertex -3.53553 -3.53553 20
      vertex 1.91342 -4.6194 20
    endloop
  endfacet
  facet normal 0 0 1
    outer loop
      vertex 1.91342 -4.6194 20
      vertex -3.53553 -3.53553 20
      vertex 0 -5 20
    endloop
  endfacet
  facet normal 0 0 1
    outer loop
      vertex 3.89337 -3 20
      vertex -3.53553 -3.53553 20
      vertex 3.53553 -3.53553 20
    endloop
  endfacet
  facet normal 0 0 1
    outer loop
      vertex 2.5 -3 20
      vertex -3.53553 -3.53553 20
      vertex 3.89337 -3 20
    endloop
  endfacet
  facet normal 0 0 1
    outer loop
      vertex 0.927051 -2.85317 20
      vertex -3.53553 -3.53553 20
      vertex 2.5 -3 20
    endloop
  endfacet
  facet normal 0 0 1
    outer loop
      vertex -2 -3 20
      vertex -3.89337 -3 20
      vertex -3.53553 -3.53553 20
    endloop
  endfacet
  facet normal 0 0 1
    outer loop
      vertex 2.5 -1.53884 20
      vertex 2.42705 -1.76336 20
      vertex 2.5 -3 20
    endloop
  endfacet
  facet normal 0 0 1
    outer loop
      vertex 2.42705 -1.76336 20
      vertex 0.927051 -2.85317 20
      vertex 2.5 -3 20
    endloop
  endfacet
  facet normal 0 0 1
    outer loop
      vertex -0.927051 -2.85317 20
      vertex -3.53553 -3.53553 20
      vertex 0.927051 -2.85317 20
    endloop
  endfacet
  facet normal 0 0 1
    outer loop
      vertex -0.927051 -2.85317 20
      vertex -2 -3 20
      vertex -3.53553 -3.53553 20
    endloop
  endfacet
  facet normal 0 0 1
    outer loop
      vertex -0.927051 -2.85317 20
      vertex -2 -2.07363 20
      vertex -2 -3 20
    endloop
  endfacet
  facet normal 0 0 -1
    outer loop
      vertex -3.89337 -3 20
      vertex -4.20878 -3 20
      vertex -4.20878 -2.52795 20
    endloop
  endfacet
  facet normal -0.83147 -0.55557 0
    outer loop
      vertex -4.6194 -1.91342 0
      vertex -3.53553 -3.53553 0
      vertex -4.6194 -1.91342 20
    endloop
  endfacet
  facet normal -0.83147 -0.55557 0
    outer loop
      vertex -3.89337 -3 20
      vertex -3.53553 -3.53553 0
      vertex -3.53553 -3.53553 20
    endloop
  endfacet
  facet normal -0.83147 -0.55557 0
    outer loop
      vertex -4.20878 -2.52795 20
      vertex -3.53553 -3.53553 0
      vertex -3.89337 -3 20
    endloop
  endfacet
  facet normal -0.83147 -0.55557 0
    outer loop
      vertex -4.6194 -1.91342 20
      vertex -3.53553 -3.53553 0
      vertex -4.20878 -2.52795 20
    endloop
  endfacet
  facet normal -0.974928 2.65887e-16 0.222521
    outer loop
      vertex -4.05014 -2 20.695
      vertex -4.20878 -2 20
      vertex -4.05014 -3 20.695
    endloop
  endfacet
  facet normal -0.974928 2.65887e-16 0.222521
    outer loop
      vertex -4.05014 -3 20.695
      vertex -4.20878 -2 20
      vertex -4.20878 -2.52795 20
    endloop
  endfacet
  facet normal -0.974928 2.65887e-16 0.222521
    outer loop
      vertex -4.05014 -3 20.695
      vertex -4.20878 -2.52795 20
      vertex -4.20878 -3 20
    endloop
  endfacet
  facet normal -0.939793 1.32794e-16 -0.341743
    outer loop
      vertex -4.05014 -2 20.695
      vertex -4.05014 -3 20.695
      vertex -5 -2 23.3071
    endloop
  endfacet
  facet normal -0.939793 1.32794e-16 -0.341743
    outer loop
      vertex -5 -2 23.3071
      vertex -4.05014 -3 20.695
      vertex -5 -3 23.3071
    endloop
  endfacet
  facet normal -1 2.22045e-16 0
    outer loop
      vertex -5 -2 29
      vertex -5 -2 23.3071
      vertex -5 -3 29
    endloop
  endfacet
  facet normal -1 2.22045e-16 0
    outer loop
      vertex -5 -3 29
      vertex -5 -2 23.3071
      vertex -5 -3 23.3071
    endloop
  endfacet
  facet normal 2.22045e-16 1 0
    outer loop
      vertex -5 -2 29
      vertex -4.05014 -2 20.695
      vertex -5 -2 23.3071
    endloop
  endfacet
  facet normal 2.22045e-16 1 0
    outer loop
      vertex -4 -2 30
      vertex -4 -2 20
      vertex -4.05014 -2 20.695
    endloop
  endfacet
  facet normal 2.22045e-16 1 0
    outer loop
      vertex -7 -2 29
      vertex -7 -2 30
      vertex -5 -2 29
    endloop
  endfacet
  facet normal 2.22045e-16 1 0
    outer loop
      vertex -4 -2 30
      vertex -4.05014 -2 20.695
      vertex -5 -2 29
    endloop
  endfacet
  facet normal 2.22045e-16 1 0
    outer loop
      vertex -4 -2 30
      vertex -5 -2 29
      vertex -7 -2 30
    endloop
  endfacet
  facet normal 2.22045e-16 1 0
    outer loop
      vertex -4.05014 -2 20.695
      vertex -4 -2 20
      vertex -4.20878 -2 20
    endloop
  endfacet
  facet normal -1 2.22045e-16 0
    outer loop
      vertex -4 1 30
      vertex -4 1 20
      vertex -4 -2 30
    endloop
  endfacet
  facet normal -1 2.22045e-16 0
    outer loop
      vertex -4 -2 30
      vertex -4 1 20
      vertex -4 -2 20
    endloop
  endfacet
  facet normal -2.22045e-16 -1 0
    outer loop
      vertex -5 1 29
      vertex -5 1 23.3071
      vertex -4.05014 1 20.695
    endloop
  endfacet
  facet normal -2.22045e-16 -1 0
    outer loop
      vertex -4 1 30
      vertex -5 1 29
      vertex -4.05014 1 20.695
    endloop
  endfacet
  facet normal -2.22045e-16 -1 0
    outer loop
      vertex -4.20878 1 20
      vertex -4 1 20
      vertex -4.05014 1 20.695
    endloop
  endfacet
  facet normal -2.22045e-16 -1 0
    outer loop
      vertex -4 1 20
      vertex -4 1 30
      vertex -4.05014 1 20.695
    endloop
  endfacet
  facet normal -2.22045e-16 -1 0
    outer loop
      vertex -4 1 30
      vertex -7 1 30
      vertex -5 1 29
    endloop
  endfacet
  facet normal -2.22045e-16 -1 0
    outer loop
      vertex -7 1 29
      vertex -5 1 29
      vertex -7 1 30
    endloop
  endfacet
  facet normal -1 2.22045e-16 0
    outer loop
      vertex -7 1 29
      vertex -7 1 30
      vertex -7 2 29
    endloop
  endfacet
  facet normal -1 2.22045e-16 0
    outer loop
      vertex -7 2 29
      vertex -7 1 30
      vertex -7 2 30
    endloop
  endfacet
  facet normal 2.22045e-16 1 0
    outer loop
      vertex -7 2 29
      vertex -7 2 30
      vertex -5 2 29
    endloop
  endfacet
  facet normal 2.22045e-16 1 0
    outer loop
      vertex -5 2 29
      vertex -7 2 30
      vertex -2 2 30
    endloop
  endfacet
  facet normal 2.22045e-16 1 0
    outer loop
      vertex -5 2 29
      vertex -2 2 30
      vertex -2 2 20
    endloop
  endfacet
  facet normal 2.22045e-16 1 0
    outer loop
      vertex -2.10134 2 20
      vertex -4.20878 2 20
      vertex -4.05014 2 20.695
    endloop
  endfacet
  facet normal 2.22045e-16 1 0
    outer loop
      vertex -5 2 29
      vertex -2 2 20
      vertex -2.10134 2 20
    endloop
  endfacet
  facet normal 2.22045e-16 1 0
    outer loop
      vertex -5 2 29
      vertex -2.10134 2 20
      vertex -4.05014 2 20.695
    endloop
  endfacet
  facet normal 2.22045e-16 1 0
    outer loop
      vertex -5 2 29
      vertex -4.05014 2 20.695
      vertex -5 2 23.3071
    endloop
  endfacet
  facet normal 0 0 -1
    outer loop
      vertex -3 0 20
      vertex -2.42705 1.76336 20
      vertex -2.42705 -1.76336 20
    endloop
  endfacet
  facet normal 0 0 -1
    outer loop
      vertex -2.42705 -1.76336 20
      vertex -2.42705 1.76336 20
      vertex -2.10134 2 20
    endloop
  endfacet
  facet normal 0 0 -1
    outer loop
      vertex -2.42705 -1.76336 20
      vertex -2.10134 2 20
      vertex -2 2 20
    endloop
  endfacet
  facet normal 0 0 -1
    outer loop
      vertex -2.42705 -1.76336 20
      vertex -2 2 20
      vertex -2 -2.07363 20
    endloop
  endfacet
  facet normal 0.587785 0.809017 0
    outer loop
      vertex -0.927051 -2.85317 20
      vertex -0.927051 -2.85317 0
      vertex -2 -2.07363 20
    endloop
  endfacet
  facet normal 0.587785 0.809017 0
    outer loop
      vertex -2 -2.07363 20
      vertex -0.927051 -2.85317 0
      vertex -2.42705 -1.76336 20
    endloop
  endfacet
  facet normal 0.587785 0.809017 0
    outer loop
      vertex -2.42705 -1.76336 20
      vertex -0.927051 -2.85317 0
      vertex -2.42705 -1.76336 0
    endloop
  endfacet
  facet normal -0.55557 -0.83147 0
    outer loop
      vertex -3.53553 -3.53553 20
      vertex -3.53553 -3.53553 0
      vertex -1.91342 -4.6194 0
    endloop
  endfacet
  facet normal -0.55557 -0.83147 0
    outer loop
      vertex -1.91342 -4.6194 20
      vertex -3.53553 -3.53553 20
      vertex -1.91342 -4.6194 0
    endloop
  endfacet
  facet normal 0 1 0
    outer loop
      vertex 0.927051 -2.85317 20
      vertex 0.927051 -2.85317 0
      vertex -0.927051 -2.85317 20
    endloop
  endfacet
  facet normal 0 1 0
    outer loop
      vertex -0.927051 -2.85317 20
      vertex 0.927051 -2.85317 0
      vertex -0.927051 -2.85317 0
    endloop
  endfacet
  facet normal -0.587785 0.809017 0
    outer loop
      vertex 2.42705 -1.76336 20
      vertex 2.42705 -1.76336 0
      vertex 0.927051 -2.85317 20
    endloop
  endfacet
  facet normal -0.587785 0.809017 0
    outer loop
      vertex 0.927051 -2.85317 20
      vertex 2.42705 -1.76336 0
      vertex 0.927051 -2.85317 0
    endloop
  endfacet
  facet normal -0.951057 0.309017 0
    outer loop
      vertex 3 0 20
      vertex 3 0 0
      vertex 2.5 -1.53884 20
    endloop
  endfacet
  facet normal -0.951057 0.309017 0
    outer loop
      vertex 2.5 -1.53884 20
      vertex 3 0 0
      vertex 2.42705 -1.76336 20
    endloop
  endfacet
  facet normal -0.951057 0.309017 0
    outer loop
      vertex 2.42705 -1.76336 20
      vertex 3 0 0
      vertex 2.42705 -1.76336 0
    endloop
  endfacet
  facet normal 0 0 -1
    outer loop
      vertex 3 0 20
      vertex 2.5 -1.53884 20
      vertex 2.5 1.53884 20
    endloop
  endfacet
  facet normal -1 2.22045e-16 0
    outer loop
      vertex 2.5 -3 20
      vertex 2.5 -3 30
      vertex 2.5 -1.53884 20
    endloop
  endfacet
  facet normal -1 2.22045e-16 0
    outer loop
      vertex 2.5 -1.53884 20
      vertex 2.5 -3 30
      vertex 2.5 2 30
    endloop
  endfacet
  facet normal -1 2.22045e-16 0
    outer loop
      vertex 2.5 1.53884 20
      vertex 2.5 2 30
      vertex 2.5 2 20
    endloop
  endfacet
  facet normal -1 2.22045e-16 0
    outer loop
      vertex 2.5 -1.53884 20
      vertex 2.5 2 30
      vertex 2.5 1.53884 20
    endloop
  endfacet
  facet normal -2.22045e-16 -1 0
    outer loop
      vertex 2.5 -3 30
      vertex 2.5 -3 20
      vertex 3.89337 -3 20
    endloop
  endfacet
  facet normal -2.22045e-16 -1 0
    outer loop
      vertex 4.55014 -3 20.695
      vertex 2.5 -3 30
      vertex 3.89337 -3 20
    endloop
  endfacet
  facet normal -2.22045e-16 -1 0
    outer loop
      vertex 4.70878 -3 20
      vertex 4.55014 -3 20.695
      vertex 3.89337 -3 20
    endloop
  endfacet
  facet normal -2.22045e-16 -1 0
    outer loop
      vertex 5.5 -3 29
      vertex 2.5 -3 30
      vertex 5.5 -3 23.3071
    endloop
  endfacet
  facet normal -2.22045e-16 -1 0
    outer loop
      vertex 7.5 -3 29
      vertex 2.5 -3 30
      vertex 5.5 -3 29
    endloop
  endfacet
  facet normal -2.22045e-16 -1 0
    outer loop
      vertex 7.5 -3 30
      vertex 2.5 -3 30
      vertex 7.5 -3 29
    endloop
  endfacet
  facet normal -2.22045e-16 -1 0
    outer loop
      vertex 4.55014 -3 20.695
      vertex 5.5 -3 23.3071
      vertex 2.5 -3 30
    endloop
  endfacet
  facet normal 0 0 -1
    outer loop
      vertex 3.89337 -3 20
      vertex 4.56155 -2 20
      vertex 4.70878 -3 20
    endloop
  endfacet
  facet normal 0 0 -1
    outer loop
      vertex 4.70878 -3 20
      vertex 4.56155 -2 20
      vertex 4.70878 -2 20
    endloop
  endfacet
  facet normal 0.83147 -0.55557 0
    outer loop
      vertex 3.53553 -3.53553 20
      vertex 3.53553 -3.53553 0
      vertex 4.6194 -1.91342 0
    endloop
  endfacet
  facet normal 0.83147 -0.55557 0
    outer loop
      vertex 3.89337 -3 20
      vertex 3.53553 -3.53553 20
      vertex 4.6194 -1.91342 0
    endloop
  endfacet
  facet normal 0.83147 -0.55557 0
    outer loop
      vertex 4.6194 -1.91342 20
      vertex 4.56155 -2 20
      vertex 4.6194 -1.91342 0
    endloop
  endfacet
  facet normal 0.83147 -0.55557 0
    outer loop
      vertex 4.56155 -2 20
      vertex 3.89337 -3 20
      vertex 4.6194 -1.91342 0
    endloop
  endfacet
  facet normal 0.55557 -0.83147 0
    outer loop
      vertex 1.91342 -4.6194 20
      vertex 1.91342 -4.6194 0
      vertex 3.53553 -3.53553 0
    endloop
  endfacet
  facet normal 0.55557 -0.83147 0
    outer loop
      vertex 3.53553 -3.53553 20
      vertex 1.91342 -4.6194 20
      vertex 3.53553 -3.53553 0
    endloop
  endfacet
  facet normal 0.19509 -0.980785 0
    outer loop
      vertex 0 -5 20
      vertex 0 -5 0
      vertex 1.91342 -4.6194 0
    endloop
  endfacet
  facet normal 0.19509 -0.980785 0
    outer loop
      vertex 1.91342 -4.6194 20
      vertex 0 -5 20
      vertex 1.91342 -4.6194 0
    endloop
  endfacet
  facet normal -0.19509 -0.980785 0
    outer loop
      vertex -1.91342 -4.6194 20
      vertex -1.91342 -4.6194 0
      vertex 0 -5 0
    endloop
  endfacet
  facet normal -0.19509 -0.980785 0
    outer loop
      vertex 0 -5 20
      vertex -1.91342 -4.6194 20
      vertex 0 -5 0
    endloop
  endfacet
  facet normal 0 0 1
    outer loop
      vertex -4.20878 1 20
      vertex -4.20878 2 20
      vertex -4.6194 -1.91342 20
    endloop
  endfacet
  facet normal 0 0 1
    outer loop
      vertex -4.6194 -1.91342 20
      vertex -4.20878 -2.52795 20
      vertex -4.20878 -2 20
    endloop
  endfacet
  facet normal 0 0 1
    outer loop
      vertex -4 -2 20
      vertex -4.6194 -1.91342 20
      vertex -4.20878 -2 20
    endloop
  endfacet
  facet normal 0 0 1
    outer loop
      vertex -4 -2 20
      vertex -4 1 20
      vertex -4.6194 -1.91342 20
    endloop
  endfacet
  facet normal 0 0 1
    outer loop
      vertex -4 1 20
      vertex -4.20878 1 20
      vertex -4.6194 -1.91342 20
    endloop
  endfacet
  facet normal 0 0 1
    outer loop
      vertex -4.20878 2 20
      vertex -4.56155 2 20
      vertex -4.6194 -1.91342 20
    endloop
  endfacet
  facet normal 0 0 1
    outer loop
      vertex -2.10134 2 20
      vertex -4.56155 2 20
      vertex -4.20878 2 20
    endloop
  endfacet
  facet normal 0 0 1
    outer loop
      vertex -4.56155 2 20
      vertex -4.6194 1.91342 20
      vertex -4.6194 -1.91342 20
    endloop
  endfacet
  facet normal 0 0 1
    outer loop
      vertex -4.6194 1.91342 20
      vertex -5 0 20
      vertex -4.6194 -1.91342 20
    endloop
  endfacet
  facet normal -0.980785 -0.19509 0
    outer loop
      vertex -5 0 0
      vertex -4.6194 -1.91342 0
      vertex -5 0 20
    endloop
  endfacet
  facet normal -0.980785 -0.19509 0
    outer loop
      vertex -5 0 20
      vertex -4.6194 -1.91342 0
      vertex -4.6194 -1.91342 20
    endloop
  endfacet
  facet normal 0 0 -1
    outer loop
      vertex -5 0 0
      vertex -4.6194 1.91342 0
      vertex -4.6194 -1.91342 0
    endloop
  endfacet
  facet normal 0 0 -1
    outer loop
      vertex -4.6194 -1.91342 0
      vertex -4.6194 1.91342 0
      vertex -3.53553 3.53553 0
    endloop
  endfacet
  facet normal 0 0 -1
    outer loop
      vertex -4.6194 -1.91342 0
      vertex -3.53553 3.53553 0
      vertex -1.91342 4.6194 0
    endloop
  endfacet
  facet normal 0 0 -1
    outer loop
      vertex -2.42705 1.76336 0
      vertex -1.91342 4.6194 0
      vertex 0 5 0
    endloop
  endfacet
  facet normal 0 0 -1
    outer loop
      vertex -0.927051 2.85317 0
      vertex 0 5 0
      vertex 1.91342 4.6194 0
    endloop
  endfacet
  facet normal 0 0 -1
    outer loop
      vertex 0.927051 2.85317 0
      vertex 1.91342 4.6194 0
      vertex 3.53553 3.53553 0
    endloop
  endfacet
  facet normal 0 0 -1
    outer loop
      vertex 2.42705 1.76336 0
      vertex 3.53553 3.53553 0
      vertex 4.6194 1.91342 0
    endloop
  endfacet
  facet normal 0 0 -1
    outer loop
      vertex 3 0 0
      vertex 4.6194 1.91342 0
      vertex 5 0 0
    endloop
  endfacet
  facet normal 0 0 -1
    outer loop
      vertex 2.42705 -1.76336 0
      vertex 5 0 0
      vertex 4.6194 -1.91342 0
    endloop
  endfacet
  facet normal 0 0 -1
    outer loop
      vertex 0.927051 -2.85317 0
      vertex 4.6194 -1.91342 0
      vertex 3.53553 -3.53553 0
    endloop
  endfacet
  facet normal 0 0 -1
    outer loop
      vertex -0.927051 -2.85317 0
      vertex 3.53553 -3.53553 0
      vertex 1.91342 -4.6194 0
    endloop
  endfacet
  facet normal 0 0 -1
    outer loop
      vertex -4.6194 -1.91342 0
      vertex 1.91342 -4.6194 0
      vertex 0 -5 0
    endloop
  endfacet
  facet normal 0 0 -1
    outer loop
      vertex -4.6194 -1.91342 0
      vertex 0 -5 0
      vertex -1.91342 -4.6194 0
    endloop
  endfacet
  facet normal 0 0 -1
    outer loop
      vertex -4.6194 -1.91342 0
      vertex -1.91342 -4.6194 0
      vertex -3.53553 -3.53553 0
    endloop
  endfacet
  facet normal 0 0 -1
    outer loop
      vertex -2.42705 -1.76336 0
      vertex -4.6194 -1.91342 0
      vertex -3 0 0
    endloop
  endfacet
  facet normal 0 0 -1
    outer loop
      vertex -0.927051 -2.85317 0
      vertex -4.6194 -1.91342 0
      vertex -2.42705 -1.76336 0
    endloop
  endfacet
  facet normal 0 0 -1
    outer loop
      vertex 2.42705 -1.76336 0
      vertex 4.6194 -1.91342 0
      vertex 0.927051 -2.85317 0
    endloop
  endfacet
  facet normal 0 0 -1
    outer loop
      vertex -4.6194 -1.91342 0
      vertex -0.927051 -2.85317 0
      vertex 1.91342 -4.6194 0
    endloop
  endfacet
  facet normal 0 0 -1
    outer loop
      vertex 3 0 0
      vertex 5 0 0
      vertex 2.42705 -1.76336 0
    endloop
  endfacet
  facet normal 0 0 -1
    outer loop
      vertex 0.927051 -2.85317 0
      vertex 3.53553 -3.53553 0
      vertex -0.927051 -2.85317 0
    endloop
  endfacet
  facet normal 0 0 -1
    outer loop
      vertex -2.42705 1.76336 0
      vertex 0 5 0
      vertex -0.927051 2.85317 0
    endloop
  endfacet
  facet normal 0 0 -1
    outer loop
      vertex -4.6194 -1.91342 0
      vertex -1.91342 4.6194 0
      vertex -2.42705 1.76336 0
    endloop
  endfacet
  facet normal 0 0 -1
    outer loop
      vertex -3 0 0
      vertex -4.6194 -1.91342 0
      vertex -2.42705 1.76336 0
    endloop
  endfacet
  facet normal 0 0 -1
    outer loop
      vertex -0.927051 2.85317 0
      vertex 1.91342 4.6194 0
      vertex 0.927051 2.85317 0
    endloop
  endfacet
  facet normal 0 0 -1
    outer loop
      vertex 0.927051 2.85317 0
      vertex 3.53553 3.53553 0
      vertex 2.42705 1.76336 0
    endloop
  endfacet
  facet normal 0 0 -1
    outer loop
      vertex 2.42705 1.76336 0
      vertex 4.6194 1.91342 0
      vertex 3 0 0
    endloop
  endfacet
  facet normal -1 2.22045e-16 0
    outer loop
      vertex -5 2 29
      vertex -5 2 23.3071
      vertex -5 1 29
    endloop
  endfacet
  facet normal -1 2.22045e-16 0
    outer loop
      vertex -5 1 29
      vertex -5 2 23.3071
      vertex -5 1 23.3071
    endloop
  endfacet
  facet normal 0 0 -1
    outer loop
      vertex -5 2 29
      vertex -5 1 29
      vertex -7 2 29
    endloop
  endfacet
  facet normal 0 0 -1
    outer loop
      vertex -7 2 29
      vertex -5 1 29
      vertex -7 1 29
    endloop
  endfacet
  facet normal -0.974928 2.65887e-16 0.222521
    outer loop
      vertex -4.05014 2 20.695
      vertex -4.20878 2 20
      vertex -4.05014 1 20.695
    endloop
  endfacet
  facet normal -0.974928 2.65887e-16 0.222521
    outer loop
      vertex -4.05014 1 20.695
      vertex -4.20878 2 20
      vertex -4.20878 1 20
    endloop
  endfacet
  facet normal -0.939793 1.32794e-16 -0.341743
    outer loop
      vertex -4.05014 2 20.695
      vertex -4.05014 1 20.695
      vertex -5 2 23.3071
    endloop
  endfacet
  facet normal -0.939793 1.32794e-16 -0.341743
    outer loop
      vertex -5 2 23.3071
      vertex -4.05014 1 20.695
      vertex -5 1 23.3071
    endloop
  endfacet
  facet normal 0.587785 -0.809017 0
    outer loop
      vertex -0.927051 2.85317 0
      vertex -0.927051 2.85317 10
      vertex -2.10134 2 10
    endloop
  endfacet
  facet normal 0.587785 -0.809017 0
    outer loop
      vertex -2.42705 1.76336 0
      vertex -0.927051 2.85317 0
      vertex -2.10134 2 10
    endloop
  endfacet
  facet normal 0.587785 -0.809017 0
    outer loop
      vertex -2.10134 2 20
      vertex -2.42705 1.76336 20
      vertex -2.10134 2 10
    endloop
  endfacet
  facet normal 0.587785 -0.809017 0
    outer loop
      vertex -2.42705 1.76336 20
      vertex -2.42705 1.76336 0
      vertex -2.10134 2 10
    endloop
  endfacet
  facet normal 0.951057 0.309017 0
    outer loop
      vertex -3 0 20
      vertex -2.42705 -1.76336 20
      vertex -2.42705 -1.76336 0
    endloop
  endfacet
  facet normal 0.951057 0.309017 0
    outer loop
      vertex -3 0 0
      vertex -3 0 20
      vertex -2.42705 -1.76336 0
    endloop
  endfacet
  facet normal 0.951057 -0.309017 0
    outer loop
      vertex -2.42705 1.76336 0
      vertex -2.42705 1.76336 20
      vertex -3 0 20
    endloop
  endfacet
  facet normal 0.951057 -0.309017 0
    outer loop
      vertex -3 0 0
      vertex -2.42705 1.76336 0
      vertex -3 0 20
    endloop
  endfacet
  facet normal -0.951057 -0.309017 0
    outer loop
      vertex 3 0 20
      vertex 2.5 1.53884 20
      vertex 3 0 0
    endloop
  endfacet
  facet normal -0.951057 -0.309017 0
    outer loop
      vertex 3 0 0
      vertex 2.5 1.53884 20
      vertex 2.42705 1.76336 20
    endloop
  endfacet
  facet normal -0.951057 -0.309017 0
    outer loop
      vertex 3 0 0
      vertex 2.42705 1.76336 20
      vertex 2.42705 1.76336 0
    endloop
  endfacet
  facet normal 0 0 1
    outer loop
      vertex 2.42705 1.76336 20
      vertex 2.5 1.53884 20
      vertex 2.5 2 20
    endloop
  endfacet
  facet normal 0 0 1
    outer loop
      vertex 2.10134 2 20
      vertex 2.42705 1.76336 20
      vertex 2.5 2 20
    endloop
  endfacet
  facet normal 0 1 0
    outer loop
      vertex 4.56155 2 20
      vertex 4.56155 2 10
      vertex 2.5 2 20
    endloop
  endfacet
  facet normal 0 1 0
    outer loop
      vertex 2.5 2 20
      vertex 4.56155 2 10
      vertex 2.10134 2 20
    endloop
  endfacet
  facet normal 0 1 0
    outer loop
      vertex 2.10134 2 20
      vertex 4.56155 2 10
      vertex 2.10134 2 10
    endloop
  endfacet
  facet normal 0 0 -1
    outer loop
      vertex 4.56155 2 20
      vertex 2.5 2 20
      vertex 4.70878 2 20
    endloop
  endfacet
  facet normal 0 0 -1
    outer loop
      vertex 4.6194 1.91342 20
      vertex 4.70878 2 20
      vertex 4.70878 1.46405 20
    endloop
  endfacet
  facet normal 0 0 -1
    outer loop
      vertex 4.56155 2 20
      vertex 4.70878 2 20
      vertex 4.6194 1.91342 20
    endloop
  endfacet
  facet normal 2.22045e-16 1 0
    outer loop
      vertex 5.5 2 29
      vertex 2.5 2 30
      vertex 7.5 2 30
    endloop
  endfacet
  facet normal 2.22045e-16 1 0
    outer loop
      vertex 4.55014 2 20.695
      vertex 2.5 2 30
      vertex 5.5 2 29
    endloop
  endfacet
  facet normal 2.22045e-16 1 0
    outer loop
      vertex 4.55014 2 20.695
      vertex 5.5 2 29
      vertex 5.5 2 23.3071
    endloop
  endfacet
  facet normal 2.22045e-16 1 0
    outer loop
      vertex 2.5 2 20
      vertex 2.5 2 30
      vertex 4.55014 2 20.695
    endloop
  endfacet
  facet normal 2.22045e-16 1 0
    outer loop
      vertex 2.5 2 20
      vertex 4.55014 2 20.695
      vertex 4.70878 2 20
    endloop
  endfacet
  facet normal 2.22045e-16 1 0
    outer loop
      vertex 5.5 2 29
      vertex 7.5 2 30
      vertex 7.5 2 29
    endloop
  endfacet
  facet normal 0 0 1
    outer loop
      vertex 4.5 -2 30
      vertex 2.5 -3 30
      vertex 7.5 -3 30
    endloop
  endfacet
  facet normal 0 0 1
    outer loop
      vertex 4.5 -2 30
      vertex 4.5 1 30
      vertex 2.5 2 30
    endloop
  endfacet
  facet normal 0 0 1
    outer loop
      vertex 2.5 2 30
      vertex 2.5 -3 30
      vertex 4.5 -2 30
    endloop
  endfacet
  facet normal 0 0 1
    outer loop
      vertex 7.5 1 30
      vertex 2.5 2 30
      vertex 4.5 1 30
    endloop
  endfacet
  facet normal 0 0 1
    outer loop
      vertex 7.5 2 30
      vertex 2.5 2 30
      vertex 7.5 1 30
    endloop
  endfacet
  facet normal 0 0 1
    outer loop
      vertex 7.5 -2 30
      vertex 4.5 -2 30
      vertex 7.5 -3 30
    endloop
  endfacet
  facet normal 1 -2.22045e-16 0
    outer loop
      vertex 7.5 -3 30
      vertex 7.5 -3 29
      vertex 7.5 -2 29
    endloop
  endfacet
  facet normal 1 -2.22045e-16 0
    outer loop
      vertex 7.5 -2 30
      vertex 7.5 -3 30
      vertex 7.5 -2 29
    endloop
  endfacet
  facet normal 0 0 -1
    outer loop
      vertex 7.5 -2 29
      vertex 7.5 -3 29
      vertex 5.5 -2 29
    endloop
  endfacet
  facet normal 0 0 -1
    outer loop
      vertex 5.5 -2 29
      vertex 7.5 -3 29
      vertex 5.5 -3 29
    endloop
  endfacet
  facet normal 1 -2.22045e-16 0
    outer loop
      vertex 5.5 -2 23.3071
      vertex 5.5 -2 29
      vertex 5.5 -3 29
    endloop
  endfacet
  facet normal 1 -2.22045e-16 0
    outer loop
      vertex 5.5 -3 23.3071
      vertex 5.5 -2 23.3071
      vertex 5.5 -3 29
    endloop
  endfacet
  facet normal 0.939793 -1.32794e-16 -0.341743
    outer loop
      vertex 4.55014 -2 20.695
      vertex 5.5 -2 23.3071
      vertex 5.5 -3 23.3071
    endloop
  endfacet
  facet normal 0.939793 -1.32794e-16 -0.341743
    outer loop
      vertex 4.55014 -3 20.695
      vertex 4.55014 -2 20.695
      vertex 5.5 -3 23.3071
    endloop
  endfacet
  facet normal 0.974928 -2.65887e-16 0.222521
    outer loop
      vertex 4.70878 -3 20
      vertex 4.70878 -2 20
      vertex 4.55014 -2 20.695
    endloop
  endfacet
  facet normal 0.974928 -2.65887e-16 0.222521
    outer loop
      vertex 4.55014 -3 20.695
      vertex 4.70878 -3 20
      vertex 4.55014 -2 20.695
    endloop
  endfacet
  facet normal 2.22045e-16 1 0
    outer loop
      vertex 7.5 -2 30
      vertex 7.5 -2 29
      vertex 4.5 -2 30
    endloop
  endfacet
  facet normal 2.22045e-16 1 0
    outer loop
      vertex 4.5 -2 30
      vertex 7.5 -2 29
      vertex 5.5 -2 29
    endloop
  endfacet
  facet normal 2.22045e-16 1 0
    outer loop
      vertex 4.5 -2 30
      vertex 5.5 -2 29
      vertex 5.5 -2 23.3071
    endloop
  endfacet
  facet normal 2.22045e-16 1 0
    outer loop
      vertex 4.5 -2 30
      vertex 5.5 -2 23.3071
      vertex 4.55014 -2 20.695
    endloop
  endfacet
  facet normal 2.22045e-16 1 0
    outer loop
      vertex 4.55014 -2 20.695
      vertex 4.70878 -2 20
      vertex 4.56155 -2 20
    endloop
  endfacet
  facet normal 2.22045e-16 1 0
    outer loop
      vertex 4.55014 -2 20.695
      vertex 4.56155 -2 20
      vertex 4.5 -2 20
    endloop
  endfacet
  facet normal 2.22045e-16 1 0
    outer loop
      vertex 4.55014 -2 20.695
      vertex 4.5 -2 20
      vertex 4.5 -2 30
    endloop
  endfacet
  facet normal 0 0 1
    outer loop
      vertex 4.56155 -2 20
      vertex 4.6194 -1.91342 20
      vertex 5 0 20
    endloop
  endfacet
  facet normal 0 0 1
    outer loop
      vertex 4.70878 1 20
      vertex 4.56155 -2 20
      vertex 5 0 20
    endloop
  endfacet
  facet normal 0 0 1
    outer loop
      vertex 4.70878 1.46405 20
      vertex 4.70878 1 20
      vertex 5 0 20
    endloop
  endfacet
  facet normal 0 0 1
    outer loop
      vertex 4.5 -2 20
      vertex 4.56155 -2 20
      vertex 4.5 1 20
    endloop
  endfacet
  facet normal 0 0 1
    outer loop
      vertex 4.70878 1 20
      vertex 4.5 1 20
      vertex 4.56155 -2 20
    endloop
  endfacet
  facet normal 0.980785 -0.19509 0
    outer loop
      vertex 4.6194 -1.91342 20
      vertex 4.6194 -1.91342 0
      vertex 5 0 0
    endloop
  endfacet
  facet normal 0.980785 -0.19509 0
    outer loop
      vertex 5 0 20
      vertex 4.6194 -1.91342 20
      vertex 5 0 0
    endloop
  endfacet
  facet normal -0.980785 0.19509 0
    outer loop
      vertex -5 0 0
      vertex -5 0 20
      vertex -4.6194 1.91342 0
    endloop
  endfacet
  facet normal -0.980785 0.19509 0
    outer loop
      vertex -4.6194 1.91342 0
      vertex -5 0 20
      vertex -4.6194 1.91342 20
    endloop
  endfacet
  facet normal -0.83147 0.55557 0
    outer loop
      vertex -3.53553 3.53553 10
      vertex -3.53553 3.53553 0
      vertex -4.56155 2 10
    endloop
  endfacet
  facet normal -0.83147 0.55557 0
    outer loop
      vertex -4.6194 1.91342 0
      vertex -4.6194 1.91342 20
      vertex -4.56155 2 10
    endloop
  endfacet
  facet normal -0.83147 0.55557 0
    outer loop
      vertex -4.6194 1.91342 0
      vertex -4.56155 2 10
      vertex -3.53553 3.53553 0
    endloop
  endfacet
  facet normal -0.83147 0.55557 0
    outer loop
      vertex -4.56155 2 10
      vertex -4.6194 1.91342 20
      vertex -4.56155 2 20
    endloop
  endfacet
  facet normal 0 1 0
    outer loop
      vertex -2.10134 2 20
      vertex -2.10134 2 10
      vertex -4.56155 2 20
    endloop
  endfacet
  facet normal 0 1 0
    outer loop
      vertex -4.56155 2 20
      vertex -2.10134 2 10
      vertex -4.56155 2 10
    endloop
  endfacet
  facet normal 0.980785 0.19509 0
    outer loop
      vertex 5 0 0
      vertex 4.6194 1.91342 0
      vertex 4.6194 1.91342 20
    endloop
  endfacet
  facet normal 0.980785 0.19509 0
    outer loop
      vertex 5 0 20
      vertex 5 0 0
      vertex 4.70878 1.46405 20
    endloop
  endfacet
  facet normal 0.980785 0.19509 0
    outer loop
      vertex 4.70878 1.46405 20
      vertex 5 0 0
      vertex 4.6194 1.91342 20
    endloop
  endfacet
  facet normal 0.83147 0.55557 0
    outer loop
      vertex 4.6194 1.91342 0
      vertex 3.53553 3.53553 0
      vertex 3.53553 3.53553 10
    endloop
  endfacet
  facet normal 0.83147 0.55557 0
    outer loop
      vertex 4.56155 2 20
      vertex 4.6194 1.91342 0
      vertex 4.56155 2 10
    endloop
  endfacet
  facet normal 0.83147 0.55557 0
    outer loop
      vertex 4.56155 2 10
      vertex 4.6194 1.91342 0
      vertex 3.53553 3.53553 10
    endloop
  endfacet
  facet normal 0.83147 0.55557 0
    outer loop
      vertex 4.6194 1.91342 20
      vertex 4.6194 1.91342 0
      vertex 4.56155 2 20
    endloop
  endfacet
  facet normal 0.55557 0.83147 0
    outer loop
      vertex 1.91342 4.6194 0
      vertex 1.91342 4.6194 10
      vertex 3.53553 3.53553 0
    endloop
  endfacet
  facet normal 0.55557 0.83147 0
    outer loop
      vertex 3.53553 3.53553 0
      vertex 1.91342 4.6194 10
      vertex 3.53553 3.53553 10
    endloop
  endfacet
  facet normal 0.19509 0.980785 0
    outer loop
      vertex 0 5 0
      vertex 0 5 10
      vertex 1.91342 4.6194 0
    endloop
  endfacet
  facet normal 0.19509 0.980785 0
    outer loop
      vertex 1.91342 4.6194 0
      vertex 0 5 10
      vertex 1.91342 4.6194 10
    endloop
  endfacet
  facet normal -0.19509 0.980785 0
    outer loop
      vertex -1.91342 4.6194 0
      vertex -1.91342 4.6194 10
      vertex 0 5 0
    endloop
  endfacet
  facet normal -0.19509 0.980785 0
    outer loop
      vertex 0 5 0
      vertex -1.91342 4.6194 10
      vertex 0 5 10
    endloop
  endfacet
  facet normal -0.55557 0.83147 0
    outer loop
      vertex -3.53553 3.53553 0
      vertex -3.53553 3.53553 10
      vertex -1.91342 4.6194 0
    endloop
  endfacet
  facet normal -0.55557 0.83147 0
    outer loop
      vertex -1.91342 4.6194 0
      vertex -3.53553 3.53553 10
      vertex -1.91342 4.6194 10
    endloop
  endfacet
  facet normal 0 -1 0
    outer loop
      vertex 0.927051 2.85317 0
      vertex 0.927051 2.85317 10
      vertex -0.927051 2.85317 10
    endloop
  endfacet
  facet normal 0 -1 0
    outer loop
      vertex -0.927051 2.85317 0
      vertex 0.927051 2.85317 0
      vertex -0.927051 2.85317 10
    endloop
  endfacet
  facet normal -0.587785 -0.809017 0
    outer loop
      vertex 2.42705 1.76336 0
      vertex 2.42705 1.76336 20
      vertex 2.10134 2 20
    endloop
  endfacet
  facet normal -0.587785 -0.809017 0
    outer loop
      vertex 0.927051 2.85317 10
      vertex 2.42705 1.76336 0
      vertex 2.10134 2 10
    endloop
  endfacet
  facet normal -0.587785 -0.809017 0
    outer loop
      vertex 2.10134 2 10
      vertex 2.42705 1.76336 0
      vertex 2.10134 2 20
    endloop
  endfacet
  facet normal -0.587785 -0.809017 0
    outer loop
      vertex 0.927051 2.85317 0
      vertex 2.42705 1.76336 0
      vertex 0.927051 2.85317 10
    endloop
  endfacet
  facet normal 0 0 1
    outer loop
      vertex 3.53553 3.53553 10
      vertex -0.927051 2.85317 10
      vertex 0.927051 2.85317 10
    endloop
  endfacet
  facet normal 0 0 1
    outer loop
      vertex -2.10134 2 10
      vertex -0.927051 2.85317 10
      vertex 0 5 10
    endloop
  endfacet
  facet normal 0 0 1
    outer loop
      vertex 2.10134 2 10
      vertex 4.56155 2 10
      vertex 0.927051 2.85317 10
    endloop
  endfacet
  facet normal 0 0 1
    outer loop
      vertex 4.56155 2 10
      vertex 3.53553 3.53553 10
      vertex 0.927051 2.85317 10
    endloop
  endfacet
  facet normal 0 0 1
    outer loop
      vertex 3.53553 3.53553 10
      vertex 1.91342 4.6194 10
      vertex -0.927051 2.85317 10
    endloop
  endfacet
  facet normal 0 0 1
    outer loop
      vertex 1.91342 4.6194 10
      vertex 0 5 10
      vertex -0.927051 2.85317 10
    endloop
  endfacet
  facet normal 0 0 1
    outer loop
      vertex 0 5 10
      vertex -1.91342 4.6194 10
      vertex -2.10134 2 10
    endloop
  endfacet
  facet normal 0 0 1
    outer loop
      vertex -1.91342 4.6194 10
      vertex -3.53553 3.53553 10
      vertex -2.10134 2 10
    endloop
  endfacet
  facet normal 0 0 1
    outer loop
      vertex -3.53553 3.53553 10
      vertex -4.56155 2 10
      vertex -2.10134 2 10
    endloop
  endfacet
  facet normal 0.974928 -2.65887e-16 0.222521
    outer loop
      vertex 4.70878 1.46405 20
      vertex 4.70878 2 20
      vertex 4.55014 2 20.695
    endloop
  endfacet
  facet normal 0.974928 -2.65887e-16 0.222521
    outer loop
      vertex 4.70878 1 20
      vertex 4.70878 1.46405 20
      vertex 4.55014 2 20.695
    endloop
  endfacet
  facet normal 0.974928 -2.65887e-16 0.222521
    outer loop
      vertex 4.55014 1 20.695
      vertex 4.70878 1 20
      vertex 4.55014 2 20.695
    endloop
  endfacet
  facet normal 0.939793 -1.32794e-16 -0.341743
    outer loop
      vertex 4.55014 2 20.695
      vertex 5.5 2 23.3071
      vertex 5.5 1 23.3071
    endloop
  endfacet
  facet normal 0.939793 -1.32794e-16 -0.341743
    outer loop
      vertex 4.55014 1 20.695
      vertex 4.55014 2 20.695
      vertex 5.5 1 23.3071
    endloop
  endfacet
  facet normal 1 -2.22045e-16 0
    outer loop
      vertex 5.5 2 23.3071
      vertex 5.5 2 29
      vertex 5.5 1 29
    endloop
  endfacet
  facet normal 1 -2.22045e-16 0
    outer loop
      vertex 5.5 1 23.3071
      vertex 5.5 2 23.3071
      vertex 5.5 1 29
    endloop
  endfacet
  facet normal 0 0 -1
    outer loop
      vertex 7.5 2 29
      vertex 7.5 1 29
      vertex 5.5 2 29
    endloop
  endfacet
  facet normal 0 0 -1
    outer loop
      vertex 5.5 2 29
      vertex 7.5 1 29
      vertex 5.5 1 29
    endloop
  endfacet
  facet normal 1 -2.22045e-16 0
    outer loop
      vertex 7.5 1 30
      vertex 7.5 1 29
      vertex 7.5 2 29
    endloop
  endfacet
  facet normal 1 -2.22045e-16 0
    outer loop
      vertex 7.5 2 30
      vertex 7.5 1 30
      vertex 7.5 2 29
    endloop
  endfacet
  facet normal -2.22045e-16 -1 0
    outer loop
      vertex 5.5 1 29
      vertex 4.55014 1 20.695
      vertex 5.5 1 23.3071
    endloop
  endfacet
  facet normal -2.22045e-16 -1 0
    outer loop
      vertex 4.5 1 30
      vertex 4.55014 1 20.695
      vertex 5.5 1 29
    endloop
  endfacet
  facet normal -2.22045e-16 -1 0
    outer loop
      vertex 4.5 1 20
      vertex 4.55014 1 20.695
      vertex 4.5 1 30
    endloop
  endfacet
  facet normal -2.22045e-16 -1 0
    outer loop
      vertex 7.5 1 30
      vertex 5.5 1 29
      vertex 7.5 1 29
    endloop
  endfacet
  facet normal -2.22045e-16 -1 0
    outer loop
      vertex 4.5 1 30
      vertex 5.5 1 29
      vertex 7.5 1 30
    endloop
  endfacet
  facet normal -2.22045e-16 -1 0
    outer loop
      vertex 4.70878 1 20
      vertex 4.55014 1 20.695
      vertex 4.5 1 20
    endloop
  endfacet
  facet normal 1 -2.22045e-16 0
    outer loop
      vertex 4.5 1 20
      vertex 4.5 1 30
      vertex 4.5 -2 30
    endloop
  endfacet
  facet normal 1 -2.22045e-16 0
    outer loop
      vertex 4.5 -2 20
      vertex 4.5 1 20
      vertex 4.5 -2 30
    endloop
  endfacet
endsolid OpenSCAD_Model
