solid OpenSCAD_Model
  facet normal -1 0 0
    outer loop
      vertex 0 0 0
      vertex 0 30 2
      vertex 0 30 0
    endloop
  endfacet
  facet normal -1 -0 0
    outer loop
      vertex 0 30 2
      vertex 0 0 0
      vertex 0 0 2
    endloop
  endfacet
  facet normal -0 0 1
    outer loop
      vertex 14.9271 6.76336 2
      vertex 25 0 2
      vertex 14.9271 23.2366 2
    endloop
  endfacet
  facet normal 0 0 1
    outer loop
      vertex 25 0 2
      vertex 14.9271 6.76336 2
      vertex 15.5 5 2
    endloop
  endfacet
  facet normal -0 0 1
    outer loop
      vertex 13.4271 22.1468 2
      vertex 14.9271 6.76336 2
      vertex 14.9271 23.2366 2
    endloop
  endfacet
  facet normal 0 0 1
    outer loop
      vertex 13.4271 22.1468 2
      vertex 13.4271 7.85317 2
      vertex 14.9271 6.76336 2
    endloop
  endfacet
  facet normal -0 0 1
    outer loop
      vertex 11.5729 22.1468 2
      vertex 13.4271 7.85317 2
      vertex 13.4271 22.1468 2
    endloop
  endfacet
  facet normal 0 0 1
    outer loop
      vertex 11.5729 22.1468 2
      vertex 11.5729 7.85317 2
      vertex 13.4271 7.85317 2
    endloop
  endfacet
  facet normal 0 0 1
    outer loop
      vertex 10.0729 23.2366 2
      vertex 11.5729 7.85317 2
      vertex 11.5729 22.1468 2
    endloop
  endfacet
  facet normal 0 0 1
    outer loop
      vertex 10.0729 23.2366 2
      vertex 10.0729 6.76336 2
      vertex 11.5729 7.85317 2
    endloop
  endfacet
  facet normal 0 0 1
    outer loop
      vertex 0 30 2
      vertex 10.0729 23.2366 2
      vertex 9.5 25 2
    endloop
  endfacet
  facet normal 0 0 1
    outer loop
      vertex 10.0729 23.2366 2
      vertex 0 30 2
      vertex 10.0729 6.76336 2
    endloop
  endfacet
  facet normal 0 0 1
    outer loop
      vertex 14.9271 23.2366 2
      vertex 25 30 2
      vertex 15.5 25 2
    endloop
  endfacet
  facet normal 0 0 1
    outer loop
      vertex 25 30 2
      vertex 14.9271 26.7634 2
      vertex 15.5 25 2
    endloop
  endfacet
  facet normal 0 0 1
    outer loop
      vertex 25 30 2
      vertex 13.4271 27.8532 2
      vertex 14.9271 26.7634 2
    endloop
  endfacet
  facet normal 0 0 1
    outer loop
      vertex 25 30 2
      vertex 11.5729 27.8532 2
      vertex 13.4271 27.8532 2
    endloop
  endfacet
  facet normal 0 0 1
    outer loop
      vertex 0 0 2
      vertex 10.0729 6.76336 2
      vertex 0 30 2
    endloop
  endfacet
  facet normal 0 0 1
    outer loop
      vertex 10.0729 26.7634 2
      vertex 0 30 2
      vertex 9.5 25 2
    endloop
  endfacet
  facet normal 0 0 1
    outer loop
      vertex 11.5729 27.8532 2
      vertex 0 30 2
      vertex 10.0729 26.7634 2
    endloop
  endfacet
  facet normal -0 0 1
    outer loop
      vertex 0 30 2
      vertex 11.5729 27.8532 2
      vertex 25 30 2
    endloop
  endfacet
  facet normal 0 0 1
    outer loop
      vertex 25 30 2
      vertex 14.9271 23.2366 2
      vertex 25 0 2
    endloop
  endfacet
  facet normal -0 0 1
    outer loop
      vertex 14.9271 3.23664 2
      vertex 25 0 2
      vertex 15.5 5 2
    endloop
  endfacet
  facet normal -0 0 1
    outer loop
      vertex 13.4271 2.14683 2
      vertex 25 0 2
      vertex 14.9271 3.23664 2
    endloop
  endfacet
  facet normal -0 0 1
    outer loop
      vertex 11.5729 2.14683 2
      vertex 25 0 2
      vertex 13.4271 2.14683 2
    endloop
  endfacet
  facet normal 0 0 1
    outer loop
      vertex 10.0729 6.76336 2
      vertex 0 0 2
      vertex 9.5 5 2
    endloop
  endfacet
  facet normal 0 0 1
    outer loop
      vertex 11.5729 2.14683 2
      vertex 0 0 2
      vertex 25 0 2
    endloop
  endfacet
  facet normal 0 0 1
    outer loop
      vertex 10.0729 3.23664 2
      vertex 0 0 2
      vertex 11.5729 2.14683 2
    endloop
  endfacet
  facet normal 0 0 1
    outer loop
      vertex 9.5 5 2
      vertex 0 0 2
      vertex 10.0729 3.23664 2
    endloop
  endfacet
  facet normal 1 -0 0
    outer loop
      vertex 25 0 2
      vertex 25 30 0
      vertex 25 30 2
    endloop
  endfacet
  facet normal 1 0 0
    outer loop
      vertex 25 30 0
      vertex 25 0 2
      vertex 25 0 0
    endloop
  endfacet
  facet normal 0 1 -0
    outer loop
      vertex 25 30 0
      vertex 0 30 2
      vertex 25 30 2
    endloop
  endfacet
  facet normal 0 1 0
    outer loop
      vertex 0 30 2
      vertex 25 30 0
      vertex 0 30 0
    endloop
  endfacet
  facet normal 0 0 -1
    outer loop
      vertex 14.9271 23.2366 0
      vertex 25 30 0
      vertex 14.9271 6.76336 0
    endloop
  endfacet
  facet normal 0 0 -1
    outer loop
      vertex 25 30 0
      vertex 14.9271 23.2366 0
      vertex 15.5 25 0
    endloop
  endfacet
  facet normal 0 0 -1
    outer loop
      vertex 13.4271 7.85317 0
      vertex 14.9271 23.2366 0
      vertex 14.9271 6.76336 0
    endloop
  endfacet
  facet normal 0 0 -1
    outer loop
      vertex 13.4271 7.85317 0
      vertex 13.4271 22.1468 0
      vertex 14.9271 23.2366 0
    endloop
  endfacet
  facet normal 0 0 -1
    outer loop
      vertex 11.5729 7.85317 0
      vertex 13.4271 22.1468 0
      vertex 13.4271 7.85317 0
    endloop
  endfacet
  facet normal 0 0 -1
    outer loop
      vertex 11.5729 7.85317 0
      vertex 11.5729 22.1468 0
      vertex 13.4271 22.1468 0
    endloop
  endfacet
  facet normal 0 0 -1
    outer loop
      vertex 10.0729 6.76336 0
      vertex 11.5729 22.1468 0
      vertex 11.5729 7.85317 0
    endloop
  endfacet
  facet normal 0 0 -1
    outer loop
      vertex 10.0729 6.76336 0
      vertex 10.0729 23.2366 0
      vertex 11.5729 22.1468 0
    endloop
  endfacet
  facet normal 0 0 -1
    outer loop
      vertex 0 0 0
      vertex 10.0729 6.76336 0
      vertex 9.5 5 0
    endloop
  endfacet
  facet normal -0 0 -1
    outer loop
      vertex 10.0729 6.76336 0
      vertex 0 0 0
      vertex 10.0729 23.2366 0
    endloop
  endfacet
  facet normal 0 0 -1
    outer loop
      vertex 14.9271 6.76336 0
      vertex 25 0 0
      vertex 15.5 5 0
    endloop
  endfacet
  facet normal 0 0 -1
    outer loop
      vertex 25 0 0
      vertex 14.9271 3.23664 0
      vertex 15.5 5 0
    endloop
  endfacet
  facet normal 0 0 -1
    outer loop
      vertex 25 0 0
      vertex 13.4271 2.14683 0
      vertex 14.9271 3.23664 0
    endloop
  endfacet
  facet normal 0 0 -1
    outer loop
      vertex 25 0 0
      vertex 11.5729 2.14683 0
      vertex 13.4271 2.14683 0
    endloop
  endfacet
  facet normal 0 0 -1
    outer loop
      vertex 0 30 0
      vertex 10.0729 23.2366 0
      vertex 0 0 0
    endloop
  endfacet
  facet normal -0 0 -1
    outer loop
      vertex 10.0729 3.23664 0
      vertex 0 0 0
      vertex 9.5 5 0
    endloop
  endfacet
  facet normal -0 0 -1
    outer loop
      vertex 11.5729 2.14683 0
      vertex 0 0 0
      vertex 10.0729 3.23664 0
    endloop
  endfacet
  facet normal 0 0 -1
    outer loop
      vertex 0 0 0
      vertex 11.5729 2.14683 0
      vertex 25 0 0
    endloop
  endfacet
  facet normal 0 0 -1
    outer loop
      vertex 25 0 0
      vertex 14.9271 6.76336 0
      vertex 25 30 0
    endloop
  endfacet
  facet normal 0 0 -1
    outer loop
      vertex 14.9271 26.7634 0
      vertex 25 30 0
      vertex 15.5 25 0
    endloop
  endfacet
  facet normal 0 0 -1
    outer loop
      vertex 13.4271 27.8532 0
      vertex 25 30 0
      vertex 14.9271 26.7634 0
    endloop
  endfacet
  facet normal 0 0 -1
    outer loop
      vertex 11.5729 27.8532 0
      vertex 25 30 0
      vertex 13.4271 27.8532 0
    endloop
  endfacet
  facet normal 0 0 -1
    outer loop
      vertex 10.0729 23.2366 0
      vertex 0 30 0
      vertex 9.5 25 0
    endloop
  endfacet
  facet normal 0 0 -1
    outer loop
      vertex 11.5729 27.8532 0
      vertex 0 30 0
      vertex 25 30 0
    endloop
  endfacet
  facet normal 0 0 -1
    outer loop
      vertex 10.0729 26.7634 0
      vertex 0 30 0
      vertex 11.5729 27.8532 0
    endloop
  endfacet
  facet normal 0 0 -1
    outer loop
      vertex 9.5 25 0
      vertex 0 30 0
      vertex 10.0729 26.7634 0
    endloop
  endfacet
  facet normal 0 -1 0
    outer loop
      vertex 0 0 0
      vertex 25 0 2
      vertex 0 0 2
    endloop
  endfacet
  facet normal 0 -1 -0
    outer loop
      vertex 25 0 2
      vertex 0 0 0
      vertex 25 0 0
    endloop
  endfacet
  facet normal -0.951056 -0.309017 0
    outer loop
      vertex 15.5 5 0
      vertex 14.9271 6.76336 2
      vertex 14.9271 6.76336 0
    endloop
  endfacet
  facet normal -0.951056 -0.309017 0
    outer loop
      vertex 14.9271 6.76336 2
      vertex 15.5 5 0
      vertex 15.5 5 2
    endloop
  endfacet
  facet normal 0.951057 0.309017 0
    outer loop
      vertex 10.0729 3.23664 2
      vertex 9.5 5 0
      vertex 9.5 5 2
    endloop
  endfacet
  facet normal 0.951057 0.309017 0
    outer loop
      vertex 9.5 5 0
      vertex 10.0729 3.23664 2
      vertex 10.0729 3.23664 0
    endloop
  endfacet
  facet normal 0 -1 0
    outer loop
      vertex 11.5729 7.85317 0
      vertex 13.4271 7.85317 2
      vertex 11.5729 7.85317 2
    endloop
  endfacet
  facet normal 0 -1 -0
    outer loop
      vertex 13.4271 7.85317 2
      vertex 11.5729 7.85317 0
      vertex 13.4271 7.85317 0
    endloop
  endfacet
  facet normal -0.587785 -0.809017 0
    outer loop
      vertex 13.4271 7.85317 0
      vertex 14.9271 6.76336 2
      vertex 13.4271 7.85317 2
    endloop
  endfacet
  facet normal -0.587785 -0.809017 -0
    outer loop
      vertex 14.9271 6.76336 2
      vertex 13.4271 7.85317 0
      vertex 14.9271 6.76336 0
    endloop
  endfacet
  facet normal 0.587785 -0.809017 0
    outer loop
      vertex 10.0729 6.76336 0
      vertex 11.5729 7.85317 2
      vertex 10.0729 6.76336 2
    endloop
  endfacet
  facet normal 0.587785 -0.809017 0
    outer loop
      vertex 11.5729 7.85317 2
      vertex 10.0729 6.76336 0
      vertex 11.5729 7.85317 0
    endloop
  endfacet
  facet normal -0.587785 0.809017 0
    outer loop
      vertex 14.9271 3.23664 0
      vertex 13.4271 2.14683 2
      vertex 14.9271 3.23664 2
    endloop
  endfacet
  facet normal -0.587785 0.809017 0
    outer loop
      vertex 13.4271 2.14683 2
      vertex 14.9271 3.23664 0
      vertex 13.4271 2.14683 0
    endloop
  endfacet
  facet normal 0.587785 0.809017 -0
    outer loop
      vertex 11.5729 2.14683 0
      vertex 10.0729 3.23664 2
      vertex 11.5729 2.14683 2
    endloop
  endfacet
  facet normal 0.587785 0.809017 0
    outer loop
      vertex 10.0729 3.23664 2
      vertex 11.5729 2.14683 0
      vertex 10.0729 3.23664 0
    endloop
  endfacet
  facet normal 0.951057 -0.309017 0
    outer loop
      vertex 9.5 5 2
      vertex 10.0729 6.76336 0
      vertex 10.0729 6.76336 2
    endloop
  endfacet
  facet normal 0.951057 -0.309017 0
    outer loop
      vertex 10.0729 6.76336 0
      vertex 9.5 5 2
      vertex 9.5 5 0
    endloop
  endfacet
  facet normal -0.951056 0.309017 0
    outer loop
      vertex 14.9271 3.23664 0
      vertex 15.5 5 2
      vertex 15.5 5 0
    endloop
  endfacet
  facet normal -0.951056 0.309017 0
    outer loop
      vertex 15.5 5 2
      vertex 14.9271 3.23664 0
      vertex 14.9271 3.23664 2
    endloop
  endfacet
  facet normal 0 1 -0
    outer loop
      vertex 13.4271 2.14683 0
      vertex 11.5729 2.14683 2
      vertex 13.4271 2.14683 2
    endloop
  endfacet
  facet normal 0 1 0
    outer loop
      vertex 11.5729 2.14683 2
      vertex 13.4271 2.14683 0
      vertex 11.5729 2.14683 0
    endloop
  endfacet
  facet normal -0.951056 -0.309017 0
    outer loop
      vertex 15.5 25 0
      vertex 14.9271 26.7634 2
      vertex 14.9271 26.7634 0
    endloop
  endfacet
  facet normal -0.951056 -0.309017 0
    outer loop
      vertex 14.9271 26.7634 2
      vertex 15.5 25 0
      vertex 15.5 25 2
    endloop
  endfacet
  facet normal 0 -1 0
    outer loop
      vertex 11.5729 27.8532 0
      vertex 13.4271 27.8532 2
      vertex 11.5729 27.8532 2
    endloop
  endfacet
  facet normal 0 -1 -0
    outer loop
      vertex 13.4271 27.8532 2
      vertex 11.5729 27.8532 0
      vertex 13.4271 27.8532 0
    endloop
  endfacet
  facet normal -0.587785 -0.809017 0
    outer loop
      vertex 13.4271 27.8532 0
      vertex 14.9271 26.7634 2
      vertex 13.4271 27.8532 2
    endloop
  endfacet
  facet normal -0.587785 -0.809017 -0
    outer loop
      vertex 14.9271 26.7634 2
      vertex 13.4271 27.8532 0
      vertex 14.9271 26.7634 0
    endloop
  endfacet
  facet normal 0.587785 -0.809017 0
    outer loop
      vertex 10.0729 26.7634 0
      vertex 11.5729 27.8532 2
      vertex 10.0729 26.7634 2
    endloop
  endfacet
  facet normal 0.587785 -0.809017 0
    outer loop
      vertex 11.5729 27.8532 2
      vertex 10.0729 26.7634 0
      vertex 11.5729 27.8532 0
    endloop
  endfacet
  facet normal -0.587786 0.809017 0
    outer loop
      vertex 14.9271 23.2366 0
      vertex 13.4271 22.1468 2
      vertex 14.9271 23.2366 2
    endloop
  endfacet
  facet normal -0.587786 0.809017 0
    outer loop
      vertex 13.4271 22.1468 2
      vertex 14.9271 23.2366 0
      vertex 13.4271 22.1468 0
    endloop
  endfacet
  facet normal 0.587786 0.809017 -0
    outer loop
      vertex 11.5729 22.1468 0
      vertex 10.0729 23.2366 2
      vertex 11.5729 22.1468 2
    endloop
  endfacet
  facet normal 0.587786 0.809017 0
    outer loop
      vertex 10.0729 23.2366 2
      vertex 11.5729 22.1468 0
      vertex 10.0729 23.2366 0
    endloop
  endfacet
  facet normal 0.951057 -0.309017 0
    outer loop
      vertex 9.5 25 2
      vertex 10.0729 26.7634 0
      vertex 10.0729 26.7634 2
    endloop
  endfacet
  facet normal 0.951057 -0.309017 0
    outer loop
      vertex 10.0729 26.7634 0
      vertex 9.5 25 2
      vertex 9.5 25 0
    endloop
  endfacet
  facet normal -0.951056 0.309017 0
    outer loop
      vertex 14.9271 23.2366 0
      vertex 15.5 25 2
      vertex 15.5 25 0
    endloop
  endfacet
  facet normal -0.951056 0.309017 0
    outer loop
      vertex 15.5 25 2
      vertex 14.9271 23.2366 0
      vertex 14.9271 23.2366 2
    endloop
  endfacet
  facet normal 0 1 -0
    outer loop
      vertex 13.4271 22.1468 0
      vertex 11.5729 22.1468 2
      vertex 13.4271 22.1468 2
    endloop
  endfacet
  facet normal 0 1 0
    outer loop
      vertex 11.5729 22.1468 2
      vertex 13.4271 22.1468 0
      vertex 11.5729 22.1468 0
    endloop
  endfacet
  facet normal 0.951057 0.309017 0
    outer loop
      vertex 10.0729 23.2366 2
      vertex 9.5 25 0
      vertex 9.5 25 2
    endloop
  endfacet
  facet normal 0.951057 0.309017 0
    outer loop
      vertex 9.5 25 0
      vertex 10.0729 23.2366 2
      vertex 10.0729 23.2366 0
    endloop
  endfacet
endsolid OpenSCAD_Model
